G04 #@! TF.GenerationSoftware,KiCad,Pcbnew,(5.1.9)-1*
G04 #@! TF.CreationDate,2021-05-25T17:42:19-04:00*
G04 #@! TF.ProjectId,Mainpcb,4d61696e-7063-4622-9e6b-696361645f70,rev?*
G04 #@! TF.SameCoordinates,Original*
G04 #@! TF.FileFunction,Soldermask,Top*
G04 #@! TF.FilePolarity,Negative*
%FSLAX46Y46*%
G04 Gerber Fmt 4.6, Leading zero omitted, Abs format (unit mm)*
G04 Created by KiCad (PCBNEW (5.1.9)-1) date 2021-05-25 17:42:19*
%MOMM*%
%LPD*%
G01*
G04 APERTURE LIST*
%ADD10C,3.500000*%
%ADD11C,5.300000*%
%ADD12C,2.200000*%
%ADD13C,1.600000*%
%ADD14R,1.600000X1.600000*%
%ADD15R,2.000000X2.000000*%
%ADD16C,2.000000*%
%ADD17R,3.200000X2.000000*%
%ADD18R,1.550000X1.300000*%
%ADD19C,3.000000*%
%ADD20C,3.987800*%
%ADD21C,1.701800*%
%ADD22R,1.752600X1.752600*%
%ADD23C,1.752600*%
G04 APERTURE END LIST*
D10*
X273850000Y-116684000D03*
X273850000Y-21431700D03*
X197648000Y-116684000D03*
X197648000Y-59532500D03*
X197648000Y-21431700D03*
X121446000Y-116684000D03*
X121446000Y-59532500D03*
X121446000Y-21431700D03*
X45244700Y-116684000D03*
X45244700Y-21431700D03*
D11*
X30956900Y-28575600D03*
D12*
X269087000Y-116684000D03*
X269087000Y-21431700D03*
X159547000Y-116684000D03*
X159547000Y-59532500D03*
X159547000Y-21431700D03*
X50007300Y-116684000D03*
X50007300Y-21431700D03*
X30956900Y-61913800D03*
X21431700Y-116684000D03*
X21431700Y-21431700D03*
D13*
X45244700Y-69920300D03*
D14*
X45244700Y-77720300D03*
D13*
X265843000Y-114302000D03*
D14*
X258043000Y-114302000D03*
D13*
X249174000Y-111921000D03*
D14*
X241374000Y-111921000D03*
D13*
X230124000Y-114302000D03*
D14*
X222324000Y-114302000D03*
D13*
X211073000Y-111921000D03*
D14*
X203273000Y-111921000D03*
D13*
X192023000Y-114302000D03*
D14*
X184223000Y-114302000D03*
D13*
X163447000Y-111921000D03*
D14*
X155647000Y-111921000D03*
D13*
X134872000Y-111921000D03*
D14*
X127072000Y-111921000D03*
D13*
X115821000Y-114302000D03*
D14*
X108021000Y-114302000D03*
D13*
X96770700Y-111921000D03*
D14*
X88970700Y-111921000D03*
D13*
X77720300Y-114302000D03*
D14*
X69920300Y-114302000D03*
D13*
X58669900Y-111921000D03*
D14*
X50869900Y-111921000D03*
D13*
X268224000Y-95252000D03*
D14*
X260424000Y-95252000D03*
D13*
X249174000Y-92870700D03*
D14*
X241374000Y-92870700D03*
D13*
X230124000Y-95252000D03*
D14*
X222324000Y-95252000D03*
D13*
X211073000Y-92870700D03*
D14*
X203273000Y-92870700D03*
D13*
X192023000Y-95252000D03*
D14*
X184223000Y-95252000D03*
D13*
X172972000Y-92870700D03*
D14*
X165172000Y-92870700D03*
D13*
X153922000Y-95252000D03*
D14*
X146122000Y-95252000D03*
D13*
X134872000Y-92870700D03*
D14*
X127072000Y-92870700D03*
D13*
X115821000Y-95252000D03*
D14*
X108021000Y-95252000D03*
D13*
X96770700Y-92870700D03*
D14*
X88970700Y-92870700D03*
D13*
X77720300Y-95252000D03*
D14*
X69920300Y-95252000D03*
D13*
X58669900Y-92870700D03*
D14*
X50869900Y-92870700D03*
D13*
X268224000Y-76201600D03*
D14*
X260424000Y-76201600D03*
D13*
X249174000Y-73820300D03*
D14*
X241374000Y-73820300D03*
D13*
X230124000Y-76201600D03*
D14*
X222324000Y-76201600D03*
D13*
X211073000Y-73820300D03*
D14*
X203273000Y-73820300D03*
D13*
X192023000Y-76201600D03*
D14*
X184223000Y-76201600D03*
D13*
X172972000Y-73820300D03*
D14*
X165172000Y-73820300D03*
D13*
X153922000Y-76201600D03*
D14*
X146122000Y-76201600D03*
D13*
X134872000Y-73820300D03*
D14*
X127072000Y-73820300D03*
D13*
X115821000Y-76201600D03*
D14*
X108021000Y-76201600D03*
D13*
X96770700Y-73820300D03*
D14*
X88970700Y-73820300D03*
D13*
X77720300Y-76201600D03*
D14*
X69920300Y-76201600D03*
D13*
X58669900Y-73820300D03*
D14*
X50869900Y-73820300D03*
D13*
X268224000Y-57151200D03*
D14*
X260424000Y-57151200D03*
X241374000Y-54769900D03*
D13*
X249174000Y-54769900D03*
X230124000Y-57151200D03*
D14*
X222324000Y-57151200D03*
D13*
X211073000Y-54769900D03*
D14*
X203273000Y-54769900D03*
D13*
X192023000Y-57151200D03*
D14*
X184223000Y-57151200D03*
D13*
X172972000Y-54769900D03*
D14*
X165172000Y-54769900D03*
D13*
X153922000Y-57151200D03*
D14*
X146122000Y-57151200D03*
D13*
X134872000Y-54769900D03*
D14*
X127072000Y-54769900D03*
D13*
X115821000Y-57151200D03*
D14*
X108021000Y-57151200D03*
D13*
X96770700Y-54769900D03*
D14*
X88970700Y-54769900D03*
D13*
X77720300Y-57151200D03*
D14*
X69920300Y-57151200D03*
D13*
X58669900Y-54769900D03*
D14*
X50869900Y-54769900D03*
D13*
X268224000Y-38100800D03*
D14*
X260424000Y-38100800D03*
D13*
X249174000Y-35719500D03*
D14*
X241374000Y-35719500D03*
D13*
X230124000Y-38100800D03*
D14*
X222324000Y-38100800D03*
D13*
X211073000Y-35719500D03*
D14*
X203273000Y-35719500D03*
D13*
X192023000Y-38100800D03*
D14*
X184223000Y-38100800D03*
D13*
X172972000Y-35719500D03*
D14*
X165172000Y-35719500D03*
D13*
X153922000Y-38100800D03*
D14*
X146122000Y-38100800D03*
D13*
X134872000Y-35719500D03*
D14*
X127072000Y-35719500D03*
D13*
X115821000Y-38100800D03*
D14*
X108021000Y-38100800D03*
D13*
X96770700Y-35719500D03*
D14*
X88970700Y-35719500D03*
D13*
X77720300Y-38100800D03*
D14*
X69920300Y-38100800D03*
D13*
X58669900Y-35719500D03*
D14*
X50869900Y-35719500D03*
D15*
X23456900Y-68939000D03*
D16*
X23456900Y-71439000D03*
X23456900Y-73939000D03*
D17*
X30956900Y-77039000D03*
D16*
X37956900Y-68939000D03*
X37956900Y-73939000D03*
D17*
X30956900Y-65839000D03*
D18*
X26981900Y-85595500D03*
X26981900Y-81095500D03*
X34931900Y-81095500D03*
X34931900Y-85595500D03*
D19*
X266860000Y-102077000D03*
X260510000Y-104617000D03*
D20*
X264320000Y-107157000D03*
D21*
X269400000Y-107157000D03*
X259240000Y-107157000D03*
D19*
X247810000Y-102077000D03*
X241460000Y-104617000D03*
D20*
X245270000Y-107157000D03*
D21*
X250350000Y-107157000D03*
X240190000Y-107157000D03*
D19*
X228760000Y-102077000D03*
X222410000Y-104617000D03*
D20*
X226220000Y-107157000D03*
D21*
X231300000Y-107157000D03*
X221140000Y-107157000D03*
D19*
X209710000Y-102077000D03*
X203360000Y-104617000D03*
D20*
X207170000Y-107157000D03*
D21*
X212250000Y-107157000D03*
X202090000Y-107157000D03*
D19*
X190660000Y-102077000D03*
X184310000Y-104617000D03*
D20*
X188120000Y-107157000D03*
D21*
X193200000Y-107157000D03*
X183040000Y-107157000D03*
D19*
X162085000Y-102077000D03*
X155735000Y-104617000D03*
D20*
X159545000Y-107157000D03*
D21*
X164625000Y-107157000D03*
X154465000Y-107157000D03*
D19*
X133510000Y-102077000D03*
X127160000Y-104617000D03*
D20*
X130970000Y-107157000D03*
D21*
X136050000Y-107157000D03*
X125890000Y-107157000D03*
D19*
X114460000Y-102077000D03*
X108110000Y-104617000D03*
D20*
X111920000Y-107157000D03*
D21*
X117000000Y-107157000D03*
X106840000Y-107157000D03*
D19*
X95409700Y-102077000D03*
X89059700Y-104617000D03*
D20*
X92869700Y-107157000D03*
D21*
X97949700Y-107157000D03*
X87789700Y-107157000D03*
D19*
X76359700Y-102077000D03*
X70009700Y-104617000D03*
D20*
X73819700Y-107157000D03*
D21*
X78899700Y-107157000D03*
X68739700Y-107157000D03*
D19*
X57309700Y-102077000D03*
X50959700Y-104617000D03*
D20*
X54769700Y-107157000D03*
D21*
X59849700Y-107157000D03*
X49689700Y-107157000D03*
D19*
X266860000Y-83026700D03*
X260510000Y-85566700D03*
D20*
X264320000Y-88106700D03*
D21*
X269400000Y-88106700D03*
X259240000Y-88106700D03*
D19*
X247810000Y-83026700D03*
X241460000Y-85566700D03*
D20*
X245270000Y-88106700D03*
D21*
X250350000Y-88106700D03*
X240190000Y-88106700D03*
D19*
X228760000Y-83026700D03*
X222410000Y-85566700D03*
D20*
X226220000Y-88106700D03*
D21*
X231300000Y-88106700D03*
X221140000Y-88106700D03*
D19*
X209710000Y-83026700D03*
X203360000Y-85566700D03*
D20*
X207170000Y-88106700D03*
D21*
X212250000Y-88106700D03*
X202090000Y-88106700D03*
D19*
X190660000Y-83026700D03*
X184310000Y-85566700D03*
D20*
X188120000Y-88106700D03*
D21*
X193200000Y-88106700D03*
X183040000Y-88106700D03*
D19*
X171610000Y-83026700D03*
X165260000Y-85566700D03*
D20*
X169070000Y-88106700D03*
D21*
X174150000Y-88106700D03*
X163990000Y-88106700D03*
D19*
X152560000Y-83026700D03*
X146210000Y-85566700D03*
D20*
X150020000Y-88106700D03*
D21*
X155100000Y-88106700D03*
X144940000Y-88106700D03*
D19*
X133510000Y-83026700D03*
X127160000Y-85566700D03*
D20*
X130970000Y-88106700D03*
D21*
X136050000Y-88106700D03*
X125890000Y-88106700D03*
D19*
X114460000Y-83026700D03*
X108110000Y-85566700D03*
D20*
X111920000Y-88106700D03*
D21*
X117000000Y-88106700D03*
X106840000Y-88106700D03*
D19*
X95409700Y-83026700D03*
X89059700Y-85566700D03*
D20*
X92869700Y-88106700D03*
D21*
X97949700Y-88106700D03*
X87789700Y-88106700D03*
D19*
X76359700Y-83026700D03*
X70009700Y-85566700D03*
D20*
X73819700Y-88106700D03*
D21*
X78899700Y-88106700D03*
X68739700Y-88106700D03*
D19*
X57309700Y-83026700D03*
X50959700Y-85566700D03*
D20*
X54769700Y-88106700D03*
D21*
X59849700Y-88106700D03*
X49689700Y-88106700D03*
D19*
X266860000Y-63976700D03*
X260510000Y-66516700D03*
D20*
X264320000Y-69056700D03*
D21*
X269400000Y-69056700D03*
X259240000Y-69056700D03*
D19*
X247810000Y-63976700D03*
X241460000Y-66516700D03*
D20*
X245270000Y-69056700D03*
D21*
X250350000Y-69056700D03*
X240190000Y-69056700D03*
D19*
X228760000Y-63976700D03*
X222410000Y-66516700D03*
D20*
X226220000Y-69056700D03*
D21*
X231300000Y-69056700D03*
X221140000Y-69056700D03*
D19*
X209710000Y-63976700D03*
X203360000Y-66516700D03*
D20*
X207170000Y-69056700D03*
D21*
X212250000Y-69056700D03*
X202090000Y-69056700D03*
D19*
X190660000Y-63976700D03*
X184310000Y-66516700D03*
D20*
X188120000Y-69056700D03*
D21*
X193200000Y-69056700D03*
X183040000Y-69056700D03*
D19*
X171610000Y-63976700D03*
X165260000Y-66516700D03*
D20*
X169070000Y-69056700D03*
D21*
X174150000Y-69056700D03*
X163990000Y-69056700D03*
D19*
X152560000Y-63976700D03*
X146210000Y-66516700D03*
D20*
X150020000Y-69056700D03*
D21*
X155100000Y-69056700D03*
X144940000Y-69056700D03*
D19*
X133510000Y-63976700D03*
X127160000Y-66516700D03*
D20*
X130970000Y-69056700D03*
D21*
X136050000Y-69056700D03*
X125890000Y-69056700D03*
D19*
X114460000Y-63976700D03*
X108110000Y-66516700D03*
D20*
X111920000Y-69056700D03*
D21*
X117000000Y-69056700D03*
X106840000Y-69056700D03*
D19*
X95409700Y-63976700D03*
X89059700Y-66516700D03*
D20*
X92869700Y-69056700D03*
D21*
X97949700Y-69056700D03*
X87789700Y-69056700D03*
D19*
X76359700Y-63976700D03*
X70009700Y-66516700D03*
D20*
X73819700Y-69056700D03*
D21*
X78899700Y-69056700D03*
X68739700Y-69056700D03*
D19*
X57309700Y-63976700D03*
X50959700Y-66516700D03*
D20*
X54769700Y-69056700D03*
D21*
X59849700Y-69056700D03*
X49689700Y-69056700D03*
D19*
X266860000Y-44926700D03*
X260510000Y-47466700D03*
D20*
X264320000Y-50006700D03*
D21*
X269400000Y-50006700D03*
X259240000Y-50006700D03*
D19*
X247810000Y-44926700D03*
X241460000Y-47466700D03*
D20*
X245270000Y-50006700D03*
D21*
X250350000Y-50006700D03*
X240190000Y-50006700D03*
D19*
X228760000Y-44926700D03*
X222410000Y-47466700D03*
D20*
X226220000Y-50006700D03*
D21*
X231300000Y-50006700D03*
X221140000Y-50006700D03*
D19*
X209710000Y-44926700D03*
X203360000Y-47466700D03*
D20*
X207170000Y-50006700D03*
D21*
X212250000Y-50006700D03*
X202090000Y-50006700D03*
D19*
X190660000Y-44926700D03*
X184310000Y-47466700D03*
D20*
X188120000Y-50006700D03*
D21*
X193200000Y-50006700D03*
X183040000Y-50006700D03*
D19*
X171610000Y-44926700D03*
X165260000Y-47466700D03*
D20*
X169070000Y-50006700D03*
D21*
X174150000Y-50006700D03*
X163990000Y-50006700D03*
D19*
X152560000Y-44926700D03*
X146210000Y-47466700D03*
D20*
X150020000Y-50006700D03*
D21*
X155100000Y-50006700D03*
X144940000Y-50006700D03*
D19*
X133510000Y-44926700D03*
X127160000Y-47466700D03*
D20*
X130970000Y-50006700D03*
D21*
X136050000Y-50006700D03*
X125890000Y-50006700D03*
D19*
X114460000Y-44926700D03*
X108110000Y-47466700D03*
D20*
X111920000Y-50006700D03*
D21*
X117000000Y-50006700D03*
X106840000Y-50006700D03*
D19*
X95409700Y-44926700D03*
X89059700Y-47466700D03*
D20*
X92869700Y-50006700D03*
D21*
X97949700Y-50006700D03*
X87789700Y-50006700D03*
D19*
X76359700Y-44926700D03*
X70009700Y-47466700D03*
D20*
X73819700Y-50006700D03*
D21*
X78899700Y-50006700D03*
X68739700Y-50006700D03*
D19*
X57309700Y-44926700D03*
X50959700Y-47466700D03*
D20*
X54769700Y-50006700D03*
D21*
X59849700Y-50006700D03*
X49689700Y-50006700D03*
D19*
X266860000Y-25876700D03*
X260510000Y-28416700D03*
D20*
X264320000Y-30956700D03*
D21*
X269400000Y-30956700D03*
X259240000Y-30956700D03*
D19*
X247810000Y-25876700D03*
X241460000Y-28416700D03*
D20*
X245270000Y-30956700D03*
D21*
X250350000Y-30956700D03*
X240190000Y-30956700D03*
D19*
X228760000Y-25876700D03*
X222410000Y-28416700D03*
D20*
X226220000Y-30956700D03*
D21*
X231300000Y-30956700D03*
X221140000Y-30956700D03*
D19*
X209710000Y-25876700D03*
X203360000Y-28416700D03*
D20*
X207170000Y-30956700D03*
D21*
X212250000Y-30956700D03*
X202090000Y-30956700D03*
D19*
X190660000Y-25876700D03*
X184310000Y-28416700D03*
D20*
X188120000Y-30956700D03*
D21*
X193200000Y-30956700D03*
X183040000Y-30956700D03*
D19*
X171610000Y-25876700D03*
X165260000Y-28416700D03*
D20*
X169070000Y-30956700D03*
D21*
X174150000Y-30956700D03*
X163990000Y-30956700D03*
D19*
X152560000Y-25876700D03*
X146210000Y-28416700D03*
D20*
X150020000Y-30956700D03*
D21*
X155100000Y-30956700D03*
X144940000Y-30956700D03*
D19*
X133510000Y-25876700D03*
X127160000Y-28416700D03*
D20*
X130970000Y-30956700D03*
D21*
X136050000Y-30956700D03*
X125890000Y-30956700D03*
D19*
X114460000Y-25876700D03*
X108110000Y-28416700D03*
D20*
X111920000Y-30956700D03*
D21*
X117000000Y-30956700D03*
X106840000Y-30956700D03*
D19*
X95409700Y-25876700D03*
X89059700Y-28416700D03*
D20*
X92869700Y-30956700D03*
D21*
X97949700Y-30956700D03*
X87789700Y-30956700D03*
D19*
X76359700Y-25876700D03*
X70009700Y-28416700D03*
D20*
X73819700Y-30956700D03*
D21*
X78899700Y-30956700D03*
X68739700Y-30956700D03*
D19*
X57309700Y-25876700D03*
X50959700Y-28416700D03*
D20*
X54769700Y-30956700D03*
D21*
X59849700Y-30956700D03*
X49689700Y-30956700D03*
D22*
X38805500Y-28893400D03*
D23*
X38348300Y-31433400D03*
X38805500Y-33973400D03*
X38348300Y-36513400D03*
X38805500Y-39053400D03*
X38348300Y-41593400D03*
X38805500Y-44133400D03*
X38348300Y-46673400D03*
X38805500Y-49213400D03*
X38348300Y-51753400D03*
X38805500Y-54293400D03*
X23565500Y-56833400D03*
X23108300Y-54293400D03*
X23565500Y-51753400D03*
X23108300Y-49213400D03*
X23565500Y-46673400D03*
X23108300Y-44133400D03*
X23565500Y-41593400D03*
X23108300Y-39053400D03*
X23565500Y-36513400D03*
X23108300Y-33973400D03*
X23565500Y-31433400D03*
X38348300Y-56833400D03*
X23108300Y-28893400D03*
M02*
