G04 #@! TF.GenerationSoftware,KiCad,Pcbnew,(5.1.9)-1*
G04 #@! TF.CreationDate,2021-06-18T19:30:07-04:00*
G04 #@! TF.ProjectId,Mainpcb,4d61696e-7063-4622-9e6b-696361645f70,rev?*
G04 #@! TF.SameCoordinates,Original*
G04 #@! TF.FileFunction,Legend,Bot*
G04 #@! TF.FilePolarity,Positive*
%FSLAX46Y46*%
G04 Gerber Fmt 4.6, Leading zero omitted, Abs format (unit mm)*
G04 Created by KiCad (PCBNEW (5.1.9)-1) date 2021-06-18 19:30:07*
%MOMM*%
%LPD*%
G01*
G04 APERTURE LIST*
%ADD10C,0.200000*%
%ADD11C,0.150000*%
%ADD12C,0.381000*%
G04 APERTURE END LIST*
D10*
X46444700Y-76095300D02*
X44044700Y-76095300D01*
X46444700Y-76270300D02*
X44044700Y-76270300D01*
X46444700Y-76445300D02*
X44044700Y-76445300D01*
X44044700Y-76845300D02*
X46444700Y-76845300D01*
X46444700Y-76620300D02*
X44044700Y-76620300D01*
X46444700Y-76745300D02*
X44044700Y-76745300D01*
X46444700Y-76820300D02*
X46444700Y-71020300D01*
X46444700Y-71020300D02*
X44044700Y-71020300D01*
X44044700Y-71020300D02*
X44044700Y-76820300D01*
X257287000Y-117883000D02*
X257287000Y-115483000D01*
X257112000Y-117883000D02*
X257112000Y-115483000D01*
X256937000Y-117883000D02*
X256937000Y-115483000D01*
X256537000Y-115483000D02*
X256537000Y-117883000D01*
X256762000Y-117883000D02*
X256762000Y-115483000D01*
X256637000Y-117883000D02*
X256637000Y-115483000D01*
X256562000Y-117883000D02*
X262362000Y-117883000D01*
X262362000Y-117883000D02*
X262362000Y-115483000D01*
X262362000Y-115483000D02*
X256562000Y-115483000D01*
X242999000Y-117884000D02*
X242999000Y-115484000D01*
X242824000Y-117884000D02*
X242824000Y-115484000D01*
X242649000Y-117884000D02*
X242649000Y-115484000D01*
X242249000Y-115484000D02*
X242249000Y-117884000D01*
X242474000Y-117884000D02*
X242474000Y-115484000D01*
X242349000Y-117884000D02*
X242349000Y-115484000D01*
X242274000Y-117884000D02*
X248074000Y-117884000D01*
X248074000Y-117884000D02*
X248074000Y-115484000D01*
X248074000Y-115484000D02*
X242274000Y-115484000D01*
X223949000Y-117883000D02*
X223949000Y-115483000D01*
X223774000Y-117883000D02*
X223774000Y-115483000D01*
X223599000Y-117883000D02*
X223599000Y-115483000D01*
X223199000Y-115483000D02*
X223199000Y-117883000D01*
X223424000Y-117883000D02*
X223424000Y-115483000D01*
X223299000Y-117883000D02*
X223299000Y-115483000D01*
X223224000Y-117883000D02*
X229024000Y-117883000D01*
X229024000Y-117883000D02*
X229024000Y-115483000D01*
X229024000Y-115483000D02*
X223224000Y-115483000D01*
X204898000Y-117884000D02*
X204898000Y-115484000D01*
X204723000Y-117884000D02*
X204723000Y-115484000D01*
X204548000Y-117884000D02*
X204548000Y-115484000D01*
X204148000Y-115484000D02*
X204148000Y-117884000D01*
X204373000Y-117884000D02*
X204373000Y-115484000D01*
X204248000Y-117884000D02*
X204248000Y-115484000D01*
X204173000Y-117884000D02*
X209973000Y-117884000D01*
X209973000Y-117884000D02*
X209973000Y-115484000D01*
X209973000Y-115484000D02*
X204173000Y-115484000D01*
X185848000Y-117883000D02*
X185848000Y-115483000D01*
X185673000Y-117883000D02*
X185673000Y-115483000D01*
X185498000Y-117883000D02*
X185498000Y-115483000D01*
X185098000Y-115483000D02*
X185098000Y-117883000D01*
X185323000Y-117883000D02*
X185323000Y-115483000D01*
X185198000Y-117883000D02*
X185198000Y-115483000D01*
X185123000Y-117883000D02*
X190923000Y-117883000D01*
X190923000Y-117883000D02*
X190923000Y-115483000D01*
X190923000Y-115483000D02*
X185123000Y-115483000D01*
X171560000Y-113121000D02*
X171560000Y-110721000D01*
X171385000Y-113121000D02*
X171385000Y-110721000D01*
X171210000Y-113121000D02*
X171210000Y-110721000D01*
X170810000Y-110721000D02*
X170810000Y-113121000D01*
X171035000Y-113121000D02*
X171035000Y-110721000D01*
X170910000Y-113121000D02*
X170910000Y-110721000D01*
X170835000Y-113121000D02*
X176635000Y-113121000D01*
X176635000Y-113121000D02*
X176635000Y-110721000D01*
X176635000Y-110721000D02*
X170835000Y-110721000D01*
X128697000Y-117884000D02*
X128697000Y-115484000D01*
X128522000Y-117884000D02*
X128522000Y-115484000D01*
X128347000Y-117884000D02*
X128347000Y-115484000D01*
X127947000Y-115484000D02*
X127947000Y-117884000D01*
X128172000Y-117884000D02*
X128172000Y-115484000D01*
X128047000Y-117884000D02*
X128047000Y-115484000D01*
X127972000Y-117884000D02*
X133772000Y-117884000D01*
X133772000Y-117884000D02*
X133772000Y-115484000D01*
X133772000Y-115484000D02*
X127972000Y-115484000D01*
X109646000Y-117883000D02*
X109646000Y-115483000D01*
X109471000Y-117883000D02*
X109471000Y-115483000D01*
X109296000Y-117883000D02*
X109296000Y-115483000D01*
X108896000Y-115483000D02*
X108896000Y-117883000D01*
X109121000Y-117883000D02*
X109121000Y-115483000D01*
X108996000Y-117883000D02*
X108996000Y-115483000D01*
X108921000Y-117883000D02*
X114721000Y-117883000D01*
X114721000Y-117883000D02*
X114721000Y-115483000D01*
X114721000Y-115483000D02*
X108921000Y-115483000D01*
X90595700Y-117884000D02*
X90595700Y-115484000D01*
X90420700Y-117884000D02*
X90420700Y-115484000D01*
X90245700Y-117884000D02*
X90245700Y-115484000D01*
X89845700Y-115484000D02*
X89845700Y-117884000D01*
X90070700Y-117884000D02*
X90070700Y-115484000D01*
X89945700Y-117884000D02*
X89945700Y-115484000D01*
X89870700Y-117884000D02*
X95670700Y-117884000D01*
X95670700Y-117884000D02*
X95670700Y-115484000D01*
X95670700Y-115484000D02*
X89870700Y-115484000D01*
X71545300Y-117883000D02*
X71545300Y-115483000D01*
X71370300Y-117883000D02*
X71370300Y-115483000D01*
X71195300Y-117883000D02*
X71195300Y-115483000D01*
X70795300Y-115483000D02*
X70795300Y-117883000D01*
X71020300Y-117883000D02*
X71020300Y-115483000D01*
X70895300Y-117883000D02*
X70895300Y-115483000D01*
X70820300Y-117883000D02*
X76620300Y-117883000D01*
X76620300Y-117883000D02*
X76620300Y-115483000D01*
X76620300Y-115483000D02*
X70820300Y-115483000D01*
X57257500Y-117884000D02*
X57257500Y-115484000D01*
X57082500Y-117884000D02*
X57082500Y-115484000D01*
X56907500Y-117884000D02*
X56907500Y-115484000D01*
X56507500Y-115484000D02*
X56507500Y-117884000D01*
X56732500Y-117884000D02*
X56732500Y-115484000D01*
X56607500Y-117884000D02*
X56607500Y-115484000D01*
X56532500Y-117884000D02*
X62332500Y-117884000D01*
X62332500Y-117884000D02*
X62332500Y-115484000D01*
X62332500Y-115484000D02*
X56532500Y-115484000D01*
X262049000Y-98833300D02*
X262049000Y-96433300D01*
X261874000Y-98833300D02*
X261874000Y-96433300D01*
X261699000Y-98833300D02*
X261699000Y-96433300D01*
X261299000Y-96433300D02*
X261299000Y-98833300D01*
X261524000Y-98833300D02*
X261524000Y-96433300D01*
X261399000Y-98833300D02*
X261399000Y-96433300D01*
X261324000Y-98833300D02*
X267124000Y-98833300D01*
X267124000Y-98833300D02*
X267124000Y-96433300D01*
X267124000Y-96433300D02*
X261324000Y-96433300D01*
X242999000Y-98833300D02*
X242999000Y-96433300D01*
X242824000Y-98833300D02*
X242824000Y-96433300D01*
X242649000Y-98833300D02*
X242649000Y-96433300D01*
X242249000Y-96433300D02*
X242249000Y-98833300D01*
X242474000Y-98833300D02*
X242474000Y-96433300D01*
X242349000Y-98833300D02*
X242349000Y-96433300D01*
X242274000Y-98833300D02*
X248074000Y-98833300D01*
X248074000Y-98833300D02*
X248074000Y-96433300D01*
X248074000Y-96433300D02*
X242274000Y-96433300D01*
X223949000Y-98833300D02*
X223949000Y-96433300D01*
X223774000Y-98833300D02*
X223774000Y-96433300D01*
X223599000Y-98833300D02*
X223599000Y-96433300D01*
X223199000Y-96433300D02*
X223199000Y-98833300D01*
X223424000Y-98833300D02*
X223424000Y-96433300D01*
X223299000Y-98833300D02*
X223299000Y-96433300D01*
X223224000Y-98833300D02*
X229024000Y-98833300D01*
X229024000Y-98833300D02*
X229024000Y-96433300D01*
X229024000Y-96433300D02*
X223224000Y-96433300D01*
X204898000Y-98833300D02*
X204898000Y-96433300D01*
X204723000Y-98833300D02*
X204723000Y-96433300D01*
X204548000Y-98833300D02*
X204548000Y-96433300D01*
X204148000Y-96433300D02*
X204148000Y-98833300D01*
X204373000Y-98833300D02*
X204373000Y-96433300D01*
X204248000Y-98833300D02*
X204248000Y-96433300D01*
X204173000Y-98833300D02*
X209973000Y-98833300D01*
X209973000Y-98833300D02*
X209973000Y-96433300D01*
X209973000Y-96433300D02*
X204173000Y-96433300D01*
X185848000Y-98833300D02*
X185848000Y-96433300D01*
X185673000Y-98833300D02*
X185673000Y-96433300D01*
X185498000Y-98833300D02*
X185498000Y-96433300D01*
X185098000Y-96433300D02*
X185098000Y-98833300D01*
X185323000Y-98833300D02*
X185323000Y-96433300D01*
X185198000Y-98833300D02*
X185198000Y-96433300D01*
X185123000Y-98833300D02*
X190923000Y-98833300D01*
X190923000Y-98833300D02*
X190923000Y-96433300D01*
X190923000Y-96433300D02*
X185123000Y-96433300D01*
X166797000Y-98833300D02*
X166797000Y-96433300D01*
X166622000Y-98833300D02*
X166622000Y-96433300D01*
X166447000Y-98833300D02*
X166447000Y-96433300D01*
X166047000Y-96433300D02*
X166047000Y-98833300D01*
X166272000Y-98833300D02*
X166272000Y-96433300D01*
X166147000Y-98833300D02*
X166147000Y-96433300D01*
X166072000Y-98833300D02*
X171872000Y-98833300D01*
X171872000Y-98833300D02*
X171872000Y-96433300D01*
X171872000Y-96433300D02*
X166072000Y-96433300D01*
X147747000Y-98833300D02*
X147747000Y-96433300D01*
X147572000Y-98833300D02*
X147572000Y-96433300D01*
X147397000Y-98833300D02*
X147397000Y-96433300D01*
X146997000Y-96433300D02*
X146997000Y-98833300D01*
X147222000Y-98833300D02*
X147222000Y-96433300D01*
X147097000Y-98833300D02*
X147097000Y-96433300D01*
X147022000Y-98833300D02*
X152822000Y-98833300D01*
X152822000Y-98833300D02*
X152822000Y-96433300D01*
X152822000Y-96433300D02*
X147022000Y-96433300D01*
X128697000Y-98833300D02*
X128697000Y-96433300D01*
X128522000Y-98833300D02*
X128522000Y-96433300D01*
X128347000Y-98833300D02*
X128347000Y-96433300D01*
X127947000Y-96433300D02*
X127947000Y-98833300D01*
X128172000Y-98833300D02*
X128172000Y-96433300D01*
X128047000Y-98833300D02*
X128047000Y-96433300D01*
X127972000Y-98833300D02*
X133772000Y-98833300D01*
X133772000Y-98833300D02*
X133772000Y-96433300D01*
X133772000Y-96433300D02*
X127972000Y-96433300D01*
X109646000Y-98833300D02*
X109646000Y-96433300D01*
X109471000Y-98833300D02*
X109471000Y-96433300D01*
X109296000Y-98833300D02*
X109296000Y-96433300D01*
X108896000Y-96433300D02*
X108896000Y-98833300D01*
X109121000Y-98833300D02*
X109121000Y-96433300D01*
X108996000Y-98833300D02*
X108996000Y-96433300D01*
X108921000Y-98833300D02*
X114721000Y-98833300D01*
X114721000Y-98833300D02*
X114721000Y-96433300D01*
X114721000Y-96433300D02*
X108921000Y-96433300D01*
X90595700Y-98833300D02*
X90595700Y-96433300D01*
X90420700Y-98833300D02*
X90420700Y-96433300D01*
X90245700Y-98833300D02*
X90245700Y-96433300D01*
X89845700Y-96433300D02*
X89845700Y-98833300D01*
X90070700Y-98833300D02*
X90070700Y-96433300D01*
X89945700Y-98833300D02*
X89945700Y-96433300D01*
X89870700Y-98833300D02*
X95670700Y-98833300D01*
X95670700Y-98833300D02*
X95670700Y-96433300D01*
X95670700Y-96433300D02*
X89870700Y-96433300D01*
X71545300Y-98833300D02*
X71545300Y-96433300D01*
X71370300Y-98833300D02*
X71370300Y-96433300D01*
X71195300Y-98833300D02*
X71195300Y-96433300D01*
X70795300Y-96433300D02*
X70795300Y-98833300D01*
X71020300Y-98833300D02*
X71020300Y-96433300D01*
X70895300Y-98833300D02*
X70895300Y-96433300D01*
X70820300Y-98833300D02*
X76620300Y-98833300D01*
X76620300Y-98833300D02*
X76620300Y-96433300D01*
X76620300Y-96433300D02*
X70820300Y-96433300D01*
X52494900Y-98833300D02*
X52494900Y-96433300D01*
X52319900Y-98833300D02*
X52319900Y-96433300D01*
X52144900Y-98833300D02*
X52144900Y-96433300D01*
X51744900Y-96433300D02*
X51744900Y-98833300D01*
X51969900Y-98833300D02*
X51969900Y-96433300D01*
X51844900Y-98833300D02*
X51844900Y-96433300D01*
X51769900Y-98833300D02*
X57569900Y-98833300D01*
X57569900Y-98833300D02*
X57569900Y-96433300D01*
X57569900Y-96433300D02*
X51769900Y-96433300D01*
X262049000Y-79782900D02*
X262049000Y-77382900D01*
X261874000Y-79782900D02*
X261874000Y-77382900D01*
X261699000Y-79782900D02*
X261699000Y-77382900D01*
X261299000Y-77382900D02*
X261299000Y-79782900D01*
X261524000Y-79782900D02*
X261524000Y-77382900D01*
X261399000Y-79782900D02*
X261399000Y-77382900D01*
X261324000Y-79782900D02*
X267124000Y-79782900D01*
X267124000Y-79782900D02*
X267124000Y-77382900D01*
X267124000Y-77382900D02*
X261324000Y-77382900D01*
X242999000Y-79782900D02*
X242999000Y-77382900D01*
X242824000Y-79782900D02*
X242824000Y-77382900D01*
X242649000Y-79782900D02*
X242649000Y-77382900D01*
X242249000Y-77382900D02*
X242249000Y-79782900D01*
X242474000Y-79782900D02*
X242474000Y-77382900D01*
X242349000Y-79782900D02*
X242349000Y-77382900D01*
X242274000Y-79782900D02*
X248074000Y-79782900D01*
X248074000Y-79782900D02*
X248074000Y-77382900D01*
X248074000Y-77382900D02*
X242274000Y-77382900D01*
X223949000Y-79782900D02*
X223949000Y-77382900D01*
X223774000Y-79782900D02*
X223774000Y-77382900D01*
X223599000Y-79782900D02*
X223599000Y-77382900D01*
X223199000Y-77382900D02*
X223199000Y-79782900D01*
X223424000Y-79782900D02*
X223424000Y-77382900D01*
X223299000Y-79782900D02*
X223299000Y-77382900D01*
X223224000Y-79782900D02*
X229024000Y-79782900D01*
X229024000Y-79782900D02*
X229024000Y-77382900D01*
X229024000Y-77382900D02*
X223224000Y-77382900D01*
X204898000Y-79782900D02*
X204898000Y-77382900D01*
X204723000Y-79782900D02*
X204723000Y-77382900D01*
X204548000Y-79782900D02*
X204548000Y-77382900D01*
X204148000Y-77382900D02*
X204148000Y-79782900D01*
X204373000Y-79782900D02*
X204373000Y-77382900D01*
X204248000Y-79782900D02*
X204248000Y-77382900D01*
X204173000Y-79782900D02*
X209973000Y-79782900D01*
X209973000Y-79782900D02*
X209973000Y-77382900D01*
X209973000Y-77382900D02*
X204173000Y-77382900D01*
X185848000Y-79782900D02*
X185848000Y-77382900D01*
X185673000Y-79782900D02*
X185673000Y-77382900D01*
X185498000Y-79782900D02*
X185498000Y-77382900D01*
X185098000Y-77382900D02*
X185098000Y-79782900D01*
X185323000Y-79782900D02*
X185323000Y-77382900D01*
X185198000Y-79782900D02*
X185198000Y-77382900D01*
X185123000Y-79782900D02*
X190923000Y-79782900D01*
X190923000Y-79782900D02*
X190923000Y-77382900D01*
X190923000Y-77382900D02*
X185123000Y-77382900D01*
X166797000Y-79782900D02*
X166797000Y-77382900D01*
X166622000Y-79782900D02*
X166622000Y-77382900D01*
X166447000Y-79782900D02*
X166447000Y-77382900D01*
X166047000Y-77382900D02*
X166047000Y-79782900D01*
X166272000Y-79782900D02*
X166272000Y-77382900D01*
X166147000Y-79782900D02*
X166147000Y-77382900D01*
X166072000Y-79782900D02*
X171872000Y-79782900D01*
X171872000Y-79782900D02*
X171872000Y-77382900D01*
X171872000Y-77382900D02*
X166072000Y-77382900D01*
X147747000Y-79782900D02*
X147747000Y-77382900D01*
X147572000Y-79782900D02*
X147572000Y-77382900D01*
X147397000Y-79782900D02*
X147397000Y-77382900D01*
X146997000Y-77382900D02*
X146997000Y-79782900D01*
X147222000Y-79782900D02*
X147222000Y-77382900D01*
X147097000Y-79782900D02*
X147097000Y-77382900D01*
X147022000Y-79782900D02*
X152822000Y-79782900D01*
X152822000Y-79782900D02*
X152822000Y-77382900D01*
X152822000Y-77382900D02*
X147022000Y-77382900D01*
X128697000Y-79782900D02*
X128697000Y-77382900D01*
X128522000Y-79782900D02*
X128522000Y-77382900D01*
X128347000Y-79782900D02*
X128347000Y-77382900D01*
X127947000Y-77382900D02*
X127947000Y-79782900D01*
X128172000Y-79782900D02*
X128172000Y-77382900D01*
X128047000Y-79782900D02*
X128047000Y-77382900D01*
X127972000Y-79782900D02*
X133772000Y-79782900D01*
X133772000Y-79782900D02*
X133772000Y-77382900D01*
X133772000Y-77382900D02*
X127972000Y-77382900D01*
X109646000Y-79782900D02*
X109646000Y-77382900D01*
X109471000Y-79782900D02*
X109471000Y-77382900D01*
X109296000Y-79782900D02*
X109296000Y-77382900D01*
X108896000Y-77382900D02*
X108896000Y-79782900D01*
X109121000Y-79782900D02*
X109121000Y-77382900D01*
X108996000Y-79782900D02*
X108996000Y-77382900D01*
X108921000Y-79782900D02*
X114721000Y-79782900D01*
X114721000Y-79782900D02*
X114721000Y-77382900D01*
X114721000Y-77382900D02*
X108921000Y-77382900D01*
X90595700Y-79782900D02*
X90595700Y-77382900D01*
X90420700Y-79782900D02*
X90420700Y-77382900D01*
X90245700Y-79782900D02*
X90245700Y-77382900D01*
X89845700Y-77382900D02*
X89845700Y-79782900D01*
X90070700Y-79782900D02*
X90070700Y-77382900D01*
X89945700Y-79782900D02*
X89945700Y-77382900D01*
X89870700Y-79782900D02*
X95670700Y-79782900D01*
X95670700Y-79782900D02*
X95670700Y-77382900D01*
X95670700Y-77382900D02*
X89870700Y-77382900D01*
X71545300Y-79782900D02*
X71545300Y-77382900D01*
X71370300Y-79782900D02*
X71370300Y-77382900D01*
X71195300Y-79782900D02*
X71195300Y-77382900D01*
X70795300Y-77382900D02*
X70795300Y-79782900D01*
X71020300Y-79782900D02*
X71020300Y-77382900D01*
X70895300Y-79782900D02*
X70895300Y-77382900D01*
X70820300Y-79782900D02*
X76620300Y-79782900D01*
X76620300Y-79782900D02*
X76620300Y-77382900D01*
X76620300Y-77382900D02*
X70820300Y-77382900D01*
X52494900Y-79782900D02*
X52494900Y-77382900D01*
X52319900Y-79782900D02*
X52319900Y-77382900D01*
X52144900Y-79782900D02*
X52144900Y-77382900D01*
X51744900Y-77382900D02*
X51744900Y-79782900D01*
X51969900Y-79782900D02*
X51969900Y-77382900D01*
X51844900Y-79782900D02*
X51844900Y-77382900D01*
X51769900Y-79782900D02*
X57569900Y-79782900D01*
X57569900Y-79782900D02*
X57569900Y-77382900D01*
X57569900Y-77382900D02*
X51769900Y-77382900D01*
X262049000Y-60732500D02*
X262049000Y-58332500D01*
X261874000Y-60732500D02*
X261874000Y-58332500D01*
X261699000Y-60732500D02*
X261699000Y-58332500D01*
X261299000Y-58332500D02*
X261299000Y-60732500D01*
X261524000Y-60732500D02*
X261524000Y-58332500D01*
X261399000Y-60732500D02*
X261399000Y-58332500D01*
X261324000Y-60732500D02*
X267124000Y-60732500D01*
X267124000Y-60732500D02*
X267124000Y-58332500D01*
X267124000Y-58332500D02*
X261324000Y-58332500D01*
X248074000Y-58332500D02*
X242274000Y-58332500D01*
X248074000Y-60732500D02*
X248074000Y-58332500D01*
X242274000Y-60732500D02*
X248074000Y-60732500D01*
X242349000Y-60732500D02*
X242349000Y-58332500D01*
X242474000Y-60732500D02*
X242474000Y-58332500D01*
X242249000Y-58332500D02*
X242249000Y-60732500D01*
X242649000Y-60732500D02*
X242649000Y-58332500D01*
X242824000Y-60732500D02*
X242824000Y-58332500D01*
X242999000Y-60732500D02*
X242999000Y-58332500D01*
X223949000Y-60732500D02*
X223949000Y-58332500D01*
X223774000Y-60732500D02*
X223774000Y-58332500D01*
X223599000Y-60732500D02*
X223599000Y-58332500D01*
X223199000Y-58332500D02*
X223199000Y-60732500D01*
X223424000Y-60732500D02*
X223424000Y-58332500D01*
X223299000Y-60732500D02*
X223299000Y-58332500D01*
X223224000Y-60732500D02*
X229024000Y-60732500D01*
X229024000Y-60732500D02*
X229024000Y-58332500D01*
X229024000Y-58332500D02*
X223224000Y-58332500D01*
X204898000Y-60732500D02*
X204898000Y-58332500D01*
X204723000Y-60732500D02*
X204723000Y-58332500D01*
X204548000Y-60732500D02*
X204548000Y-58332500D01*
X204148000Y-58332500D02*
X204148000Y-60732500D01*
X204373000Y-60732500D02*
X204373000Y-58332500D01*
X204248000Y-60732500D02*
X204248000Y-58332500D01*
X204173000Y-60732500D02*
X209973000Y-60732500D01*
X209973000Y-60732500D02*
X209973000Y-58332500D01*
X209973000Y-58332500D02*
X204173000Y-58332500D01*
X185848000Y-60732500D02*
X185848000Y-58332500D01*
X185673000Y-60732500D02*
X185673000Y-58332500D01*
X185498000Y-60732500D02*
X185498000Y-58332500D01*
X185098000Y-58332500D02*
X185098000Y-60732500D01*
X185323000Y-60732500D02*
X185323000Y-58332500D01*
X185198000Y-60732500D02*
X185198000Y-58332500D01*
X185123000Y-60732500D02*
X190923000Y-60732500D01*
X190923000Y-60732500D02*
X190923000Y-58332500D01*
X190923000Y-58332500D02*
X185123000Y-58332500D01*
X166797000Y-60732500D02*
X166797000Y-58332500D01*
X166622000Y-60732500D02*
X166622000Y-58332500D01*
X166447000Y-60732500D02*
X166447000Y-58332500D01*
X166047000Y-58332500D02*
X166047000Y-60732500D01*
X166272000Y-60732500D02*
X166272000Y-58332500D01*
X166147000Y-60732500D02*
X166147000Y-58332500D01*
X166072000Y-60732500D02*
X171872000Y-60732500D01*
X171872000Y-60732500D02*
X171872000Y-58332500D01*
X171872000Y-58332500D02*
X166072000Y-58332500D01*
X147747000Y-60732500D02*
X147747000Y-58332500D01*
X147572000Y-60732500D02*
X147572000Y-58332500D01*
X147397000Y-60732500D02*
X147397000Y-58332500D01*
X146997000Y-58332500D02*
X146997000Y-60732500D01*
X147222000Y-60732500D02*
X147222000Y-58332500D01*
X147097000Y-60732500D02*
X147097000Y-58332500D01*
X147022000Y-60732500D02*
X152822000Y-60732500D01*
X152822000Y-60732500D02*
X152822000Y-58332500D01*
X152822000Y-58332500D02*
X147022000Y-58332500D01*
X128697000Y-60732500D02*
X128697000Y-58332500D01*
X128522000Y-60732500D02*
X128522000Y-58332500D01*
X128347000Y-60732500D02*
X128347000Y-58332500D01*
X127947000Y-58332500D02*
X127947000Y-60732500D01*
X128172000Y-60732500D02*
X128172000Y-58332500D01*
X128047000Y-60732500D02*
X128047000Y-58332500D01*
X127972000Y-60732500D02*
X133772000Y-60732500D01*
X133772000Y-60732500D02*
X133772000Y-58332500D01*
X133772000Y-58332500D02*
X127972000Y-58332500D01*
X109646000Y-60732500D02*
X109646000Y-58332500D01*
X109471000Y-60732500D02*
X109471000Y-58332500D01*
X109296000Y-60732500D02*
X109296000Y-58332500D01*
X108896000Y-58332500D02*
X108896000Y-60732500D01*
X109121000Y-60732500D02*
X109121000Y-58332500D01*
X108996000Y-60732500D02*
X108996000Y-58332500D01*
X108921000Y-60732500D02*
X114721000Y-60732500D01*
X114721000Y-60732500D02*
X114721000Y-58332500D01*
X114721000Y-58332500D02*
X108921000Y-58332500D01*
X90595700Y-60732500D02*
X90595700Y-58332500D01*
X90420700Y-60732500D02*
X90420700Y-58332500D01*
X90245700Y-60732500D02*
X90245700Y-58332500D01*
X89845700Y-58332500D02*
X89845700Y-60732500D01*
X90070700Y-60732500D02*
X90070700Y-58332500D01*
X89945700Y-60732500D02*
X89945700Y-58332500D01*
X89870700Y-60732500D02*
X95670700Y-60732500D01*
X95670700Y-60732500D02*
X95670700Y-58332500D01*
X95670700Y-58332500D02*
X89870700Y-58332500D01*
X71545300Y-60732500D02*
X71545300Y-58332500D01*
X71370300Y-60732500D02*
X71370300Y-58332500D01*
X71195300Y-60732500D02*
X71195300Y-58332500D01*
X70795300Y-58332500D02*
X70795300Y-60732500D01*
X71020300Y-60732500D02*
X71020300Y-58332500D01*
X70895300Y-60732500D02*
X70895300Y-58332500D01*
X70820300Y-60732500D02*
X76620300Y-60732500D01*
X76620300Y-60732500D02*
X76620300Y-58332500D01*
X76620300Y-58332500D02*
X70820300Y-58332500D01*
X52494900Y-60732500D02*
X52494900Y-58332500D01*
X52319900Y-60732500D02*
X52319900Y-58332500D01*
X52144900Y-60732500D02*
X52144900Y-58332500D01*
X51744900Y-58332500D02*
X51744900Y-60732500D01*
X51969900Y-60732500D02*
X51969900Y-58332500D01*
X51844900Y-60732500D02*
X51844900Y-58332500D01*
X51769900Y-60732500D02*
X57569900Y-60732500D01*
X57569900Y-60732500D02*
X57569900Y-58332500D01*
X57569900Y-58332500D02*
X51769900Y-58332500D01*
X262049000Y-41682100D02*
X262049000Y-39282100D01*
X261874000Y-41682100D02*
X261874000Y-39282100D01*
X261699000Y-41682100D02*
X261699000Y-39282100D01*
X261299000Y-39282100D02*
X261299000Y-41682100D01*
X261524000Y-41682100D02*
X261524000Y-39282100D01*
X261399000Y-41682100D02*
X261399000Y-39282100D01*
X261324000Y-41682100D02*
X267124000Y-41682100D01*
X267124000Y-41682100D02*
X267124000Y-39282100D01*
X267124000Y-39282100D02*
X261324000Y-39282100D01*
X242999000Y-41682100D02*
X242999000Y-39282100D01*
X242824000Y-41682100D02*
X242824000Y-39282100D01*
X242649000Y-41682100D02*
X242649000Y-39282100D01*
X242249000Y-39282100D02*
X242249000Y-41682100D01*
X242474000Y-41682100D02*
X242474000Y-39282100D01*
X242349000Y-41682100D02*
X242349000Y-39282100D01*
X242274000Y-41682100D02*
X248074000Y-41682100D01*
X248074000Y-41682100D02*
X248074000Y-39282100D01*
X248074000Y-39282100D02*
X242274000Y-39282100D01*
X223949000Y-41682100D02*
X223949000Y-39282100D01*
X223774000Y-41682100D02*
X223774000Y-39282100D01*
X223599000Y-41682100D02*
X223599000Y-39282100D01*
X223199000Y-39282100D02*
X223199000Y-41682100D01*
X223424000Y-41682100D02*
X223424000Y-39282100D01*
X223299000Y-41682100D02*
X223299000Y-39282100D01*
X223224000Y-41682100D02*
X229024000Y-41682100D01*
X229024000Y-41682100D02*
X229024000Y-39282100D01*
X229024000Y-39282100D02*
X223224000Y-39282100D01*
X204898000Y-41682100D02*
X204898000Y-39282100D01*
X204723000Y-41682100D02*
X204723000Y-39282100D01*
X204548000Y-41682100D02*
X204548000Y-39282100D01*
X204148000Y-39282100D02*
X204148000Y-41682100D01*
X204373000Y-41682100D02*
X204373000Y-39282100D01*
X204248000Y-41682100D02*
X204248000Y-39282100D01*
X204173000Y-41682100D02*
X209973000Y-41682100D01*
X209973000Y-41682100D02*
X209973000Y-39282100D01*
X209973000Y-39282100D02*
X204173000Y-39282100D01*
X185848000Y-41682100D02*
X185848000Y-39282100D01*
X185673000Y-41682100D02*
X185673000Y-39282100D01*
X185498000Y-41682100D02*
X185498000Y-39282100D01*
X185098000Y-39282100D02*
X185098000Y-41682100D01*
X185323000Y-41682100D02*
X185323000Y-39282100D01*
X185198000Y-41682100D02*
X185198000Y-39282100D01*
X185123000Y-41682100D02*
X190923000Y-41682100D01*
X190923000Y-41682100D02*
X190923000Y-39282100D01*
X190923000Y-39282100D02*
X185123000Y-39282100D01*
X166797000Y-41682100D02*
X166797000Y-39282100D01*
X166622000Y-41682100D02*
X166622000Y-39282100D01*
X166447000Y-41682100D02*
X166447000Y-39282100D01*
X166047000Y-39282100D02*
X166047000Y-41682100D01*
X166272000Y-41682100D02*
X166272000Y-39282100D01*
X166147000Y-41682100D02*
X166147000Y-39282100D01*
X166072000Y-41682100D02*
X171872000Y-41682100D01*
X171872000Y-41682100D02*
X171872000Y-39282100D01*
X171872000Y-39282100D02*
X166072000Y-39282100D01*
X147747000Y-41682100D02*
X147747000Y-39282100D01*
X147572000Y-41682100D02*
X147572000Y-39282100D01*
X147397000Y-41682100D02*
X147397000Y-39282100D01*
X146997000Y-39282100D02*
X146997000Y-41682100D01*
X147222000Y-41682100D02*
X147222000Y-39282100D01*
X147097000Y-41682100D02*
X147097000Y-39282100D01*
X147022000Y-41682100D02*
X152822000Y-41682100D01*
X152822000Y-41682100D02*
X152822000Y-39282100D01*
X152822000Y-39282100D02*
X147022000Y-39282100D01*
X128697000Y-41682100D02*
X128697000Y-39282100D01*
X128522000Y-41682100D02*
X128522000Y-39282100D01*
X128347000Y-41682100D02*
X128347000Y-39282100D01*
X127947000Y-39282100D02*
X127947000Y-41682100D01*
X128172000Y-41682100D02*
X128172000Y-39282100D01*
X128047000Y-41682100D02*
X128047000Y-39282100D01*
X127972000Y-41682100D02*
X133772000Y-41682100D01*
X133772000Y-41682100D02*
X133772000Y-39282100D01*
X133772000Y-39282100D02*
X127972000Y-39282100D01*
X109646000Y-41682100D02*
X109646000Y-39282100D01*
X109471000Y-41682100D02*
X109471000Y-39282100D01*
X109296000Y-41682100D02*
X109296000Y-39282100D01*
X108896000Y-39282100D02*
X108896000Y-41682100D01*
X109121000Y-41682100D02*
X109121000Y-39282100D01*
X108996000Y-41682100D02*
X108996000Y-39282100D01*
X108921000Y-41682100D02*
X114721000Y-41682100D01*
X114721000Y-41682100D02*
X114721000Y-39282100D01*
X114721000Y-39282100D02*
X108921000Y-39282100D01*
X90595700Y-41682100D02*
X90595700Y-39282100D01*
X90420700Y-41682100D02*
X90420700Y-39282100D01*
X90245700Y-41682100D02*
X90245700Y-39282100D01*
X89845700Y-39282100D02*
X89845700Y-41682100D01*
X90070700Y-41682100D02*
X90070700Y-39282100D01*
X89945700Y-41682100D02*
X89945700Y-39282100D01*
X89870700Y-41682100D02*
X95670700Y-41682100D01*
X95670700Y-41682100D02*
X95670700Y-39282100D01*
X95670700Y-39282100D02*
X89870700Y-39282100D01*
X71545300Y-41682100D02*
X71545300Y-39282100D01*
X71370300Y-41682100D02*
X71370300Y-39282100D01*
X71195300Y-41682100D02*
X71195300Y-39282100D01*
X70795300Y-39282100D02*
X70795300Y-41682100D01*
X71020300Y-41682100D02*
X71020300Y-39282100D01*
X70895300Y-41682100D02*
X70895300Y-39282100D01*
X70820300Y-41682100D02*
X76620300Y-41682100D01*
X76620300Y-41682100D02*
X76620300Y-39282100D01*
X76620300Y-39282100D02*
X70820300Y-39282100D01*
X52494900Y-41682100D02*
X52494900Y-39282100D01*
X52319900Y-41682100D02*
X52319900Y-39282100D01*
X52144900Y-41682100D02*
X52144900Y-39282100D01*
X51744900Y-39282100D02*
X51744900Y-41682100D01*
X51969900Y-41682100D02*
X51969900Y-39282100D01*
X51844900Y-41682100D02*
X51844900Y-39282100D01*
X51769900Y-41682100D02*
X57569900Y-41682100D01*
X57569900Y-41682100D02*
X57569900Y-39282100D01*
X57569900Y-39282100D02*
X51769900Y-39282100D01*
D11*
X257970000Y-106141000D02*
X257970000Y-106522000D01*
X269400000Y-103601000D02*
X269400000Y-104617000D01*
X269400000Y-104617000D02*
X264320000Y-104617000D01*
X261855838Y-106522000D02*
X260129000Y-106522000D01*
X258351000Y-106522000D02*
X257970000Y-106522000D01*
X257970000Y-102712000D02*
X257970000Y-103093000D01*
X260510000Y-100172000D02*
X269400000Y-100172000D01*
X269400000Y-100172000D02*
X269400000Y-100553000D01*
X257970000Y-102712000D02*
G75*
G02*
X260510000Y-100172000I2540000J0D01*
G01*
X261855838Y-106540960D02*
G75*
G02*
X264320000Y-104617000I2464162J-616040D01*
G01*
X238920000Y-106141000D02*
X238920000Y-106522000D01*
X250350000Y-103601000D02*
X250350000Y-104617000D01*
X250350000Y-104617000D02*
X245270000Y-104617000D01*
X242805838Y-106522000D02*
X241079000Y-106522000D01*
X239301000Y-106522000D02*
X238920000Y-106522000D01*
X238920000Y-102712000D02*
X238920000Y-103093000D01*
X241460000Y-100172000D02*
X250350000Y-100172000D01*
X250350000Y-100172000D02*
X250350000Y-100553000D01*
X238920000Y-102712000D02*
G75*
G02*
X241460000Y-100172000I2540000J0D01*
G01*
X242805838Y-106540960D02*
G75*
G02*
X245270000Y-104617000I2464162J-616040D01*
G01*
X219870000Y-106141000D02*
X219870000Y-106522000D01*
X231300000Y-103601000D02*
X231300000Y-104617000D01*
X231300000Y-104617000D02*
X226220000Y-104617000D01*
X223755838Y-106522000D02*
X222029000Y-106522000D01*
X220251000Y-106522000D02*
X219870000Y-106522000D01*
X219870000Y-102712000D02*
X219870000Y-103093000D01*
X222410000Y-100172000D02*
X231300000Y-100172000D01*
X231300000Y-100172000D02*
X231300000Y-100553000D01*
X219870000Y-102712000D02*
G75*
G02*
X222410000Y-100172000I2540000J0D01*
G01*
X223755838Y-106540960D02*
G75*
G02*
X226220000Y-104617000I2464162J-616040D01*
G01*
X200820000Y-106141000D02*
X200820000Y-106522000D01*
X212250000Y-103601000D02*
X212250000Y-104617000D01*
X212250000Y-104617000D02*
X207170000Y-104617000D01*
X204705838Y-106522000D02*
X202979000Y-106522000D01*
X201201000Y-106522000D02*
X200820000Y-106522000D01*
X200820000Y-102712000D02*
X200820000Y-103093000D01*
X203360000Y-100172000D02*
X212250000Y-100172000D01*
X212250000Y-100172000D02*
X212250000Y-100553000D01*
X200820000Y-102712000D02*
G75*
G02*
X203360000Y-100172000I2540000J0D01*
G01*
X204705838Y-106540960D02*
G75*
G02*
X207170000Y-104617000I2464162J-616040D01*
G01*
X181770000Y-106141000D02*
X181770000Y-106522000D01*
X193200000Y-103601000D02*
X193200000Y-104617000D01*
X193200000Y-104617000D02*
X188120000Y-104617000D01*
X185655838Y-106522000D02*
X183929000Y-106522000D01*
X182151000Y-106522000D02*
X181770000Y-106522000D01*
X181770000Y-102712000D02*
X181770000Y-103093000D01*
X184310000Y-100172000D02*
X193200000Y-100172000D01*
X193200000Y-100172000D02*
X193200000Y-100553000D01*
X181770000Y-102712000D02*
G75*
G02*
X184310000Y-100172000I2540000J0D01*
G01*
X185655838Y-106540960D02*
G75*
G02*
X188120000Y-104617000I2464162J-616040D01*
G01*
X153195000Y-106141000D02*
X153195000Y-106522000D01*
X164625000Y-103601000D02*
X164625000Y-104617000D01*
X164625000Y-104617000D02*
X159545000Y-104617000D01*
X157080838Y-106522000D02*
X155354000Y-106522000D01*
X153576000Y-106522000D02*
X153195000Y-106522000D01*
X153195000Y-102712000D02*
X153195000Y-103093000D01*
X155735000Y-100172000D02*
X164625000Y-100172000D01*
X164625000Y-100172000D02*
X164625000Y-100553000D01*
X153195000Y-102712000D02*
G75*
G02*
X155735000Y-100172000I2540000J0D01*
G01*
X157080838Y-106540960D02*
G75*
G02*
X159545000Y-104617000I2464162J-616040D01*
G01*
X124620000Y-106141000D02*
X124620000Y-106522000D01*
X136050000Y-103601000D02*
X136050000Y-104617000D01*
X136050000Y-104617000D02*
X130970000Y-104617000D01*
X128505838Y-106522000D02*
X126779000Y-106522000D01*
X125001000Y-106522000D02*
X124620000Y-106522000D01*
X124620000Y-102712000D02*
X124620000Y-103093000D01*
X127160000Y-100172000D02*
X136050000Y-100172000D01*
X136050000Y-100172000D02*
X136050000Y-100553000D01*
X124620000Y-102712000D02*
G75*
G02*
X127160000Y-100172000I2540000J0D01*
G01*
X128505838Y-106540960D02*
G75*
G02*
X130970000Y-104617000I2464162J-616040D01*
G01*
X105570000Y-106141000D02*
X105570000Y-106522000D01*
X117000000Y-103601000D02*
X117000000Y-104617000D01*
X117000000Y-104617000D02*
X111920000Y-104617000D01*
X109455838Y-106522000D02*
X107729000Y-106522000D01*
X105951000Y-106522000D02*
X105570000Y-106522000D01*
X105570000Y-102712000D02*
X105570000Y-103093000D01*
X108110000Y-100172000D02*
X117000000Y-100172000D01*
X117000000Y-100172000D02*
X117000000Y-100553000D01*
X105570000Y-102712000D02*
G75*
G02*
X108110000Y-100172000I2540000J0D01*
G01*
X109455838Y-106540960D02*
G75*
G02*
X111920000Y-104617000I2464162J-616040D01*
G01*
X86519700Y-106141000D02*
X86519700Y-106522000D01*
X97949700Y-103601000D02*
X97949700Y-104617000D01*
X97949700Y-104617000D02*
X92869700Y-104617000D01*
X90405538Y-106522000D02*
X88678700Y-106522000D01*
X86900700Y-106522000D02*
X86519700Y-106522000D01*
X86519700Y-102712000D02*
X86519700Y-103093000D01*
X89059700Y-100172000D02*
X97949700Y-100172000D01*
X97949700Y-100172000D02*
X97949700Y-100553000D01*
X86519700Y-102712000D02*
G75*
G02*
X89059700Y-100172000I2540000J0D01*
G01*
X90405538Y-106540960D02*
G75*
G02*
X92869700Y-104617000I2464162J-616040D01*
G01*
X67469700Y-106141000D02*
X67469700Y-106522000D01*
X78899700Y-103601000D02*
X78899700Y-104617000D01*
X78899700Y-104617000D02*
X73819700Y-104617000D01*
X71355538Y-106522000D02*
X69628700Y-106522000D01*
X67850700Y-106522000D02*
X67469700Y-106522000D01*
X67469700Y-102712000D02*
X67469700Y-103093000D01*
X70009700Y-100172000D02*
X78899700Y-100172000D01*
X78899700Y-100172000D02*
X78899700Y-100553000D01*
X67469700Y-102712000D02*
G75*
G02*
X70009700Y-100172000I2540000J0D01*
G01*
X71355538Y-106540960D02*
G75*
G02*
X73819700Y-104617000I2464162J-616040D01*
G01*
X48419700Y-106141000D02*
X48419700Y-106522000D01*
X59849700Y-103601000D02*
X59849700Y-104617000D01*
X59849700Y-104617000D02*
X54769700Y-104617000D01*
X52305538Y-106522000D02*
X50578700Y-106522000D01*
X48800700Y-106522000D02*
X48419700Y-106522000D01*
X48419700Y-102712000D02*
X48419700Y-103093000D01*
X50959700Y-100172000D02*
X59849700Y-100172000D01*
X59849700Y-100172000D02*
X59849700Y-100553000D01*
X48419700Y-102712000D02*
G75*
G02*
X50959700Y-100172000I2540000J0D01*
G01*
X52305538Y-106540960D02*
G75*
G02*
X54769700Y-104617000I2464162J-616040D01*
G01*
X257970000Y-87090700D02*
X257970000Y-87471700D01*
X269400000Y-84550700D02*
X269400000Y-85566700D01*
X269400000Y-85566700D02*
X264320000Y-85566700D01*
X261855838Y-87471700D02*
X260129000Y-87471700D01*
X258351000Y-87471700D02*
X257970000Y-87471700D01*
X257970000Y-83661700D02*
X257970000Y-84042700D01*
X260510000Y-81121700D02*
X269400000Y-81121700D01*
X269400000Y-81121700D02*
X269400000Y-81502700D01*
X257970000Y-83661700D02*
G75*
G02*
X260510000Y-81121700I2540000J0D01*
G01*
X261855838Y-87490660D02*
G75*
G02*
X264320000Y-85566700I2464162J-616040D01*
G01*
X238920000Y-87090700D02*
X238920000Y-87471700D01*
X250350000Y-84550700D02*
X250350000Y-85566700D01*
X250350000Y-85566700D02*
X245270000Y-85566700D01*
X242805838Y-87471700D02*
X241079000Y-87471700D01*
X239301000Y-87471700D02*
X238920000Y-87471700D01*
X238920000Y-83661700D02*
X238920000Y-84042700D01*
X241460000Y-81121700D02*
X250350000Y-81121700D01*
X250350000Y-81121700D02*
X250350000Y-81502700D01*
X238920000Y-83661700D02*
G75*
G02*
X241460000Y-81121700I2540000J0D01*
G01*
X242805838Y-87490660D02*
G75*
G02*
X245270000Y-85566700I2464162J-616040D01*
G01*
X219870000Y-87090700D02*
X219870000Y-87471700D01*
X231300000Y-84550700D02*
X231300000Y-85566700D01*
X231300000Y-85566700D02*
X226220000Y-85566700D01*
X223755838Y-87471700D02*
X222029000Y-87471700D01*
X220251000Y-87471700D02*
X219870000Y-87471700D01*
X219870000Y-83661700D02*
X219870000Y-84042700D01*
X222410000Y-81121700D02*
X231300000Y-81121700D01*
X231300000Y-81121700D02*
X231300000Y-81502700D01*
X219870000Y-83661700D02*
G75*
G02*
X222410000Y-81121700I2540000J0D01*
G01*
X223755838Y-87490660D02*
G75*
G02*
X226220000Y-85566700I2464162J-616040D01*
G01*
X200820000Y-87090700D02*
X200820000Y-87471700D01*
X212250000Y-84550700D02*
X212250000Y-85566700D01*
X212250000Y-85566700D02*
X207170000Y-85566700D01*
X204705838Y-87471700D02*
X202979000Y-87471700D01*
X201201000Y-87471700D02*
X200820000Y-87471700D01*
X200820000Y-83661700D02*
X200820000Y-84042700D01*
X203360000Y-81121700D02*
X212250000Y-81121700D01*
X212250000Y-81121700D02*
X212250000Y-81502700D01*
X200820000Y-83661700D02*
G75*
G02*
X203360000Y-81121700I2540000J0D01*
G01*
X204705838Y-87490660D02*
G75*
G02*
X207170000Y-85566700I2464162J-616040D01*
G01*
X181770000Y-87090700D02*
X181770000Y-87471700D01*
X193200000Y-84550700D02*
X193200000Y-85566700D01*
X193200000Y-85566700D02*
X188120000Y-85566700D01*
X185655838Y-87471700D02*
X183929000Y-87471700D01*
X182151000Y-87471700D02*
X181770000Y-87471700D01*
X181770000Y-83661700D02*
X181770000Y-84042700D01*
X184310000Y-81121700D02*
X193200000Y-81121700D01*
X193200000Y-81121700D02*
X193200000Y-81502700D01*
X181770000Y-83661700D02*
G75*
G02*
X184310000Y-81121700I2540000J0D01*
G01*
X185655838Y-87490660D02*
G75*
G02*
X188120000Y-85566700I2464162J-616040D01*
G01*
X162720000Y-87090700D02*
X162720000Y-87471700D01*
X174150000Y-84550700D02*
X174150000Y-85566700D01*
X174150000Y-85566700D02*
X169070000Y-85566700D01*
X166605838Y-87471700D02*
X164879000Y-87471700D01*
X163101000Y-87471700D02*
X162720000Y-87471700D01*
X162720000Y-83661700D02*
X162720000Y-84042700D01*
X165260000Y-81121700D02*
X174150000Y-81121700D01*
X174150000Y-81121700D02*
X174150000Y-81502700D01*
X162720000Y-83661700D02*
G75*
G02*
X165260000Y-81121700I2540000J0D01*
G01*
X166605838Y-87490660D02*
G75*
G02*
X169070000Y-85566700I2464162J-616040D01*
G01*
X143670000Y-87090700D02*
X143670000Y-87471700D01*
X155100000Y-84550700D02*
X155100000Y-85566700D01*
X155100000Y-85566700D02*
X150020000Y-85566700D01*
X147555838Y-87471700D02*
X145829000Y-87471700D01*
X144051000Y-87471700D02*
X143670000Y-87471700D01*
X143670000Y-83661700D02*
X143670000Y-84042700D01*
X146210000Y-81121700D02*
X155100000Y-81121700D01*
X155100000Y-81121700D02*
X155100000Y-81502700D01*
X143670000Y-83661700D02*
G75*
G02*
X146210000Y-81121700I2540000J0D01*
G01*
X147555838Y-87490660D02*
G75*
G02*
X150020000Y-85566700I2464162J-616040D01*
G01*
X124620000Y-87090700D02*
X124620000Y-87471700D01*
X136050000Y-84550700D02*
X136050000Y-85566700D01*
X136050000Y-85566700D02*
X130970000Y-85566700D01*
X128505838Y-87471700D02*
X126779000Y-87471700D01*
X125001000Y-87471700D02*
X124620000Y-87471700D01*
X124620000Y-83661700D02*
X124620000Y-84042700D01*
X127160000Y-81121700D02*
X136050000Y-81121700D01*
X136050000Y-81121700D02*
X136050000Y-81502700D01*
X124620000Y-83661700D02*
G75*
G02*
X127160000Y-81121700I2540000J0D01*
G01*
X128505838Y-87490660D02*
G75*
G02*
X130970000Y-85566700I2464162J-616040D01*
G01*
X105570000Y-87090700D02*
X105570000Y-87471700D01*
X117000000Y-84550700D02*
X117000000Y-85566700D01*
X117000000Y-85566700D02*
X111920000Y-85566700D01*
X109455838Y-87471700D02*
X107729000Y-87471700D01*
X105951000Y-87471700D02*
X105570000Y-87471700D01*
X105570000Y-83661700D02*
X105570000Y-84042700D01*
X108110000Y-81121700D02*
X117000000Y-81121700D01*
X117000000Y-81121700D02*
X117000000Y-81502700D01*
X105570000Y-83661700D02*
G75*
G02*
X108110000Y-81121700I2540000J0D01*
G01*
X109455838Y-87490660D02*
G75*
G02*
X111920000Y-85566700I2464162J-616040D01*
G01*
X86519700Y-87090700D02*
X86519700Y-87471700D01*
X97949700Y-84550700D02*
X97949700Y-85566700D01*
X97949700Y-85566700D02*
X92869700Y-85566700D01*
X90405538Y-87471700D02*
X88678700Y-87471700D01*
X86900700Y-87471700D02*
X86519700Y-87471700D01*
X86519700Y-83661700D02*
X86519700Y-84042700D01*
X89059700Y-81121700D02*
X97949700Y-81121700D01*
X97949700Y-81121700D02*
X97949700Y-81502700D01*
X86519700Y-83661700D02*
G75*
G02*
X89059700Y-81121700I2540000J0D01*
G01*
X90405538Y-87490660D02*
G75*
G02*
X92869700Y-85566700I2464162J-616040D01*
G01*
X67469700Y-87090700D02*
X67469700Y-87471700D01*
X78899700Y-84550700D02*
X78899700Y-85566700D01*
X78899700Y-85566700D02*
X73819700Y-85566700D01*
X71355538Y-87471700D02*
X69628700Y-87471700D01*
X67850700Y-87471700D02*
X67469700Y-87471700D01*
X67469700Y-83661700D02*
X67469700Y-84042700D01*
X70009700Y-81121700D02*
X78899700Y-81121700D01*
X78899700Y-81121700D02*
X78899700Y-81502700D01*
X67469700Y-83661700D02*
G75*
G02*
X70009700Y-81121700I2540000J0D01*
G01*
X71355538Y-87490660D02*
G75*
G02*
X73819700Y-85566700I2464162J-616040D01*
G01*
X48419700Y-87090700D02*
X48419700Y-87471700D01*
X59849700Y-84550700D02*
X59849700Y-85566700D01*
X59849700Y-85566700D02*
X54769700Y-85566700D01*
X52305538Y-87471700D02*
X50578700Y-87471700D01*
X48800700Y-87471700D02*
X48419700Y-87471700D01*
X48419700Y-83661700D02*
X48419700Y-84042700D01*
X50959700Y-81121700D02*
X59849700Y-81121700D01*
X59849700Y-81121700D02*
X59849700Y-81502700D01*
X48419700Y-83661700D02*
G75*
G02*
X50959700Y-81121700I2540000J0D01*
G01*
X52305538Y-87490660D02*
G75*
G02*
X54769700Y-85566700I2464162J-616040D01*
G01*
X257970000Y-68040700D02*
X257970000Y-68421700D01*
X269400000Y-65500700D02*
X269400000Y-66516700D01*
X269400000Y-66516700D02*
X264320000Y-66516700D01*
X261855838Y-68421700D02*
X260129000Y-68421700D01*
X258351000Y-68421700D02*
X257970000Y-68421700D01*
X257970000Y-64611700D02*
X257970000Y-64992700D01*
X260510000Y-62071700D02*
X269400000Y-62071700D01*
X269400000Y-62071700D02*
X269400000Y-62452700D01*
X257970000Y-64611700D02*
G75*
G02*
X260510000Y-62071700I2540000J0D01*
G01*
X261855838Y-68440660D02*
G75*
G02*
X264320000Y-66516700I2464162J-616040D01*
G01*
X238920000Y-68040700D02*
X238920000Y-68421700D01*
X250350000Y-65500700D02*
X250350000Y-66516700D01*
X250350000Y-66516700D02*
X245270000Y-66516700D01*
X242805838Y-68421700D02*
X241079000Y-68421700D01*
X239301000Y-68421700D02*
X238920000Y-68421700D01*
X238920000Y-64611700D02*
X238920000Y-64992700D01*
X241460000Y-62071700D02*
X250350000Y-62071700D01*
X250350000Y-62071700D02*
X250350000Y-62452700D01*
X238920000Y-64611700D02*
G75*
G02*
X241460000Y-62071700I2540000J0D01*
G01*
X242805838Y-68440660D02*
G75*
G02*
X245270000Y-66516700I2464162J-616040D01*
G01*
X219870000Y-68040700D02*
X219870000Y-68421700D01*
X231300000Y-65500700D02*
X231300000Y-66516700D01*
X231300000Y-66516700D02*
X226220000Y-66516700D01*
X223755838Y-68421700D02*
X222029000Y-68421700D01*
X220251000Y-68421700D02*
X219870000Y-68421700D01*
X219870000Y-64611700D02*
X219870000Y-64992700D01*
X222410000Y-62071700D02*
X231300000Y-62071700D01*
X231300000Y-62071700D02*
X231300000Y-62452700D01*
X219870000Y-64611700D02*
G75*
G02*
X222410000Y-62071700I2540000J0D01*
G01*
X223755838Y-68440660D02*
G75*
G02*
X226220000Y-66516700I2464162J-616040D01*
G01*
X200820000Y-68040700D02*
X200820000Y-68421700D01*
X212250000Y-65500700D02*
X212250000Y-66516700D01*
X212250000Y-66516700D02*
X207170000Y-66516700D01*
X204705838Y-68421700D02*
X202979000Y-68421700D01*
X201201000Y-68421700D02*
X200820000Y-68421700D01*
X200820000Y-64611700D02*
X200820000Y-64992700D01*
X203360000Y-62071700D02*
X212250000Y-62071700D01*
X212250000Y-62071700D02*
X212250000Y-62452700D01*
X200820000Y-64611700D02*
G75*
G02*
X203360000Y-62071700I2540000J0D01*
G01*
X204705838Y-68440660D02*
G75*
G02*
X207170000Y-66516700I2464162J-616040D01*
G01*
X181770000Y-68040700D02*
X181770000Y-68421700D01*
X193200000Y-65500700D02*
X193200000Y-66516700D01*
X193200000Y-66516700D02*
X188120000Y-66516700D01*
X185655838Y-68421700D02*
X183929000Y-68421700D01*
X182151000Y-68421700D02*
X181770000Y-68421700D01*
X181770000Y-64611700D02*
X181770000Y-64992700D01*
X184310000Y-62071700D02*
X193200000Y-62071700D01*
X193200000Y-62071700D02*
X193200000Y-62452700D01*
X181770000Y-64611700D02*
G75*
G02*
X184310000Y-62071700I2540000J0D01*
G01*
X185655838Y-68440660D02*
G75*
G02*
X188120000Y-66516700I2464162J-616040D01*
G01*
X162720000Y-68040700D02*
X162720000Y-68421700D01*
X174150000Y-65500700D02*
X174150000Y-66516700D01*
X174150000Y-66516700D02*
X169070000Y-66516700D01*
X166605838Y-68421700D02*
X164879000Y-68421700D01*
X163101000Y-68421700D02*
X162720000Y-68421700D01*
X162720000Y-64611700D02*
X162720000Y-64992700D01*
X165260000Y-62071700D02*
X174150000Y-62071700D01*
X174150000Y-62071700D02*
X174150000Y-62452700D01*
X162720000Y-64611700D02*
G75*
G02*
X165260000Y-62071700I2540000J0D01*
G01*
X166605838Y-68440660D02*
G75*
G02*
X169070000Y-66516700I2464162J-616040D01*
G01*
X143670000Y-68040700D02*
X143670000Y-68421700D01*
X155100000Y-65500700D02*
X155100000Y-66516700D01*
X155100000Y-66516700D02*
X150020000Y-66516700D01*
X147555838Y-68421700D02*
X145829000Y-68421700D01*
X144051000Y-68421700D02*
X143670000Y-68421700D01*
X143670000Y-64611700D02*
X143670000Y-64992700D01*
X146210000Y-62071700D02*
X155100000Y-62071700D01*
X155100000Y-62071700D02*
X155100000Y-62452700D01*
X143670000Y-64611700D02*
G75*
G02*
X146210000Y-62071700I2540000J0D01*
G01*
X147555838Y-68440660D02*
G75*
G02*
X150020000Y-66516700I2464162J-616040D01*
G01*
X124620000Y-68040700D02*
X124620000Y-68421700D01*
X136050000Y-65500700D02*
X136050000Y-66516700D01*
X136050000Y-66516700D02*
X130970000Y-66516700D01*
X128505838Y-68421700D02*
X126779000Y-68421700D01*
X125001000Y-68421700D02*
X124620000Y-68421700D01*
X124620000Y-64611700D02*
X124620000Y-64992700D01*
X127160000Y-62071700D02*
X136050000Y-62071700D01*
X136050000Y-62071700D02*
X136050000Y-62452700D01*
X124620000Y-64611700D02*
G75*
G02*
X127160000Y-62071700I2540000J0D01*
G01*
X128505838Y-68440660D02*
G75*
G02*
X130970000Y-66516700I2464162J-616040D01*
G01*
X105570000Y-68040700D02*
X105570000Y-68421700D01*
X117000000Y-65500700D02*
X117000000Y-66516700D01*
X117000000Y-66516700D02*
X111920000Y-66516700D01*
X109455838Y-68421700D02*
X107729000Y-68421700D01*
X105951000Y-68421700D02*
X105570000Y-68421700D01*
X105570000Y-64611700D02*
X105570000Y-64992700D01*
X108110000Y-62071700D02*
X117000000Y-62071700D01*
X117000000Y-62071700D02*
X117000000Y-62452700D01*
X105570000Y-64611700D02*
G75*
G02*
X108110000Y-62071700I2540000J0D01*
G01*
X109455838Y-68440660D02*
G75*
G02*
X111920000Y-66516700I2464162J-616040D01*
G01*
X86519700Y-68040700D02*
X86519700Y-68421700D01*
X97949700Y-65500700D02*
X97949700Y-66516700D01*
X97949700Y-66516700D02*
X92869700Y-66516700D01*
X90405538Y-68421700D02*
X88678700Y-68421700D01*
X86900700Y-68421700D02*
X86519700Y-68421700D01*
X86519700Y-64611700D02*
X86519700Y-64992700D01*
X89059700Y-62071700D02*
X97949700Y-62071700D01*
X97949700Y-62071700D02*
X97949700Y-62452700D01*
X86519700Y-64611700D02*
G75*
G02*
X89059700Y-62071700I2540000J0D01*
G01*
X90405538Y-68440660D02*
G75*
G02*
X92869700Y-66516700I2464162J-616040D01*
G01*
X67469700Y-68040700D02*
X67469700Y-68421700D01*
X78899700Y-65500700D02*
X78899700Y-66516700D01*
X78899700Y-66516700D02*
X73819700Y-66516700D01*
X71355538Y-68421700D02*
X69628700Y-68421700D01*
X67850700Y-68421700D02*
X67469700Y-68421700D01*
X67469700Y-64611700D02*
X67469700Y-64992700D01*
X70009700Y-62071700D02*
X78899700Y-62071700D01*
X78899700Y-62071700D02*
X78899700Y-62452700D01*
X67469700Y-64611700D02*
G75*
G02*
X70009700Y-62071700I2540000J0D01*
G01*
X71355538Y-68440660D02*
G75*
G02*
X73819700Y-66516700I2464162J-616040D01*
G01*
X48419700Y-68040700D02*
X48419700Y-68421700D01*
X59849700Y-65500700D02*
X59849700Y-66516700D01*
X59849700Y-66516700D02*
X54769700Y-66516700D01*
X52305538Y-68421700D02*
X50578700Y-68421700D01*
X48800700Y-68421700D02*
X48419700Y-68421700D01*
X48419700Y-64611700D02*
X48419700Y-64992700D01*
X50959700Y-62071700D02*
X59849700Y-62071700D01*
X59849700Y-62071700D02*
X59849700Y-62452700D01*
X48419700Y-64611700D02*
G75*
G02*
X50959700Y-62071700I2540000J0D01*
G01*
X52305538Y-68440660D02*
G75*
G02*
X54769700Y-66516700I2464162J-616040D01*
G01*
X257970000Y-48990700D02*
X257970000Y-49371700D01*
X269400000Y-46450700D02*
X269400000Y-47466700D01*
X269400000Y-47466700D02*
X264320000Y-47466700D01*
X261855838Y-49371700D02*
X260129000Y-49371700D01*
X258351000Y-49371700D02*
X257970000Y-49371700D01*
X257970000Y-45561700D02*
X257970000Y-45942700D01*
X260510000Y-43021700D02*
X269400000Y-43021700D01*
X269400000Y-43021700D02*
X269400000Y-43402700D01*
X257970000Y-45561700D02*
G75*
G02*
X260510000Y-43021700I2540000J0D01*
G01*
X261855838Y-49390660D02*
G75*
G02*
X264320000Y-47466700I2464162J-616040D01*
G01*
X238920000Y-48990700D02*
X238920000Y-49371700D01*
X250350000Y-46450700D02*
X250350000Y-47466700D01*
X250350000Y-47466700D02*
X245270000Y-47466700D01*
X242805838Y-49371700D02*
X241079000Y-49371700D01*
X239301000Y-49371700D02*
X238920000Y-49371700D01*
X238920000Y-45561700D02*
X238920000Y-45942700D01*
X241460000Y-43021700D02*
X250350000Y-43021700D01*
X250350000Y-43021700D02*
X250350000Y-43402700D01*
X238920000Y-45561700D02*
G75*
G02*
X241460000Y-43021700I2540000J0D01*
G01*
X242805838Y-49390660D02*
G75*
G02*
X245270000Y-47466700I2464162J-616040D01*
G01*
X219870000Y-48990700D02*
X219870000Y-49371700D01*
X231300000Y-46450700D02*
X231300000Y-47466700D01*
X231300000Y-47466700D02*
X226220000Y-47466700D01*
X223755838Y-49371700D02*
X222029000Y-49371700D01*
X220251000Y-49371700D02*
X219870000Y-49371700D01*
X219870000Y-45561700D02*
X219870000Y-45942700D01*
X222410000Y-43021700D02*
X231300000Y-43021700D01*
X231300000Y-43021700D02*
X231300000Y-43402700D01*
X219870000Y-45561700D02*
G75*
G02*
X222410000Y-43021700I2540000J0D01*
G01*
X223755838Y-49390660D02*
G75*
G02*
X226220000Y-47466700I2464162J-616040D01*
G01*
X200820000Y-48990700D02*
X200820000Y-49371700D01*
X212250000Y-46450700D02*
X212250000Y-47466700D01*
X212250000Y-47466700D02*
X207170000Y-47466700D01*
X204705838Y-49371700D02*
X202979000Y-49371700D01*
X201201000Y-49371700D02*
X200820000Y-49371700D01*
X200820000Y-45561700D02*
X200820000Y-45942700D01*
X203360000Y-43021700D02*
X212250000Y-43021700D01*
X212250000Y-43021700D02*
X212250000Y-43402700D01*
X200820000Y-45561700D02*
G75*
G02*
X203360000Y-43021700I2540000J0D01*
G01*
X204705838Y-49390660D02*
G75*
G02*
X207170000Y-47466700I2464162J-616040D01*
G01*
X181770000Y-48990700D02*
X181770000Y-49371700D01*
X193200000Y-46450700D02*
X193200000Y-47466700D01*
X193200000Y-47466700D02*
X188120000Y-47466700D01*
X185655838Y-49371700D02*
X183929000Y-49371700D01*
X182151000Y-49371700D02*
X181770000Y-49371700D01*
X181770000Y-45561700D02*
X181770000Y-45942700D01*
X184310000Y-43021700D02*
X193200000Y-43021700D01*
X193200000Y-43021700D02*
X193200000Y-43402700D01*
X181770000Y-45561700D02*
G75*
G02*
X184310000Y-43021700I2540000J0D01*
G01*
X185655838Y-49390660D02*
G75*
G02*
X188120000Y-47466700I2464162J-616040D01*
G01*
X162720000Y-48990700D02*
X162720000Y-49371700D01*
X174150000Y-46450700D02*
X174150000Y-47466700D01*
X174150000Y-47466700D02*
X169070000Y-47466700D01*
X166605838Y-49371700D02*
X164879000Y-49371700D01*
X163101000Y-49371700D02*
X162720000Y-49371700D01*
X162720000Y-45561700D02*
X162720000Y-45942700D01*
X165260000Y-43021700D02*
X174150000Y-43021700D01*
X174150000Y-43021700D02*
X174150000Y-43402700D01*
X162720000Y-45561700D02*
G75*
G02*
X165260000Y-43021700I2540000J0D01*
G01*
X166605838Y-49390660D02*
G75*
G02*
X169070000Y-47466700I2464162J-616040D01*
G01*
X143670000Y-48990700D02*
X143670000Y-49371700D01*
X155100000Y-46450700D02*
X155100000Y-47466700D01*
X155100000Y-47466700D02*
X150020000Y-47466700D01*
X147555838Y-49371700D02*
X145829000Y-49371700D01*
X144051000Y-49371700D02*
X143670000Y-49371700D01*
X143670000Y-45561700D02*
X143670000Y-45942700D01*
X146210000Y-43021700D02*
X155100000Y-43021700D01*
X155100000Y-43021700D02*
X155100000Y-43402700D01*
X143670000Y-45561700D02*
G75*
G02*
X146210000Y-43021700I2540000J0D01*
G01*
X147555838Y-49390660D02*
G75*
G02*
X150020000Y-47466700I2464162J-616040D01*
G01*
X124620000Y-48990700D02*
X124620000Y-49371700D01*
X136050000Y-46450700D02*
X136050000Y-47466700D01*
X136050000Y-47466700D02*
X130970000Y-47466700D01*
X128505838Y-49371700D02*
X126779000Y-49371700D01*
X125001000Y-49371700D02*
X124620000Y-49371700D01*
X124620000Y-45561700D02*
X124620000Y-45942700D01*
X127160000Y-43021700D02*
X136050000Y-43021700D01*
X136050000Y-43021700D02*
X136050000Y-43402700D01*
X124620000Y-45561700D02*
G75*
G02*
X127160000Y-43021700I2540000J0D01*
G01*
X128505838Y-49390660D02*
G75*
G02*
X130970000Y-47466700I2464162J-616040D01*
G01*
X105570000Y-48990700D02*
X105570000Y-49371700D01*
X117000000Y-46450700D02*
X117000000Y-47466700D01*
X117000000Y-47466700D02*
X111920000Y-47466700D01*
X109455838Y-49371700D02*
X107729000Y-49371700D01*
X105951000Y-49371700D02*
X105570000Y-49371700D01*
X105570000Y-45561700D02*
X105570000Y-45942700D01*
X108110000Y-43021700D02*
X117000000Y-43021700D01*
X117000000Y-43021700D02*
X117000000Y-43402700D01*
X105570000Y-45561700D02*
G75*
G02*
X108110000Y-43021700I2540000J0D01*
G01*
X109455838Y-49390660D02*
G75*
G02*
X111920000Y-47466700I2464162J-616040D01*
G01*
X86519700Y-48990700D02*
X86519700Y-49371700D01*
X97949700Y-46450700D02*
X97949700Y-47466700D01*
X97949700Y-47466700D02*
X92869700Y-47466700D01*
X90405538Y-49371700D02*
X88678700Y-49371700D01*
X86900700Y-49371700D02*
X86519700Y-49371700D01*
X86519700Y-45561700D02*
X86519700Y-45942700D01*
X89059700Y-43021700D02*
X97949700Y-43021700D01*
X97949700Y-43021700D02*
X97949700Y-43402700D01*
X86519700Y-45561700D02*
G75*
G02*
X89059700Y-43021700I2540000J0D01*
G01*
X90405538Y-49390660D02*
G75*
G02*
X92869700Y-47466700I2464162J-616040D01*
G01*
X67469700Y-48990700D02*
X67469700Y-49371700D01*
X78899700Y-46450700D02*
X78899700Y-47466700D01*
X78899700Y-47466700D02*
X73819700Y-47466700D01*
X71355538Y-49371700D02*
X69628700Y-49371700D01*
X67850700Y-49371700D02*
X67469700Y-49371700D01*
X67469700Y-45561700D02*
X67469700Y-45942700D01*
X70009700Y-43021700D02*
X78899700Y-43021700D01*
X78899700Y-43021700D02*
X78899700Y-43402700D01*
X67469700Y-45561700D02*
G75*
G02*
X70009700Y-43021700I2540000J0D01*
G01*
X71355538Y-49390660D02*
G75*
G02*
X73819700Y-47466700I2464162J-616040D01*
G01*
X48419700Y-48990700D02*
X48419700Y-49371700D01*
X59849700Y-46450700D02*
X59849700Y-47466700D01*
X59849700Y-47466700D02*
X54769700Y-47466700D01*
X52305538Y-49371700D02*
X50578700Y-49371700D01*
X48800700Y-49371700D02*
X48419700Y-49371700D01*
X48419700Y-45561700D02*
X48419700Y-45942700D01*
X50959700Y-43021700D02*
X59849700Y-43021700D01*
X59849700Y-43021700D02*
X59849700Y-43402700D01*
X48419700Y-45561700D02*
G75*
G02*
X50959700Y-43021700I2540000J0D01*
G01*
X52305538Y-49390660D02*
G75*
G02*
X54769700Y-47466700I2464162J-616040D01*
G01*
X257970000Y-29940700D02*
X257970000Y-30321700D01*
X269400000Y-27400700D02*
X269400000Y-28416700D01*
X269400000Y-28416700D02*
X264320000Y-28416700D01*
X261855838Y-30321700D02*
X260129000Y-30321700D01*
X258351000Y-30321700D02*
X257970000Y-30321700D01*
X257970000Y-26511700D02*
X257970000Y-26892700D01*
X260510000Y-23971700D02*
X269400000Y-23971700D01*
X269400000Y-23971700D02*
X269400000Y-24352700D01*
X257970000Y-26511700D02*
G75*
G02*
X260510000Y-23971700I2540000J0D01*
G01*
X261855838Y-30340660D02*
G75*
G02*
X264320000Y-28416700I2464162J-616040D01*
G01*
X238920000Y-29940700D02*
X238920000Y-30321700D01*
X250350000Y-27400700D02*
X250350000Y-28416700D01*
X250350000Y-28416700D02*
X245270000Y-28416700D01*
X242805838Y-30321700D02*
X241079000Y-30321700D01*
X239301000Y-30321700D02*
X238920000Y-30321700D01*
X238920000Y-26511700D02*
X238920000Y-26892700D01*
X241460000Y-23971700D02*
X250350000Y-23971700D01*
X250350000Y-23971700D02*
X250350000Y-24352700D01*
X238920000Y-26511700D02*
G75*
G02*
X241460000Y-23971700I2540000J0D01*
G01*
X242805838Y-30340660D02*
G75*
G02*
X245270000Y-28416700I2464162J-616040D01*
G01*
X219870000Y-29940700D02*
X219870000Y-30321700D01*
X231300000Y-27400700D02*
X231300000Y-28416700D01*
X231300000Y-28416700D02*
X226220000Y-28416700D01*
X223755838Y-30321700D02*
X222029000Y-30321700D01*
X220251000Y-30321700D02*
X219870000Y-30321700D01*
X219870000Y-26511700D02*
X219870000Y-26892700D01*
X222410000Y-23971700D02*
X231300000Y-23971700D01*
X231300000Y-23971700D02*
X231300000Y-24352700D01*
X219870000Y-26511700D02*
G75*
G02*
X222410000Y-23971700I2540000J0D01*
G01*
X223755838Y-30340660D02*
G75*
G02*
X226220000Y-28416700I2464162J-616040D01*
G01*
X200820000Y-29940700D02*
X200820000Y-30321700D01*
X212250000Y-27400700D02*
X212250000Y-28416700D01*
X212250000Y-28416700D02*
X207170000Y-28416700D01*
X204705838Y-30321700D02*
X202979000Y-30321700D01*
X201201000Y-30321700D02*
X200820000Y-30321700D01*
X200820000Y-26511700D02*
X200820000Y-26892700D01*
X203360000Y-23971700D02*
X212250000Y-23971700D01*
X212250000Y-23971700D02*
X212250000Y-24352700D01*
X200820000Y-26511700D02*
G75*
G02*
X203360000Y-23971700I2540000J0D01*
G01*
X204705838Y-30340660D02*
G75*
G02*
X207170000Y-28416700I2464162J-616040D01*
G01*
X181770000Y-29940700D02*
X181770000Y-30321700D01*
X193200000Y-27400700D02*
X193200000Y-28416700D01*
X193200000Y-28416700D02*
X188120000Y-28416700D01*
X185655838Y-30321700D02*
X183929000Y-30321700D01*
X182151000Y-30321700D02*
X181770000Y-30321700D01*
X181770000Y-26511700D02*
X181770000Y-26892700D01*
X184310000Y-23971700D02*
X193200000Y-23971700D01*
X193200000Y-23971700D02*
X193200000Y-24352700D01*
X181770000Y-26511700D02*
G75*
G02*
X184310000Y-23971700I2540000J0D01*
G01*
X185655838Y-30340660D02*
G75*
G02*
X188120000Y-28416700I2464162J-616040D01*
G01*
X162720000Y-29940700D02*
X162720000Y-30321700D01*
X174150000Y-27400700D02*
X174150000Y-28416700D01*
X174150000Y-28416700D02*
X169070000Y-28416700D01*
X166605838Y-30321700D02*
X164879000Y-30321700D01*
X163101000Y-30321700D02*
X162720000Y-30321700D01*
X162720000Y-26511700D02*
X162720000Y-26892700D01*
X165260000Y-23971700D02*
X174150000Y-23971700D01*
X174150000Y-23971700D02*
X174150000Y-24352700D01*
X162720000Y-26511700D02*
G75*
G02*
X165260000Y-23971700I2540000J0D01*
G01*
X166605838Y-30340660D02*
G75*
G02*
X169070000Y-28416700I2464162J-616040D01*
G01*
X143670000Y-29940700D02*
X143670000Y-30321700D01*
X155100000Y-27400700D02*
X155100000Y-28416700D01*
X155100000Y-28416700D02*
X150020000Y-28416700D01*
X147555838Y-30321700D02*
X145829000Y-30321700D01*
X144051000Y-30321700D02*
X143670000Y-30321700D01*
X143670000Y-26511700D02*
X143670000Y-26892700D01*
X146210000Y-23971700D02*
X155100000Y-23971700D01*
X155100000Y-23971700D02*
X155100000Y-24352700D01*
X143670000Y-26511700D02*
G75*
G02*
X146210000Y-23971700I2540000J0D01*
G01*
X147555838Y-30340660D02*
G75*
G02*
X150020000Y-28416700I2464162J-616040D01*
G01*
X124620000Y-29940700D02*
X124620000Y-30321700D01*
X136050000Y-27400700D02*
X136050000Y-28416700D01*
X136050000Y-28416700D02*
X130970000Y-28416700D01*
X128505838Y-30321700D02*
X126779000Y-30321700D01*
X125001000Y-30321700D02*
X124620000Y-30321700D01*
X124620000Y-26511700D02*
X124620000Y-26892700D01*
X127160000Y-23971700D02*
X136050000Y-23971700D01*
X136050000Y-23971700D02*
X136050000Y-24352700D01*
X124620000Y-26511700D02*
G75*
G02*
X127160000Y-23971700I2540000J0D01*
G01*
X128505838Y-30340660D02*
G75*
G02*
X130970000Y-28416700I2464162J-616040D01*
G01*
X105570000Y-29940700D02*
X105570000Y-30321700D01*
X117000000Y-27400700D02*
X117000000Y-28416700D01*
X117000000Y-28416700D02*
X111920000Y-28416700D01*
X109455838Y-30321700D02*
X107729000Y-30321700D01*
X105951000Y-30321700D02*
X105570000Y-30321700D01*
X105570000Y-26511700D02*
X105570000Y-26892700D01*
X108110000Y-23971700D02*
X117000000Y-23971700D01*
X117000000Y-23971700D02*
X117000000Y-24352700D01*
X105570000Y-26511700D02*
G75*
G02*
X108110000Y-23971700I2540000J0D01*
G01*
X109455838Y-30340660D02*
G75*
G02*
X111920000Y-28416700I2464162J-616040D01*
G01*
X86519700Y-29940700D02*
X86519700Y-30321700D01*
X97949700Y-27400700D02*
X97949700Y-28416700D01*
X97949700Y-28416700D02*
X92869700Y-28416700D01*
X90405538Y-30321700D02*
X88678700Y-30321700D01*
X86900700Y-30321700D02*
X86519700Y-30321700D01*
X86519700Y-26511700D02*
X86519700Y-26892700D01*
X89059700Y-23971700D02*
X97949700Y-23971700D01*
X97949700Y-23971700D02*
X97949700Y-24352700D01*
X86519700Y-26511700D02*
G75*
G02*
X89059700Y-23971700I2540000J0D01*
G01*
X90405538Y-30340660D02*
G75*
G02*
X92869700Y-28416700I2464162J-616040D01*
G01*
X67469700Y-29940700D02*
X67469700Y-30321700D01*
X78899700Y-27400700D02*
X78899700Y-28416700D01*
X78899700Y-28416700D02*
X73819700Y-28416700D01*
X71355538Y-30321700D02*
X69628700Y-30321700D01*
X67850700Y-30321700D02*
X67469700Y-30321700D01*
X67469700Y-26511700D02*
X67469700Y-26892700D01*
X70009700Y-23971700D02*
X78899700Y-23971700D01*
X78899700Y-23971700D02*
X78899700Y-24352700D01*
X67469700Y-26511700D02*
G75*
G02*
X70009700Y-23971700I2540000J0D01*
G01*
X71355538Y-30340660D02*
G75*
G02*
X73819700Y-28416700I2464162J-616040D01*
G01*
X48419700Y-29940700D02*
X48419700Y-30321700D01*
X59849700Y-27400700D02*
X59849700Y-28416700D01*
X59849700Y-28416700D02*
X54769700Y-28416700D01*
X52305538Y-30321700D02*
X50578700Y-30321700D01*
X48800700Y-30321700D02*
X48419700Y-30321700D01*
X48419700Y-26511700D02*
X48419700Y-26892700D01*
X50959700Y-23971700D02*
X59849700Y-23971700D01*
X59849700Y-23971700D02*
X59849700Y-24352700D01*
X48419700Y-26511700D02*
G75*
G02*
X50959700Y-23971700I2540000J0D01*
G01*
X52305538Y-30340660D02*
G75*
G02*
X54769700Y-28416700I2464162J-616040D01*
G01*
D12*
X39846900Y-27623400D02*
X39846900Y-58103400D01*
X39846900Y-58103400D02*
X22066900Y-58103400D01*
X22066900Y-58103400D02*
X22066900Y-27623400D01*
X37306900Y-27623400D02*
X37306900Y-30163400D01*
X37306900Y-30163400D02*
X39846900Y-30163400D01*
D11*
G36*
X26025332Y-33502760D02*
G01*
X26025332Y-33802760D01*
X26125332Y-33802760D01*
X26125332Y-33502760D01*
X26025332Y-33502760D01*
G37*
X26025332Y-33502760D02*
X26025332Y-33802760D01*
X26125332Y-33802760D01*
X26125332Y-33502760D01*
X26025332Y-33502760D01*
G36*
X26225332Y-33902760D02*
G01*
X26225332Y-34002760D01*
X26325332Y-34002760D01*
X26325332Y-33902760D01*
X26225332Y-33902760D01*
G37*
X26225332Y-33902760D02*
X26225332Y-34002760D01*
X26325332Y-34002760D01*
X26325332Y-33902760D01*
X26225332Y-33902760D01*
G36*
X26025332Y-33502760D02*
G01*
X26025332Y-33602760D01*
X26525332Y-33602760D01*
X26525332Y-33502760D01*
X26025332Y-33502760D01*
G37*
X26025332Y-33502760D02*
X26025332Y-33602760D01*
X26525332Y-33602760D01*
X26525332Y-33502760D01*
X26025332Y-33502760D01*
G36*
X26425332Y-33502760D02*
G01*
X26425332Y-34302760D01*
X26525332Y-34302760D01*
X26525332Y-33502760D01*
X26425332Y-33502760D01*
G37*
X26425332Y-33502760D02*
X26425332Y-34302760D01*
X26525332Y-34302760D01*
X26525332Y-33502760D01*
X26425332Y-33502760D01*
G36*
X26025332Y-34102760D02*
G01*
X26025332Y-34302760D01*
X26125332Y-34302760D01*
X26125332Y-34102760D01*
X26025332Y-34102760D01*
G37*
X26025332Y-34102760D02*
X26025332Y-34302760D01*
X26125332Y-34302760D01*
X26125332Y-34102760D01*
X26025332Y-34102760D01*
D12*
X22066900Y-27623400D02*
X22066900Y-25083400D01*
X22066900Y-25083400D02*
X39846900Y-25083400D01*
X39846900Y-25083400D02*
X39846900Y-27623400D01*
X37306900Y-27623400D02*
X39846900Y-27623400D01*
D11*
X43681604Y-72544109D02*
X42881604Y-72544109D01*
X42881604Y-72734585D01*
X42919700Y-72848871D01*
X42995890Y-72925061D01*
X43072080Y-72963157D01*
X43224461Y-73001252D01*
X43338747Y-73001252D01*
X43491128Y-72963157D01*
X43567319Y-72925061D01*
X43643509Y-72848871D01*
X43681604Y-72734585D01*
X43681604Y-72544109D01*
X43757795Y-73153633D02*
X43757795Y-73763157D01*
X42881604Y-74334585D02*
X42881604Y-73953633D01*
X43262557Y-73915538D01*
X43224461Y-73953633D01*
X43186366Y-74029823D01*
X43186366Y-74220300D01*
X43224461Y-74296490D01*
X43262557Y-74334585D01*
X43338747Y-74372680D01*
X43529223Y-74372680D01*
X43605414Y-74334585D01*
X43643509Y-74296490D01*
X43681604Y-74220300D01*
X43681604Y-74029823D01*
X43643509Y-73953633D01*
X43605414Y-73915538D01*
X43681604Y-74753633D02*
X43681604Y-74906014D01*
X43643509Y-74982204D01*
X43605414Y-75020300D01*
X43491128Y-75096490D01*
X43338747Y-75134585D01*
X43033985Y-75134585D01*
X42957795Y-75096490D01*
X42919700Y-75058395D01*
X42881604Y-74982204D01*
X42881604Y-74829823D01*
X42919700Y-74753633D01*
X42957795Y-74715538D01*
X43033985Y-74677442D01*
X43224461Y-74677442D01*
X43300652Y-74715538D01*
X43338747Y-74753633D01*
X43376842Y-74829823D01*
X43376842Y-74982204D01*
X43338747Y-75058395D01*
X43300652Y-75096490D01*
X43224461Y-75134585D01*
X260838190Y-115119904D02*
X260838190Y-114319904D01*
X260647714Y-114319904D01*
X260533428Y-114358000D01*
X260457238Y-114434190D01*
X260419142Y-114510380D01*
X260381047Y-114662761D01*
X260381047Y-114777047D01*
X260419142Y-114929428D01*
X260457238Y-115005619D01*
X260533428Y-115081809D01*
X260647714Y-115119904D01*
X260838190Y-115119904D01*
X260228666Y-115196095D02*
X259619142Y-115196095D01*
X259047714Y-114319904D02*
X259428666Y-114319904D01*
X259466761Y-114700857D01*
X259428666Y-114662761D01*
X259352476Y-114624666D01*
X259162000Y-114624666D01*
X259085809Y-114662761D01*
X259047714Y-114700857D01*
X259009619Y-114777047D01*
X259009619Y-114967523D01*
X259047714Y-115043714D01*
X259085809Y-115081809D01*
X259162000Y-115119904D01*
X259352476Y-115119904D01*
X259428666Y-115081809D01*
X259466761Y-115043714D01*
X258552476Y-114662761D02*
X258628666Y-114624666D01*
X258666761Y-114586571D01*
X258704857Y-114510380D01*
X258704857Y-114472285D01*
X258666761Y-114396095D01*
X258628666Y-114358000D01*
X258552476Y-114319904D01*
X258400095Y-114319904D01*
X258323904Y-114358000D01*
X258285809Y-114396095D01*
X258247714Y-114472285D01*
X258247714Y-114510380D01*
X258285809Y-114586571D01*
X258323904Y-114624666D01*
X258400095Y-114662761D01*
X258552476Y-114662761D01*
X258628666Y-114700857D01*
X258666761Y-114738952D01*
X258704857Y-114815142D01*
X258704857Y-114967523D01*
X258666761Y-115043714D01*
X258628666Y-115081809D01*
X258552476Y-115119904D01*
X258400095Y-115119904D01*
X258323904Y-115081809D01*
X258285809Y-115043714D01*
X258247714Y-114967523D01*
X258247714Y-114815142D01*
X258285809Y-114738952D01*
X258323904Y-114700857D01*
X258400095Y-114662761D01*
X246550190Y-115120904D02*
X246550190Y-114320904D01*
X246359714Y-114320904D01*
X246245428Y-114359000D01*
X246169238Y-114435190D01*
X246131142Y-114511380D01*
X246093047Y-114663761D01*
X246093047Y-114778047D01*
X246131142Y-114930428D01*
X246169238Y-115006619D01*
X246245428Y-115082809D01*
X246359714Y-115120904D01*
X246550190Y-115120904D01*
X245940666Y-115197095D02*
X245331142Y-115197095D01*
X244759714Y-114320904D02*
X245140666Y-114320904D01*
X245178761Y-114701857D01*
X245140666Y-114663761D01*
X245064476Y-114625666D01*
X244874000Y-114625666D01*
X244797809Y-114663761D01*
X244759714Y-114701857D01*
X244721619Y-114778047D01*
X244721619Y-114968523D01*
X244759714Y-115044714D01*
X244797809Y-115082809D01*
X244874000Y-115120904D01*
X245064476Y-115120904D01*
X245140666Y-115082809D01*
X245178761Y-115044714D01*
X244454952Y-114320904D02*
X243921619Y-114320904D01*
X244264476Y-115120904D01*
X227500190Y-115119904D02*
X227500190Y-114319904D01*
X227309714Y-114319904D01*
X227195428Y-114358000D01*
X227119238Y-114434190D01*
X227081142Y-114510380D01*
X227043047Y-114662761D01*
X227043047Y-114777047D01*
X227081142Y-114929428D01*
X227119238Y-115005619D01*
X227195428Y-115081809D01*
X227309714Y-115119904D01*
X227500190Y-115119904D01*
X226890666Y-115196095D02*
X226281142Y-115196095D01*
X225709714Y-114319904D02*
X226090666Y-114319904D01*
X226128761Y-114700857D01*
X226090666Y-114662761D01*
X226014476Y-114624666D01*
X225824000Y-114624666D01*
X225747809Y-114662761D01*
X225709714Y-114700857D01*
X225671619Y-114777047D01*
X225671619Y-114967523D01*
X225709714Y-115043714D01*
X225747809Y-115081809D01*
X225824000Y-115119904D01*
X226014476Y-115119904D01*
X226090666Y-115081809D01*
X226128761Y-115043714D01*
X224985904Y-114319904D02*
X225138285Y-114319904D01*
X225214476Y-114358000D01*
X225252571Y-114396095D01*
X225328761Y-114510380D01*
X225366857Y-114662761D01*
X225366857Y-114967523D01*
X225328761Y-115043714D01*
X225290666Y-115081809D01*
X225214476Y-115119904D01*
X225062095Y-115119904D01*
X224985904Y-115081809D01*
X224947809Y-115043714D01*
X224909714Y-114967523D01*
X224909714Y-114777047D01*
X224947809Y-114700857D01*
X224985904Y-114662761D01*
X225062095Y-114624666D01*
X225214476Y-114624666D01*
X225290666Y-114662761D01*
X225328761Y-114700857D01*
X225366857Y-114777047D01*
X208449190Y-115120904D02*
X208449190Y-114320904D01*
X208258714Y-114320904D01*
X208144428Y-114359000D01*
X208068238Y-114435190D01*
X208030142Y-114511380D01*
X207992047Y-114663761D01*
X207992047Y-114778047D01*
X208030142Y-114930428D01*
X208068238Y-115006619D01*
X208144428Y-115082809D01*
X208258714Y-115120904D01*
X208449190Y-115120904D01*
X207839666Y-115197095D02*
X207230142Y-115197095D01*
X206658714Y-114320904D02*
X207039666Y-114320904D01*
X207077761Y-114701857D01*
X207039666Y-114663761D01*
X206963476Y-114625666D01*
X206773000Y-114625666D01*
X206696809Y-114663761D01*
X206658714Y-114701857D01*
X206620619Y-114778047D01*
X206620619Y-114968523D01*
X206658714Y-115044714D01*
X206696809Y-115082809D01*
X206773000Y-115120904D01*
X206963476Y-115120904D01*
X207039666Y-115082809D01*
X207077761Y-115044714D01*
X205896809Y-114320904D02*
X206277761Y-114320904D01*
X206315857Y-114701857D01*
X206277761Y-114663761D01*
X206201571Y-114625666D01*
X206011095Y-114625666D01*
X205934904Y-114663761D01*
X205896809Y-114701857D01*
X205858714Y-114778047D01*
X205858714Y-114968523D01*
X205896809Y-115044714D01*
X205934904Y-115082809D01*
X206011095Y-115120904D01*
X206201571Y-115120904D01*
X206277761Y-115082809D01*
X206315857Y-115044714D01*
X189399190Y-115119904D02*
X189399190Y-114319904D01*
X189208714Y-114319904D01*
X189094428Y-114358000D01*
X189018238Y-114434190D01*
X188980142Y-114510380D01*
X188942047Y-114662761D01*
X188942047Y-114777047D01*
X188980142Y-114929428D01*
X189018238Y-115005619D01*
X189094428Y-115081809D01*
X189208714Y-115119904D01*
X189399190Y-115119904D01*
X188789666Y-115196095D02*
X188180142Y-115196095D01*
X187608714Y-114319904D02*
X187989666Y-114319904D01*
X188027761Y-114700857D01*
X187989666Y-114662761D01*
X187913476Y-114624666D01*
X187723000Y-114624666D01*
X187646809Y-114662761D01*
X187608714Y-114700857D01*
X187570619Y-114777047D01*
X187570619Y-114967523D01*
X187608714Y-115043714D01*
X187646809Y-115081809D01*
X187723000Y-115119904D01*
X187913476Y-115119904D01*
X187989666Y-115081809D01*
X188027761Y-115043714D01*
X186884904Y-114586571D02*
X186884904Y-115119904D01*
X187075380Y-114281809D02*
X187265857Y-114853238D01*
X186770619Y-114853238D01*
X175111190Y-110357904D02*
X175111190Y-109557904D01*
X174920714Y-109557904D01*
X174806428Y-109596000D01*
X174730238Y-109672190D01*
X174692142Y-109748380D01*
X174654047Y-109900761D01*
X174654047Y-110015047D01*
X174692142Y-110167428D01*
X174730238Y-110243619D01*
X174806428Y-110319809D01*
X174920714Y-110357904D01*
X175111190Y-110357904D01*
X174501666Y-110434095D02*
X173892142Y-110434095D01*
X173320714Y-109557904D02*
X173701666Y-109557904D01*
X173739761Y-109938857D01*
X173701666Y-109900761D01*
X173625476Y-109862666D01*
X173435000Y-109862666D01*
X173358809Y-109900761D01*
X173320714Y-109938857D01*
X173282619Y-110015047D01*
X173282619Y-110205523D01*
X173320714Y-110281714D01*
X173358809Y-110319809D01*
X173435000Y-110357904D01*
X173625476Y-110357904D01*
X173701666Y-110319809D01*
X173739761Y-110281714D01*
X173015952Y-109557904D02*
X172520714Y-109557904D01*
X172787380Y-109862666D01*
X172673095Y-109862666D01*
X172596904Y-109900761D01*
X172558809Y-109938857D01*
X172520714Y-110015047D01*
X172520714Y-110205523D01*
X172558809Y-110281714D01*
X172596904Y-110319809D01*
X172673095Y-110357904D01*
X172901666Y-110357904D01*
X172977857Y-110319809D01*
X173015952Y-110281714D01*
X132248190Y-115120904D02*
X132248190Y-114320904D01*
X132057714Y-114320904D01*
X131943428Y-114359000D01*
X131867238Y-114435190D01*
X131829142Y-114511380D01*
X131791047Y-114663761D01*
X131791047Y-114778047D01*
X131829142Y-114930428D01*
X131867238Y-115006619D01*
X131943428Y-115082809D01*
X132057714Y-115120904D01*
X132248190Y-115120904D01*
X131638666Y-115197095D02*
X131029142Y-115197095D01*
X130457714Y-114320904D02*
X130838666Y-114320904D01*
X130876761Y-114701857D01*
X130838666Y-114663761D01*
X130762476Y-114625666D01*
X130572000Y-114625666D01*
X130495809Y-114663761D01*
X130457714Y-114701857D01*
X130419619Y-114778047D01*
X130419619Y-114968523D01*
X130457714Y-115044714D01*
X130495809Y-115082809D01*
X130572000Y-115120904D01*
X130762476Y-115120904D01*
X130838666Y-115082809D01*
X130876761Y-115044714D01*
X130114857Y-114397095D02*
X130076761Y-114359000D01*
X130000571Y-114320904D01*
X129810095Y-114320904D01*
X129733904Y-114359000D01*
X129695809Y-114397095D01*
X129657714Y-114473285D01*
X129657714Y-114549476D01*
X129695809Y-114663761D01*
X130152952Y-115120904D01*
X129657714Y-115120904D01*
X113197190Y-115119904D02*
X113197190Y-114319904D01*
X113006714Y-114319904D01*
X112892428Y-114358000D01*
X112816238Y-114434190D01*
X112778142Y-114510380D01*
X112740047Y-114662761D01*
X112740047Y-114777047D01*
X112778142Y-114929428D01*
X112816238Y-115005619D01*
X112892428Y-115081809D01*
X113006714Y-115119904D01*
X113197190Y-115119904D01*
X112587666Y-115196095D02*
X111978142Y-115196095D01*
X111406714Y-114319904D02*
X111787666Y-114319904D01*
X111825761Y-114700857D01*
X111787666Y-114662761D01*
X111711476Y-114624666D01*
X111521000Y-114624666D01*
X111444809Y-114662761D01*
X111406714Y-114700857D01*
X111368619Y-114777047D01*
X111368619Y-114967523D01*
X111406714Y-115043714D01*
X111444809Y-115081809D01*
X111521000Y-115119904D01*
X111711476Y-115119904D01*
X111787666Y-115081809D01*
X111825761Y-115043714D01*
X110606714Y-115119904D02*
X111063857Y-115119904D01*
X110835285Y-115119904D02*
X110835285Y-114319904D01*
X110911476Y-114434190D01*
X110987666Y-114510380D01*
X111063857Y-114548476D01*
X94146890Y-115120904D02*
X94146890Y-114320904D01*
X93956414Y-114320904D01*
X93842128Y-114359000D01*
X93765938Y-114435190D01*
X93727842Y-114511380D01*
X93689747Y-114663761D01*
X93689747Y-114778047D01*
X93727842Y-114930428D01*
X93765938Y-115006619D01*
X93842128Y-115082809D01*
X93956414Y-115120904D01*
X94146890Y-115120904D01*
X93537366Y-115197095D02*
X92927842Y-115197095D01*
X92356414Y-114320904D02*
X92737366Y-114320904D01*
X92775461Y-114701857D01*
X92737366Y-114663761D01*
X92661176Y-114625666D01*
X92470700Y-114625666D01*
X92394509Y-114663761D01*
X92356414Y-114701857D01*
X92318319Y-114778047D01*
X92318319Y-114968523D01*
X92356414Y-115044714D01*
X92394509Y-115082809D01*
X92470700Y-115120904D01*
X92661176Y-115120904D01*
X92737366Y-115082809D01*
X92775461Y-115044714D01*
X91823080Y-114320904D02*
X91746890Y-114320904D01*
X91670700Y-114359000D01*
X91632604Y-114397095D01*
X91594509Y-114473285D01*
X91556414Y-114625666D01*
X91556414Y-114816142D01*
X91594509Y-114968523D01*
X91632604Y-115044714D01*
X91670700Y-115082809D01*
X91746890Y-115120904D01*
X91823080Y-115120904D01*
X91899271Y-115082809D01*
X91937366Y-115044714D01*
X91975461Y-114968523D01*
X92013557Y-114816142D01*
X92013557Y-114625666D01*
X91975461Y-114473285D01*
X91937366Y-114397095D01*
X91899271Y-114359000D01*
X91823080Y-114320904D01*
X75096490Y-115119904D02*
X75096490Y-114319904D01*
X74906014Y-114319904D01*
X74791728Y-114358000D01*
X74715538Y-114434190D01*
X74677442Y-114510380D01*
X74639347Y-114662761D01*
X74639347Y-114777047D01*
X74677442Y-114929428D01*
X74715538Y-115005619D01*
X74791728Y-115081809D01*
X74906014Y-115119904D01*
X75096490Y-115119904D01*
X74486966Y-115196095D02*
X73877442Y-115196095D01*
X73344109Y-114586571D02*
X73344109Y-115119904D01*
X73534585Y-114281809D02*
X73725061Y-114853238D01*
X73229823Y-114853238D01*
X72886966Y-115119904D02*
X72734585Y-115119904D01*
X72658395Y-115081809D01*
X72620300Y-115043714D01*
X72544109Y-114929428D01*
X72506014Y-114777047D01*
X72506014Y-114472285D01*
X72544109Y-114396095D01*
X72582204Y-114358000D01*
X72658395Y-114319904D01*
X72810776Y-114319904D01*
X72886966Y-114358000D01*
X72925061Y-114396095D01*
X72963157Y-114472285D01*
X72963157Y-114662761D01*
X72925061Y-114738952D01*
X72886966Y-114777047D01*
X72810776Y-114815142D01*
X72658395Y-114815142D01*
X72582204Y-114777047D01*
X72544109Y-114738952D01*
X72506014Y-114662761D01*
X60808690Y-115120904D02*
X60808690Y-114320904D01*
X60618214Y-114320904D01*
X60503928Y-114359000D01*
X60427738Y-114435190D01*
X60389642Y-114511380D01*
X60351547Y-114663761D01*
X60351547Y-114778047D01*
X60389642Y-114930428D01*
X60427738Y-115006619D01*
X60503928Y-115082809D01*
X60618214Y-115120904D01*
X60808690Y-115120904D01*
X60199166Y-115197095D02*
X59589642Y-115197095D01*
X59056309Y-114587571D02*
X59056309Y-115120904D01*
X59246785Y-114282809D02*
X59437261Y-114854238D01*
X58942023Y-114854238D01*
X58522976Y-114663761D02*
X58599166Y-114625666D01*
X58637261Y-114587571D01*
X58675357Y-114511380D01*
X58675357Y-114473285D01*
X58637261Y-114397095D01*
X58599166Y-114359000D01*
X58522976Y-114320904D01*
X58370595Y-114320904D01*
X58294404Y-114359000D01*
X58256309Y-114397095D01*
X58218214Y-114473285D01*
X58218214Y-114511380D01*
X58256309Y-114587571D01*
X58294404Y-114625666D01*
X58370595Y-114663761D01*
X58522976Y-114663761D01*
X58599166Y-114701857D01*
X58637261Y-114739952D01*
X58675357Y-114816142D01*
X58675357Y-114968523D01*
X58637261Y-115044714D01*
X58599166Y-115082809D01*
X58522976Y-115120904D01*
X58370595Y-115120904D01*
X58294404Y-115082809D01*
X58256309Y-115044714D01*
X58218214Y-114968523D01*
X58218214Y-114816142D01*
X58256309Y-114739952D01*
X58294404Y-114701857D01*
X58370595Y-114663761D01*
X265600190Y-96070204D02*
X265600190Y-95270204D01*
X265409714Y-95270204D01*
X265295428Y-95308300D01*
X265219238Y-95384490D01*
X265181142Y-95460680D01*
X265143047Y-95613061D01*
X265143047Y-95727347D01*
X265181142Y-95879728D01*
X265219238Y-95955919D01*
X265295428Y-96032109D01*
X265409714Y-96070204D01*
X265600190Y-96070204D01*
X264990666Y-96146395D02*
X264381142Y-96146395D01*
X263847809Y-95536871D02*
X263847809Y-96070204D01*
X264038285Y-95232109D02*
X264228761Y-95803538D01*
X263733523Y-95803538D01*
X263504952Y-95270204D02*
X262971619Y-95270204D01*
X263314476Y-96070204D01*
X246550190Y-96070204D02*
X246550190Y-95270204D01*
X246359714Y-95270204D01*
X246245428Y-95308300D01*
X246169238Y-95384490D01*
X246131142Y-95460680D01*
X246093047Y-95613061D01*
X246093047Y-95727347D01*
X246131142Y-95879728D01*
X246169238Y-95955919D01*
X246245428Y-96032109D01*
X246359714Y-96070204D01*
X246550190Y-96070204D01*
X245940666Y-96146395D02*
X245331142Y-96146395D01*
X244797809Y-95536871D02*
X244797809Y-96070204D01*
X244988285Y-95232109D02*
X245178761Y-95803538D01*
X244683523Y-95803538D01*
X244035904Y-95270204D02*
X244188285Y-95270204D01*
X244264476Y-95308300D01*
X244302571Y-95346395D01*
X244378761Y-95460680D01*
X244416857Y-95613061D01*
X244416857Y-95917823D01*
X244378761Y-95994014D01*
X244340666Y-96032109D01*
X244264476Y-96070204D01*
X244112095Y-96070204D01*
X244035904Y-96032109D01*
X243997809Y-95994014D01*
X243959714Y-95917823D01*
X243959714Y-95727347D01*
X243997809Y-95651157D01*
X244035904Y-95613061D01*
X244112095Y-95574966D01*
X244264476Y-95574966D01*
X244340666Y-95613061D01*
X244378761Y-95651157D01*
X244416857Y-95727347D01*
X227500190Y-96070204D02*
X227500190Y-95270204D01*
X227309714Y-95270204D01*
X227195428Y-95308300D01*
X227119238Y-95384490D01*
X227081142Y-95460680D01*
X227043047Y-95613061D01*
X227043047Y-95727347D01*
X227081142Y-95879728D01*
X227119238Y-95955919D01*
X227195428Y-96032109D01*
X227309714Y-96070204D01*
X227500190Y-96070204D01*
X226890666Y-96146395D02*
X226281142Y-96146395D01*
X225747809Y-95536871D02*
X225747809Y-96070204D01*
X225938285Y-95232109D02*
X226128761Y-95803538D01*
X225633523Y-95803538D01*
X224947809Y-95270204D02*
X225328761Y-95270204D01*
X225366857Y-95651157D01*
X225328761Y-95613061D01*
X225252571Y-95574966D01*
X225062095Y-95574966D01*
X224985904Y-95613061D01*
X224947809Y-95651157D01*
X224909714Y-95727347D01*
X224909714Y-95917823D01*
X224947809Y-95994014D01*
X224985904Y-96032109D01*
X225062095Y-96070204D01*
X225252571Y-96070204D01*
X225328761Y-96032109D01*
X225366857Y-95994014D01*
X208449190Y-96070204D02*
X208449190Y-95270204D01*
X208258714Y-95270204D01*
X208144428Y-95308300D01*
X208068238Y-95384490D01*
X208030142Y-95460680D01*
X207992047Y-95613061D01*
X207992047Y-95727347D01*
X208030142Y-95879728D01*
X208068238Y-95955919D01*
X208144428Y-96032109D01*
X208258714Y-96070204D01*
X208449190Y-96070204D01*
X207839666Y-96146395D02*
X207230142Y-96146395D01*
X206696809Y-95536871D02*
X206696809Y-96070204D01*
X206887285Y-95232109D02*
X207077761Y-95803538D01*
X206582523Y-95803538D01*
X205934904Y-95536871D02*
X205934904Y-96070204D01*
X206125380Y-95232109D02*
X206315857Y-95803538D01*
X205820619Y-95803538D01*
X189399190Y-96070204D02*
X189399190Y-95270204D01*
X189208714Y-95270204D01*
X189094428Y-95308300D01*
X189018238Y-95384490D01*
X188980142Y-95460680D01*
X188942047Y-95613061D01*
X188942047Y-95727347D01*
X188980142Y-95879728D01*
X189018238Y-95955919D01*
X189094428Y-96032109D01*
X189208714Y-96070204D01*
X189399190Y-96070204D01*
X188789666Y-96146395D02*
X188180142Y-96146395D01*
X187646809Y-95536871D02*
X187646809Y-96070204D01*
X187837285Y-95232109D02*
X188027761Y-95803538D01*
X187532523Y-95803538D01*
X187303952Y-95270204D02*
X186808714Y-95270204D01*
X187075380Y-95574966D01*
X186961095Y-95574966D01*
X186884904Y-95613061D01*
X186846809Y-95651157D01*
X186808714Y-95727347D01*
X186808714Y-95917823D01*
X186846809Y-95994014D01*
X186884904Y-96032109D01*
X186961095Y-96070204D01*
X187189666Y-96070204D01*
X187265857Y-96032109D01*
X187303952Y-95994014D01*
X170348190Y-96070204D02*
X170348190Y-95270204D01*
X170157714Y-95270204D01*
X170043428Y-95308300D01*
X169967238Y-95384490D01*
X169929142Y-95460680D01*
X169891047Y-95613061D01*
X169891047Y-95727347D01*
X169929142Y-95879728D01*
X169967238Y-95955919D01*
X170043428Y-96032109D01*
X170157714Y-96070204D01*
X170348190Y-96070204D01*
X169738666Y-96146395D02*
X169129142Y-96146395D01*
X168595809Y-95536871D02*
X168595809Y-96070204D01*
X168786285Y-95232109D02*
X168976761Y-95803538D01*
X168481523Y-95803538D01*
X168214857Y-95346395D02*
X168176761Y-95308300D01*
X168100571Y-95270204D01*
X167910095Y-95270204D01*
X167833904Y-95308300D01*
X167795809Y-95346395D01*
X167757714Y-95422585D01*
X167757714Y-95498776D01*
X167795809Y-95613061D01*
X168252952Y-96070204D01*
X167757714Y-96070204D01*
X151298190Y-96070204D02*
X151298190Y-95270204D01*
X151107714Y-95270204D01*
X150993428Y-95308300D01*
X150917238Y-95384490D01*
X150879142Y-95460680D01*
X150841047Y-95613061D01*
X150841047Y-95727347D01*
X150879142Y-95879728D01*
X150917238Y-95955919D01*
X150993428Y-96032109D01*
X151107714Y-96070204D01*
X151298190Y-96070204D01*
X150688666Y-96146395D02*
X150079142Y-96146395D01*
X149545809Y-95536871D02*
X149545809Y-96070204D01*
X149736285Y-95232109D02*
X149926761Y-95803538D01*
X149431523Y-95803538D01*
X148707714Y-96070204D02*
X149164857Y-96070204D01*
X148936285Y-96070204D02*
X148936285Y-95270204D01*
X149012476Y-95384490D01*
X149088666Y-95460680D01*
X149164857Y-95498776D01*
X132248190Y-96070204D02*
X132248190Y-95270204D01*
X132057714Y-95270204D01*
X131943428Y-95308300D01*
X131867238Y-95384490D01*
X131829142Y-95460680D01*
X131791047Y-95613061D01*
X131791047Y-95727347D01*
X131829142Y-95879728D01*
X131867238Y-95955919D01*
X131943428Y-96032109D01*
X132057714Y-96070204D01*
X132248190Y-96070204D01*
X131638666Y-96146395D02*
X131029142Y-96146395D01*
X130495809Y-95536871D02*
X130495809Y-96070204D01*
X130686285Y-95232109D02*
X130876761Y-95803538D01*
X130381523Y-95803538D01*
X129924380Y-95270204D02*
X129848190Y-95270204D01*
X129772000Y-95308300D01*
X129733904Y-95346395D01*
X129695809Y-95422585D01*
X129657714Y-95574966D01*
X129657714Y-95765442D01*
X129695809Y-95917823D01*
X129733904Y-95994014D01*
X129772000Y-96032109D01*
X129848190Y-96070204D01*
X129924380Y-96070204D01*
X130000571Y-96032109D01*
X130038666Y-95994014D01*
X130076761Y-95917823D01*
X130114857Y-95765442D01*
X130114857Y-95574966D01*
X130076761Y-95422585D01*
X130038666Y-95346395D01*
X130000571Y-95308300D01*
X129924380Y-95270204D01*
X113197190Y-96070204D02*
X113197190Y-95270204D01*
X113006714Y-95270204D01*
X112892428Y-95308300D01*
X112816238Y-95384490D01*
X112778142Y-95460680D01*
X112740047Y-95613061D01*
X112740047Y-95727347D01*
X112778142Y-95879728D01*
X112816238Y-95955919D01*
X112892428Y-96032109D01*
X113006714Y-96070204D01*
X113197190Y-96070204D01*
X112587666Y-96146395D02*
X111978142Y-96146395D01*
X111863857Y-95270204D02*
X111368619Y-95270204D01*
X111635285Y-95574966D01*
X111521000Y-95574966D01*
X111444809Y-95613061D01*
X111406714Y-95651157D01*
X111368619Y-95727347D01*
X111368619Y-95917823D01*
X111406714Y-95994014D01*
X111444809Y-96032109D01*
X111521000Y-96070204D01*
X111749571Y-96070204D01*
X111825761Y-96032109D01*
X111863857Y-95994014D01*
X110987666Y-96070204D02*
X110835285Y-96070204D01*
X110759095Y-96032109D01*
X110721000Y-95994014D01*
X110644809Y-95879728D01*
X110606714Y-95727347D01*
X110606714Y-95422585D01*
X110644809Y-95346395D01*
X110682904Y-95308300D01*
X110759095Y-95270204D01*
X110911476Y-95270204D01*
X110987666Y-95308300D01*
X111025761Y-95346395D01*
X111063857Y-95422585D01*
X111063857Y-95613061D01*
X111025761Y-95689252D01*
X110987666Y-95727347D01*
X110911476Y-95765442D01*
X110759095Y-95765442D01*
X110682904Y-95727347D01*
X110644809Y-95689252D01*
X110606714Y-95613061D01*
X94146890Y-96070204D02*
X94146890Y-95270204D01*
X93956414Y-95270204D01*
X93842128Y-95308300D01*
X93765938Y-95384490D01*
X93727842Y-95460680D01*
X93689747Y-95613061D01*
X93689747Y-95727347D01*
X93727842Y-95879728D01*
X93765938Y-95955919D01*
X93842128Y-96032109D01*
X93956414Y-96070204D01*
X94146890Y-96070204D01*
X93537366Y-96146395D02*
X92927842Y-96146395D01*
X92813557Y-95270204D02*
X92318319Y-95270204D01*
X92584985Y-95574966D01*
X92470700Y-95574966D01*
X92394509Y-95613061D01*
X92356414Y-95651157D01*
X92318319Y-95727347D01*
X92318319Y-95917823D01*
X92356414Y-95994014D01*
X92394509Y-96032109D01*
X92470700Y-96070204D01*
X92699271Y-96070204D01*
X92775461Y-96032109D01*
X92813557Y-95994014D01*
X91861176Y-95613061D02*
X91937366Y-95574966D01*
X91975461Y-95536871D01*
X92013557Y-95460680D01*
X92013557Y-95422585D01*
X91975461Y-95346395D01*
X91937366Y-95308300D01*
X91861176Y-95270204D01*
X91708795Y-95270204D01*
X91632604Y-95308300D01*
X91594509Y-95346395D01*
X91556414Y-95422585D01*
X91556414Y-95460680D01*
X91594509Y-95536871D01*
X91632604Y-95574966D01*
X91708795Y-95613061D01*
X91861176Y-95613061D01*
X91937366Y-95651157D01*
X91975461Y-95689252D01*
X92013557Y-95765442D01*
X92013557Y-95917823D01*
X91975461Y-95994014D01*
X91937366Y-96032109D01*
X91861176Y-96070204D01*
X91708795Y-96070204D01*
X91632604Y-96032109D01*
X91594509Y-95994014D01*
X91556414Y-95917823D01*
X91556414Y-95765442D01*
X91594509Y-95689252D01*
X91632604Y-95651157D01*
X91708795Y-95613061D01*
X75096490Y-96070204D02*
X75096490Y-95270204D01*
X74906014Y-95270204D01*
X74791728Y-95308300D01*
X74715538Y-95384490D01*
X74677442Y-95460680D01*
X74639347Y-95613061D01*
X74639347Y-95727347D01*
X74677442Y-95879728D01*
X74715538Y-95955919D01*
X74791728Y-96032109D01*
X74906014Y-96070204D01*
X75096490Y-96070204D01*
X74486966Y-96146395D02*
X73877442Y-96146395D01*
X73763157Y-95270204D02*
X73267919Y-95270204D01*
X73534585Y-95574966D01*
X73420300Y-95574966D01*
X73344109Y-95613061D01*
X73306014Y-95651157D01*
X73267919Y-95727347D01*
X73267919Y-95917823D01*
X73306014Y-95994014D01*
X73344109Y-96032109D01*
X73420300Y-96070204D01*
X73648871Y-96070204D01*
X73725061Y-96032109D01*
X73763157Y-95994014D01*
X73001252Y-95270204D02*
X72467919Y-95270204D01*
X72810776Y-96070204D01*
X56046090Y-96070204D02*
X56046090Y-95270204D01*
X55855614Y-95270204D01*
X55741328Y-95308300D01*
X55665138Y-95384490D01*
X55627042Y-95460680D01*
X55588947Y-95613061D01*
X55588947Y-95727347D01*
X55627042Y-95879728D01*
X55665138Y-95955919D01*
X55741328Y-96032109D01*
X55855614Y-96070204D01*
X56046090Y-96070204D01*
X55436566Y-96146395D02*
X54827042Y-96146395D01*
X54712757Y-95270204D02*
X54217519Y-95270204D01*
X54484185Y-95574966D01*
X54369900Y-95574966D01*
X54293709Y-95613061D01*
X54255614Y-95651157D01*
X54217519Y-95727347D01*
X54217519Y-95917823D01*
X54255614Y-95994014D01*
X54293709Y-96032109D01*
X54369900Y-96070204D01*
X54598471Y-96070204D01*
X54674661Y-96032109D01*
X54712757Y-95994014D01*
X53531804Y-95270204D02*
X53684185Y-95270204D01*
X53760376Y-95308300D01*
X53798471Y-95346395D01*
X53874661Y-95460680D01*
X53912757Y-95613061D01*
X53912757Y-95917823D01*
X53874661Y-95994014D01*
X53836566Y-96032109D01*
X53760376Y-96070204D01*
X53607995Y-96070204D01*
X53531804Y-96032109D01*
X53493709Y-95994014D01*
X53455614Y-95917823D01*
X53455614Y-95727347D01*
X53493709Y-95651157D01*
X53531804Y-95613061D01*
X53607995Y-95574966D01*
X53760376Y-95574966D01*
X53836566Y-95613061D01*
X53874661Y-95651157D01*
X53912757Y-95727347D01*
X265600190Y-77019804D02*
X265600190Y-76219804D01*
X265409714Y-76219804D01*
X265295428Y-76257900D01*
X265219238Y-76334090D01*
X265181142Y-76410280D01*
X265143047Y-76562661D01*
X265143047Y-76676947D01*
X265181142Y-76829328D01*
X265219238Y-76905519D01*
X265295428Y-76981709D01*
X265409714Y-77019804D01*
X265600190Y-77019804D01*
X264990666Y-77095995D02*
X264381142Y-77095995D01*
X264266857Y-76219804D02*
X263771619Y-76219804D01*
X264038285Y-76524566D01*
X263924000Y-76524566D01*
X263847809Y-76562661D01*
X263809714Y-76600757D01*
X263771619Y-76676947D01*
X263771619Y-76867423D01*
X263809714Y-76943614D01*
X263847809Y-76981709D01*
X263924000Y-77019804D01*
X264152571Y-77019804D01*
X264228761Y-76981709D01*
X264266857Y-76943614D01*
X263047809Y-76219804D02*
X263428761Y-76219804D01*
X263466857Y-76600757D01*
X263428761Y-76562661D01*
X263352571Y-76524566D01*
X263162095Y-76524566D01*
X263085904Y-76562661D01*
X263047809Y-76600757D01*
X263009714Y-76676947D01*
X263009714Y-76867423D01*
X263047809Y-76943614D01*
X263085904Y-76981709D01*
X263162095Y-77019804D01*
X263352571Y-77019804D01*
X263428761Y-76981709D01*
X263466857Y-76943614D01*
X246550190Y-77019804D02*
X246550190Y-76219804D01*
X246359714Y-76219804D01*
X246245428Y-76257900D01*
X246169238Y-76334090D01*
X246131142Y-76410280D01*
X246093047Y-76562661D01*
X246093047Y-76676947D01*
X246131142Y-76829328D01*
X246169238Y-76905519D01*
X246245428Y-76981709D01*
X246359714Y-77019804D01*
X246550190Y-77019804D01*
X245940666Y-77095995D02*
X245331142Y-77095995D01*
X245216857Y-76219804D02*
X244721619Y-76219804D01*
X244988285Y-76524566D01*
X244874000Y-76524566D01*
X244797809Y-76562661D01*
X244759714Y-76600757D01*
X244721619Y-76676947D01*
X244721619Y-76867423D01*
X244759714Y-76943614D01*
X244797809Y-76981709D01*
X244874000Y-77019804D01*
X245102571Y-77019804D01*
X245178761Y-76981709D01*
X245216857Y-76943614D01*
X244035904Y-76486471D02*
X244035904Y-77019804D01*
X244226380Y-76181709D02*
X244416857Y-76753138D01*
X243921619Y-76753138D01*
X227500190Y-77019804D02*
X227500190Y-76219804D01*
X227309714Y-76219804D01*
X227195428Y-76257900D01*
X227119238Y-76334090D01*
X227081142Y-76410280D01*
X227043047Y-76562661D01*
X227043047Y-76676947D01*
X227081142Y-76829328D01*
X227119238Y-76905519D01*
X227195428Y-76981709D01*
X227309714Y-77019804D01*
X227500190Y-77019804D01*
X226890666Y-77095995D02*
X226281142Y-77095995D01*
X226166857Y-76219804D02*
X225671619Y-76219804D01*
X225938285Y-76524566D01*
X225824000Y-76524566D01*
X225747809Y-76562661D01*
X225709714Y-76600757D01*
X225671619Y-76676947D01*
X225671619Y-76867423D01*
X225709714Y-76943614D01*
X225747809Y-76981709D01*
X225824000Y-77019804D01*
X226052571Y-77019804D01*
X226128761Y-76981709D01*
X226166857Y-76943614D01*
X225404952Y-76219804D02*
X224909714Y-76219804D01*
X225176380Y-76524566D01*
X225062095Y-76524566D01*
X224985904Y-76562661D01*
X224947809Y-76600757D01*
X224909714Y-76676947D01*
X224909714Y-76867423D01*
X224947809Y-76943614D01*
X224985904Y-76981709D01*
X225062095Y-77019804D01*
X225290666Y-77019804D01*
X225366857Y-76981709D01*
X225404952Y-76943614D01*
X208449190Y-77019804D02*
X208449190Y-76219804D01*
X208258714Y-76219804D01*
X208144428Y-76257900D01*
X208068238Y-76334090D01*
X208030142Y-76410280D01*
X207992047Y-76562661D01*
X207992047Y-76676947D01*
X208030142Y-76829328D01*
X208068238Y-76905519D01*
X208144428Y-76981709D01*
X208258714Y-77019804D01*
X208449190Y-77019804D01*
X207839666Y-77095995D02*
X207230142Y-77095995D01*
X207115857Y-76219804D02*
X206620619Y-76219804D01*
X206887285Y-76524566D01*
X206773000Y-76524566D01*
X206696809Y-76562661D01*
X206658714Y-76600757D01*
X206620619Y-76676947D01*
X206620619Y-76867423D01*
X206658714Y-76943614D01*
X206696809Y-76981709D01*
X206773000Y-77019804D01*
X207001571Y-77019804D01*
X207077761Y-76981709D01*
X207115857Y-76943614D01*
X206315857Y-76295995D02*
X206277761Y-76257900D01*
X206201571Y-76219804D01*
X206011095Y-76219804D01*
X205934904Y-76257900D01*
X205896809Y-76295995D01*
X205858714Y-76372185D01*
X205858714Y-76448376D01*
X205896809Y-76562661D01*
X206353952Y-77019804D01*
X205858714Y-77019804D01*
X189399190Y-77019804D02*
X189399190Y-76219804D01*
X189208714Y-76219804D01*
X189094428Y-76257900D01*
X189018238Y-76334090D01*
X188980142Y-76410280D01*
X188942047Y-76562661D01*
X188942047Y-76676947D01*
X188980142Y-76829328D01*
X189018238Y-76905519D01*
X189094428Y-76981709D01*
X189208714Y-77019804D01*
X189399190Y-77019804D01*
X188789666Y-77095995D02*
X188180142Y-77095995D01*
X188065857Y-76219804D02*
X187570619Y-76219804D01*
X187837285Y-76524566D01*
X187723000Y-76524566D01*
X187646809Y-76562661D01*
X187608714Y-76600757D01*
X187570619Y-76676947D01*
X187570619Y-76867423D01*
X187608714Y-76943614D01*
X187646809Y-76981709D01*
X187723000Y-77019804D01*
X187951571Y-77019804D01*
X188027761Y-76981709D01*
X188065857Y-76943614D01*
X186808714Y-77019804D02*
X187265857Y-77019804D01*
X187037285Y-77019804D02*
X187037285Y-76219804D01*
X187113476Y-76334090D01*
X187189666Y-76410280D01*
X187265857Y-76448376D01*
X170348190Y-77019804D02*
X170348190Y-76219804D01*
X170157714Y-76219804D01*
X170043428Y-76257900D01*
X169967238Y-76334090D01*
X169929142Y-76410280D01*
X169891047Y-76562661D01*
X169891047Y-76676947D01*
X169929142Y-76829328D01*
X169967238Y-76905519D01*
X170043428Y-76981709D01*
X170157714Y-77019804D01*
X170348190Y-77019804D01*
X169738666Y-77095995D02*
X169129142Y-77095995D01*
X169014857Y-76219804D02*
X168519619Y-76219804D01*
X168786285Y-76524566D01*
X168672000Y-76524566D01*
X168595809Y-76562661D01*
X168557714Y-76600757D01*
X168519619Y-76676947D01*
X168519619Y-76867423D01*
X168557714Y-76943614D01*
X168595809Y-76981709D01*
X168672000Y-77019804D01*
X168900571Y-77019804D01*
X168976761Y-76981709D01*
X169014857Y-76943614D01*
X168024380Y-76219804D02*
X167948190Y-76219804D01*
X167872000Y-76257900D01*
X167833904Y-76295995D01*
X167795809Y-76372185D01*
X167757714Y-76524566D01*
X167757714Y-76715042D01*
X167795809Y-76867423D01*
X167833904Y-76943614D01*
X167872000Y-76981709D01*
X167948190Y-77019804D01*
X168024380Y-77019804D01*
X168100571Y-76981709D01*
X168138666Y-76943614D01*
X168176761Y-76867423D01*
X168214857Y-76715042D01*
X168214857Y-76524566D01*
X168176761Y-76372185D01*
X168138666Y-76295995D01*
X168100571Y-76257900D01*
X168024380Y-76219804D01*
X151298190Y-77019804D02*
X151298190Y-76219804D01*
X151107714Y-76219804D01*
X150993428Y-76257900D01*
X150917238Y-76334090D01*
X150879142Y-76410280D01*
X150841047Y-76562661D01*
X150841047Y-76676947D01*
X150879142Y-76829328D01*
X150917238Y-76905519D01*
X150993428Y-76981709D01*
X151107714Y-77019804D01*
X151298190Y-77019804D01*
X150688666Y-77095995D02*
X150079142Y-77095995D01*
X149926761Y-76295995D02*
X149888666Y-76257900D01*
X149812476Y-76219804D01*
X149622000Y-76219804D01*
X149545809Y-76257900D01*
X149507714Y-76295995D01*
X149469619Y-76372185D01*
X149469619Y-76448376D01*
X149507714Y-76562661D01*
X149964857Y-77019804D01*
X149469619Y-77019804D01*
X149088666Y-77019804D02*
X148936285Y-77019804D01*
X148860095Y-76981709D01*
X148822000Y-76943614D01*
X148745809Y-76829328D01*
X148707714Y-76676947D01*
X148707714Y-76372185D01*
X148745809Y-76295995D01*
X148783904Y-76257900D01*
X148860095Y-76219804D01*
X149012476Y-76219804D01*
X149088666Y-76257900D01*
X149126761Y-76295995D01*
X149164857Y-76372185D01*
X149164857Y-76562661D01*
X149126761Y-76638852D01*
X149088666Y-76676947D01*
X149012476Y-76715042D01*
X148860095Y-76715042D01*
X148783904Y-76676947D01*
X148745809Y-76638852D01*
X148707714Y-76562661D01*
X132248190Y-77019804D02*
X132248190Y-76219804D01*
X132057714Y-76219804D01*
X131943428Y-76257900D01*
X131867238Y-76334090D01*
X131829142Y-76410280D01*
X131791047Y-76562661D01*
X131791047Y-76676947D01*
X131829142Y-76829328D01*
X131867238Y-76905519D01*
X131943428Y-76981709D01*
X132057714Y-77019804D01*
X132248190Y-77019804D01*
X131638666Y-77095995D02*
X131029142Y-77095995D01*
X130876761Y-76295995D02*
X130838666Y-76257900D01*
X130762476Y-76219804D01*
X130572000Y-76219804D01*
X130495809Y-76257900D01*
X130457714Y-76295995D01*
X130419619Y-76372185D01*
X130419619Y-76448376D01*
X130457714Y-76562661D01*
X130914857Y-77019804D01*
X130419619Y-77019804D01*
X129962476Y-76562661D02*
X130038666Y-76524566D01*
X130076761Y-76486471D01*
X130114857Y-76410280D01*
X130114857Y-76372185D01*
X130076761Y-76295995D01*
X130038666Y-76257900D01*
X129962476Y-76219804D01*
X129810095Y-76219804D01*
X129733904Y-76257900D01*
X129695809Y-76295995D01*
X129657714Y-76372185D01*
X129657714Y-76410280D01*
X129695809Y-76486471D01*
X129733904Y-76524566D01*
X129810095Y-76562661D01*
X129962476Y-76562661D01*
X130038666Y-76600757D01*
X130076761Y-76638852D01*
X130114857Y-76715042D01*
X130114857Y-76867423D01*
X130076761Y-76943614D01*
X130038666Y-76981709D01*
X129962476Y-77019804D01*
X129810095Y-77019804D01*
X129733904Y-76981709D01*
X129695809Y-76943614D01*
X129657714Y-76867423D01*
X129657714Y-76715042D01*
X129695809Y-76638852D01*
X129733904Y-76600757D01*
X129810095Y-76562661D01*
X113197190Y-77019804D02*
X113197190Y-76219804D01*
X113006714Y-76219804D01*
X112892428Y-76257900D01*
X112816238Y-76334090D01*
X112778142Y-76410280D01*
X112740047Y-76562661D01*
X112740047Y-76676947D01*
X112778142Y-76829328D01*
X112816238Y-76905519D01*
X112892428Y-76981709D01*
X113006714Y-77019804D01*
X113197190Y-77019804D01*
X112587666Y-77095995D02*
X111978142Y-77095995D01*
X111825761Y-76295995D02*
X111787666Y-76257900D01*
X111711476Y-76219804D01*
X111521000Y-76219804D01*
X111444809Y-76257900D01*
X111406714Y-76295995D01*
X111368619Y-76372185D01*
X111368619Y-76448376D01*
X111406714Y-76562661D01*
X111863857Y-77019804D01*
X111368619Y-77019804D01*
X111101952Y-76219804D02*
X110568619Y-76219804D01*
X110911476Y-77019804D01*
X94146890Y-77019804D02*
X94146890Y-76219804D01*
X93956414Y-76219804D01*
X93842128Y-76257900D01*
X93765938Y-76334090D01*
X93727842Y-76410280D01*
X93689747Y-76562661D01*
X93689747Y-76676947D01*
X93727842Y-76829328D01*
X93765938Y-76905519D01*
X93842128Y-76981709D01*
X93956414Y-77019804D01*
X94146890Y-77019804D01*
X93537366Y-77095995D02*
X92927842Y-77095995D01*
X92775461Y-76295995D02*
X92737366Y-76257900D01*
X92661176Y-76219804D01*
X92470700Y-76219804D01*
X92394509Y-76257900D01*
X92356414Y-76295995D01*
X92318319Y-76372185D01*
X92318319Y-76448376D01*
X92356414Y-76562661D01*
X92813557Y-77019804D01*
X92318319Y-77019804D01*
X91632604Y-76219804D02*
X91784985Y-76219804D01*
X91861176Y-76257900D01*
X91899271Y-76295995D01*
X91975461Y-76410280D01*
X92013557Y-76562661D01*
X92013557Y-76867423D01*
X91975461Y-76943614D01*
X91937366Y-76981709D01*
X91861176Y-77019804D01*
X91708795Y-77019804D01*
X91632604Y-76981709D01*
X91594509Y-76943614D01*
X91556414Y-76867423D01*
X91556414Y-76676947D01*
X91594509Y-76600757D01*
X91632604Y-76562661D01*
X91708795Y-76524566D01*
X91861176Y-76524566D01*
X91937366Y-76562661D01*
X91975461Y-76600757D01*
X92013557Y-76676947D01*
X75096490Y-77019804D02*
X75096490Y-76219804D01*
X74906014Y-76219804D01*
X74791728Y-76257900D01*
X74715538Y-76334090D01*
X74677442Y-76410280D01*
X74639347Y-76562661D01*
X74639347Y-76676947D01*
X74677442Y-76829328D01*
X74715538Y-76905519D01*
X74791728Y-76981709D01*
X74906014Y-77019804D01*
X75096490Y-77019804D01*
X74486966Y-77095995D02*
X73877442Y-77095995D01*
X73725061Y-76295995D02*
X73686966Y-76257900D01*
X73610776Y-76219804D01*
X73420300Y-76219804D01*
X73344109Y-76257900D01*
X73306014Y-76295995D01*
X73267919Y-76372185D01*
X73267919Y-76448376D01*
X73306014Y-76562661D01*
X73763157Y-77019804D01*
X73267919Y-77019804D01*
X72544109Y-76219804D02*
X72925061Y-76219804D01*
X72963157Y-76600757D01*
X72925061Y-76562661D01*
X72848871Y-76524566D01*
X72658395Y-76524566D01*
X72582204Y-76562661D01*
X72544109Y-76600757D01*
X72506014Y-76676947D01*
X72506014Y-76867423D01*
X72544109Y-76943614D01*
X72582204Y-76981709D01*
X72658395Y-77019804D01*
X72848871Y-77019804D01*
X72925061Y-76981709D01*
X72963157Y-76943614D01*
X56046090Y-77019804D02*
X56046090Y-76219804D01*
X55855614Y-76219804D01*
X55741328Y-76257900D01*
X55665138Y-76334090D01*
X55627042Y-76410280D01*
X55588947Y-76562661D01*
X55588947Y-76676947D01*
X55627042Y-76829328D01*
X55665138Y-76905519D01*
X55741328Y-76981709D01*
X55855614Y-77019804D01*
X56046090Y-77019804D01*
X55436566Y-77095995D02*
X54827042Y-77095995D01*
X54674661Y-76295995D02*
X54636566Y-76257900D01*
X54560376Y-76219804D01*
X54369900Y-76219804D01*
X54293709Y-76257900D01*
X54255614Y-76295995D01*
X54217519Y-76372185D01*
X54217519Y-76448376D01*
X54255614Y-76562661D01*
X54712757Y-77019804D01*
X54217519Y-77019804D01*
X53531804Y-76486471D02*
X53531804Y-77019804D01*
X53722280Y-76181709D02*
X53912757Y-76753138D01*
X53417519Y-76753138D01*
X265600190Y-57969404D02*
X265600190Y-57169404D01*
X265409714Y-57169404D01*
X265295428Y-57207500D01*
X265219238Y-57283690D01*
X265181142Y-57359880D01*
X265143047Y-57512261D01*
X265143047Y-57626547D01*
X265181142Y-57778928D01*
X265219238Y-57855119D01*
X265295428Y-57931309D01*
X265409714Y-57969404D01*
X265600190Y-57969404D01*
X264990666Y-58045595D02*
X264381142Y-58045595D01*
X264228761Y-57245595D02*
X264190666Y-57207500D01*
X264114476Y-57169404D01*
X263924000Y-57169404D01*
X263847809Y-57207500D01*
X263809714Y-57245595D01*
X263771619Y-57321785D01*
X263771619Y-57397976D01*
X263809714Y-57512261D01*
X264266857Y-57969404D01*
X263771619Y-57969404D01*
X263504952Y-57169404D02*
X263009714Y-57169404D01*
X263276380Y-57474166D01*
X263162095Y-57474166D01*
X263085904Y-57512261D01*
X263047809Y-57550357D01*
X263009714Y-57626547D01*
X263009714Y-57817023D01*
X263047809Y-57893214D01*
X263085904Y-57931309D01*
X263162095Y-57969404D01*
X263390666Y-57969404D01*
X263466857Y-57931309D01*
X263504952Y-57893214D01*
X246550190Y-57969404D02*
X246550190Y-57169404D01*
X246359714Y-57169404D01*
X246245428Y-57207500D01*
X246169238Y-57283690D01*
X246131142Y-57359880D01*
X246093047Y-57512261D01*
X246093047Y-57626547D01*
X246131142Y-57778928D01*
X246169238Y-57855119D01*
X246245428Y-57931309D01*
X246359714Y-57969404D01*
X246550190Y-57969404D01*
X245940666Y-58045595D02*
X245331142Y-58045595D01*
X245178761Y-57245595D02*
X245140666Y-57207500D01*
X245064476Y-57169404D01*
X244874000Y-57169404D01*
X244797809Y-57207500D01*
X244759714Y-57245595D01*
X244721619Y-57321785D01*
X244721619Y-57397976D01*
X244759714Y-57512261D01*
X245216857Y-57969404D01*
X244721619Y-57969404D01*
X244416857Y-57245595D02*
X244378761Y-57207500D01*
X244302571Y-57169404D01*
X244112095Y-57169404D01*
X244035904Y-57207500D01*
X243997809Y-57245595D01*
X243959714Y-57321785D01*
X243959714Y-57397976D01*
X243997809Y-57512261D01*
X244454952Y-57969404D01*
X243959714Y-57969404D01*
X227500190Y-57969404D02*
X227500190Y-57169404D01*
X227309714Y-57169404D01*
X227195428Y-57207500D01*
X227119238Y-57283690D01*
X227081142Y-57359880D01*
X227043047Y-57512261D01*
X227043047Y-57626547D01*
X227081142Y-57778928D01*
X227119238Y-57855119D01*
X227195428Y-57931309D01*
X227309714Y-57969404D01*
X227500190Y-57969404D01*
X226890666Y-58045595D02*
X226281142Y-58045595D01*
X226128761Y-57245595D02*
X226090666Y-57207500D01*
X226014476Y-57169404D01*
X225824000Y-57169404D01*
X225747809Y-57207500D01*
X225709714Y-57245595D01*
X225671619Y-57321785D01*
X225671619Y-57397976D01*
X225709714Y-57512261D01*
X226166857Y-57969404D01*
X225671619Y-57969404D01*
X224909714Y-57969404D02*
X225366857Y-57969404D01*
X225138285Y-57969404D02*
X225138285Y-57169404D01*
X225214476Y-57283690D01*
X225290666Y-57359880D01*
X225366857Y-57397976D01*
X208449190Y-57969404D02*
X208449190Y-57169404D01*
X208258714Y-57169404D01*
X208144428Y-57207500D01*
X208068238Y-57283690D01*
X208030142Y-57359880D01*
X207992047Y-57512261D01*
X207992047Y-57626547D01*
X208030142Y-57778928D01*
X208068238Y-57855119D01*
X208144428Y-57931309D01*
X208258714Y-57969404D01*
X208449190Y-57969404D01*
X207839666Y-58045595D02*
X207230142Y-58045595D01*
X207077761Y-57245595D02*
X207039666Y-57207500D01*
X206963476Y-57169404D01*
X206773000Y-57169404D01*
X206696809Y-57207500D01*
X206658714Y-57245595D01*
X206620619Y-57321785D01*
X206620619Y-57397976D01*
X206658714Y-57512261D01*
X207115857Y-57969404D01*
X206620619Y-57969404D01*
X206125380Y-57169404D02*
X206049190Y-57169404D01*
X205973000Y-57207500D01*
X205934904Y-57245595D01*
X205896809Y-57321785D01*
X205858714Y-57474166D01*
X205858714Y-57664642D01*
X205896809Y-57817023D01*
X205934904Y-57893214D01*
X205973000Y-57931309D01*
X206049190Y-57969404D01*
X206125380Y-57969404D01*
X206201571Y-57931309D01*
X206239666Y-57893214D01*
X206277761Y-57817023D01*
X206315857Y-57664642D01*
X206315857Y-57474166D01*
X206277761Y-57321785D01*
X206239666Y-57245595D01*
X206201571Y-57207500D01*
X206125380Y-57169404D01*
X189399190Y-57969404D02*
X189399190Y-57169404D01*
X189208714Y-57169404D01*
X189094428Y-57207500D01*
X189018238Y-57283690D01*
X188980142Y-57359880D01*
X188942047Y-57512261D01*
X188942047Y-57626547D01*
X188980142Y-57778928D01*
X189018238Y-57855119D01*
X189094428Y-57931309D01*
X189208714Y-57969404D01*
X189399190Y-57969404D01*
X188789666Y-58045595D02*
X188180142Y-58045595D01*
X187570619Y-57969404D02*
X188027761Y-57969404D01*
X187799190Y-57969404D02*
X187799190Y-57169404D01*
X187875380Y-57283690D01*
X187951571Y-57359880D01*
X188027761Y-57397976D01*
X187189666Y-57969404D02*
X187037285Y-57969404D01*
X186961095Y-57931309D01*
X186923000Y-57893214D01*
X186846809Y-57778928D01*
X186808714Y-57626547D01*
X186808714Y-57321785D01*
X186846809Y-57245595D01*
X186884904Y-57207500D01*
X186961095Y-57169404D01*
X187113476Y-57169404D01*
X187189666Y-57207500D01*
X187227761Y-57245595D01*
X187265857Y-57321785D01*
X187265857Y-57512261D01*
X187227761Y-57588452D01*
X187189666Y-57626547D01*
X187113476Y-57664642D01*
X186961095Y-57664642D01*
X186884904Y-57626547D01*
X186846809Y-57588452D01*
X186808714Y-57512261D01*
X170348190Y-57969404D02*
X170348190Y-57169404D01*
X170157714Y-57169404D01*
X170043428Y-57207500D01*
X169967238Y-57283690D01*
X169929142Y-57359880D01*
X169891047Y-57512261D01*
X169891047Y-57626547D01*
X169929142Y-57778928D01*
X169967238Y-57855119D01*
X170043428Y-57931309D01*
X170157714Y-57969404D01*
X170348190Y-57969404D01*
X169738666Y-58045595D02*
X169129142Y-58045595D01*
X168519619Y-57969404D02*
X168976761Y-57969404D01*
X168748190Y-57969404D02*
X168748190Y-57169404D01*
X168824380Y-57283690D01*
X168900571Y-57359880D01*
X168976761Y-57397976D01*
X168062476Y-57512261D02*
X168138666Y-57474166D01*
X168176761Y-57436071D01*
X168214857Y-57359880D01*
X168214857Y-57321785D01*
X168176761Y-57245595D01*
X168138666Y-57207500D01*
X168062476Y-57169404D01*
X167910095Y-57169404D01*
X167833904Y-57207500D01*
X167795809Y-57245595D01*
X167757714Y-57321785D01*
X167757714Y-57359880D01*
X167795809Y-57436071D01*
X167833904Y-57474166D01*
X167910095Y-57512261D01*
X168062476Y-57512261D01*
X168138666Y-57550357D01*
X168176761Y-57588452D01*
X168214857Y-57664642D01*
X168214857Y-57817023D01*
X168176761Y-57893214D01*
X168138666Y-57931309D01*
X168062476Y-57969404D01*
X167910095Y-57969404D01*
X167833904Y-57931309D01*
X167795809Y-57893214D01*
X167757714Y-57817023D01*
X167757714Y-57664642D01*
X167795809Y-57588452D01*
X167833904Y-57550357D01*
X167910095Y-57512261D01*
X151298190Y-57969404D02*
X151298190Y-57169404D01*
X151107714Y-57169404D01*
X150993428Y-57207500D01*
X150917238Y-57283690D01*
X150879142Y-57359880D01*
X150841047Y-57512261D01*
X150841047Y-57626547D01*
X150879142Y-57778928D01*
X150917238Y-57855119D01*
X150993428Y-57931309D01*
X151107714Y-57969404D01*
X151298190Y-57969404D01*
X150688666Y-58045595D02*
X150079142Y-58045595D01*
X149469619Y-57969404D02*
X149926761Y-57969404D01*
X149698190Y-57969404D02*
X149698190Y-57169404D01*
X149774380Y-57283690D01*
X149850571Y-57359880D01*
X149926761Y-57397976D01*
X149202952Y-57169404D02*
X148669619Y-57169404D01*
X149012476Y-57969404D01*
X132248190Y-57969404D02*
X132248190Y-57169404D01*
X132057714Y-57169404D01*
X131943428Y-57207500D01*
X131867238Y-57283690D01*
X131829142Y-57359880D01*
X131791047Y-57512261D01*
X131791047Y-57626547D01*
X131829142Y-57778928D01*
X131867238Y-57855119D01*
X131943428Y-57931309D01*
X132057714Y-57969404D01*
X132248190Y-57969404D01*
X131638666Y-58045595D02*
X131029142Y-58045595D01*
X130419619Y-57969404D02*
X130876761Y-57969404D01*
X130648190Y-57969404D02*
X130648190Y-57169404D01*
X130724380Y-57283690D01*
X130800571Y-57359880D01*
X130876761Y-57397976D01*
X129733904Y-57169404D02*
X129886285Y-57169404D01*
X129962476Y-57207500D01*
X130000571Y-57245595D01*
X130076761Y-57359880D01*
X130114857Y-57512261D01*
X130114857Y-57817023D01*
X130076761Y-57893214D01*
X130038666Y-57931309D01*
X129962476Y-57969404D01*
X129810095Y-57969404D01*
X129733904Y-57931309D01*
X129695809Y-57893214D01*
X129657714Y-57817023D01*
X129657714Y-57626547D01*
X129695809Y-57550357D01*
X129733904Y-57512261D01*
X129810095Y-57474166D01*
X129962476Y-57474166D01*
X130038666Y-57512261D01*
X130076761Y-57550357D01*
X130114857Y-57626547D01*
X113197190Y-57969404D02*
X113197190Y-57169404D01*
X113006714Y-57169404D01*
X112892428Y-57207500D01*
X112816238Y-57283690D01*
X112778142Y-57359880D01*
X112740047Y-57512261D01*
X112740047Y-57626547D01*
X112778142Y-57778928D01*
X112816238Y-57855119D01*
X112892428Y-57931309D01*
X113006714Y-57969404D01*
X113197190Y-57969404D01*
X112587666Y-58045595D02*
X111978142Y-58045595D01*
X111368619Y-57969404D02*
X111825761Y-57969404D01*
X111597190Y-57969404D02*
X111597190Y-57169404D01*
X111673380Y-57283690D01*
X111749571Y-57359880D01*
X111825761Y-57397976D01*
X110644809Y-57169404D02*
X111025761Y-57169404D01*
X111063857Y-57550357D01*
X111025761Y-57512261D01*
X110949571Y-57474166D01*
X110759095Y-57474166D01*
X110682904Y-57512261D01*
X110644809Y-57550357D01*
X110606714Y-57626547D01*
X110606714Y-57817023D01*
X110644809Y-57893214D01*
X110682904Y-57931309D01*
X110759095Y-57969404D01*
X110949571Y-57969404D01*
X111025761Y-57931309D01*
X111063857Y-57893214D01*
X94146890Y-57969404D02*
X94146890Y-57169404D01*
X93956414Y-57169404D01*
X93842128Y-57207500D01*
X93765938Y-57283690D01*
X93727842Y-57359880D01*
X93689747Y-57512261D01*
X93689747Y-57626547D01*
X93727842Y-57778928D01*
X93765938Y-57855119D01*
X93842128Y-57931309D01*
X93956414Y-57969404D01*
X94146890Y-57969404D01*
X93537366Y-58045595D02*
X92927842Y-58045595D01*
X92318319Y-57969404D02*
X92775461Y-57969404D01*
X92546890Y-57969404D02*
X92546890Y-57169404D01*
X92623080Y-57283690D01*
X92699271Y-57359880D01*
X92775461Y-57397976D01*
X91632604Y-57436071D02*
X91632604Y-57969404D01*
X91823080Y-57131309D02*
X92013557Y-57702738D01*
X91518319Y-57702738D01*
X75096490Y-57969404D02*
X75096490Y-57169404D01*
X74906014Y-57169404D01*
X74791728Y-57207500D01*
X74715538Y-57283690D01*
X74677442Y-57359880D01*
X74639347Y-57512261D01*
X74639347Y-57626547D01*
X74677442Y-57778928D01*
X74715538Y-57855119D01*
X74791728Y-57931309D01*
X74906014Y-57969404D01*
X75096490Y-57969404D01*
X74486966Y-58045595D02*
X73877442Y-58045595D01*
X73267919Y-57969404D02*
X73725061Y-57969404D01*
X73496490Y-57969404D02*
X73496490Y-57169404D01*
X73572680Y-57283690D01*
X73648871Y-57359880D01*
X73725061Y-57397976D01*
X73001252Y-57169404D02*
X72506014Y-57169404D01*
X72772680Y-57474166D01*
X72658395Y-57474166D01*
X72582204Y-57512261D01*
X72544109Y-57550357D01*
X72506014Y-57626547D01*
X72506014Y-57817023D01*
X72544109Y-57893214D01*
X72582204Y-57931309D01*
X72658395Y-57969404D01*
X72886966Y-57969404D01*
X72963157Y-57931309D01*
X73001252Y-57893214D01*
X56046090Y-57969404D02*
X56046090Y-57169404D01*
X55855614Y-57169404D01*
X55741328Y-57207500D01*
X55665138Y-57283690D01*
X55627042Y-57359880D01*
X55588947Y-57512261D01*
X55588947Y-57626547D01*
X55627042Y-57778928D01*
X55665138Y-57855119D01*
X55741328Y-57931309D01*
X55855614Y-57969404D01*
X56046090Y-57969404D01*
X55436566Y-58045595D02*
X54827042Y-58045595D01*
X54217519Y-57969404D02*
X54674661Y-57969404D01*
X54446090Y-57969404D02*
X54446090Y-57169404D01*
X54522280Y-57283690D01*
X54598471Y-57359880D01*
X54674661Y-57397976D01*
X53912757Y-57245595D02*
X53874661Y-57207500D01*
X53798471Y-57169404D01*
X53607995Y-57169404D01*
X53531804Y-57207500D01*
X53493709Y-57245595D01*
X53455614Y-57321785D01*
X53455614Y-57397976D01*
X53493709Y-57512261D01*
X53950852Y-57969404D01*
X53455614Y-57969404D01*
X265600190Y-38919004D02*
X265600190Y-38119004D01*
X265409714Y-38119004D01*
X265295428Y-38157100D01*
X265219238Y-38233290D01*
X265181142Y-38309480D01*
X265143047Y-38461861D01*
X265143047Y-38576147D01*
X265181142Y-38728528D01*
X265219238Y-38804719D01*
X265295428Y-38880909D01*
X265409714Y-38919004D01*
X265600190Y-38919004D01*
X264990666Y-38995195D02*
X264381142Y-38995195D01*
X263771619Y-38919004D02*
X264228761Y-38919004D01*
X264000190Y-38919004D02*
X264000190Y-38119004D01*
X264076380Y-38233290D01*
X264152571Y-38309480D01*
X264228761Y-38347576D01*
X263009714Y-38919004D02*
X263466857Y-38919004D01*
X263238285Y-38919004D02*
X263238285Y-38119004D01*
X263314476Y-38233290D01*
X263390666Y-38309480D01*
X263466857Y-38347576D01*
X246550190Y-38919004D02*
X246550190Y-38119004D01*
X246359714Y-38119004D01*
X246245428Y-38157100D01*
X246169238Y-38233290D01*
X246131142Y-38309480D01*
X246093047Y-38461861D01*
X246093047Y-38576147D01*
X246131142Y-38728528D01*
X246169238Y-38804719D01*
X246245428Y-38880909D01*
X246359714Y-38919004D01*
X246550190Y-38919004D01*
X245940666Y-38995195D02*
X245331142Y-38995195D01*
X244721619Y-38919004D02*
X245178761Y-38919004D01*
X244950190Y-38919004D02*
X244950190Y-38119004D01*
X245026380Y-38233290D01*
X245102571Y-38309480D01*
X245178761Y-38347576D01*
X244226380Y-38119004D02*
X244150190Y-38119004D01*
X244074000Y-38157100D01*
X244035904Y-38195195D01*
X243997809Y-38271385D01*
X243959714Y-38423766D01*
X243959714Y-38614242D01*
X243997809Y-38766623D01*
X244035904Y-38842814D01*
X244074000Y-38880909D01*
X244150190Y-38919004D01*
X244226380Y-38919004D01*
X244302571Y-38880909D01*
X244340666Y-38842814D01*
X244378761Y-38766623D01*
X244416857Y-38614242D01*
X244416857Y-38423766D01*
X244378761Y-38271385D01*
X244340666Y-38195195D01*
X244302571Y-38157100D01*
X244226380Y-38119004D01*
X227119238Y-38919004D02*
X227119238Y-38119004D01*
X226928761Y-38119004D01*
X226814476Y-38157100D01*
X226738285Y-38233290D01*
X226700190Y-38309480D01*
X226662095Y-38461861D01*
X226662095Y-38576147D01*
X226700190Y-38728528D01*
X226738285Y-38804719D01*
X226814476Y-38880909D01*
X226928761Y-38919004D01*
X227119238Y-38919004D01*
X226509714Y-38995195D02*
X225900190Y-38995195D01*
X225671619Y-38919004D02*
X225519238Y-38919004D01*
X225443047Y-38880909D01*
X225404952Y-38842814D01*
X225328761Y-38728528D01*
X225290666Y-38576147D01*
X225290666Y-38271385D01*
X225328761Y-38195195D01*
X225366857Y-38157100D01*
X225443047Y-38119004D01*
X225595428Y-38119004D01*
X225671619Y-38157100D01*
X225709714Y-38195195D01*
X225747809Y-38271385D01*
X225747809Y-38461861D01*
X225709714Y-38538052D01*
X225671619Y-38576147D01*
X225595428Y-38614242D01*
X225443047Y-38614242D01*
X225366857Y-38576147D01*
X225328761Y-38538052D01*
X225290666Y-38461861D01*
X208068238Y-38919004D02*
X208068238Y-38119004D01*
X207877761Y-38119004D01*
X207763476Y-38157100D01*
X207687285Y-38233290D01*
X207649190Y-38309480D01*
X207611095Y-38461861D01*
X207611095Y-38576147D01*
X207649190Y-38728528D01*
X207687285Y-38804719D01*
X207763476Y-38880909D01*
X207877761Y-38919004D01*
X208068238Y-38919004D01*
X207458714Y-38995195D02*
X206849190Y-38995195D01*
X206544428Y-38461861D02*
X206620619Y-38423766D01*
X206658714Y-38385671D01*
X206696809Y-38309480D01*
X206696809Y-38271385D01*
X206658714Y-38195195D01*
X206620619Y-38157100D01*
X206544428Y-38119004D01*
X206392047Y-38119004D01*
X206315857Y-38157100D01*
X206277761Y-38195195D01*
X206239666Y-38271385D01*
X206239666Y-38309480D01*
X206277761Y-38385671D01*
X206315857Y-38423766D01*
X206392047Y-38461861D01*
X206544428Y-38461861D01*
X206620619Y-38499957D01*
X206658714Y-38538052D01*
X206696809Y-38614242D01*
X206696809Y-38766623D01*
X206658714Y-38842814D01*
X206620619Y-38880909D01*
X206544428Y-38919004D01*
X206392047Y-38919004D01*
X206315857Y-38880909D01*
X206277761Y-38842814D01*
X206239666Y-38766623D01*
X206239666Y-38614242D01*
X206277761Y-38538052D01*
X206315857Y-38499957D01*
X206392047Y-38461861D01*
X189018238Y-38919004D02*
X189018238Y-38119004D01*
X188827761Y-38119004D01*
X188713476Y-38157100D01*
X188637285Y-38233290D01*
X188599190Y-38309480D01*
X188561095Y-38461861D01*
X188561095Y-38576147D01*
X188599190Y-38728528D01*
X188637285Y-38804719D01*
X188713476Y-38880909D01*
X188827761Y-38919004D01*
X189018238Y-38919004D01*
X188408714Y-38995195D02*
X187799190Y-38995195D01*
X187684904Y-38119004D02*
X187151571Y-38119004D01*
X187494428Y-38919004D01*
X169967238Y-38919004D02*
X169967238Y-38119004D01*
X169776761Y-38119004D01*
X169662476Y-38157100D01*
X169586285Y-38233290D01*
X169548190Y-38309480D01*
X169510095Y-38461861D01*
X169510095Y-38576147D01*
X169548190Y-38728528D01*
X169586285Y-38804719D01*
X169662476Y-38880909D01*
X169776761Y-38919004D01*
X169967238Y-38919004D01*
X169357714Y-38995195D02*
X168748190Y-38995195D01*
X168214857Y-38119004D02*
X168367238Y-38119004D01*
X168443428Y-38157100D01*
X168481523Y-38195195D01*
X168557714Y-38309480D01*
X168595809Y-38461861D01*
X168595809Y-38766623D01*
X168557714Y-38842814D01*
X168519619Y-38880909D01*
X168443428Y-38919004D01*
X168291047Y-38919004D01*
X168214857Y-38880909D01*
X168176761Y-38842814D01*
X168138666Y-38766623D01*
X168138666Y-38576147D01*
X168176761Y-38499957D01*
X168214857Y-38461861D01*
X168291047Y-38423766D01*
X168443428Y-38423766D01*
X168519619Y-38461861D01*
X168557714Y-38499957D01*
X168595809Y-38576147D01*
X150917238Y-38919004D02*
X150917238Y-38119004D01*
X150726761Y-38119004D01*
X150612476Y-38157100D01*
X150536285Y-38233290D01*
X150498190Y-38309480D01*
X150460095Y-38461861D01*
X150460095Y-38576147D01*
X150498190Y-38728528D01*
X150536285Y-38804719D01*
X150612476Y-38880909D01*
X150726761Y-38919004D01*
X150917238Y-38919004D01*
X150307714Y-38995195D02*
X149698190Y-38995195D01*
X149126761Y-38119004D02*
X149507714Y-38119004D01*
X149545809Y-38499957D01*
X149507714Y-38461861D01*
X149431523Y-38423766D01*
X149241047Y-38423766D01*
X149164857Y-38461861D01*
X149126761Y-38499957D01*
X149088666Y-38576147D01*
X149088666Y-38766623D01*
X149126761Y-38842814D01*
X149164857Y-38880909D01*
X149241047Y-38919004D01*
X149431523Y-38919004D01*
X149507714Y-38880909D01*
X149545809Y-38842814D01*
X131867238Y-38919004D02*
X131867238Y-38119004D01*
X131676761Y-38119004D01*
X131562476Y-38157100D01*
X131486285Y-38233290D01*
X131448190Y-38309480D01*
X131410095Y-38461861D01*
X131410095Y-38576147D01*
X131448190Y-38728528D01*
X131486285Y-38804719D01*
X131562476Y-38880909D01*
X131676761Y-38919004D01*
X131867238Y-38919004D01*
X131257714Y-38995195D02*
X130648190Y-38995195D01*
X130114857Y-38385671D02*
X130114857Y-38919004D01*
X130305333Y-38080909D02*
X130495809Y-38652338D01*
X130000571Y-38652338D01*
X112816238Y-38919004D02*
X112816238Y-38119004D01*
X112625761Y-38119004D01*
X112511476Y-38157100D01*
X112435285Y-38233290D01*
X112397190Y-38309480D01*
X112359095Y-38461861D01*
X112359095Y-38576147D01*
X112397190Y-38728528D01*
X112435285Y-38804719D01*
X112511476Y-38880909D01*
X112625761Y-38919004D01*
X112816238Y-38919004D01*
X112206714Y-38995195D02*
X111597190Y-38995195D01*
X111482904Y-38119004D02*
X110987666Y-38119004D01*
X111254333Y-38423766D01*
X111140047Y-38423766D01*
X111063857Y-38461861D01*
X111025761Y-38499957D01*
X110987666Y-38576147D01*
X110987666Y-38766623D01*
X111025761Y-38842814D01*
X111063857Y-38880909D01*
X111140047Y-38919004D01*
X111368619Y-38919004D01*
X111444809Y-38880909D01*
X111482904Y-38842814D01*
X93765938Y-38919004D02*
X93765938Y-38119004D01*
X93575461Y-38119004D01*
X93461176Y-38157100D01*
X93384985Y-38233290D01*
X93346890Y-38309480D01*
X93308795Y-38461861D01*
X93308795Y-38576147D01*
X93346890Y-38728528D01*
X93384985Y-38804719D01*
X93461176Y-38880909D01*
X93575461Y-38919004D01*
X93765938Y-38919004D01*
X93156414Y-38995195D02*
X92546890Y-38995195D01*
X92394509Y-38195195D02*
X92356414Y-38157100D01*
X92280223Y-38119004D01*
X92089747Y-38119004D01*
X92013557Y-38157100D01*
X91975461Y-38195195D01*
X91937366Y-38271385D01*
X91937366Y-38347576D01*
X91975461Y-38461861D01*
X92432604Y-38919004D01*
X91937366Y-38919004D01*
X74715538Y-38919004D02*
X74715538Y-38119004D01*
X74525061Y-38119004D01*
X74410776Y-38157100D01*
X74334585Y-38233290D01*
X74296490Y-38309480D01*
X74258395Y-38461861D01*
X74258395Y-38576147D01*
X74296490Y-38728528D01*
X74334585Y-38804719D01*
X74410776Y-38880909D01*
X74525061Y-38919004D01*
X74715538Y-38919004D01*
X74106014Y-38995195D02*
X73496490Y-38995195D01*
X72886966Y-38919004D02*
X73344109Y-38919004D01*
X73115538Y-38919004D02*
X73115538Y-38119004D01*
X73191728Y-38233290D01*
X73267919Y-38309480D01*
X73344109Y-38347576D01*
X55665138Y-38919004D02*
X55665138Y-38119004D01*
X55474661Y-38119004D01*
X55360376Y-38157100D01*
X55284185Y-38233290D01*
X55246090Y-38309480D01*
X55207995Y-38461861D01*
X55207995Y-38576147D01*
X55246090Y-38728528D01*
X55284185Y-38804719D01*
X55360376Y-38880909D01*
X55474661Y-38919004D01*
X55665138Y-38919004D01*
X55055614Y-38995195D02*
X54446090Y-38995195D01*
X54103233Y-38119004D02*
X54027042Y-38119004D01*
X53950852Y-38157100D01*
X53912757Y-38195195D01*
X53874661Y-38271385D01*
X53836566Y-38423766D01*
X53836566Y-38614242D01*
X53874661Y-38766623D01*
X53912757Y-38842814D01*
X53950852Y-38880909D01*
X54027042Y-38919004D01*
X54103233Y-38919004D01*
X54179423Y-38880909D01*
X54217519Y-38842814D01*
X54255614Y-38766623D01*
X54293709Y-38614242D01*
X54293709Y-38423766D01*
X54255614Y-38271385D01*
X54217519Y-38195195D01*
X54179423Y-38157100D01*
X54103233Y-38119004D01*
X265915238Y-99354380D02*
X265915238Y-98354380D01*
X265343809Y-99354380D02*
X265772380Y-98782952D01*
X265343809Y-98354380D02*
X265915238Y-98925809D01*
X265153333Y-99449619D02*
X264391428Y-99449619D01*
X263677142Y-98354380D02*
X264153333Y-98354380D01*
X264200952Y-98830571D01*
X264153333Y-98782952D01*
X264058095Y-98735333D01*
X263820000Y-98735333D01*
X263724761Y-98782952D01*
X263677142Y-98830571D01*
X263629523Y-98925809D01*
X263629523Y-99163904D01*
X263677142Y-99259142D01*
X263724761Y-99306761D01*
X263820000Y-99354380D01*
X264058095Y-99354380D01*
X264153333Y-99306761D01*
X264200952Y-99259142D01*
X263058095Y-98782952D02*
X263153333Y-98735333D01*
X263200952Y-98687714D01*
X263248571Y-98592476D01*
X263248571Y-98544857D01*
X263200952Y-98449619D01*
X263153333Y-98402000D01*
X263058095Y-98354380D01*
X262867619Y-98354380D01*
X262772380Y-98402000D01*
X262724761Y-98449619D01*
X262677142Y-98544857D01*
X262677142Y-98592476D01*
X262724761Y-98687714D01*
X262772380Y-98735333D01*
X262867619Y-98782952D01*
X263058095Y-98782952D01*
X263153333Y-98830571D01*
X263200952Y-98878190D01*
X263248571Y-98973428D01*
X263248571Y-99163904D01*
X263200952Y-99259142D01*
X263153333Y-99306761D01*
X263058095Y-99354380D01*
X262867619Y-99354380D01*
X262772380Y-99306761D01*
X262724761Y-99259142D01*
X262677142Y-99163904D01*
X262677142Y-98973428D01*
X262724761Y-98878190D01*
X262772380Y-98830571D01*
X262867619Y-98782952D01*
X246865238Y-99354380D02*
X246865238Y-98354380D01*
X246293809Y-99354380D02*
X246722380Y-98782952D01*
X246293809Y-98354380D02*
X246865238Y-98925809D01*
X246103333Y-99449619D02*
X245341428Y-99449619D01*
X244627142Y-98354380D02*
X245103333Y-98354380D01*
X245150952Y-98830571D01*
X245103333Y-98782952D01*
X245008095Y-98735333D01*
X244770000Y-98735333D01*
X244674761Y-98782952D01*
X244627142Y-98830571D01*
X244579523Y-98925809D01*
X244579523Y-99163904D01*
X244627142Y-99259142D01*
X244674761Y-99306761D01*
X244770000Y-99354380D01*
X245008095Y-99354380D01*
X245103333Y-99306761D01*
X245150952Y-99259142D01*
X244246190Y-98354380D02*
X243579523Y-98354380D01*
X244008095Y-99354380D01*
X227815238Y-99354380D02*
X227815238Y-98354380D01*
X227243809Y-99354380D02*
X227672380Y-98782952D01*
X227243809Y-98354380D02*
X227815238Y-98925809D01*
X227053333Y-99449619D02*
X226291428Y-99449619D01*
X225577142Y-98354380D02*
X226053333Y-98354380D01*
X226100952Y-98830571D01*
X226053333Y-98782952D01*
X225958095Y-98735333D01*
X225720000Y-98735333D01*
X225624761Y-98782952D01*
X225577142Y-98830571D01*
X225529523Y-98925809D01*
X225529523Y-99163904D01*
X225577142Y-99259142D01*
X225624761Y-99306761D01*
X225720000Y-99354380D01*
X225958095Y-99354380D01*
X226053333Y-99306761D01*
X226100952Y-99259142D01*
X224672380Y-98354380D02*
X224862857Y-98354380D01*
X224958095Y-98402000D01*
X225005714Y-98449619D01*
X225100952Y-98592476D01*
X225148571Y-98782952D01*
X225148571Y-99163904D01*
X225100952Y-99259142D01*
X225053333Y-99306761D01*
X224958095Y-99354380D01*
X224767619Y-99354380D01*
X224672380Y-99306761D01*
X224624761Y-99259142D01*
X224577142Y-99163904D01*
X224577142Y-98925809D01*
X224624761Y-98830571D01*
X224672380Y-98782952D01*
X224767619Y-98735333D01*
X224958095Y-98735333D01*
X225053333Y-98782952D01*
X225100952Y-98830571D01*
X225148571Y-98925809D01*
X208765238Y-99354380D02*
X208765238Y-98354380D01*
X208193809Y-99354380D02*
X208622380Y-98782952D01*
X208193809Y-98354380D02*
X208765238Y-98925809D01*
X208003333Y-99449619D02*
X207241428Y-99449619D01*
X206527142Y-98354380D02*
X207003333Y-98354380D01*
X207050952Y-98830571D01*
X207003333Y-98782952D01*
X206908095Y-98735333D01*
X206670000Y-98735333D01*
X206574761Y-98782952D01*
X206527142Y-98830571D01*
X206479523Y-98925809D01*
X206479523Y-99163904D01*
X206527142Y-99259142D01*
X206574761Y-99306761D01*
X206670000Y-99354380D01*
X206908095Y-99354380D01*
X207003333Y-99306761D01*
X207050952Y-99259142D01*
X205574761Y-98354380D02*
X206050952Y-98354380D01*
X206098571Y-98830571D01*
X206050952Y-98782952D01*
X205955714Y-98735333D01*
X205717619Y-98735333D01*
X205622380Y-98782952D01*
X205574761Y-98830571D01*
X205527142Y-98925809D01*
X205527142Y-99163904D01*
X205574761Y-99259142D01*
X205622380Y-99306761D01*
X205717619Y-99354380D01*
X205955714Y-99354380D01*
X206050952Y-99306761D01*
X206098571Y-99259142D01*
X189715238Y-99354380D02*
X189715238Y-98354380D01*
X189143809Y-99354380D02*
X189572380Y-98782952D01*
X189143809Y-98354380D02*
X189715238Y-98925809D01*
X188953333Y-99449619D02*
X188191428Y-99449619D01*
X187477142Y-98354380D02*
X187953333Y-98354380D01*
X188000952Y-98830571D01*
X187953333Y-98782952D01*
X187858095Y-98735333D01*
X187620000Y-98735333D01*
X187524761Y-98782952D01*
X187477142Y-98830571D01*
X187429523Y-98925809D01*
X187429523Y-99163904D01*
X187477142Y-99259142D01*
X187524761Y-99306761D01*
X187620000Y-99354380D01*
X187858095Y-99354380D01*
X187953333Y-99306761D01*
X188000952Y-99259142D01*
X186572380Y-98687714D02*
X186572380Y-99354380D01*
X186810476Y-98306761D02*
X187048571Y-99021047D01*
X186429523Y-99021047D01*
X161140238Y-99354380D02*
X161140238Y-98354380D01*
X160568809Y-99354380D02*
X160997380Y-98782952D01*
X160568809Y-98354380D02*
X161140238Y-98925809D01*
X160378333Y-99449619D02*
X159616428Y-99449619D01*
X158902142Y-98354380D02*
X159378333Y-98354380D01*
X159425952Y-98830571D01*
X159378333Y-98782952D01*
X159283095Y-98735333D01*
X159045000Y-98735333D01*
X158949761Y-98782952D01*
X158902142Y-98830571D01*
X158854523Y-98925809D01*
X158854523Y-99163904D01*
X158902142Y-99259142D01*
X158949761Y-99306761D01*
X159045000Y-99354380D01*
X159283095Y-99354380D01*
X159378333Y-99306761D01*
X159425952Y-99259142D01*
X158521190Y-98354380D02*
X157902142Y-98354380D01*
X158235476Y-98735333D01*
X158092619Y-98735333D01*
X157997380Y-98782952D01*
X157949761Y-98830571D01*
X157902142Y-98925809D01*
X157902142Y-99163904D01*
X157949761Y-99259142D01*
X157997380Y-99306761D01*
X158092619Y-99354380D01*
X158378333Y-99354380D01*
X158473571Y-99306761D01*
X158521190Y-99259142D01*
X132565238Y-99354380D02*
X132565238Y-98354380D01*
X131993809Y-99354380D02*
X132422380Y-98782952D01*
X131993809Y-98354380D02*
X132565238Y-98925809D01*
X131803333Y-99449619D02*
X131041428Y-99449619D01*
X130327142Y-98354380D02*
X130803333Y-98354380D01*
X130850952Y-98830571D01*
X130803333Y-98782952D01*
X130708095Y-98735333D01*
X130470000Y-98735333D01*
X130374761Y-98782952D01*
X130327142Y-98830571D01*
X130279523Y-98925809D01*
X130279523Y-99163904D01*
X130327142Y-99259142D01*
X130374761Y-99306761D01*
X130470000Y-99354380D01*
X130708095Y-99354380D01*
X130803333Y-99306761D01*
X130850952Y-99259142D01*
X129898571Y-98449619D02*
X129850952Y-98402000D01*
X129755714Y-98354380D01*
X129517619Y-98354380D01*
X129422380Y-98402000D01*
X129374761Y-98449619D01*
X129327142Y-98544857D01*
X129327142Y-98640095D01*
X129374761Y-98782952D01*
X129946190Y-99354380D01*
X129327142Y-99354380D01*
X113515238Y-99354380D02*
X113515238Y-98354380D01*
X112943809Y-99354380D02*
X113372380Y-98782952D01*
X112943809Y-98354380D02*
X113515238Y-98925809D01*
X112753333Y-99449619D02*
X111991428Y-99449619D01*
X111277142Y-98354380D02*
X111753333Y-98354380D01*
X111800952Y-98830571D01*
X111753333Y-98782952D01*
X111658095Y-98735333D01*
X111420000Y-98735333D01*
X111324761Y-98782952D01*
X111277142Y-98830571D01*
X111229523Y-98925809D01*
X111229523Y-99163904D01*
X111277142Y-99259142D01*
X111324761Y-99306761D01*
X111420000Y-99354380D01*
X111658095Y-99354380D01*
X111753333Y-99306761D01*
X111800952Y-99259142D01*
X110277142Y-99354380D02*
X110848571Y-99354380D01*
X110562857Y-99354380D02*
X110562857Y-98354380D01*
X110658095Y-98497238D01*
X110753333Y-98592476D01*
X110848571Y-98640095D01*
X94464938Y-99354380D02*
X94464938Y-98354380D01*
X93893509Y-99354380D02*
X94322080Y-98782952D01*
X93893509Y-98354380D02*
X94464938Y-98925809D01*
X93703033Y-99449619D02*
X92941128Y-99449619D01*
X92226842Y-98354380D02*
X92703033Y-98354380D01*
X92750652Y-98830571D01*
X92703033Y-98782952D01*
X92607795Y-98735333D01*
X92369700Y-98735333D01*
X92274461Y-98782952D01*
X92226842Y-98830571D01*
X92179223Y-98925809D01*
X92179223Y-99163904D01*
X92226842Y-99259142D01*
X92274461Y-99306761D01*
X92369700Y-99354380D01*
X92607795Y-99354380D01*
X92703033Y-99306761D01*
X92750652Y-99259142D01*
X91560176Y-98354380D02*
X91464938Y-98354380D01*
X91369700Y-98402000D01*
X91322080Y-98449619D01*
X91274461Y-98544857D01*
X91226842Y-98735333D01*
X91226842Y-98973428D01*
X91274461Y-99163904D01*
X91322080Y-99259142D01*
X91369700Y-99306761D01*
X91464938Y-99354380D01*
X91560176Y-99354380D01*
X91655414Y-99306761D01*
X91703033Y-99259142D01*
X91750652Y-99163904D01*
X91798271Y-98973428D01*
X91798271Y-98735333D01*
X91750652Y-98544857D01*
X91703033Y-98449619D01*
X91655414Y-98402000D01*
X91560176Y-98354380D01*
X75414938Y-99354380D02*
X75414938Y-98354380D01*
X74843509Y-99354380D02*
X75272080Y-98782952D01*
X74843509Y-98354380D02*
X75414938Y-98925809D01*
X74653033Y-99449619D02*
X73891128Y-99449619D01*
X73224461Y-98687714D02*
X73224461Y-99354380D01*
X73462557Y-98306761D02*
X73700652Y-99021047D01*
X73081604Y-99021047D01*
X72653033Y-99354380D02*
X72462557Y-99354380D01*
X72367319Y-99306761D01*
X72319700Y-99259142D01*
X72224461Y-99116285D01*
X72176842Y-98925809D01*
X72176842Y-98544857D01*
X72224461Y-98449619D01*
X72272080Y-98402000D01*
X72367319Y-98354380D01*
X72557795Y-98354380D01*
X72653033Y-98402000D01*
X72700652Y-98449619D01*
X72748271Y-98544857D01*
X72748271Y-98782952D01*
X72700652Y-98878190D01*
X72653033Y-98925809D01*
X72557795Y-98973428D01*
X72367319Y-98973428D01*
X72272080Y-98925809D01*
X72224461Y-98878190D01*
X72176842Y-98782952D01*
X56364938Y-99354380D02*
X56364938Y-98354380D01*
X55793509Y-99354380D02*
X56222080Y-98782952D01*
X55793509Y-98354380D02*
X56364938Y-98925809D01*
X55603033Y-99449619D02*
X54841128Y-99449619D01*
X54174461Y-98687714D02*
X54174461Y-99354380D01*
X54412557Y-98306761D02*
X54650652Y-99021047D01*
X54031604Y-99021047D01*
X53507795Y-98782952D02*
X53603033Y-98735333D01*
X53650652Y-98687714D01*
X53698271Y-98592476D01*
X53698271Y-98544857D01*
X53650652Y-98449619D01*
X53603033Y-98402000D01*
X53507795Y-98354380D01*
X53317319Y-98354380D01*
X53222080Y-98402000D01*
X53174461Y-98449619D01*
X53126842Y-98544857D01*
X53126842Y-98592476D01*
X53174461Y-98687714D01*
X53222080Y-98735333D01*
X53317319Y-98782952D01*
X53507795Y-98782952D01*
X53603033Y-98830571D01*
X53650652Y-98878190D01*
X53698271Y-98973428D01*
X53698271Y-99163904D01*
X53650652Y-99259142D01*
X53603033Y-99306761D01*
X53507795Y-99354380D01*
X53317319Y-99354380D01*
X53222080Y-99306761D01*
X53174461Y-99259142D01*
X53126842Y-99163904D01*
X53126842Y-98973428D01*
X53174461Y-98878190D01*
X53222080Y-98830571D01*
X53317319Y-98782952D01*
X265915238Y-80304080D02*
X265915238Y-79304080D01*
X265343809Y-80304080D02*
X265772380Y-79732652D01*
X265343809Y-79304080D02*
X265915238Y-79875509D01*
X265153333Y-80399319D02*
X264391428Y-80399319D01*
X263724761Y-79637414D02*
X263724761Y-80304080D01*
X263962857Y-79256461D02*
X264200952Y-79970747D01*
X263581904Y-79970747D01*
X263296190Y-79304080D02*
X262629523Y-79304080D01*
X263058095Y-80304080D01*
X246865238Y-80304080D02*
X246865238Y-79304080D01*
X246293809Y-80304080D02*
X246722380Y-79732652D01*
X246293809Y-79304080D02*
X246865238Y-79875509D01*
X246103333Y-80399319D02*
X245341428Y-80399319D01*
X244674761Y-79637414D02*
X244674761Y-80304080D01*
X244912857Y-79256461D02*
X245150952Y-79970747D01*
X244531904Y-79970747D01*
X243722380Y-79304080D02*
X243912857Y-79304080D01*
X244008095Y-79351700D01*
X244055714Y-79399319D01*
X244150952Y-79542176D01*
X244198571Y-79732652D01*
X244198571Y-80113604D01*
X244150952Y-80208842D01*
X244103333Y-80256461D01*
X244008095Y-80304080D01*
X243817619Y-80304080D01*
X243722380Y-80256461D01*
X243674761Y-80208842D01*
X243627142Y-80113604D01*
X243627142Y-79875509D01*
X243674761Y-79780271D01*
X243722380Y-79732652D01*
X243817619Y-79685033D01*
X244008095Y-79685033D01*
X244103333Y-79732652D01*
X244150952Y-79780271D01*
X244198571Y-79875509D01*
X227815238Y-80304080D02*
X227815238Y-79304080D01*
X227243809Y-80304080D02*
X227672380Y-79732652D01*
X227243809Y-79304080D02*
X227815238Y-79875509D01*
X227053333Y-80399319D02*
X226291428Y-80399319D01*
X225624761Y-79637414D02*
X225624761Y-80304080D01*
X225862857Y-79256461D02*
X226100952Y-79970747D01*
X225481904Y-79970747D01*
X224624761Y-79304080D02*
X225100952Y-79304080D01*
X225148571Y-79780271D01*
X225100952Y-79732652D01*
X225005714Y-79685033D01*
X224767619Y-79685033D01*
X224672380Y-79732652D01*
X224624761Y-79780271D01*
X224577142Y-79875509D01*
X224577142Y-80113604D01*
X224624761Y-80208842D01*
X224672380Y-80256461D01*
X224767619Y-80304080D01*
X225005714Y-80304080D01*
X225100952Y-80256461D01*
X225148571Y-80208842D01*
X208765238Y-80304080D02*
X208765238Y-79304080D01*
X208193809Y-80304080D02*
X208622380Y-79732652D01*
X208193809Y-79304080D02*
X208765238Y-79875509D01*
X208003333Y-80399319D02*
X207241428Y-80399319D01*
X206574761Y-79637414D02*
X206574761Y-80304080D01*
X206812857Y-79256461D02*
X207050952Y-79970747D01*
X206431904Y-79970747D01*
X205622380Y-79637414D02*
X205622380Y-80304080D01*
X205860476Y-79256461D02*
X206098571Y-79970747D01*
X205479523Y-79970747D01*
X189715238Y-80304080D02*
X189715238Y-79304080D01*
X189143809Y-80304080D02*
X189572380Y-79732652D01*
X189143809Y-79304080D02*
X189715238Y-79875509D01*
X188953333Y-80399319D02*
X188191428Y-80399319D01*
X187524761Y-79637414D02*
X187524761Y-80304080D01*
X187762857Y-79256461D02*
X188000952Y-79970747D01*
X187381904Y-79970747D01*
X187096190Y-79304080D02*
X186477142Y-79304080D01*
X186810476Y-79685033D01*
X186667619Y-79685033D01*
X186572380Y-79732652D01*
X186524761Y-79780271D01*
X186477142Y-79875509D01*
X186477142Y-80113604D01*
X186524761Y-80208842D01*
X186572380Y-80256461D01*
X186667619Y-80304080D01*
X186953333Y-80304080D01*
X187048571Y-80256461D01*
X187096190Y-80208842D01*
X169522380Y-78256461D02*
X168522380Y-78256461D01*
X169522380Y-78827890D02*
X168950952Y-78399319D01*
X168522380Y-78827890D02*
X169093809Y-78256461D01*
X169617619Y-79018366D02*
X169617619Y-79780271D01*
X168855714Y-80446938D02*
X169522380Y-80446938D01*
X168474761Y-80208842D02*
X169189047Y-79970747D01*
X169189047Y-80589795D01*
X168617619Y-80923128D02*
X168570000Y-80970747D01*
X168522380Y-81065985D01*
X168522380Y-81304080D01*
X168570000Y-81399319D01*
X168617619Y-81446938D01*
X168712857Y-81494557D01*
X168808095Y-81494557D01*
X168950952Y-81446938D01*
X169522380Y-80875509D01*
X169522380Y-81494557D01*
X151615238Y-80304080D02*
X151615238Y-79304080D01*
X151043809Y-80304080D02*
X151472380Y-79732652D01*
X151043809Y-79304080D02*
X151615238Y-79875509D01*
X150853333Y-80399319D02*
X150091428Y-80399319D01*
X149424761Y-79637414D02*
X149424761Y-80304080D01*
X149662857Y-79256461D02*
X149900952Y-79970747D01*
X149281904Y-79970747D01*
X148377142Y-80304080D02*
X148948571Y-80304080D01*
X148662857Y-80304080D02*
X148662857Y-79304080D01*
X148758095Y-79446938D01*
X148853333Y-79542176D01*
X148948571Y-79589795D01*
X132565238Y-80304080D02*
X132565238Y-79304080D01*
X131993809Y-80304080D02*
X132422380Y-79732652D01*
X131993809Y-79304080D02*
X132565238Y-79875509D01*
X131803333Y-80399319D02*
X131041428Y-80399319D01*
X130374761Y-79637414D02*
X130374761Y-80304080D01*
X130612857Y-79256461D02*
X130850952Y-79970747D01*
X130231904Y-79970747D01*
X129660476Y-79304080D02*
X129565238Y-79304080D01*
X129470000Y-79351700D01*
X129422380Y-79399319D01*
X129374761Y-79494557D01*
X129327142Y-79685033D01*
X129327142Y-79923128D01*
X129374761Y-80113604D01*
X129422380Y-80208842D01*
X129470000Y-80256461D01*
X129565238Y-80304080D01*
X129660476Y-80304080D01*
X129755714Y-80256461D01*
X129803333Y-80208842D01*
X129850952Y-80113604D01*
X129898571Y-79923128D01*
X129898571Y-79685033D01*
X129850952Y-79494557D01*
X129803333Y-79399319D01*
X129755714Y-79351700D01*
X129660476Y-79304080D01*
X113515238Y-80304080D02*
X113515238Y-79304080D01*
X112943809Y-80304080D02*
X113372380Y-79732652D01*
X112943809Y-79304080D02*
X113515238Y-79875509D01*
X112753333Y-80399319D02*
X111991428Y-80399319D01*
X111848571Y-79304080D02*
X111229523Y-79304080D01*
X111562857Y-79685033D01*
X111420000Y-79685033D01*
X111324761Y-79732652D01*
X111277142Y-79780271D01*
X111229523Y-79875509D01*
X111229523Y-80113604D01*
X111277142Y-80208842D01*
X111324761Y-80256461D01*
X111420000Y-80304080D01*
X111705714Y-80304080D01*
X111800952Y-80256461D01*
X111848571Y-80208842D01*
X110753333Y-80304080D02*
X110562857Y-80304080D01*
X110467619Y-80256461D01*
X110420000Y-80208842D01*
X110324761Y-80065985D01*
X110277142Y-79875509D01*
X110277142Y-79494557D01*
X110324761Y-79399319D01*
X110372380Y-79351700D01*
X110467619Y-79304080D01*
X110658095Y-79304080D01*
X110753333Y-79351700D01*
X110800952Y-79399319D01*
X110848571Y-79494557D01*
X110848571Y-79732652D01*
X110800952Y-79827890D01*
X110753333Y-79875509D01*
X110658095Y-79923128D01*
X110467619Y-79923128D01*
X110372380Y-79875509D01*
X110324761Y-79827890D01*
X110277142Y-79732652D01*
X94464938Y-80304080D02*
X94464938Y-79304080D01*
X93893509Y-80304080D02*
X94322080Y-79732652D01*
X93893509Y-79304080D02*
X94464938Y-79875509D01*
X93703033Y-80399319D02*
X92941128Y-80399319D01*
X92798271Y-79304080D02*
X92179223Y-79304080D01*
X92512557Y-79685033D01*
X92369700Y-79685033D01*
X92274461Y-79732652D01*
X92226842Y-79780271D01*
X92179223Y-79875509D01*
X92179223Y-80113604D01*
X92226842Y-80208842D01*
X92274461Y-80256461D01*
X92369700Y-80304080D01*
X92655414Y-80304080D01*
X92750652Y-80256461D01*
X92798271Y-80208842D01*
X91607795Y-79732652D02*
X91703033Y-79685033D01*
X91750652Y-79637414D01*
X91798271Y-79542176D01*
X91798271Y-79494557D01*
X91750652Y-79399319D01*
X91703033Y-79351700D01*
X91607795Y-79304080D01*
X91417319Y-79304080D01*
X91322080Y-79351700D01*
X91274461Y-79399319D01*
X91226842Y-79494557D01*
X91226842Y-79542176D01*
X91274461Y-79637414D01*
X91322080Y-79685033D01*
X91417319Y-79732652D01*
X91607795Y-79732652D01*
X91703033Y-79780271D01*
X91750652Y-79827890D01*
X91798271Y-79923128D01*
X91798271Y-80113604D01*
X91750652Y-80208842D01*
X91703033Y-80256461D01*
X91607795Y-80304080D01*
X91417319Y-80304080D01*
X91322080Y-80256461D01*
X91274461Y-80208842D01*
X91226842Y-80113604D01*
X91226842Y-79923128D01*
X91274461Y-79827890D01*
X91322080Y-79780271D01*
X91417319Y-79732652D01*
X75414938Y-80304080D02*
X75414938Y-79304080D01*
X74843509Y-80304080D02*
X75272080Y-79732652D01*
X74843509Y-79304080D02*
X75414938Y-79875509D01*
X74653033Y-80399319D02*
X73891128Y-80399319D01*
X73748271Y-79304080D02*
X73129223Y-79304080D01*
X73462557Y-79685033D01*
X73319700Y-79685033D01*
X73224461Y-79732652D01*
X73176842Y-79780271D01*
X73129223Y-79875509D01*
X73129223Y-80113604D01*
X73176842Y-80208842D01*
X73224461Y-80256461D01*
X73319700Y-80304080D01*
X73605414Y-80304080D01*
X73700652Y-80256461D01*
X73748271Y-80208842D01*
X72795890Y-79304080D02*
X72129223Y-79304080D01*
X72557795Y-80304080D01*
X56364938Y-80304080D02*
X56364938Y-79304080D01*
X55793509Y-80304080D02*
X56222080Y-79732652D01*
X55793509Y-79304080D02*
X56364938Y-79875509D01*
X55603033Y-80399319D02*
X54841128Y-80399319D01*
X54698271Y-79304080D02*
X54079223Y-79304080D01*
X54412557Y-79685033D01*
X54269700Y-79685033D01*
X54174461Y-79732652D01*
X54126842Y-79780271D01*
X54079223Y-79875509D01*
X54079223Y-80113604D01*
X54126842Y-80208842D01*
X54174461Y-80256461D01*
X54269700Y-80304080D01*
X54555414Y-80304080D01*
X54650652Y-80256461D01*
X54698271Y-80208842D01*
X53222080Y-79304080D02*
X53412557Y-79304080D01*
X53507795Y-79351700D01*
X53555414Y-79399319D01*
X53650652Y-79542176D01*
X53698271Y-79732652D01*
X53698271Y-80113604D01*
X53650652Y-80208842D01*
X53603033Y-80256461D01*
X53507795Y-80304080D01*
X53317319Y-80304080D01*
X53222080Y-80256461D01*
X53174461Y-80208842D01*
X53126842Y-80113604D01*
X53126842Y-79875509D01*
X53174461Y-79780271D01*
X53222080Y-79732652D01*
X53317319Y-79685033D01*
X53507795Y-79685033D01*
X53603033Y-79732652D01*
X53650652Y-79780271D01*
X53698271Y-79875509D01*
X265915238Y-61254080D02*
X265915238Y-60254080D01*
X265343809Y-61254080D02*
X265772380Y-60682652D01*
X265343809Y-60254080D02*
X265915238Y-60825509D01*
X265153333Y-61349319D02*
X264391428Y-61349319D01*
X264248571Y-60254080D02*
X263629523Y-60254080D01*
X263962857Y-60635033D01*
X263820000Y-60635033D01*
X263724761Y-60682652D01*
X263677142Y-60730271D01*
X263629523Y-60825509D01*
X263629523Y-61063604D01*
X263677142Y-61158842D01*
X263724761Y-61206461D01*
X263820000Y-61254080D01*
X264105714Y-61254080D01*
X264200952Y-61206461D01*
X264248571Y-61158842D01*
X262724761Y-60254080D02*
X263200952Y-60254080D01*
X263248571Y-60730271D01*
X263200952Y-60682652D01*
X263105714Y-60635033D01*
X262867619Y-60635033D01*
X262772380Y-60682652D01*
X262724761Y-60730271D01*
X262677142Y-60825509D01*
X262677142Y-61063604D01*
X262724761Y-61158842D01*
X262772380Y-61206461D01*
X262867619Y-61254080D01*
X263105714Y-61254080D01*
X263200952Y-61206461D01*
X263248571Y-61158842D01*
X246865238Y-61254080D02*
X246865238Y-60254080D01*
X246293809Y-61254080D02*
X246722380Y-60682652D01*
X246293809Y-60254080D02*
X246865238Y-60825509D01*
X246103333Y-61349319D02*
X245341428Y-61349319D01*
X245198571Y-60254080D02*
X244579523Y-60254080D01*
X244912857Y-60635033D01*
X244770000Y-60635033D01*
X244674761Y-60682652D01*
X244627142Y-60730271D01*
X244579523Y-60825509D01*
X244579523Y-61063604D01*
X244627142Y-61158842D01*
X244674761Y-61206461D01*
X244770000Y-61254080D01*
X245055714Y-61254080D01*
X245150952Y-61206461D01*
X245198571Y-61158842D01*
X243722380Y-60587414D02*
X243722380Y-61254080D01*
X243960476Y-60206461D02*
X244198571Y-60920747D01*
X243579523Y-60920747D01*
X227815238Y-61254080D02*
X227815238Y-60254080D01*
X227243809Y-61254080D02*
X227672380Y-60682652D01*
X227243809Y-60254080D02*
X227815238Y-60825509D01*
X227053333Y-61349319D02*
X226291428Y-61349319D01*
X226148571Y-60254080D02*
X225529523Y-60254080D01*
X225862857Y-60635033D01*
X225720000Y-60635033D01*
X225624761Y-60682652D01*
X225577142Y-60730271D01*
X225529523Y-60825509D01*
X225529523Y-61063604D01*
X225577142Y-61158842D01*
X225624761Y-61206461D01*
X225720000Y-61254080D01*
X226005714Y-61254080D01*
X226100952Y-61206461D01*
X226148571Y-61158842D01*
X225196190Y-60254080D02*
X224577142Y-60254080D01*
X224910476Y-60635033D01*
X224767619Y-60635033D01*
X224672380Y-60682652D01*
X224624761Y-60730271D01*
X224577142Y-60825509D01*
X224577142Y-61063604D01*
X224624761Y-61158842D01*
X224672380Y-61206461D01*
X224767619Y-61254080D01*
X225053333Y-61254080D01*
X225148571Y-61206461D01*
X225196190Y-61158842D01*
X208765238Y-61254080D02*
X208765238Y-60254080D01*
X208193809Y-61254080D02*
X208622380Y-60682652D01*
X208193809Y-60254080D02*
X208765238Y-60825509D01*
X208003333Y-61349319D02*
X207241428Y-61349319D01*
X207098571Y-60254080D02*
X206479523Y-60254080D01*
X206812857Y-60635033D01*
X206670000Y-60635033D01*
X206574761Y-60682652D01*
X206527142Y-60730271D01*
X206479523Y-60825509D01*
X206479523Y-61063604D01*
X206527142Y-61158842D01*
X206574761Y-61206461D01*
X206670000Y-61254080D01*
X206955714Y-61254080D01*
X207050952Y-61206461D01*
X207098571Y-61158842D01*
X206098571Y-60349319D02*
X206050952Y-60301700D01*
X205955714Y-60254080D01*
X205717619Y-60254080D01*
X205622380Y-60301700D01*
X205574761Y-60349319D01*
X205527142Y-60444557D01*
X205527142Y-60539795D01*
X205574761Y-60682652D01*
X206146190Y-61254080D01*
X205527142Y-61254080D01*
X189715238Y-61254080D02*
X189715238Y-60254080D01*
X189143809Y-61254080D02*
X189572380Y-60682652D01*
X189143809Y-60254080D02*
X189715238Y-60825509D01*
X188953333Y-61349319D02*
X188191428Y-61349319D01*
X188048571Y-60254080D02*
X187429523Y-60254080D01*
X187762857Y-60635033D01*
X187620000Y-60635033D01*
X187524761Y-60682652D01*
X187477142Y-60730271D01*
X187429523Y-60825509D01*
X187429523Y-61063604D01*
X187477142Y-61158842D01*
X187524761Y-61206461D01*
X187620000Y-61254080D01*
X187905714Y-61254080D01*
X188000952Y-61206461D01*
X188048571Y-61158842D01*
X186477142Y-61254080D02*
X187048571Y-61254080D01*
X186762857Y-61254080D02*
X186762857Y-60254080D01*
X186858095Y-60396938D01*
X186953333Y-60492176D01*
X187048571Y-60539795D01*
X170665238Y-61254080D02*
X170665238Y-60254080D01*
X170093809Y-61254080D02*
X170522380Y-60682652D01*
X170093809Y-60254080D02*
X170665238Y-60825509D01*
X169903333Y-61349319D02*
X169141428Y-61349319D01*
X168998571Y-60254080D02*
X168379523Y-60254080D01*
X168712857Y-60635033D01*
X168570000Y-60635033D01*
X168474761Y-60682652D01*
X168427142Y-60730271D01*
X168379523Y-60825509D01*
X168379523Y-61063604D01*
X168427142Y-61158842D01*
X168474761Y-61206461D01*
X168570000Y-61254080D01*
X168855714Y-61254080D01*
X168950952Y-61206461D01*
X168998571Y-61158842D01*
X167760476Y-60254080D02*
X167665238Y-60254080D01*
X167570000Y-60301700D01*
X167522380Y-60349319D01*
X167474761Y-60444557D01*
X167427142Y-60635033D01*
X167427142Y-60873128D01*
X167474761Y-61063604D01*
X167522380Y-61158842D01*
X167570000Y-61206461D01*
X167665238Y-61254080D01*
X167760476Y-61254080D01*
X167855714Y-61206461D01*
X167903333Y-61158842D01*
X167950952Y-61063604D01*
X167998571Y-60873128D01*
X167998571Y-60635033D01*
X167950952Y-60444557D01*
X167903333Y-60349319D01*
X167855714Y-60301700D01*
X167760476Y-60254080D01*
X151615238Y-61254080D02*
X151615238Y-60254080D01*
X151043809Y-61254080D02*
X151472380Y-60682652D01*
X151043809Y-60254080D02*
X151615238Y-60825509D01*
X150853333Y-61349319D02*
X150091428Y-61349319D01*
X149900952Y-60349319D02*
X149853333Y-60301700D01*
X149758095Y-60254080D01*
X149520000Y-60254080D01*
X149424761Y-60301700D01*
X149377142Y-60349319D01*
X149329523Y-60444557D01*
X149329523Y-60539795D01*
X149377142Y-60682652D01*
X149948571Y-61254080D01*
X149329523Y-61254080D01*
X148853333Y-61254080D02*
X148662857Y-61254080D01*
X148567619Y-61206461D01*
X148520000Y-61158842D01*
X148424761Y-61015985D01*
X148377142Y-60825509D01*
X148377142Y-60444557D01*
X148424761Y-60349319D01*
X148472380Y-60301700D01*
X148567619Y-60254080D01*
X148758095Y-60254080D01*
X148853333Y-60301700D01*
X148900952Y-60349319D01*
X148948571Y-60444557D01*
X148948571Y-60682652D01*
X148900952Y-60777890D01*
X148853333Y-60825509D01*
X148758095Y-60873128D01*
X148567619Y-60873128D01*
X148472380Y-60825509D01*
X148424761Y-60777890D01*
X148377142Y-60682652D01*
X132565238Y-61254080D02*
X132565238Y-60254080D01*
X131993809Y-61254080D02*
X132422380Y-60682652D01*
X131993809Y-60254080D02*
X132565238Y-60825509D01*
X131803333Y-61349319D02*
X131041428Y-61349319D01*
X130850952Y-60349319D02*
X130803333Y-60301700D01*
X130708095Y-60254080D01*
X130470000Y-60254080D01*
X130374761Y-60301700D01*
X130327142Y-60349319D01*
X130279523Y-60444557D01*
X130279523Y-60539795D01*
X130327142Y-60682652D01*
X130898571Y-61254080D01*
X130279523Y-61254080D01*
X129708095Y-60682652D02*
X129803333Y-60635033D01*
X129850952Y-60587414D01*
X129898571Y-60492176D01*
X129898571Y-60444557D01*
X129850952Y-60349319D01*
X129803333Y-60301700D01*
X129708095Y-60254080D01*
X129517619Y-60254080D01*
X129422380Y-60301700D01*
X129374761Y-60349319D01*
X129327142Y-60444557D01*
X129327142Y-60492176D01*
X129374761Y-60587414D01*
X129422380Y-60635033D01*
X129517619Y-60682652D01*
X129708095Y-60682652D01*
X129803333Y-60730271D01*
X129850952Y-60777890D01*
X129898571Y-60873128D01*
X129898571Y-61063604D01*
X129850952Y-61158842D01*
X129803333Y-61206461D01*
X129708095Y-61254080D01*
X129517619Y-61254080D01*
X129422380Y-61206461D01*
X129374761Y-61158842D01*
X129327142Y-61063604D01*
X129327142Y-60873128D01*
X129374761Y-60777890D01*
X129422380Y-60730271D01*
X129517619Y-60682652D01*
X113515238Y-61254080D02*
X113515238Y-60254080D01*
X112943809Y-61254080D02*
X113372380Y-60682652D01*
X112943809Y-60254080D02*
X113515238Y-60825509D01*
X112753333Y-61349319D02*
X111991428Y-61349319D01*
X111800952Y-60349319D02*
X111753333Y-60301700D01*
X111658095Y-60254080D01*
X111420000Y-60254080D01*
X111324761Y-60301700D01*
X111277142Y-60349319D01*
X111229523Y-60444557D01*
X111229523Y-60539795D01*
X111277142Y-60682652D01*
X111848571Y-61254080D01*
X111229523Y-61254080D01*
X110896190Y-60254080D02*
X110229523Y-60254080D01*
X110658095Y-61254080D01*
X94464938Y-61254080D02*
X94464938Y-60254080D01*
X93893509Y-61254080D02*
X94322080Y-60682652D01*
X93893509Y-60254080D02*
X94464938Y-60825509D01*
X93703033Y-61349319D02*
X92941128Y-61349319D01*
X92750652Y-60349319D02*
X92703033Y-60301700D01*
X92607795Y-60254080D01*
X92369700Y-60254080D01*
X92274461Y-60301700D01*
X92226842Y-60349319D01*
X92179223Y-60444557D01*
X92179223Y-60539795D01*
X92226842Y-60682652D01*
X92798271Y-61254080D01*
X92179223Y-61254080D01*
X91322080Y-60254080D02*
X91512557Y-60254080D01*
X91607795Y-60301700D01*
X91655414Y-60349319D01*
X91750652Y-60492176D01*
X91798271Y-60682652D01*
X91798271Y-61063604D01*
X91750652Y-61158842D01*
X91703033Y-61206461D01*
X91607795Y-61254080D01*
X91417319Y-61254080D01*
X91322080Y-61206461D01*
X91274461Y-61158842D01*
X91226842Y-61063604D01*
X91226842Y-60825509D01*
X91274461Y-60730271D01*
X91322080Y-60682652D01*
X91417319Y-60635033D01*
X91607795Y-60635033D01*
X91703033Y-60682652D01*
X91750652Y-60730271D01*
X91798271Y-60825509D01*
X75414938Y-61254080D02*
X75414938Y-60254080D01*
X74843509Y-61254080D02*
X75272080Y-60682652D01*
X74843509Y-60254080D02*
X75414938Y-60825509D01*
X74653033Y-61349319D02*
X73891128Y-61349319D01*
X73700652Y-60349319D02*
X73653033Y-60301700D01*
X73557795Y-60254080D01*
X73319700Y-60254080D01*
X73224461Y-60301700D01*
X73176842Y-60349319D01*
X73129223Y-60444557D01*
X73129223Y-60539795D01*
X73176842Y-60682652D01*
X73748271Y-61254080D01*
X73129223Y-61254080D01*
X72224461Y-60254080D02*
X72700652Y-60254080D01*
X72748271Y-60730271D01*
X72700652Y-60682652D01*
X72605414Y-60635033D01*
X72367319Y-60635033D01*
X72272080Y-60682652D01*
X72224461Y-60730271D01*
X72176842Y-60825509D01*
X72176842Y-61063604D01*
X72224461Y-61158842D01*
X72272080Y-61206461D01*
X72367319Y-61254080D01*
X72605414Y-61254080D01*
X72700652Y-61206461D01*
X72748271Y-61158842D01*
X56364938Y-61254080D02*
X56364938Y-60254080D01*
X55793509Y-61254080D02*
X56222080Y-60682652D01*
X55793509Y-60254080D02*
X56364938Y-60825509D01*
X55603033Y-61349319D02*
X54841128Y-61349319D01*
X54650652Y-60349319D02*
X54603033Y-60301700D01*
X54507795Y-60254080D01*
X54269700Y-60254080D01*
X54174461Y-60301700D01*
X54126842Y-60349319D01*
X54079223Y-60444557D01*
X54079223Y-60539795D01*
X54126842Y-60682652D01*
X54698271Y-61254080D01*
X54079223Y-61254080D01*
X53222080Y-60587414D02*
X53222080Y-61254080D01*
X53460176Y-60206461D02*
X53698271Y-60920747D01*
X53079223Y-60920747D01*
X265915238Y-42204080D02*
X265915238Y-41204080D01*
X265343809Y-42204080D02*
X265772380Y-41632652D01*
X265343809Y-41204080D02*
X265915238Y-41775509D01*
X265153333Y-42299319D02*
X264391428Y-42299319D01*
X264200952Y-41299319D02*
X264153333Y-41251700D01*
X264058095Y-41204080D01*
X263820000Y-41204080D01*
X263724761Y-41251700D01*
X263677142Y-41299319D01*
X263629523Y-41394557D01*
X263629523Y-41489795D01*
X263677142Y-41632652D01*
X264248571Y-42204080D01*
X263629523Y-42204080D01*
X263296190Y-41204080D02*
X262677142Y-41204080D01*
X263010476Y-41585033D01*
X262867619Y-41585033D01*
X262772380Y-41632652D01*
X262724761Y-41680271D01*
X262677142Y-41775509D01*
X262677142Y-42013604D01*
X262724761Y-42108842D01*
X262772380Y-42156461D01*
X262867619Y-42204080D01*
X263153333Y-42204080D01*
X263248571Y-42156461D01*
X263296190Y-42108842D01*
X246865238Y-42204080D02*
X246865238Y-41204080D01*
X246293809Y-42204080D02*
X246722380Y-41632652D01*
X246293809Y-41204080D02*
X246865238Y-41775509D01*
X246103333Y-42299319D02*
X245341428Y-42299319D01*
X245150952Y-41299319D02*
X245103333Y-41251700D01*
X245008095Y-41204080D01*
X244770000Y-41204080D01*
X244674761Y-41251700D01*
X244627142Y-41299319D01*
X244579523Y-41394557D01*
X244579523Y-41489795D01*
X244627142Y-41632652D01*
X245198571Y-42204080D01*
X244579523Y-42204080D01*
X244198571Y-41299319D02*
X244150952Y-41251700D01*
X244055714Y-41204080D01*
X243817619Y-41204080D01*
X243722380Y-41251700D01*
X243674761Y-41299319D01*
X243627142Y-41394557D01*
X243627142Y-41489795D01*
X243674761Y-41632652D01*
X244246190Y-42204080D01*
X243627142Y-42204080D01*
X227815238Y-42204080D02*
X227815238Y-41204080D01*
X227243809Y-42204080D02*
X227672380Y-41632652D01*
X227243809Y-41204080D02*
X227815238Y-41775509D01*
X227053333Y-42299319D02*
X226291428Y-42299319D01*
X226100952Y-41299319D02*
X226053333Y-41251700D01*
X225958095Y-41204080D01*
X225720000Y-41204080D01*
X225624761Y-41251700D01*
X225577142Y-41299319D01*
X225529523Y-41394557D01*
X225529523Y-41489795D01*
X225577142Y-41632652D01*
X226148571Y-42204080D01*
X225529523Y-42204080D01*
X224577142Y-42204080D02*
X225148571Y-42204080D01*
X224862857Y-42204080D02*
X224862857Y-41204080D01*
X224958095Y-41346938D01*
X225053333Y-41442176D01*
X225148571Y-41489795D01*
X208765238Y-42204080D02*
X208765238Y-41204080D01*
X208193809Y-42204080D02*
X208622380Y-41632652D01*
X208193809Y-41204080D02*
X208765238Y-41775509D01*
X208003333Y-42299319D02*
X207241428Y-42299319D01*
X207050952Y-41299319D02*
X207003333Y-41251700D01*
X206908095Y-41204080D01*
X206670000Y-41204080D01*
X206574761Y-41251700D01*
X206527142Y-41299319D01*
X206479523Y-41394557D01*
X206479523Y-41489795D01*
X206527142Y-41632652D01*
X207098571Y-42204080D01*
X206479523Y-42204080D01*
X205860476Y-41204080D02*
X205765238Y-41204080D01*
X205670000Y-41251700D01*
X205622380Y-41299319D01*
X205574761Y-41394557D01*
X205527142Y-41585033D01*
X205527142Y-41823128D01*
X205574761Y-42013604D01*
X205622380Y-42108842D01*
X205670000Y-42156461D01*
X205765238Y-42204080D01*
X205860476Y-42204080D01*
X205955714Y-42156461D01*
X206003333Y-42108842D01*
X206050952Y-42013604D01*
X206098571Y-41823128D01*
X206098571Y-41585033D01*
X206050952Y-41394557D01*
X206003333Y-41299319D01*
X205955714Y-41251700D01*
X205860476Y-41204080D01*
X189715238Y-42204080D02*
X189715238Y-41204080D01*
X189143809Y-42204080D02*
X189572380Y-41632652D01*
X189143809Y-41204080D02*
X189715238Y-41775509D01*
X188953333Y-42299319D02*
X188191428Y-42299319D01*
X187429523Y-42204080D02*
X188000952Y-42204080D01*
X187715238Y-42204080D02*
X187715238Y-41204080D01*
X187810476Y-41346938D01*
X187905714Y-41442176D01*
X188000952Y-41489795D01*
X186953333Y-42204080D02*
X186762857Y-42204080D01*
X186667619Y-42156461D01*
X186620000Y-42108842D01*
X186524761Y-41965985D01*
X186477142Y-41775509D01*
X186477142Y-41394557D01*
X186524761Y-41299319D01*
X186572380Y-41251700D01*
X186667619Y-41204080D01*
X186858095Y-41204080D01*
X186953333Y-41251700D01*
X187000952Y-41299319D01*
X187048571Y-41394557D01*
X187048571Y-41632652D01*
X187000952Y-41727890D01*
X186953333Y-41775509D01*
X186858095Y-41823128D01*
X186667619Y-41823128D01*
X186572380Y-41775509D01*
X186524761Y-41727890D01*
X186477142Y-41632652D01*
X170665238Y-42204080D02*
X170665238Y-41204080D01*
X170093809Y-42204080D02*
X170522380Y-41632652D01*
X170093809Y-41204080D02*
X170665238Y-41775509D01*
X169903333Y-42299319D02*
X169141428Y-42299319D01*
X168379523Y-42204080D02*
X168950952Y-42204080D01*
X168665238Y-42204080D02*
X168665238Y-41204080D01*
X168760476Y-41346938D01*
X168855714Y-41442176D01*
X168950952Y-41489795D01*
X167808095Y-41632652D02*
X167903333Y-41585033D01*
X167950952Y-41537414D01*
X167998571Y-41442176D01*
X167998571Y-41394557D01*
X167950952Y-41299319D01*
X167903333Y-41251700D01*
X167808095Y-41204080D01*
X167617619Y-41204080D01*
X167522380Y-41251700D01*
X167474761Y-41299319D01*
X167427142Y-41394557D01*
X167427142Y-41442176D01*
X167474761Y-41537414D01*
X167522380Y-41585033D01*
X167617619Y-41632652D01*
X167808095Y-41632652D01*
X167903333Y-41680271D01*
X167950952Y-41727890D01*
X167998571Y-41823128D01*
X167998571Y-42013604D01*
X167950952Y-42108842D01*
X167903333Y-42156461D01*
X167808095Y-42204080D01*
X167617619Y-42204080D01*
X167522380Y-42156461D01*
X167474761Y-42108842D01*
X167427142Y-42013604D01*
X167427142Y-41823128D01*
X167474761Y-41727890D01*
X167522380Y-41680271D01*
X167617619Y-41632652D01*
X151615238Y-42204080D02*
X151615238Y-41204080D01*
X151043809Y-42204080D02*
X151472380Y-41632652D01*
X151043809Y-41204080D02*
X151615238Y-41775509D01*
X150853333Y-42299319D02*
X150091428Y-42299319D01*
X149329523Y-42204080D02*
X149900952Y-42204080D01*
X149615238Y-42204080D02*
X149615238Y-41204080D01*
X149710476Y-41346938D01*
X149805714Y-41442176D01*
X149900952Y-41489795D01*
X148996190Y-41204080D02*
X148329523Y-41204080D01*
X148758095Y-42204080D01*
X132565238Y-42204080D02*
X132565238Y-41204080D01*
X131993809Y-42204080D02*
X132422380Y-41632652D01*
X131993809Y-41204080D02*
X132565238Y-41775509D01*
X131803333Y-42299319D02*
X131041428Y-42299319D01*
X130279523Y-42204080D02*
X130850952Y-42204080D01*
X130565238Y-42204080D02*
X130565238Y-41204080D01*
X130660476Y-41346938D01*
X130755714Y-41442176D01*
X130850952Y-41489795D01*
X129422380Y-41204080D02*
X129612857Y-41204080D01*
X129708095Y-41251700D01*
X129755714Y-41299319D01*
X129850952Y-41442176D01*
X129898571Y-41632652D01*
X129898571Y-42013604D01*
X129850952Y-42108842D01*
X129803333Y-42156461D01*
X129708095Y-42204080D01*
X129517619Y-42204080D01*
X129422380Y-42156461D01*
X129374761Y-42108842D01*
X129327142Y-42013604D01*
X129327142Y-41775509D01*
X129374761Y-41680271D01*
X129422380Y-41632652D01*
X129517619Y-41585033D01*
X129708095Y-41585033D01*
X129803333Y-41632652D01*
X129850952Y-41680271D01*
X129898571Y-41775509D01*
X113515238Y-42204080D02*
X113515238Y-41204080D01*
X112943809Y-42204080D02*
X113372380Y-41632652D01*
X112943809Y-41204080D02*
X113515238Y-41775509D01*
X112753333Y-42299319D02*
X111991428Y-42299319D01*
X111229523Y-42204080D02*
X111800952Y-42204080D01*
X111515238Y-42204080D02*
X111515238Y-41204080D01*
X111610476Y-41346938D01*
X111705714Y-41442176D01*
X111800952Y-41489795D01*
X110324761Y-41204080D02*
X110800952Y-41204080D01*
X110848571Y-41680271D01*
X110800952Y-41632652D01*
X110705714Y-41585033D01*
X110467619Y-41585033D01*
X110372380Y-41632652D01*
X110324761Y-41680271D01*
X110277142Y-41775509D01*
X110277142Y-42013604D01*
X110324761Y-42108842D01*
X110372380Y-42156461D01*
X110467619Y-42204080D01*
X110705714Y-42204080D01*
X110800952Y-42156461D01*
X110848571Y-42108842D01*
X94464938Y-42204080D02*
X94464938Y-41204080D01*
X93893509Y-42204080D02*
X94322080Y-41632652D01*
X93893509Y-41204080D02*
X94464938Y-41775509D01*
X93703033Y-42299319D02*
X92941128Y-42299319D01*
X92179223Y-42204080D02*
X92750652Y-42204080D01*
X92464938Y-42204080D02*
X92464938Y-41204080D01*
X92560176Y-41346938D01*
X92655414Y-41442176D01*
X92750652Y-41489795D01*
X91322080Y-41537414D02*
X91322080Y-42204080D01*
X91560176Y-41156461D02*
X91798271Y-41870747D01*
X91179223Y-41870747D01*
X75414938Y-42204080D02*
X75414938Y-41204080D01*
X74843509Y-42204080D02*
X75272080Y-41632652D01*
X74843509Y-41204080D02*
X75414938Y-41775509D01*
X74653033Y-42299319D02*
X73891128Y-42299319D01*
X73129223Y-42204080D02*
X73700652Y-42204080D01*
X73414938Y-42204080D02*
X73414938Y-41204080D01*
X73510176Y-41346938D01*
X73605414Y-41442176D01*
X73700652Y-41489795D01*
X72795890Y-41204080D02*
X72176842Y-41204080D01*
X72510176Y-41585033D01*
X72367319Y-41585033D01*
X72272080Y-41632652D01*
X72224461Y-41680271D01*
X72176842Y-41775509D01*
X72176842Y-42013604D01*
X72224461Y-42108842D01*
X72272080Y-42156461D01*
X72367319Y-42204080D01*
X72653033Y-42204080D01*
X72748271Y-42156461D01*
X72795890Y-42108842D01*
X56364938Y-42204080D02*
X56364938Y-41204080D01*
X55793509Y-42204080D02*
X56222080Y-41632652D01*
X55793509Y-41204080D02*
X56364938Y-41775509D01*
X55603033Y-42299319D02*
X54841128Y-42299319D01*
X54079223Y-42204080D02*
X54650652Y-42204080D01*
X54364938Y-42204080D02*
X54364938Y-41204080D01*
X54460176Y-41346938D01*
X54555414Y-41442176D01*
X54650652Y-41489795D01*
X53698271Y-41299319D02*
X53650652Y-41251700D01*
X53555414Y-41204080D01*
X53317319Y-41204080D01*
X53222080Y-41251700D01*
X53174461Y-41299319D01*
X53126842Y-41394557D01*
X53126842Y-41489795D01*
X53174461Y-41632652D01*
X53745890Y-42204080D01*
X53126842Y-42204080D01*
X265915238Y-23154080D02*
X265915238Y-22154080D01*
X265343809Y-23154080D02*
X265772380Y-22582652D01*
X265343809Y-22154080D02*
X265915238Y-22725509D01*
X265153333Y-23249319D02*
X264391428Y-23249319D01*
X263629523Y-23154080D02*
X264200952Y-23154080D01*
X263915238Y-23154080D02*
X263915238Y-22154080D01*
X264010476Y-22296938D01*
X264105714Y-22392176D01*
X264200952Y-22439795D01*
X262677142Y-23154080D02*
X263248571Y-23154080D01*
X262962857Y-23154080D02*
X262962857Y-22154080D01*
X263058095Y-22296938D01*
X263153333Y-22392176D01*
X263248571Y-22439795D01*
X246865238Y-23154080D02*
X246865238Y-22154080D01*
X246293809Y-23154080D02*
X246722380Y-22582652D01*
X246293809Y-22154080D02*
X246865238Y-22725509D01*
X246103333Y-23249319D02*
X245341428Y-23249319D01*
X244579523Y-23154080D02*
X245150952Y-23154080D01*
X244865238Y-23154080D02*
X244865238Y-22154080D01*
X244960476Y-22296938D01*
X245055714Y-22392176D01*
X245150952Y-22439795D01*
X243960476Y-22154080D02*
X243865238Y-22154080D01*
X243770000Y-22201700D01*
X243722380Y-22249319D01*
X243674761Y-22344557D01*
X243627142Y-22535033D01*
X243627142Y-22773128D01*
X243674761Y-22963604D01*
X243722380Y-23058842D01*
X243770000Y-23106461D01*
X243865238Y-23154080D01*
X243960476Y-23154080D01*
X244055714Y-23106461D01*
X244103333Y-23058842D01*
X244150952Y-22963604D01*
X244198571Y-22773128D01*
X244198571Y-22535033D01*
X244150952Y-22344557D01*
X244103333Y-22249319D01*
X244055714Y-22201700D01*
X243960476Y-22154080D01*
X227339047Y-23154080D02*
X227339047Y-22154080D01*
X226767619Y-23154080D02*
X227196190Y-22582652D01*
X226767619Y-22154080D02*
X227339047Y-22725509D01*
X226577142Y-23249319D02*
X225815238Y-23249319D01*
X225529523Y-23154080D02*
X225339047Y-23154080D01*
X225243809Y-23106461D01*
X225196190Y-23058842D01*
X225100952Y-22915985D01*
X225053333Y-22725509D01*
X225053333Y-22344557D01*
X225100952Y-22249319D01*
X225148571Y-22201700D01*
X225243809Y-22154080D01*
X225434285Y-22154080D01*
X225529523Y-22201700D01*
X225577142Y-22249319D01*
X225624761Y-22344557D01*
X225624761Y-22582652D01*
X225577142Y-22677890D01*
X225529523Y-22725509D01*
X225434285Y-22773128D01*
X225243809Y-22773128D01*
X225148571Y-22725509D01*
X225100952Y-22677890D01*
X225053333Y-22582652D01*
X208289047Y-23154080D02*
X208289047Y-22154080D01*
X207717619Y-23154080D02*
X208146190Y-22582652D01*
X207717619Y-22154080D02*
X208289047Y-22725509D01*
X207527142Y-23249319D02*
X206765238Y-23249319D01*
X206384285Y-22582652D02*
X206479523Y-22535033D01*
X206527142Y-22487414D01*
X206574761Y-22392176D01*
X206574761Y-22344557D01*
X206527142Y-22249319D01*
X206479523Y-22201700D01*
X206384285Y-22154080D01*
X206193809Y-22154080D01*
X206098571Y-22201700D01*
X206050952Y-22249319D01*
X206003333Y-22344557D01*
X206003333Y-22392176D01*
X206050952Y-22487414D01*
X206098571Y-22535033D01*
X206193809Y-22582652D01*
X206384285Y-22582652D01*
X206479523Y-22630271D01*
X206527142Y-22677890D01*
X206574761Y-22773128D01*
X206574761Y-22963604D01*
X206527142Y-23058842D01*
X206479523Y-23106461D01*
X206384285Y-23154080D01*
X206193809Y-23154080D01*
X206098571Y-23106461D01*
X206050952Y-23058842D01*
X206003333Y-22963604D01*
X206003333Y-22773128D01*
X206050952Y-22677890D01*
X206098571Y-22630271D01*
X206193809Y-22582652D01*
X189239047Y-23154080D02*
X189239047Y-22154080D01*
X188667619Y-23154080D02*
X189096190Y-22582652D01*
X188667619Y-22154080D02*
X189239047Y-22725509D01*
X188477142Y-23249319D02*
X187715238Y-23249319D01*
X187572380Y-22154080D02*
X186905714Y-22154080D01*
X187334285Y-23154080D01*
X170189047Y-23154080D02*
X170189047Y-22154080D01*
X169617619Y-23154080D02*
X170046190Y-22582652D01*
X169617619Y-22154080D02*
X170189047Y-22725509D01*
X169427142Y-23249319D02*
X168665238Y-23249319D01*
X167998571Y-22154080D02*
X168189047Y-22154080D01*
X168284285Y-22201700D01*
X168331904Y-22249319D01*
X168427142Y-22392176D01*
X168474761Y-22582652D01*
X168474761Y-22963604D01*
X168427142Y-23058842D01*
X168379523Y-23106461D01*
X168284285Y-23154080D01*
X168093809Y-23154080D01*
X167998571Y-23106461D01*
X167950952Y-23058842D01*
X167903333Y-22963604D01*
X167903333Y-22725509D01*
X167950952Y-22630271D01*
X167998571Y-22582652D01*
X168093809Y-22535033D01*
X168284285Y-22535033D01*
X168379523Y-22582652D01*
X168427142Y-22630271D01*
X168474761Y-22725509D01*
X151139047Y-23154080D02*
X151139047Y-22154080D01*
X150567619Y-23154080D02*
X150996190Y-22582652D01*
X150567619Y-22154080D02*
X151139047Y-22725509D01*
X150377142Y-23249319D02*
X149615238Y-23249319D01*
X148900952Y-22154080D02*
X149377142Y-22154080D01*
X149424761Y-22630271D01*
X149377142Y-22582652D01*
X149281904Y-22535033D01*
X149043809Y-22535033D01*
X148948571Y-22582652D01*
X148900952Y-22630271D01*
X148853333Y-22725509D01*
X148853333Y-22963604D01*
X148900952Y-23058842D01*
X148948571Y-23106461D01*
X149043809Y-23154080D01*
X149281904Y-23154080D01*
X149377142Y-23106461D01*
X149424761Y-23058842D01*
X132089047Y-23154080D02*
X132089047Y-22154080D01*
X131517619Y-23154080D02*
X131946190Y-22582652D01*
X131517619Y-22154080D02*
X132089047Y-22725509D01*
X131327142Y-23249319D02*
X130565238Y-23249319D01*
X129898571Y-22487414D02*
X129898571Y-23154080D01*
X130136666Y-22106461D02*
X130374761Y-22820747D01*
X129755714Y-22820747D01*
X113039047Y-23154080D02*
X113039047Y-22154080D01*
X112467619Y-23154080D02*
X112896190Y-22582652D01*
X112467619Y-22154080D02*
X113039047Y-22725509D01*
X112277142Y-23249319D02*
X111515238Y-23249319D01*
X111372380Y-22154080D02*
X110753333Y-22154080D01*
X111086666Y-22535033D01*
X110943809Y-22535033D01*
X110848571Y-22582652D01*
X110800952Y-22630271D01*
X110753333Y-22725509D01*
X110753333Y-22963604D01*
X110800952Y-23058842D01*
X110848571Y-23106461D01*
X110943809Y-23154080D01*
X111229523Y-23154080D01*
X111324761Y-23106461D01*
X111372380Y-23058842D01*
X93988747Y-23154080D02*
X93988747Y-22154080D01*
X93417319Y-23154080D02*
X93845890Y-22582652D01*
X93417319Y-22154080D02*
X93988747Y-22725509D01*
X93226842Y-23249319D02*
X92464938Y-23249319D01*
X92274461Y-22249319D02*
X92226842Y-22201700D01*
X92131604Y-22154080D01*
X91893509Y-22154080D01*
X91798271Y-22201700D01*
X91750652Y-22249319D01*
X91703033Y-22344557D01*
X91703033Y-22439795D01*
X91750652Y-22582652D01*
X92322080Y-23154080D01*
X91703033Y-23154080D01*
X74938747Y-23154080D02*
X74938747Y-22154080D01*
X74367319Y-23154080D02*
X74795890Y-22582652D01*
X74367319Y-22154080D02*
X74938747Y-22725509D01*
X74176842Y-23249319D02*
X73414938Y-23249319D01*
X72653033Y-23154080D02*
X73224461Y-23154080D01*
X72938747Y-23154080D02*
X72938747Y-22154080D01*
X73033985Y-22296938D01*
X73129223Y-22392176D01*
X73224461Y-22439795D01*
X55888747Y-23154080D02*
X55888747Y-22154080D01*
X55317319Y-23154080D02*
X55745890Y-22582652D01*
X55317319Y-22154080D02*
X55888747Y-22725509D01*
X55126842Y-23249319D02*
X54364938Y-23249319D01*
X53936366Y-22154080D02*
X53841128Y-22154080D01*
X53745890Y-22201700D01*
X53698271Y-22249319D01*
X53650652Y-22344557D01*
X53603033Y-22535033D01*
X53603033Y-22773128D01*
X53650652Y-22963604D01*
X53698271Y-23058842D01*
X53745890Y-23106461D01*
X53841128Y-23154080D01*
X53936366Y-23154080D01*
X54031604Y-23106461D01*
X54079223Y-23058842D01*
X54126842Y-22963604D01*
X54174461Y-22773128D01*
X54174461Y-22535033D01*
X54126842Y-22344557D01*
X54079223Y-22249319D01*
X54031604Y-22201700D01*
X53936366Y-22154080D01*
X25819709Y-54236257D02*
X25705423Y-54274352D01*
X25667328Y-54312447D01*
X25629233Y-54388638D01*
X25629233Y-54502923D01*
X25667328Y-54579114D01*
X25705423Y-54617209D01*
X25781614Y-54655304D01*
X26086376Y-54655304D01*
X26086376Y-53855304D01*
X25819709Y-53855304D01*
X25743519Y-53893400D01*
X25705423Y-53931495D01*
X25667328Y-54007685D01*
X25667328Y-54083876D01*
X25705423Y-54160066D01*
X25743519Y-54198161D01*
X25819709Y-54236257D01*
X26086376Y-54236257D01*
X25324471Y-53931495D02*
X25286376Y-53893400D01*
X25210185Y-53855304D01*
X25019709Y-53855304D01*
X24943519Y-53893400D01*
X24905423Y-53931495D01*
X24867328Y-54007685D01*
X24867328Y-54083876D01*
X24905423Y-54198161D01*
X25362566Y-54655304D01*
X24867328Y-54655304D01*
X25762566Y-46616257D02*
X26029233Y-46616257D01*
X26029233Y-47035304D02*
X26029233Y-46235304D01*
X25648280Y-46235304D01*
X25419709Y-46235304D02*
X24886376Y-46235304D01*
X25229233Y-47035304D01*
X25762566Y-44076257D02*
X26029233Y-44076257D01*
X26029233Y-44495304D02*
X26029233Y-43695304D01*
X25648280Y-43695304D01*
X25000661Y-43695304D02*
X25153042Y-43695304D01*
X25229233Y-43733400D01*
X25267328Y-43771495D01*
X25343519Y-43885780D01*
X25381614Y-44038161D01*
X25381614Y-44342923D01*
X25343519Y-44419114D01*
X25305423Y-44457209D01*
X25229233Y-44495304D01*
X25076852Y-44495304D01*
X25000661Y-44457209D01*
X24962566Y-44419114D01*
X24924471Y-44342923D01*
X24924471Y-44152447D01*
X24962566Y-44076257D01*
X25000661Y-44038161D01*
X25076852Y-44000066D01*
X25229233Y-44000066D01*
X25305423Y-44038161D01*
X25343519Y-44076257D01*
X25381614Y-44152447D01*
X25762566Y-41536257D02*
X26029233Y-41536257D01*
X26029233Y-41955304D02*
X26029233Y-41155304D01*
X25648280Y-41155304D01*
X24962566Y-41155304D02*
X25343519Y-41155304D01*
X25381614Y-41536257D01*
X25343519Y-41498161D01*
X25267328Y-41460066D01*
X25076852Y-41460066D01*
X25000661Y-41498161D01*
X24962566Y-41536257D01*
X24924471Y-41612447D01*
X24924471Y-41802923D01*
X24962566Y-41879114D01*
X25000661Y-41917209D01*
X25076852Y-41955304D01*
X25267328Y-41955304D01*
X25343519Y-41917209D01*
X25381614Y-41879114D01*
X26048280Y-29255304D02*
X26314947Y-28874352D01*
X26505423Y-29255304D02*
X26505423Y-28455304D01*
X26200661Y-28455304D01*
X26124471Y-28493400D01*
X26086376Y-28531495D01*
X26048280Y-28607685D01*
X26048280Y-28721971D01*
X26086376Y-28798161D01*
X26124471Y-28836257D01*
X26200661Y-28874352D01*
X26505423Y-28874352D01*
X25743519Y-29026733D02*
X25362566Y-29026733D01*
X25819709Y-29255304D02*
X25553042Y-28455304D01*
X25286376Y-29255304D01*
X25095900Y-28455304D02*
X24905423Y-29255304D01*
X24753042Y-28683876D01*
X24600661Y-29255304D01*
X24410185Y-28455304D01*
X26105423Y-31033400D02*
X26181614Y-30995304D01*
X26295900Y-30995304D01*
X26410185Y-31033400D01*
X26486376Y-31109590D01*
X26524471Y-31185780D01*
X26562566Y-31338161D01*
X26562566Y-31452447D01*
X26524471Y-31604828D01*
X26486376Y-31681019D01*
X26410185Y-31757209D01*
X26295900Y-31795304D01*
X26219709Y-31795304D01*
X26105423Y-31757209D01*
X26067328Y-31719114D01*
X26067328Y-31452447D01*
X26219709Y-31452447D01*
X25724471Y-31795304D02*
X25724471Y-30995304D01*
X25267328Y-31795304D01*
X25267328Y-30995304D01*
X24886376Y-31795304D02*
X24886376Y-30995304D01*
X24695900Y-30995304D01*
X24581614Y-31033400D01*
X24505423Y-31109590D01*
X24467328Y-31185780D01*
X24429233Y-31338161D01*
X24429233Y-31452447D01*
X24467328Y-31604828D01*
X24505423Y-31681019D01*
X24581614Y-31757209D01*
X24695900Y-31795304D01*
X24886376Y-31795304D01*
X25757113Y-34267209D02*
X25642827Y-34305304D01*
X25452351Y-34305304D01*
X25376160Y-34267209D01*
X25338065Y-34229114D01*
X25299970Y-34152923D01*
X25299970Y-34076733D01*
X25338065Y-34000542D01*
X25376160Y-33962447D01*
X25452351Y-33924352D01*
X25604732Y-33886257D01*
X25680922Y-33848161D01*
X25719018Y-33810066D01*
X25757113Y-33733876D01*
X25757113Y-33657685D01*
X25719018Y-33581495D01*
X25680922Y-33543400D01*
X25604732Y-33505304D01*
X25414256Y-33505304D01*
X25299970Y-33543400D01*
X25071399Y-33505304D02*
X24614256Y-33505304D01*
X24842827Y-34305304D02*
X24842827Y-33505304D01*
X26562566Y-36075304D02*
X26295900Y-36875304D01*
X26029233Y-36075304D01*
X25305423Y-36799114D02*
X25343519Y-36837209D01*
X25457804Y-36875304D01*
X25533995Y-36875304D01*
X25648280Y-36837209D01*
X25724471Y-36761019D01*
X25762566Y-36684828D01*
X25800661Y-36532447D01*
X25800661Y-36418161D01*
X25762566Y-36265780D01*
X25724471Y-36189590D01*
X25648280Y-36113400D01*
X25533995Y-36075304D01*
X25457804Y-36075304D01*
X25343519Y-36113400D01*
X25305423Y-36151495D01*
X24505423Y-36799114D02*
X24543519Y-36837209D01*
X24657804Y-36875304D01*
X24733995Y-36875304D01*
X24848280Y-36837209D01*
X24924471Y-36761019D01*
X24962566Y-36684828D01*
X25000661Y-36532447D01*
X25000661Y-36418161D01*
X24962566Y-36265780D01*
X24924471Y-36189590D01*
X24848280Y-36113400D01*
X24733995Y-36075304D01*
X24657804Y-36075304D01*
X24543519Y-36113400D01*
X24505423Y-36151495D01*
X25762566Y-38996257D02*
X26029233Y-38996257D01*
X26029233Y-39415304D02*
X26029233Y-38615304D01*
X25648280Y-38615304D01*
X25000661Y-38881971D02*
X25000661Y-39415304D01*
X25191138Y-38577209D02*
X25381614Y-39148638D01*
X24886376Y-39148638D01*
X25819709Y-49156257D02*
X25705423Y-49194352D01*
X25667328Y-49232447D01*
X25629233Y-49308638D01*
X25629233Y-49422923D01*
X25667328Y-49499114D01*
X25705423Y-49537209D01*
X25781614Y-49575304D01*
X26086376Y-49575304D01*
X26086376Y-48775304D01*
X25819709Y-48775304D01*
X25743519Y-48813400D01*
X25705423Y-48851495D01*
X25667328Y-48927685D01*
X25667328Y-49003876D01*
X25705423Y-49080066D01*
X25743519Y-49118161D01*
X25819709Y-49156257D01*
X26086376Y-49156257D01*
X24867328Y-49575304D02*
X25324471Y-49575304D01*
X25095900Y-49575304D02*
X25095900Y-48775304D01*
X25172090Y-48889590D01*
X25248280Y-48965780D01*
X25324471Y-49003876D01*
X25819709Y-51696257D02*
X25705423Y-51734352D01*
X25667328Y-51772447D01*
X25629233Y-51848638D01*
X25629233Y-51962923D01*
X25667328Y-52039114D01*
X25705423Y-52077209D01*
X25781614Y-52115304D01*
X26086376Y-52115304D01*
X26086376Y-51315304D01*
X25819709Y-51315304D01*
X25743519Y-51353400D01*
X25705423Y-51391495D01*
X25667328Y-51467685D01*
X25667328Y-51543876D01*
X25705423Y-51620066D01*
X25743519Y-51658161D01*
X25819709Y-51696257D01*
X26086376Y-51696257D01*
X25362566Y-51315304D02*
X24867328Y-51315304D01*
X25133995Y-51620066D01*
X25019709Y-51620066D01*
X24943519Y-51658161D01*
X24905423Y-51696257D01*
X24867328Y-51772447D01*
X24867328Y-51962923D01*
X24905423Y-52039114D01*
X24943519Y-52077209D01*
X25019709Y-52115304D01*
X25248280Y-52115304D01*
X25324471Y-52077209D01*
X25362566Y-52039114D01*
X25819709Y-56776257D02*
X25705423Y-56814352D01*
X25667328Y-56852447D01*
X25629233Y-56928638D01*
X25629233Y-57042923D01*
X25667328Y-57119114D01*
X25705423Y-57157209D01*
X25781614Y-57195304D01*
X26086376Y-57195304D01*
X26086376Y-56395304D01*
X25819709Y-56395304D01*
X25743519Y-56433400D01*
X25705423Y-56471495D01*
X25667328Y-56547685D01*
X25667328Y-56623876D01*
X25705423Y-56700066D01*
X25743519Y-56738161D01*
X25819709Y-56776257D01*
X26086376Y-56776257D01*
X24943519Y-56395304D02*
X25095900Y-56395304D01*
X25172090Y-56433400D01*
X25210185Y-56471495D01*
X25286376Y-56585780D01*
X25324471Y-56738161D01*
X25324471Y-57042923D01*
X25286376Y-57119114D01*
X25248280Y-57157209D01*
X25172090Y-57195304D01*
X25019709Y-57195304D01*
X24943519Y-57157209D01*
X24905423Y-57119114D01*
X24867328Y-57042923D01*
X24867328Y-56852447D01*
X24905423Y-56776257D01*
X24943519Y-56738161D01*
X25019709Y-56700066D01*
X25172090Y-56700066D01*
X25248280Y-56738161D01*
X25286376Y-56776257D01*
X25324471Y-56852447D01*
X36741709Y-56776257D02*
X36627423Y-56814352D01*
X36589328Y-56852447D01*
X36551233Y-56928638D01*
X36551233Y-57042923D01*
X36589328Y-57119114D01*
X36627423Y-57157209D01*
X36703614Y-57195304D01*
X37008376Y-57195304D01*
X37008376Y-56395304D01*
X36741709Y-56395304D01*
X36665519Y-56433400D01*
X36627423Y-56471495D01*
X36589328Y-56547685D01*
X36589328Y-56623876D01*
X36627423Y-56700066D01*
X36665519Y-56738161D01*
X36741709Y-56776257D01*
X37008376Y-56776257D01*
X35827423Y-56395304D02*
X36208376Y-56395304D01*
X36246471Y-56776257D01*
X36208376Y-56738161D01*
X36132185Y-56700066D01*
X35941709Y-56700066D01*
X35865519Y-56738161D01*
X35827423Y-56776257D01*
X35789328Y-56852447D01*
X35789328Y-57042923D01*
X35827423Y-57119114D01*
X35865519Y-57157209D01*
X35941709Y-57195304D01*
X36132185Y-57195304D01*
X36208376Y-57157209D01*
X36246471Y-57119114D01*
X36741709Y-54236257D02*
X36627423Y-54274352D01*
X36589328Y-54312447D01*
X36551233Y-54388638D01*
X36551233Y-54502923D01*
X36589328Y-54579114D01*
X36627423Y-54617209D01*
X36703614Y-54655304D01*
X37008376Y-54655304D01*
X37008376Y-53855304D01*
X36741709Y-53855304D01*
X36665519Y-53893400D01*
X36627423Y-53931495D01*
X36589328Y-54007685D01*
X36589328Y-54083876D01*
X36627423Y-54160066D01*
X36665519Y-54198161D01*
X36741709Y-54236257D01*
X37008376Y-54236257D01*
X35865519Y-54121971D02*
X35865519Y-54655304D01*
X36055995Y-53817209D02*
X36246471Y-54388638D01*
X35751233Y-54388638D01*
X36970280Y-51696257D02*
X36703614Y-51696257D01*
X36589328Y-52115304D02*
X36970280Y-52115304D01*
X36970280Y-51315304D01*
X36589328Y-51315304D01*
X35903614Y-51315304D02*
X36055995Y-51315304D01*
X36132185Y-51353400D01*
X36170280Y-51391495D01*
X36246471Y-51505780D01*
X36284566Y-51658161D01*
X36284566Y-51962923D01*
X36246471Y-52039114D01*
X36208376Y-52077209D01*
X36132185Y-52115304D01*
X35979804Y-52115304D01*
X35903614Y-52077209D01*
X35865519Y-52039114D01*
X35827423Y-51962923D01*
X35827423Y-51772447D01*
X35865519Y-51696257D01*
X35903614Y-51658161D01*
X35979804Y-51620066D01*
X36132185Y-51620066D01*
X36208376Y-51658161D01*
X36246471Y-51696257D01*
X36284566Y-51772447D01*
X37008376Y-49575304D02*
X37008376Y-48775304D01*
X36817900Y-48775304D01*
X36703614Y-48813400D01*
X36627423Y-48889590D01*
X36589328Y-48965780D01*
X36551233Y-49118161D01*
X36551233Y-49232447D01*
X36589328Y-49384828D01*
X36627423Y-49461019D01*
X36703614Y-49537209D01*
X36817900Y-49575304D01*
X37008376Y-49575304D01*
X36284566Y-48775304D02*
X35751233Y-48775304D01*
X36094090Y-49575304D01*
X36551233Y-46959114D02*
X36589328Y-46997209D01*
X36703614Y-47035304D01*
X36779804Y-47035304D01*
X36894090Y-46997209D01*
X36970280Y-46921019D01*
X37008376Y-46844828D01*
X37046471Y-46692447D01*
X37046471Y-46578161D01*
X37008376Y-46425780D01*
X36970280Y-46349590D01*
X36894090Y-46273400D01*
X36779804Y-46235304D01*
X36703614Y-46235304D01*
X36589328Y-46273400D01*
X36551233Y-46311495D01*
X35865519Y-46235304D02*
X36017900Y-46235304D01*
X36094090Y-46273400D01*
X36132185Y-46311495D01*
X36208376Y-46425780D01*
X36246471Y-46578161D01*
X36246471Y-46882923D01*
X36208376Y-46959114D01*
X36170280Y-46997209D01*
X36094090Y-47035304D01*
X35941709Y-47035304D01*
X35865519Y-46997209D01*
X35827423Y-46959114D01*
X35789328Y-46882923D01*
X35789328Y-46692447D01*
X35827423Y-46616257D01*
X35865519Y-46578161D01*
X35941709Y-46540066D01*
X36094090Y-46540066D01*
X36170280Y-46578161D01*
X36208376Y-46616257D01*
X36246471Y-46692447D01*
X37008376Y-44495304D02*
X37008376Y-43695304D01*
X36817900Y-43695304D01*
X36703614Y-43733400D01*
X36627423Y-43809590D01*
X36589328Y-43885780D01*
X36551233Y-44038161D01*
X36551233Y-44152447D01*
X36589328Y-44304828D01*
X36627423Y-44381019D01*
X36703614Y-44457209D01*
X36817900Y-44495304D01*
X37008376Y-44495304D01*
X35865519Y-43961971D02*
X35865519Y-44495304D01*
X36055995Y-43657209D02*
X36246471Y-44228638D01*
X35751233Y-44228638D01*
X37027423Y-33573400D02*
X37103614Y-33535304D01*
X37217900Y-33535304D01*
X37332185Y-33573400D01*
X37408376Y-33649590D01*
X37446471Y-33725780D01*
X37484566Y-33878161D01*
X37484566Y-33992447D01*
X37446471Y-34144828D01*
X37408376Y-34221019D01*
X37332185Y-34297209D01*
X37217900Y-34335304D01*
X37141709Y-34335304D01*
X37027423Y-34297209D01*
X36989328Y-34259114D01*
X36989328Y-33992447D01*
X37141709Y-33992447D01*
X36646471Y-34335304D02*
X36646471Y-33535304D01*
X36189328Y-34335304D01*
X36189328Y-33535304D01*
X35808376Y-34335304D02*
X35808376Y-33535304D01*
X35617900Y-33535304D01*
X35503614Y-33573400D01*
X35427423Y-33649590D01*
X35389328Y-33725780D01*
X35351233Y-33878161D01*
X35351233Y-33992447D01*
X35389328Y-34144828D01*
X35427423Y-34221019D01*
X35503614Y-34297209D01*
X35617900Y-34335304D01*
X35808376Y-34335304D01*
X37027423Y-36113400D02*
X37103614Y-36075304D01*
X37217900Y-36075304D01*
X37332185Y-36113400D01*
X37408376Y-36189590D01*
X37446471Y-36265780D01*
X37484566Y-36418161D01*
X37484566Y-36532447D01*
X37446471Y-36684828D01*
X37408376Y-36761019D01*
X37332185Y-36837209D01*
X37217900Y-36875304D01*
X37141709Y-36875304D01*
X37027423Y-36837209D01*
X36989328Y-36799114D01*
X36989328Y-36532447D01*
X37141709Y-36532447D01*
X36646471Y-36875304D02*
X36646471Y-36075304D01*
X36189328Y-36875304D01*
X36189328Y-36075304D01*
X35808376Y-36875304D02*
X35808376Y-36075304D01*
X35617900Y-36075304D01*
X35503614Y-36113400D01*
X35427423Y-36189590D01*
X35389328Y-36265780D01*
X35351233Y-36418161D01*
X35351233Y-36532447D01*
X35389328Y-36684828D01*
X35427423Y-36761019D01*
X35503614Y-36837209D01*
X35617900Y-36875304D01*
X35808376Y-36875304D01*
X37008376Y-39415304D02*
X37008376Y-38615304D01*
X36817900Y-38615304D01*
X36703614Y-38653400D01*
X36627423Y-38729590D01*
X36589328Y-38805780D01*
X36551233Y-38958161D01*
X36551233Y-39072447D01*
X36589328Y-39224828D01*
X36627423Y-39301019D01*
X36703614Y-39377209D01*
X36817900Y-39415304D01*
X37008376Y-39415304D01*
X35789328Y-39415304D02*
X36246471Y-39415304D01*
X36017900Y-39415304D02*
X36017900Y-38615304D01*
X36094090Y-38729590D01*
X36170280Y-38805780D01*
X36246471Y-38843876D01*
X37008376Y-41955304D02*
X37008376Y-41155304D01*
X36817900Y-41155304D01*
X36703614Y-41193400D01*
X36627423Y-41269590D01*
X36589328Y-41345780D01*
X36551233Y-41498161D01*
X36551233Y-41612447D01*
X36589328Y-41764828D01*
X36627423Y-41841019D01*
X36703614Y-41917209D01*
X36817900Y-41955304D01*
X37008376Y-41955304D01*
X36055995Y-41155304D02*
X35979804Y-41155304D01*
X35903614Y-41193400D01*
X35865519Y-41231495D01*
X35827423Y-41307685D01*
X35789328Y-41460066D01*
X35789328Y-41650542D01*
X35827423Y-41802923D01*
X35865519Y-41879114D01*
X35903614Y-41917209D01*
X35979804Y-41955304D01*
X36055995Y-41955304D01*
X36132185Y-41917209D01*
X36170280Y-41879114D01*
X36208376Y-41802923D01*
X36246471Y-41650542D01*
X36246471Y-41460066D01*
X36208376Y-41307685D01*
X36170280Y-41231495D01*
X36132185Y-41193400D01*
X36055995Y-41155304D01*
X37008376Y-31795304D02*
X37008376Y-30995304D01*
X36817900Y-30995304D01*
X36703614Y-31033400D01*
X36627423Y-31109590D01*
X36589328Y-31185780D01*
X36551233Y-31338161D01*
X36551233Y-31452447D01*
X36589328Y-31604828D01*
X36627423Y-31681019D01*
X36703614Y-31757209D01*
X36817900Y-31795304D01*
X37008376Y-31795304D01*
X36246471Y-31071495D02*
X36208376Y-31033400D01*
X36132185Y-30995304D01*
X35941709Y-30995304D01*
X35865519Y-31033400D01*
X35827423Y-31071495D01*
X35789328Y-31147685D01*
X35789328Y-31223876D01*
X35827423Y-31338161D01*
X36284566Y-31795304D01*
X35789328Y-31795304D01*
X36719248Y-28455304D02*
X36262105Y-28455304D01*
X36490676Y-29255304D02*
X36490676Y-28455304D01*
X36071629Y-28455304D02*
X35538295Y-29255304D01*
X35538295Y-28455304D02*
X36071629Y-29255304D01*
X35081152Y-28455304D02*
X35004962Y-28455304D01*
X34928772Y-28493400D01*
X34890676Y-28531495D01*
X34852581Y-28607685D01*
X34814486Y-28760066D01*
X34814486Y-28950542D01*
X34852581Y-29102923D01*
X34890676Y-29179114D01*
X34928772Y-29217209D01*
X35004962Y-29255304D01*
X35081152Y-29255304D01*
X35157343Y-29217209D01*
X35195438Y-29179114D01*
X35233533Y-29102923D01*
X35271629Y-28950542D01*
X35271629Y-28760066D01*
X35233533Y-28607685D01*
X35195438Y-28531495D01*
X35157343Y-28493400D01*
X35081152Y-28455304D01*
X33900200Y-28417209D02*
X34585914Y-29445780D01*
X33633533Y-29255304D02*
X33633533Y-28455304D01*
X33443057Y-28455304D01*
X33328772Y-28493400D01*
X33252581Y-28569590D01*
X33214486Y-28645780D01*
X33176391Y-28798161D01*
X33176391Y-28912447D01*
X33214486Y-29064828D01*
X33252581Y-29141019D01*
X33328772Y-29217209D01*
X33443057Y-29255304D01*
X33633533Y-29255304D01*
X32909724Y-28455304D02*
X32414486Y-28455304D01*
X32681152Y-28760066D01*
X32566867Y-28760066D01*
X32490676Y-28798161D01*
X32452581Y-28836257D01*
X32414486Y-28912447D01*
X32414486Y-29102923D01*
X32452581Y-29179114D01*
X32490676Y-29217209D01*
X32566867Y-29255304D01*
X32795438Y-29255304D01*
X32871629Y-29217209D01*
X32909724Y-29179114D01*
M02*
