G04 #@! TF.GenerationSoftware,KiCad,Pcbnew,(5.1.9)-1*
G04 #@! TF.CreationDate,2021-06-18T19:30:07-04:00*
G04 #@! TF.ProjectId,Mainpcb,4d61696e-7063-4622-9e6b-696361645f70,rev?*
G04 #@! TF.SameCoordinates,Original*
G04 #@! TF.FileFunction,Copper,L2,Bot*
G04 #@! TF.FilePolarity,Positive*
%FSLAX46Y46*%
G04 Gerber Fmt 4.6, Leading zero omitted, Abs format (unit mm)*
G04 Created by KiCad (PCBNEW (5.1.9)-1) date 2021-06-18 19:30:07*
%MOMM*%
%LPD*%
G01*
G04 APERTURE LIST*
G04 #@! TA.AperFunction,SMDPad,CuDef*
%ADD10R,0.500000X2.500000*%
G04 #@! TD*
G04 #@! TA.AperFunction,ComponentPad*
%ADD11C,1.600000*%
G04 #@! TD*
G04 #@! TA.AperFunction,ComponentPad*
%ADD12R,1.600000X1.600000*%
G04 #@! TD*
G04 #@! TA.AperFunction,SMDPad,CuDef*
%ADD13R,1.200000X1.200000*%
G04 #@! TD*
G04 #@! TA.AperFunction,SMDPad,CuDef*
%ADD14R,2.500000X0.500000*%
G04 #@! TD*
G04 #@! TA.AperFunction,ComponentPad*
%ADD15R,2.000000X2.000000*%
G04 #@! TD*
G04 #@! TA.AperFunction,ComponentPad*
%ADD16C,2.000000*%
G04 #@! TD*
G04 #@! TA.AperFunction,ComponentPad*
%ADD17R,3.200000X2.000000*%
G04 #@! TD*
G04 #@! TA.AperFunction,SMDPad,CuDef*
%ADD18R,2.550000X2.500000*%
G04 #@! TD*
G04 #@! TA.AperFunction,ComponentPad*
%ADD19R,1.752600X1.752600*%
G04 #@! TD*
G04 #@! TA.AperFunction,ComponentPad*
%ADD20C,1.752600*%
G04 #@! TD*
G04 #@! TA.AperFunction,ViaPad*
%ADD21C,0.800000*%
G04 #@! TD*
G04 #@! TA.AperFunction,Conductor*
%ADD22C,0.250000*%
G04 #@! TD*
G04 #@! TA.AperFunction,Conductor*
%ADD23C,0.254000*%
G04 #@! TD*
G04 #@! TA.AperFunction,Conductor*
%ADD24C,0.100000*%
G04 #@! TD*
G04 APERTURE END LIST*
D10*
X45244700Y-71120300D03*
X45244700Y-76520300D03*
D11*
X45244700Y-69920300D03*
D12*
X45244700Y-77720300D03*
D13*
X45244700Y-75395300D03*
X45244700Y-72245300D03*
D14*
X262262000Y-116683000D03*
X256862000Y-116683000D03*
D11*
X263462000Y-116683000D03*
D12*
X255662000Y-116683000D03*
D13*
X257987000Y-116683000D03*
X261137000Y-116683000D03*
D14*
X247974000Y-116684000D03*
X242574000Y-116684000D03*
D11*
X249174000Y-116684000D03*
D12*
X241374000Y-116684000D03*
D13*
X243699000Y-116684000D03*
X246849000Y-116684000D03*
D14*
X228924000Y-116683000D03*
X223524000Y-116683000D03*
D11*
X230124000Y-116683000D03*
D12*
X222324000Y-116683000D03*
D13*
X224649000Y-116683000D03*
X227799000Y-116683000D03*
D14*
X209873000Y-116684000D03*
X204473000Y-116684000D03*
D11*
X211073000Y-116684000D03*
D12*
X203273000Y-116684000D03*
D13*
X205598000Y-116684000D03*
X208748000Y-116684000D03*
D14*
X190823000Y-116683000D03*
X185423000Y-116683000D03*
D11*
X192023000Y-116683000D03*
D12*
X184223000Y-116683000D03*
D13*
X186548000Y-116683000D03*
X189698000Y-116683000D03*
D14*
X176535000Y-111921000D03*
X171135000Y-111921000D03*
D11*
X177735000Y-111921000D03*
D12*
X169935000Y-111921000D03*
D13*
X172260000Y-111921000D03*
X175410000Y-111921000D03*
D14*
X133672000Y-116684000D03*
X128272000Y-116684000D03*
D11*
X134872000Y-116684000D03*
D12*
X127072000Y-116684000D03*
D13*
X129397000Y-116684000D03*
X132547000Y-116684000D03*
D14*
X114621000Y-116683000D03*
X109221000Y-116683000D03*
D11*
X115821000Y-116683000D03*
D12*
X108021000Y-116683000D03*
D13*
X110346000Y-116683000D03*
X113496000Y-116683000D03*
D14*
X95570700Y-116684000D03*
X90170700Y-116684000D03*
D11*
X96770700Y-116684000D03*
D12*
X88970700Y-116684000D03*
D13*
X91295700Y-116684000D03*
X94445700Y-116684000D03*
D14*
X76520300Y-116683000D03*
X71120300Y-116683000D03*
D11*
X77720300Y-116683000D03*
D12*
X69920300Y-116683000D03*
D13*
X72245300Y-116683000D03*
X75395300Y-116683000D03*
D14*
X62232500Y-116684000D03*
X56832500Y-116684000D03*
D11*
X63432500Y-116684000D03*
D12*
X55632500Y-116684000D03*
D13*
X57957500Y-116684000D03*
X61107500Y-116684000D03*
D14*
X267024000Y-97633300D03*
X261624000Y-97633300D03*
D11*
X268224000Y-97633300D03*
D12*
X260424000Y-97633300D03*
D13*
X262749000Y-97633300D03*
X265899000Y-97633300D03*
D14*
X247974000Y-97633300D03*
X242574000Y-97633300D03*
D11*
X249174000Y-97633300D03*
D12*
X241374000Y-97633300D03*
D13*
X243699000Y-97633300D03*
X246849000Y-97633300D03*
D14*
X228924000Y-97633300D03*
X223524000Y-97633300D03*
D11*
X230124000Y-97633300D03*
D12*
X222324000Y-97633300D03*
D13*
X224649000Y-97633300D03*
X227799000Y-97633300D03*
D14*
X209873000Y-97633300D03*
X204473000Y-97633300D03*
D11*
X211073000Y-97633300D03*
D12*
X203273000Y-97633300D03*
D13*
X205598000Y-97633300D03*
X208748000Y-97633300D03*
D14*
X190823000Y-97633300D03*
X185423000Y-97633300D03*
D11*
X192023000Y-97633300D03*
D12*
X184223000Y-97633300D03*
D13*
X186548000Y-97633300D03*
X189698000Y-97633300D03*
D14*
X171772000Y-97633300D03*
X166372000Y-97633300D03*
D11*
X172972000Y-97633300D03*
D12*
X165172000Y-97633300D03*
D13*
X167497000Y-97633300D03*
X170647000Y-97633300D03*
D14*
X152722000Y-97633300D03*
X147322000Y-97633300D03*
D11*
X153922000Y-97633300D03*
D12*
X146122000Y-97633300D03*
D13*
X148447000Y-97633300D03*
X151597000Y-97633300D03*
D14*
X133672000Y-97633300D03*
X128272000Y-97633300D03*
D11*
X134872000Y-97633300D03*
D12*
X127072000Y-97633300D03*
D13*
X129397000Y-97633300D03*
X132547000Y-97633300D03*
D14*
X114621000Y-97633300D03*
X109221000Y-97633300D03*
D11*
X115821000Y-97633300D03*
D12*
X108021000Y-97633300D03*
D13*
X110346000Y-97633300D03*
X113496000Y-97633300D03*
D14*
X95570700Y-97633300D03*
X90170700Y-97633300D03*
D11*
X96770700Y-97633300D03*
D12*
X88970700Y-97633300D03*
D13*
X91295700Y-97633300D03*
X94445700Y-97633300D03*
D14*
X76520300Y-97633300D03*
X71120300Y-97633300D03*
D11*
X77720300Y-97633300D03*
D12*
X69920300Y-97633300D03*
D13*
X72245300Y-97633300D03*
X75395300Y-97633300D03*
D14*
X57469900Y-97633300D03*
X52069900Y-97633300D03*
D11*
X58669900Y-97633300D03*
D12*
X50869900Y-97633300D03*
D13*
X53194900Y-97633300D03*
X56344900Y-97633300D03*
D14*
X267024000Y-78582900D03*
X261624000Y-78582900D03*
D11*
X268224000Y-78582900D03*
D12*
X260424000Y-78582900D03*
D13*
X262749000Y-78582900D03*
X265899000Y-78582900D03*
D14*
X247974000Y-78582900D03*
X242574000Y-78582900D03*
D11*
X249174000Y-78582900D03*
D12*
X241374000Y-78582900D03*
D13*
X243699000Y-78582900D03*
X246849000Y-78582900D03*
D14*
X228924000Y-78582900D03*
X223524000Y-78582900D03*
D11*
X230124000Y-78582900D03*
D12*
X222324000Y-78582900D03*
D13*
X224649000Y-78582900D03*
X227799000Y-78582900D03*
D14*
X209873000Y-78582900D03*
X204473000Y-78582900D03*
D11*
X211073000Y-78582900D03*
D12*
X203273000Y-78582900D03*
D13*
X205598000Y-78582900D03*
X208748000Y-78582900D03*
D14*
X190823000Y-78582900D03*
X185423000Y-78582900D03*
D11*
X192023000Y-78582900D03*
D12*
X184223000Y-78582900D03*
D13*
X186548000Y-78582900D03*
X189698000Y-78582900D03*
D14*
X171772000Y-78582900D03*
X166372000Y-78582900D03*
D11*
X172972000Y-78582900D03*
D12*
X165172000Y-78582900D03*
D13*
X167497000Y-78582900D03*
X170647000Y-78582900D03*
D14*
X152722000Y-78582900D03*
X147322000Y-78582900D03*
D11*
X153922000Y-78582900D03*
D12*
X146122000Y-78582900D03*
D13*
X148447000Y-78582900D03*
X151597000Y-78582900D03*
D14*
X133672000Y-78582900D03*
X128272000Y-78582900D03*
D11*
X134872000Y-78582900D03*
D12*
X127072000Y-78582900D03*
D13*
X129397000Y-78582900D03*
X132547000Y-78582900D03*
D14*
X114621000Y-78582900D03*
X109221000Y-78582900D03*
D11*
X115821000Y-78582900D03*
D12*
X108021000Y-78582900D03*
D13*
X110346000Y-78582900D03*
X113496000Y-78582900D03*
D14*
X95570700Y-78582900D03*
X90170700Y-78582900D03*
D11*
X96770700Y-78582900D03*
D12*
X88970700Y-78582900D03*
D13*
X91295700Y-78582900D03*
X94445700Y-78582900D03*
D14*
X76520300Y-78582900D03*
X71120300Y-78582900D03*
D11*
X77720300Y-78582900D03*
D12*
X69920300Y-78582900D03*
D13*
X72245300Y-78582900D03*
X75395300Y-78582900D03*
D14*
X57469900Y-78582900D03*
X52069900Y-78582900D03*
D11*
X58669900Y-78582900D03*
D12*
X50869900Y-78582900D03*
D13*
X53194900Y-78582900D03*
X56344900Y-78582900D03*
D14*
X267024000Y-59532500D03*
X261624000Y-59532500D03*
D11*
X268224000Y-59532500D03*
D12*
X260424000Y-59532500D03*
D13*
X262749000Y-59532500D03*
X265899000Y-59532500D03*
X246849000Y-59532500D03*
X243699000Y-59532500D03*
D12*
X241374000Y-59532500D03*
D11*
X249174000Y-59532500D03*
D14*
X242574000Y-59532500D03*
X247974000Y-59532500D03*
X228924000Y-59532500D03*
X223524000Y-59532500D03*
D11*
X230124000Y-59532500D03*
D12*
X222324000Y-59532500D03*
D13*
X224649000Y-59532500D03*
X227799000Y-59532500D03*
D14*
X209873000Y-59532500D03*
X204473000Y-59532500D03*
D11*
X211073000Y-59532500D03*
D12*
X203273000Y-59532500D03*
D13*
X205598000Y-59532500D03*
X208748000Y-59532500D03*
D14*
X190823000Y-59532500D03*
X185423000Y-59532500D03*
D11*
X192023000Y-59532500D03*
D12*
X184223000Y-59532500D03*
D13*
X186548000Y-59532500D03*
X189698000Y-59532500D03*
D14*
X171772000Y-59532500D03*
X166372000Y-59532500D03*
D11*
X172972000Y-59532500D03*
D12*
X165172000Y-59532500D03*
D13*
X167497000Y-59532500D03*
X170647000Y-59532500D03*
D14*
X152722000Y-59532500D03*
X147322000Y-59532500D03*
D11*
X153922000Y-59532500D03*
D12*
X146122000Y-59532500D03*
D13*
X148447000Y-59532500D03*
X151597000Y-59532500D03*
D14*
X133672000Y-59532500D03*
X128272000Y-59532500D03*
D11*
X134872000Y-59532500D03*
D12*
X127072000Y-59532500D03*
D13*
X129397000Y-59532500D03*
X132547000Y-59532500D03*
D14*
X114621000Y-59532500D03*
X109221000Y-59532500D03*
D11*
X115821000Y-59532500D03*
D12*
X108021000Y-59532500D03*
D13*
X110346000Y-59532500D03*
X113496000Y-59532500D03*
D14*
X95570700Y-59532500D03*
X90170700Y-59532500D03*
D11*
X96770700Y-59532500D03*
D12*
X88970700Y-59532500D03*
D13*
X91295700Y-59532500D03*
X94445700Y-59532500D03*
D14*
X76520300Y-59532500D03*
X71120300Y-59532500D03*
D11*
X77720300Y-59532500D03*
D12*
X69920300Y-59532500D03*
D13*
X72245300Y-59532500D03*
X75395300Y-59532500D03*
D14*
X57469900Y-59532500D03*
X52069900Y-59532500D03*
D11*
X58669900Y-59532500D03*
D12*
X50869900Y-59532500D03*
D13*
X53194900Y-59532500D03*
X56344900Y-59532500D03*
D14*
X267024000Y-40482100D03*
X261624000Y-40482100D03*
D11*
X268224000Y-40482100D03*
D12*
X260424000Y-40482100D03*
D13*
X262749000Y-40482100D03*
X265899000Y-40482100D03*
D14*
X247974000Y-40482100D03*
X242574000Y-40482100D03*
D11*
X249174000Y-40482100D03*
D12*
X241374000Y-40482100D03*
D13*
X243699000Y-40482100D03*
X246849000Y-40482100D03*
D14*
X228924000Y-40482100D03*
X223524000Y-40482100D03*
D11*
X230124000Y-40482100D03*
D12*
X222324000Y-40482100D03*
D13*
X224649000Y-40482100D03*
X227799000Y-40482100D03*
D14*
X209873000Y-40482100D03*
X204473000Y-40482100D03*
D11*
X211073000Y-40482100D03*
D12*
X203273000Y-40482100D03*
D13*
X205598000Y-40482100D03*
X208748000Y-40482100D03*
D14*
X190823000Y-40482100D03*
X185423000Y-40482100D03*
D11*
X192023000Y-40482100D03*
D12*
X184223000Y-40482100D03*
D13*
X186548000Y-40482100D03*
X189698000Y-40482100D03*
D14*
X171772000Y-40482100D03*
X166372000Y-40482100D03*
D11*
X172972000Y-40482100D03*
D12*
X165172000Y-40482100D03*
D13*
X167497000Y-40482100D03*
X170647000Y-40482100D03*
D14*
X152722000Y-40482100D03*
X147322000Y-40482100D03*
D11*
X153922000Y-40482100D03*
D12*
X146122000Y-40482100D03*
D13*
X148447000Y-40482100D03*
X151597000Y-40482100D03*
D14*
X133672000Y-40482100D03*
X128272000Y-40482100D03*
D11*
X134872000Y-40482100D03*
D12*
X127072000Y-40482100D03*
D13*
X129397000Y-40482100D03*
X132547000Y-40482100D03*
D14*
X114621000Y-40482100D03*
X109221000Y-40482100D03*
D11*
X115821000Y-40482100D03*
D12*
X108021000Y-40482100D03*
D13*
X110346000Y-40482100D03*
X113496000Y-40482100D03*
D14*
X95570700Y-40482100D03*
X90170700Y-40482100D03*
D11*
X96770700Y-40482100D03*
D12*
X88970700Y-40482100D03*
D13*
X91295700Y-40482100D03*
X94445700Y-40482100D03*
D14*
X76520300Y-40482100D03*
X71120300Y-40482100D03*
D11*
X77720300Y-40482100D03*
D12*
X69920300Y-40482100D03*
D13*
X72245300Y-40482100D03*
X75395300Y-40482100D03*
D14*
X57469900Y-40482100D03*
X52069900Y-40482100D03*
D11*
X58669900Y-40482100D03*
D12*
X50869900Y-40482100D03*
D13*
X53194900Y-40482100D03*
X56344900Y-40482100D03*
D15*
X23456900Y-68939000D03*
D16*
X23456900Y-71439000D03*
X23456900Y-73939000D03*
D17*
X30956900Y-77039000D03*
D16*
X37956900Y-68939000D03*
X37956900Y-73939000D03*
D17*
X30956900Y-65839000D03*
D18*
X270610000Y-102077000D03*
X256760000Y-104617000D03*
X251560000Y-102077000D03*
X237710000Y-104617000D03*
X232510000Y-102077000D03*
X218660000Y-104617000D03*
X213460000Y-102077000D03*
X199610000Y-104617000D03*
X194410000Y-102077000D03*
X180560000Y-104617000D03*
X165835000Y-102077000D03*
X151985000Y-104617000D03*
X137260000Y-102077000D03*
X123410000Y-104617000D03*
X118210000Y-102077000D03*
X104360000Y-104617000D03*
X99159700Y-102077000D03*
X85309700Y-104617000D03*
X80109700Y-102077000D03*
X66259700Y-104617000D03*
X61059700Y-102077000D03*
X47209700Y-104617000D03*
X270610000Y-83026700D03*
X256760000Y-85566700D03*
X251560000Y-83026700D03*
X237710000Y-85566700D03*
X232510000Y-83026700D03*
X218660000Y-85566700D03*
X213460000Y-83026700D03*
X199610000Y-85566700D03*
X194410000Y-83026700D03*
X180560000Y-85566700D03*
X175360000Y-83026700D03*
X161510000Y-85566700D03*
X156310000Y-83026700D03*
X142460000Y-85566700D03*
X137260000Y-83026700D03*
X123410000Y-85566700D03*
X118210000Y-83026700D03*
X104360000Y-85566700D03*
X99159700Y-83026700D03*
X85309700Y-85566700D03*
X80109700Y-83026700D03*
X66259700Y-85566700D03*
X61059700Y-83026700D03*
X47209700Y-85566700D03*
X270610000Y-63976700D03*
X256760000Y-66516700D03*
X251560000Y-63976700D03*
X237710000Y-66516700D03*
X232510000Y-63976700D03*
X218660000Y-66516700D03*
X213460000Y-63976700D03*
X199610000Y-66516700D03*
X194410000Y-63976700D03*
X180560000Y-66516700D03*
X175360000Y-63976700D03*
X161510000Y-66516700D03*
X156310000Y-63976700D03*
X142460000Y-66516700D03*
X137260000Y-63976700D03*
X123410000Y-66516700D03*
X118210000Y-63976700D03*
X104360000Y-66516700D03*
X99159700Y-63976700D03*
X85309700Y-66516700D03*
X80109700Y-63976700D03*
X66259700Y-66516700D03*
X61059700Y-63976700D03*
X47209700Y-66516700D03*
X270610000Y-44926700D03*
X256760000Y-47466700D03*
X251560000Y-44926700D03*
X237710000Y-47466700D03*
X232510000Y-44926700D03*
X218660000Y-47466700D03*
X213460000Y-44926700D03*
X199610000Y-47466700D03*
X194410000Y-44926700D03*
X180560000Y-47466700D03*
X175360000Y-44926700D03*
X161510000Y-47466700D03*
X156310000Y-44926700D03*
X142460000Y-47466700D03*
X137260000Y-44926700D03*
X123410000Y-47466700D03*
X118210000Y-44926700D03*
X104360000Y-47466700D03*
X99159700Y-44926700D03*
X85309700Y-47466700D03*
X80109700Y-44926700D03*
X66259700Y-47466700D03*
X61059700Y-44926700D03*
X47209700Y-47466700D03*
X270610000Y-25876700D03*
X256760000Y-28416700D03*
X251560000Y-25876700D03*
X237710000Y-28416700D03*
X232510000Y-25876700D03*
X218660000Y-28416700D03*
X213460000Y-25876700D03*
X199610000Y-28416700D03*
X194410000Y-25876700D03*
X180560000Y-28416700D03*
X175360000Y-25876700D03*
X161510000Y-28416700D03*
X156310000Y-25876700D03*
X142460000Y-28416700D03*
X137260000Y-25876700D03*
X123410000Y-28416700D03*
X118210000Y-25876700D03*
X104360000Y-28416700D03*
X99159700Y-25876700D03*
X85309700Y-28416700D03*
X80109700Y-25876700D03*
X66259700Y-28416700D03*
X61059700Y-25876700D03*
X47209700Y-28416700D03*
D19*
X38805500Y-28893400D03*
D20*
X38348300Y-31433400D03*
X38805500Y-33973400D03*
X38348300Y-36513400D03*
X38805500Y-39053400D03*
X38348300Y-41593400D03*
X38805500Y-44133400D03*
X38348300Y-46673400D03*
X38805500Y-49213400D03*
X38348300Y-51753400D03*
X38805500Y-54293400D03*
X23565500Y-56833400D03*
X23108300Y-54293400D03*
X23565500Y-51753400D03*
X23108300Y-49213400D03*
X23565500Y-46673400D03*
X23108300Y-44133400D03*
X23565500Y-41593400D03*
X23108300Y-39053400D03*
X23565500Y-36513400D03*
X23108300Y-33973400D03*
X23565500Y-31433400D03*
X38348300Y-56833400D03*
X23108300Y-28893400D03*
D21*
X132055600Y-74587400D03*
X175557200Y-39851400D03*
X250606500Y-28624100D03*
X174353000Y-42643100D03*
D22*
X61059700Y-83026700D02*
X61059700Y-84602000D01*
X61371100Y-100190300D02*
X61059700Y-100501700D01*
X80109700Y-100190300D02*
X61371100Y-100190300D01*
X61059700Y-84602000D02*
X61371100Y-84913400D01*
X61371100Y-84913400D02*
X61371100Y-100190300D01*
X80109700Y-100190300D02*
X80109700Y-100501700D01*
X80109700Y-83026700D02*
X80109700Y-100190300D01*
X61059700Y-102077000D02*
X61059700Y-100501700D01*
X59240300Y-41532000D02*
X61059700Y-43351400D01*
X61059700Y-25876700D02*
X61059700Y-39712600D01*
X61059700Y-39712600D02*
X59240300Y-41532000D01*
X59240300Y-41532000D02*
X59115500Y-41656800D01*
X59115500Y-41656800D02*
X55821500Y-41656800D01*
X55821500Y-41656800D02*
X54769900Y-40605200D01*
X54769900Y-40605200D02*
X54769900Y-40373800D01*
X54769900Y-40373800D02*
X53752800Y-39356700D01*
X53752800Y-39356700D02*
X45665000Y-39356700D01*
X45665000Y-39356700D02*
X38348300Y-46673400D01*
X61059700Y-44926700D02*
X61059700Y-43351400D01*
X80109700Y-44926700D02*
X80109700Y-61786200D01*
X80109700Y-61786200D02*
X79802100Y-62093800D01*
X80109700Y-25876700D02*
X80109700Y-44926700D01*
X79802100Y-62093800D02*
X80109700Y-62401400D01*
X61059700Y-62093800D02*
X79802100Y-62093800D01*
X61059700Y-62093800D02*
X61059700Y-62401400D01*
X61059700Y-44926700D02*
X61059700Y-62093800D01*
X80109700Y-63976700D02*
X80109700Y-62401400D01*
X61059700Y-63976700D02*
X61059700Y-62401400D01*
X80109700Y-102077000D02*
X80109700Y-100501700D01*
X80109700Y-63976700D02*
X80109700Y-83026700D01*
X99159700Y-25876700D02*
X99159700Y-24301400D01*
X38805500Y-44133400D02*
X44741700Y-38197200D01*
X44741700Y-38197200D02*
X44741700Y-27896800D01*
X44741700Y-27896800D02*
X48588300Y-24050200D01*
X48588300Y-24050200D02*
X98908500Y-24050200D01*
X98908500Y-24050200D02*
X99159700Y-24301400D01*
X99159700Y-63976700D02*
X99159700Y-83026700D01*
X99159700Y-61873200D02*
X99159700Y-63976700D01*
X118210000Y-44926700D02*
X118210000Y-25876700D01*
X118210000Y-61873200D02*
X118210000Y-44926700D01*
X118210000Y-83026700D02*
X118210000Y-100501700D01*
X118210000Y-63976700D02*
X118210000Y-83026700D01*
X118210000Y-102077000D02*
X118210000Y-100501700D01*
X99159700Y-44926700D02*
X99159700Y-61873200D01*
X99159700Y-61873200D02*
X118210000Y-61873200D01*
X118210000Y-63976700D02*
X118210000Y-61873200D01*
X99159700Y-83026700D02*
X99159700Y-100501700D01*
X99159700Y-102077000D02*
X99159700Y-100501700D01*
X99159700Y-25876700D02*
X99159700Y-43351400D01*
X99159700Y-44926700D02*
X99159700Y-43351400D01*
X137260000Y-74587400D02*
X137260000Y-80984300D01*
X137260000Y-80984300D02*
X137415700Y-81140000D01*
X137260000Y-65552000D02*
X137260000Y-74587400D01*
X132055600Y-74587400D02*
X137260000Y-74587400D01*
X155998600Y-81140000D02*
X156310000Y-81451400D01*
X137415700Y-81140000D02*
X155998600Y-81140000D01*
X156310000Y-63976700D02*
X156310000Y-80828600D01*
X156310000Y-80828600D02*
X155998600Y-81140000D01*
X156310000Y-63189000D02*
X156310000Y-63976700D01*
X156310000Y-63189000D02*
X156310000Y-62401400D01*
X137415700Y-81140000D02*
X137415700Y-81295700D01*
X137415700Y-81295700D02*
X137260000Y-81451400D01*
X156310000Y-83026700D02*
X156310000Y-81451400D01*
X137260000Y-63976700D02*
X137260000Y-65552000D01*
X137260000Y-44926700D02*
X137260000Y-63976700D01*
X137260000Y-83026700D02*
X137260000Y-81451400D01*
X156310000Y-44926700D02*
X156310000Y-62401400D01*
X156310000Y-25876700D02*
X156310000Y-44926700D01*
X137260000Y-83026700D02*
X137260000Y-100501700D01*
X137260000Y-102077000D02*
X137260000Y-100501700D01*
X137260000Y-25876700D02*
X137260000Y-44926700D01*
X194144800Y-43086200D02*
X194410000Y-43351400D01*
X175557200Y-43086200D02*
X194144800Y-43086200D01*
X194410000Y-25876700D02*
X194410000Y-42821000D01*
X194410000Y-42821000D02*
X194144800Y-43086200D01*
X175360000Y-44926700D02*
X175360000Y-43351400D01*
X175557200Y-43086200D02*
X175557200Y-43154200D01*
X175557200Y-43154200D02*
X175360000Y-43351400D01*
X175557200Y-39851400D02*
X175557200Y-43086200D01*
X194410000Y-44926700D02*
X194410000Y-43351400D01*
X175360000Y-44926700D02*
X175360000Y-63976700D01*
X194410000Y-83026700D02*
X194410000Y-100501700D01*
X194410000Y-63976700D02*
X194410000Y-83026700D01*
X194410000Y-102077000D02*
X194410000Y-100501700D01*
X175360000Y-25876700D02*
X175360000Y-27452000D01*
X175360000Y-27452000D02*
X175557200Y-27649200D01*
X175557200Y-27649200D02*
X175557200Y-39851400D01*
X175360000Y-83026700D02*
X175360000Y-98880900D01*
X175360000Y-98880900D02*
X172163900Y-102077000D01*
X172163900Y-102077000D02*
X165835000Y-102077000D01*
X175360000Y-63976700D02*
X175360000Y-83026700D01*
X194410000Y-44926700D02*
X194410000Y-63976700D01*
X213460000Y-25876700D02*
X213460000Y-24301400D01*
X38348300Y-31433400D02*
X39147900Y-31433400D01*
X39147900Y-31433400D02*
X47006100Y-23575200D01*
X47006100Y-23575200D02*
X212733800Y-23575200D01*
X212733800Y-23575200D02*
X213460000Y-24301400D01*
X213460000Y-63976700D02*
X213460000Y-83026700D01*
X213460000Y-44926700D02*
X213460000Y-63976700D01*
X213460000Y-83026700D02*
X213460000Y-100501700D01*
X213460000Y-102077000D02*
X213460000Y-100501700D01*
X213460000Y-25876700D02*
X213460000Y-43351400D01*
X232510000Y-83026700D02*
X232510000Y-100501700D01*
X232510000Y-63976700D02*
X232510000Y-83026700D01*
X232510000Y-102077000D02*
X232510000Y-100501700D01*
X232510000Y-43039800D02*
X232510000Y-44926700D01*
X232510000Y-25876700D02*
X232510000Y-43039800D01*
X232510000Y-43039800D02*
X213771600Y-43039800D01*
X213771600Y-43039800D02*
X213460000Y-43351400D01*
X213460000Y-44926700D02*
X213460000Y-43351400D01*
X232510000Y-44926700D02*
X232510000Y-63976700D01*
X270610000Y-44926700D02*
X270610000Y-25876700D01*
X270610000Y-63976700D02*
X270610000Y-44926700D01*
X270302400Y-100194100D02*
X270610000Y-100501700D01*
X251560000Y-100194100D02*
X270302400Y-100194100D01*
X270610000Y-83026700D02*
X270610000Y-99886500D01*
X270610000Y-99886500D02*
X270302400Y-100194100D01*
X270610000Y-63976700D02*
X270610000Y-83026700D01*
X251560000Y-100194100D02*
X251560000Y-100501700D01*
X251560000Y-83026700D02*
X251560000Y-100194100D01*
X270610000Y-102077000D02*
X270610000Y-100501700D01*
X250606500Y-28624100D02*
X251560000Y-29577600D01*
X251560000Y-29577600D02*
X251560000Y-44926700D01*
X250606500Y-28624100D02*
X250606500Y-28405500D01*
X250606500Y-28405500D02*
X251560000Y-27452000D01*
X251560000Y-25876700D02*
X251560000Y-27452000D01*
X251560000Y-63976700D02*
X251560000Y-83026700D01*
X251560000Y-102077000D02*
X251560000Y-100501700D01*
X251560000Y-44926700D02*
X251560000Y-63976700D01*
X167497000Y-40482100D02*
X168422300Y-40482100D01*
X168422300Y-40482100D02*
X170583300Y-42643100D01*
X170583300Y-42643100D02*
X174353000Y-42643100D01*
X166372000Y-40482100D02*
X167497000Y-40482100D01*
X50869900Y-40482100D02*
X49744600Y-40482100D01*
X38805500Y-49213400D02*
X41013300Y-49213400D01*
X41013300Y-49213400D02*
X49744600Y-40482100D01*
X50869900Y-40482100D02*
X52069900Y-40482100D01*
X52069900Y-40482100D02*
X53194900Y-40482100D01*
X88970700Y-40482100D02*
X90170700Y-40482100D01*
X90170700Y-40482100D02*
X91295700Y-40482100D01*
X127072000Y-40482100D02*
X128272000Y-40482100D01*
X128272000Y-40482100D02*
X129397000Y-40482100D01*
X165172000Y-40482100D02*
X166372000Y-40482100D01*
X203273000Y-40482100D02*
X204473000Y-40482100D01*
X204473000Y-40482100D02*
X205598000Y-40482100D01*
X241374000Y-40482100D02*
X242574000Y-40482100D01*
X242574000Y-40482100D02*
X243699000Y-40482100D01*
X69920300Y-40482100D02*
X71120300Y-40482100D01*
X71120300Y-40482100D02*
X72245300Y-40482100D01*
X108021000Y-40482100D02*
X109221000Y-40482100D01*
X109221000Y-40482100D02*
X110346000Y-40482100D01*
X146122000Y-40482100D02*
X147322000Y-40482100D01*
X147322000Y-40482100D02*
X148447000Y-40482100D01*
X184223000Y-40482100D02*
X185423000Y-40482100D01*
X185423000Y-40482100D02*
X186548000Y-40482100D01*
X222324000Y-40482100D02*
X223524000Y-40482100D01*
X223524000Y-40482100D02*
X224649000Y-40482100D01*
X260424000Y-40482100D02*
X261624000Y-40482100D01*
X261624000Y-40482100D02*
X262749000Y-40482100D01*
X50869900Y-59532500D02*
X49744600Y-59532500D01*
X38348300Y-56833400D02*
X47045500Y-56833400D01*
X47045500Y-56833400D02*
X49744600Y-59532500D01*
X241374000Y-59532500D02*
X242574000Y-59532500D01*
X242574000Y-59532500D02*
X243699000Y-59532500D01*
X50869900Y-59532500D02*
X52069900Y-59532500D01*
X52069900Y-59532500D02*
X53194900Y-59532500D01*
X88970700Y-59532500D02*
X90170700Y-59532500D01*
X90170700Y-59532500D02*
X91295700Y-59532500D01*
X127072000Y-59532500D02*
X128272000Y-59532500D01*
X128272000Y-59532500D02*
X129397000Y-59532500D01*
X165172000Y-59532500D02*
X166372000Y-59532500D01*
X166372000Y-59532500D02*
X167497000Y-59532500D01*
X203273000Y-59532500D02*
X204473000Y-59532500D01*
X204473000Y-59532500D02*
X205598000Y-59532500D01*
X69920300Y-59532500D02*
X71120300Y-59532500D01*
X71120300Y-59532500D02*
X72245300Y-59532500D01*
X108021000Y-59532500D02*
X109221000Y-59532500D01*
X109221000Y-59532500D02*
X110346000Y-59532500D01*
X146122000Y-59532500D02*
X147322000Y-59532500D01*
X147322000Y-59532500D02*
X148447000Y-59532500D01*
X184223000Y-59532500D02*
X185423000Y-59532500D01*
X185423000Y-59532500D02*
X186548000Y-59532500D01*
X222324000Y-59532500D02*
X223524000Y-59532500D01*
X223524000Y-59532500D02*
X224649000Y-59532500D01*
X260424000Y-59532500D02*
X261624000Y-59532500D01*
X261624000Y-59532500D02*
X262749000Y-59532500D01*
X23108300Y-39053400D02*
X22343100Y-39818600D01*
X22343100Y-39818600D02*
X22343100Y-42080300D01*
X22343100Y-42080300D02*
X23126200Y-42863400D01*
X23126200Y-42863400D02*
X23622100Y-42863400D01*
X23622100Y-42863400D02*
X33700800Y-52942100D01*
X33700800Y-52942100D02*
X33700800Y-56037800D01*
X33700800Y-56037800D02*
X50869900Y-73206900D01*
X50869900Y-73206900D02*
X50869900Y-78582900D01*
X52069900Y-78582900D02*
X50869900Y-78582900D01*
X52069900Y-78582900D02*
X53194900Y-78582900D01*
X88970700Y-78582900D02*
X90170700Y-78582900D01*
X90170700Y-78582900D02*
X91295700Y-78582900D01*
X127072000Y-78582900D02*
X128272000Y-78582900D01*
X128272000Y-78582900D02*
X129397000Y-78582900D01*
X165172000Y-78582900D02*
X166372000Y-78582900D01*
X166372000Y-78582900D02*
X167497000Y-78582900D01*
X203273000Y-78582900D02*
X204473000Y-78582900D01*
X204473000Y-78582900D02*
X205598000Y-78582900D01*
X241374000Y-78582900D02*
X242574000Y-78582900D01*
X242574000Y-78582900D02*
X243699000Y-78582900D01*
X69920300Y-78582900D02*
X67603500Y-78582900D01*
X67603500Y-78582900D02*
X49497800Y-60477200D01*
X49497800Y-60477200D02*
X40290800Y-60477200D01*
X40290800Y-60477200D02*
X36867500Y-57053900D01*
X36867500Y-57053900D02*
X36867500Y-54895400D01*
X36867500Y-54895400D02*
X23565500Y-41593400D01*
X69920300Y-78582900D02*
X71120300Y-78582900D01*
X71120300Y-78582900D02*
X72245300Y-78582900D01*
X108021000Y-78582900D02*
X109221000Y-78582900D01*
X109221000Y-78582900D02*
X110346000Y-78582900D01*
X146122000Y-78582900D02*
X147322000Y-78582900D01*
X147322000Y-78582900D02*
X148447000Y-78582900D01*
X184223000Y-78582900D02*
X185423000Y-78582900D01*
X185423000Y-78582900D02*
X186548000Y-78582900D01*
X222324000Y-78582900D02*
X223524000Y-78582900D01*
X223524000Y-78582900D02*
X224649000Y-78582900D01*
X260424000Y-78582900D02*
X261624000Y-78582900D01*
X261624000Y-78582900D02*
X262749000Y-78582900D01*
X56344900Y-40482100D02*
X56344900Y-39556800D01*
X47209700Y-28416700D02*
X47209700Y-30421600D01*
X47209700Y-30421600D02*
X56344900Y-39556800D01*
X58669900Y-40482100D02*
X57469900Y-40482100D01*
X57469900Y-40482100D02*
X56344900Y-40482100D01*
X75395300Y-40482100D02*
X75395300Y-39556800D01*
X75395300Y-39556800D02*
X66259700Y-30421200D01*
X66259700Y-30421200D02*
X66259700Y-28416700D01*
X76520300Y-40482100D02*
X75395300Y-40482100D01*
X77720300Y-40482100D02*
X76520300Y-40482100D01*
X94445700Y-40482100D02*
X94445700Y-39556800D01*
X94445700Y-39556800D02*
X85309700Y-30420800D01*
X85309700Y-30420800D02*
X85309700Y-28416700D01*
X95570700Y-40482100D02*
X94445700Y-40482100D01*
X96770700Y-40482100D02*
X95570700Y-40482100D01*
X113496000Y-40482100D02*
X113496000Y-39556800D01*
X113496000Y-39556800D02*
X104360000Y-30420800D01*
X104360000Y-30420800D02*
X104360000Y-28416700D01*
X114621000Y-40482100D02*
X113496000Y-40482100D01*
X115821000Y-40482100D02*
X114621000Y-40482100D01*
X132547000Y-40482100D02*
X132547000Y-39556800D01*
X132547000Y-39556800D02*
X123410000Y-30419800D01*
X123410000Y-30419800D02*
X123410000Y-28416700D01*
X133672000Y-40482100D02*
X132547000Y-40482100D01*
X134872000Y-40482100D02*
X133672000Y-40482100D01*
X151597000Y-40482100D02*
X151597000Y-39556800D01*
X151597000Y-39556800D02*
X142460000Y-30419800D01*
X142460000Y-30419800D02*
X142460000Y-28416700D01*
X152722000Y-40482100D02*
X151597000Y-40482100D01*
X153922000Y-40482100D02*
X152722000Y-40482100D01*
X170647000Y-40482100D02*
X170647000Y-39556800D01*
X161510000Y-28416700D02*
X161510000Y-30419800D01*
X161510000Y-30419800D02*
X170647000Y-39556800D01*
X171772000Y-40482100D02*
X170647000Y-40482100D01*
X172972000Y-40482100D02*
X171772000Y-40482100D01*
X189698000Y-40482100D02*
X189698000Y-39556800D01*
X189698000Y-39556800D02*
X180560000Y-30418800D01*
X180560000Y-30418800D02*
X180560000Y-28416700D01*
X190823000Y-40482100D02*
X189698000Y-40482100D01*
X192023000Y-40482100D02*
X190823000Y-40482100D01*
X208748000Y-40482100D02*
X208748000Y-39556800D01*
X208748000Y-39556800D02*
X199610000Y-30418800D01*
X199610000Y-30418800D02*
X199610000Y-28416700D01*
X209873000Y-40482100D02*
X208748000Y-40482100D01*
X211073000Y-40482100D02*
X209873000Y-40482100D01*
X227799000Y-40482100D02*
X227799000Y-39556800D01*
X227799000Y-39556800D02*
X218660000Y-30417800D01*
X218660000Y-30417800D02*
X218660000Y-28416700D01*
X228924000Y-40482100D02*
X227799000Y-40482100D01*
X230124000Y-40482100D02*
X228924000Y-40482100D01*
X246849000Y-40482100D02*
X246849000Y-39556800D01*
X246849000Y-39556800D02*
X237710000Y-30417800D01*
X237710000Y-30417800D02*
X237710000Y-28416700D01*
X247974000Y-40482100D02*
X246849000Y-40482100D01*
X249174000Y-40482100D02*
X247974000Y-40482100D01*
X265899000Y-40482100D02*
X265899000Y-39556800D01*
X265899000Y-39556800D02*
X256760000Y-30417800D01*
X256760000Y-30417800D02*
X256760000Y-28416700D01*
X267024000Y-40482100D02*
X265899000Y-40482100D01*
X268224000Y-40482100D02*
X267024000Y-40482100D01*
X56344900Y-59532500D02*
X56344900Y-58607200D01*
X56344900Y-58607200D02*
X47209700Y-49472000D01*
X47209700Y-49472000D02*
X47209700Y-47466700D01*
X57469900Y-59532500D02*
X56344900Y-59532500D01*
X58669900Y-59532500D02*
X57469900Y-59532500D01*
X75395300Y-59532500D02*
X75395300Y-58607200D01*
X75395300Y-58607200D02*
X66259700Y-49471600D01*
X66259700Y-49471600D02*
X66259700Y-47466700D01*
X76520300Y-59532500D02*
X75395300Y-59532500D01*
X77720300Y-59532500D02*
X76520300Y-59532500D01*
X94445700Y-59532500D02*
X94445700Y-58607200D01*
X94445700Y-58607200D02*
X85309700Y-49471200D01*
X85309700Y-49471200D02*
X85309700Y-47466700D01*
X95570700Y-59532500D02*
X94445700Y-59532500D01*
X96770700Y-59532500D02*
X95570700Y-59532500D01*
X113496000Y-59532500D02*
X113496000Y-58607200D01*
X113496000Y-58607200D02*
X104360000Y-49471200D01*
X104360000Y-49471200D02*
X104360000Y-47466700D01*
X114621000Y-59532500D02*
X113496000Y-59532500D01*
X115821000Y-59532500D02*
X114621000Y-59532500D01*
X132547000Y-59532500D02*
X132547000Y-58607200D01*
X132547000Y-58607200D02*
X123410000Y-49470200D01*
X123410000Y-49470200D02*
X123410000Y-47466700D01*
X133672000Y-59532500D02*
X132547000Y-59532500D01*
X134872000Y-59532500D02*
X133672000Y-59532500D01*
X151597000Y-59532500D02*
X151597000Y-58607200D01*
X142460000Y-47466700D02*
X142460000Y-49470200D01*
X142460000Y-49470200D02*
X151597000Y-58607200D01*
X152722000Y-59532500D02*
X151597000Y-59532500D01*
X153922000Y-59532500D02*
X152722000Y-59532500D01*
X170647000Y-59532500D02*
X170647000Y-58607200D01*
X161510000Y-47466700D02*
X161510000Y-49470200D01*
X161510000Y-49470200D02*
X170647000Y-58607200D01*
X171772000Y-59532500D02*
X170647000Y-59532500D01*
X172972000Y-59532500D02*
X171772000Y-59532500D01*
X189698000Y-59532500D02*
X189698000Y-58607200D01*
X189698000Y-58607200D02*
X180560000Y-49469200D01*
X180560000Y-49469200D02*
X180560000Y-47466700D01*
X190823000Y-59532500D02*
X189698000Y-59532500D01*
X192023000Y-59532500D02*
X190823000Y-59532500D01*
X208748000Y-59532500D02*
X208748000Y-58607200D01*
X208748000Y-58607200D02*
X199610000Y-49469200D01*
X199610000Y-49469200D02*
X199610000Y-47466700D01*
X209873000Y-59532500D02*
X208748000Y-59532500D01*
X211073000Y-59532500D02*
X209873000Y-59532500D01*
X227799000Y-59532500D02*
X227799000Y-58607200D01*
X227799000Y-58607200D02*
X218660000Y-49468200D01*
X218660000Y-49468200D02*
X218660000Y-47466700D01*
X228924000Y-59532500D02*
X227799000Y-59532500D01*
X230124000Y-59532500D02*
X228924000Y-59532500D01*
X246849000Y-59532500D02*
X246849000Y-58607200D01*
X246849000Y-58607200D02*
X237710000Y-49468200D01*
X237710000Y-49468200D02*
X237710000Y-47466700D01*
X247974000Y-59532500D02*
X246849000Y-59532500D01*
X249174000Y-59532500D02*
X247974000Y-59532500D01*
X265899000Y-59532500D02*
X265899000Y-58607200D01*
X265899000Y-58607200D02*
X256760000Y-49468200D01*
X256760000Y-49468200D02*
X256760000Y-47466700D01*
X267024000Y-59532500D02*
X265899000Y-59532500D01*
X268224000Y-59532500D02*
X267024000Y-59532500D01*
X56344900Y-78582900D02*
X56344900Y-77657600D01*
X56344900Y-77657600D02*
X47209700Y-68522400D01*
X47209700Y-68522400D02*
X47209700Y-66516700D01*
X57469900Y-78582900D02*
X56344900Y-78582900D01*
X58669900Y-78582900D02*
X57469900Y-78582900D01*
X75395300Y-78582900D02*
X75395300Y-77657600D01*
X75395300Y-77657600D02*
X66259700Y-68522000D01*
X66259700Y-68522000D02*
X66259700Y-66516700D01*
X76520300Y-78582900D02*
X75395300Y-78582900D01*
X77720300Y-78582900D02*
X76520300Y-78582900D01*
X94445700Y-78582900D02*
X94445700Y-77657600D01*
X94445700Y-77657600D02*
X85309700Y-68521600D01*
X85309700Y-68521600D02*
X85309700Y-66516700D01*
X95570700Y-78582900D02*
X94445700Y-78582900D01*
X96770700Y-78582900D02*
X95570700Y-78582900D01*
X113496000Y-78582900D02*
X113496000Y-77657600D01*
X113496000Y-77657600D02*
X104360000Y-68521600D01*
X104360000Y-68521600D02*
X104360000Y-66516700D01*
X114621000Y-78582900D02*
X113496000Y-78582900D01*
X115821000Y-78582900D02*
X114621000Y-78582900D01*
X132547000Y-78582900D02*
X132547000Y-77657600D01*
X123410000Y-66516700D02*
X123410000Y-68520600D01*
X123410000Y-68520600D02*
X132547000Y-77657600D01*
X133672000Y-78582900D02*
X132547000Y-78582900D01*
X134872000Y-78582900D02*
X133672000Y-78582900D01*
X151597000Y-78582900D02*
X151597000Y-77657600D01*
X142460000Y-66516700D02*
X142460000Y-68520600D01*
X142460000Y-68520600D02*
X151597000Y-77657600D01*
X152722000Y-78582900D02*
X151597000Y-78582900D01*
X153922000Y-78582900D02*
X152722000Y-78582900D01*
X170647000Y-78582900D02*
X170647000Y-77657600D01*
X161510000Y-66516700D02*
X161510000Y-68520600D01*
X161510000Y-68520600D02*
X170647000Y-77657600D01*
X171772000Y-78582900D02*
X170647000Y-78582900D01*
X172972000Y-78582900D02*
X171772000Y-78582900D01*
X189698000Y-78582900D02*
X189698000Y-77657600D01*
X189698000Y-77657600D02*
X180560000Y-68519600D01*
X180560000Y-68519600D02*
X180560000Y-66516700D01*
X190823000Y-78582900D02*
X189698000Y-78582900D01*
X192023000Y-78582900D02*
X190823000Y-78582900D01*
X208748000Y-78582900D02*
X208748000Y-77657600D01*
X208748000Y-77657600D02*
X199610000Y-68519600D01*
X199610000Y-68519600D02*
X199610000Y-66516700D01*
X209873000Y-78582900D02*
X208748000Y-78582900D01*
X211073000Y-78582900D02*
X209873000Y-78582900D01*
X227799000Y-78582900D02*
X227799000Y-77657600D01*
X227799000Y-77657600D02*
X218660000Y-68518600D01*
X218660000Y-68518600D02*
X218660000Y-66516700D01*
X228924000Y-78582900D02*
X227799000Y-78582900D01*
X230124000Y-78582900D02*
X228924000Y-78582900D01*
X246849000Y-78582900D02*
X246849000Y-77657600D01*
X246849000Y-77657600D02*
X237710000Y-68518600D01*
X237710000Y-68518600D02*
X237710000Y-66516700D01*
X247974000Y-78582900D02*
X246849000Y-78582900D01*
X249174000Y-78582900D02*
X247974000Y-78582900D01*
X265899000Y-78582900D02*
X265899000Y-77657600D01*
X265899000Y-77657600D02*
X256760000Y-68518600D01*
X256760000Y-68518600D02*
X256760000Y-66516700D01*
X267024000Y-78582900D02*
X265899000Y-78582900D01*
X268224000Y-78582900D02*
X267024000Y-78582900D01*
X56344900Y-97633300D02*
X56344900Y-96708000D01*
X47209700Y-85566700D02*
X47209700Y-87572800D01*
X47209700Y-87572800D02*
X56344900Y-96708000D01*
X57469900Y-97633300D02*
X56344900Y-97633300D01*
X58669900Y-97633300D02*
X57469900Y-97633300D01*
X75395300Y-97633300D02*
X75395300Y-96708000D01*
X75395300Y-96708000D02*
X66259700Y-87572400D01*
X66259700Y-87572400D02*
X66259700Y-85566700D01*
X76520300Y-97633300D02*
X75395300Y-97633300D01*
X77720300Y-97633300D02*
X76520300Y-97633300D01*
X94445700Y-97633300D02*
X94445700Y-96708000D01*
X94445700Y-96708000D02*
X85309700Y-87572000D01*
X85309700Y-87572000D02*
X85309700Y-85566700D01*
X95570700Y-97633300D02*
X94445700Y-97633300D01*
X96770700Y-97633300D02*
X95570700Y-97633300D01*
X113496000Y-97633300D02*
X113496000Y-96708000D01*
X113496000Y-96708000D02*
X104360000Y-87572000D01*
X104360000Y-87572000D02*
X104360000Y-85566700D01*
X114621000Y-97633300D02*
X113496000Y-97633300D01*
X115821000Y-97633300D02*
X114621000Y-97633300D01*
X132547000Y-97633300D02*
X132547000Y-96708000D01*
X123410000Y-85566700D02*
X123410000Y-87571000D01*
X123410000Y-87571000D02*
X132547000Y-96708000D01*
X133672000Y-97633300D02*
X132547000Y-97633300D01*
X134872000Y-97633300D02*
X133672000Y-97633300D01*
X151597000Y-97633300D02*
X151597000Y-96708000D01*
X142460000Y-85566700D02*
X142460000Y-87571000D01*
X142460000Y-87571000D02*
X151597000Y-96708000D01*
X152722000Y-97633300D02*
X151597000Y-97633300D01*
X153922000Y-97633300D02*
X152722000Y-97633300D01*
X170647000Y-97633300D02*
X170647000Y-96708000D01*
X161510000Y-85566700D02*
X161510000Y-87571000D01*
X161510000Y-87571000D02*
X170647000Y-96708000D01*
X171772000Y-97633300D02*
X170647000Y-97633300D01*
X172972000Y-97633300D02*
X171772000Y-97633300D01*
X189698000Y-97633300D02*
X189698000Y-96708000D01*
X189698000Y-96708000D02*
X180560000Y-87570000D01*
X180560000Y-87570000D02*
X180560000Y-85566700D01*
X190823000Y-97633300D02*
X189698000Y-97633300D01*
X192023000Y-97633300D02*
X190823000Y-97633300D01*
X208748000Y-97633300D02*
X208748000Y-96708000D01*
X208748000Y-96708000D02*
X199610000Y-87570000D01*
X199610000Y-87570000D02*
X199610000Y-85566700D01*
X209873000Y-97633300D02*
X208748000Y-97633300D01*
X211073000Y-97633300D02*
X209873000Y-97633300D01*
X227799000Y-97633300D02*
X227799000Y-96708000D01*
X227799000Y-96708000D02*
X218660000Y-87569000D01*
X218660000Y-87569000D02*
X218660000Y-85566700D01*
X228924000Y-97633300D02*
X227799000Y-97633300D01*
X230124000Y-97633300D02*
X228924000Y-97633300D01*
X246849000Y-97633300D02*
X246849000Y-96708000D01*
X246849000Y-96708000D02*
X237710000Y-87569000D01*
X237710000Y-87569000D02*
X237710000Y-85566700D01*
X247974000Y-97633300D02*
X246849000Y-97633300D01*
X249174000Y-97633300D02*
X247974000Y-97633300D01*
X265899000Y-97633300D02*
X265899000Y-96708000D01*
X265899000Y-96708000D02*
X256760000Y-87569000D01*
X256760000Y-87569000D02*
X256760000Y-85566700D01*
X267024000Y-97633300D02*
X265899000Y-97633300D01*
X268224000Y-97633300D02*
X267024000Y-97633300D01*
X61107500Y-116684000D02*
X60182200Y-116684000D01*
X47209700Y-104617000D02*
X47209700Y-106381400D01*
X47209700Y-106381400D02*
X55106400Y-114278100D01*
X55106400Y-114278100D02*
X57776300Y-114278100D01*
X57776300Y-114278100D02*
X60182200Y-116684000D01*
X62232500Y-116684000D02*
X61107500Y-116684000D01*
X63432500Y-116684000D02*
X62232500Y-116684000D01*
X75395300Y-116683000D02*
X75395300Y-115757700D01*
X75395300Y-115757700D02*
X66259700Y-106622100D01*
X66259700Y-106622100D02*
X66259700Y-104617000D01*
X76520300Y-116683000D02*
X75395300Y-116683000D01*
X77720300Y-116683000D02*
X76520300Y-116683000D01*
X94445700Y-116684000D02*
X94445700Y-115758700D01*
X94445700Y-115758700D02*
X85309700Y-106622700D01*
X85309700Y-106622700D02*
X85309700Y-104617000D01*
X95570700Y-116684000D02*
X94445700Y-116684000D01*
X96770700Y-116684000D02*
X95570700Y-116684000D01*
X113496000Y-116683000D02*
X113496000Y-115757700D01*
X113496000Y-115757700D02*
X104360000Y-106621700D01*
X104360000Y-106621700D02*
X104360000Y-104617000D01*
X114621000Y-116683000D02*
X113496000Y-116683000D01*
X115821000Y-116683000D02*
X114621000Y-116683000D01*
X132547000Y-116684000D02*
X132547000Y-115758700D01*
X123410000Y-104617000D02*
X123410000Y-106621700D01*
X123410000Y-106621700D02*
X132547000Y-115758700D01*
X133672000Y-116684000D02*
X132547000Y-116684000D01*
X134872000Y-116684000D02*
X133672000Y-116684000D01*
X175410000Y-111921000D02*
X174484700Y-111921000D01*
X151985000Y-104617000D02*
X151985000Y-103041700D01*
X151985000Y-103041700D02*
X152246900Y-102779800D01*
X152246900Y-102779800D02*
X158447900Y-102779800D01*
X158447900Y-102779800D02*
X164396600Y-108728500D01*
X164396600Y-108728500D02*
X171292200Y-108728500D01*
X171292200Y-108728500D02*
X174484700Y-111921000D01*
X176535000Y-111921000D02*
X175410000Y-111921000D01*
X177735000Y-111921000D02*
X176535000Y-111921000D01*
X189698000Y-116683000D02*
X189698000Y-115757700D01*
X189698000Y-115757700D02*
X180560000Y-106619700D01*
X180560000Y-106619700D02*
X180560000Y-104617000D01*
X190823000Y-116683000D02*
X189698000Y-116683000D01*
X192023000Y-116683000D02*
X190823000Y-116683000D01*
X208748000Y-116684000D02*
X208748000Y-115758700D01*
X199610000Y-104617000D02*
X199610000Y-106620700D01*
X199610000Y-106620700D02*
X208748000Y-115758700D01*
X209873000Y-116684000D02*
X208748000Y-116684000D01*
X211073000Y-116684000D02*
X209873000Y-116684000D01*
X227799000Y-116683000D02*
X227799000Y-115757700D01*
X227799000Y-115757700D02*
X218660000Y-106618700D01*
X218660000Y-106618700D02*
X218660000Y-104617000D01*
X228924000Y-116683000D02*
X227799000Y-116683000D01*
X230124000Y-116683000D02*
X228924000Y-116683000D01*
X246849000Y-116684000D02*
X246849000Y-115758700D01*
X246849000Y-115758700D02*
X237710000Y-106619700D01*
X237710000Y-106619700D02*
X237710000Y-104617000D01*
X247974000Y-116684000D02*
X246849000Y-116684000D01*
X249174000Y-116684000D02*
X247974000Y-116684000D01*
X261137000Y-116683000D02*
X261137000Y-115757700D01*
X256760000Y-104617000D02*
X256760000Y-111380700D01*
X256760000Y-111380700D02*
X261137000Y-115757700D01*
X262262000Y-116683000D02*
X261137000Y-116683000D01*
X263462000Y-116683000D02*
X262262000Y-116683000D01*
X50869900Y-97633300D02*
X50869900Y-96508000D01*
X23108300Y-49213400D02*
X26092800Y-52197900D01*
X26092800Y-52197900D02*
X26092800Y-64811300D01*
X26092800Y-64811300D02*
X45469800Y-84188300D01*
X45469800Y-84188300D02*
X45469800Y-91107900D01*
X45469800Y-91107900D02*
X50869900Y-96508000D01*
X50869900Y-97633300D02*
X52069900Y-97633300D01*
X52069900Y-97633300D02*
X53194900Y-97633300D01*
X88970700Y-97633300D02*
X90170700Y-97633300D01*
X90170700Y-97633300D02*
X91295700Y-97633300D01*
X127072000Y-97633300D02*
X128272000Y-97633300D01*
X128272000Y-97633300D02*
X129397000Y-97633300D01*
X165172000Y-97633300D02*
X166372000Y-97633300D01*
X166372000Y-97633300D02*
X167497000Y-97633300D01*
X203273000Y-97633300D02*
X204473000Y-97633300D01*
X204473000Y-97633300D02*
X205598000Y-97633300D01*
X241374000Y-97633300D02*
X242574000Y-97633300D01*
X242574000Y-97633300D02*
X243699000Y-97633300D01*
X69920300Y-97633300D02*
X69920300Y-96508000D01*
X23108300Y-44133400D02*
X31855600Y-52880700D01*
X31855600Y-52880700D02*
X31855600Y-54829500D01*
X31855600Y-54829500D02*
X49210400Y-72184300D01*
X49210400Y-72184300D02*
X49210400Y-79018100D01*
X49210400Y-79018100D02*
X50522900Y-80330600D01*
X50522900Y-80330600D02*
X61395700Y-80330600D01*
X61395700Y-80330600D02*
X63084700Y-82019600D01*
X63084700Y-82019600D02*
X63084700Y-89672400D01*
X63084700Y-89672400D02*
X69920300Y-96508000D01*
X69920300Y-97633300D02*
X71120300Y-97633300D01*
X71120300Y-97633300D02*
X72245300Y-97633300D01*
X108021000Y-97633300D02*
X109221000Y-97633300D01*
X109221000Y-97633300D02*
X110346000Y-97633300D01*
X146122000Y-97633300D02*
X147322000Y-97633300D01*
X147322000Y-97633300D02*
X148447000Y-97633300D01*
X184223000Y-97633300D02*
X185423000Y-97633300D01*
X185423000Y-97633300D02*
X186548000Y-97633300D01*
X222324000Y-97633300D02*
X223524000Y-97633300D01*
X223524000Y-97633300D02*
X224649000Y-97633300D01*
X260424000Y-97633300D02*
X261624000Y-97633300D01*
X261624000Y-97633300D02*
X262749000Y-97633300D01*
X55632500Y-116684000D02*
X55632500Y-115558700D01*
X23565500Y-51753400D02*
X25053100Y-53241000D01*
X25053100Y-53241000D02*
X25053100Y-85541900D01*
X25053100Y-85541900D02*
X55069900Y-115558700D01*
X55069900Y-115558700D02*
X55632500Y-115558700D01*
X172260000Y-111921000D02*
X173185300Y-111921000D01*
X173185300Y-111921000D02*
X179107000Y-117842700D01*
X179107000Y-117842700D02*
X193330700Y-117842700D01*
X193330700Y-117842700D02*
X196614200Y-114559200D01*
X196614200Y-114559200D02*
X200022900Y-114559200D01*
X200022900Y-114559200D02*
X202147700Y-116684000D01*
X171135000Y-111921000D02*
X172260000Y-111921000D01*
X203273000Y-116684000D02*
X202147700Y-116684000D01*
X127072000Y-116684000D02*
X125946700Y-116684000D01*
X91295700Y-116684000D02*
X92221000Y-116684000D01*
X92221000Y-116684000D02*
X93379700Y-117842700D01*
X93379700Y-117842700D02*
X117128700Y-117842700D01*
X117128700Y-117842700D02*
X120412300Y-114559100D01*
X120412300Y-114559100D02*
X123821800Y-114559100D01*
X123821800Y-114559100D02*
X125946700Y-116684000D01*
X90170700Y-116684000D02*
X91295700Y-116684000D01*
X205598000Y-116684000D02*
X206523300Y-116684000D01*
X206523300Y-116684000D02*
X207648600Y-117809300D01*
X207648600Y-117809300D02*
X239123400Y-117809300D01*
X239123400Y-117809300D02*
X240248700Y-116684000D01*
X205598000Y-116684000D02*
X204473000Y-116684000D01*
X241374000Y-116684000D02*
X240248700Y-116684000D01*
X129397000Y-116684000D02*
X130322300Y-116684000D01*
X130322300Y-116684000D02*
X131468800Y-117830500D01*
X131468800Y-117830500D02*
X152151600Y-117830500D01*
X152151600Y-117830500D02*
X158061100Y-111921000D01*
X158061100Y-111921000D02*
X169935000Y-111921000D01*
X129397000Y-116684000D02*
X128272000Y-116684000D01*
X57957500Y-116684000D02*
X58407800Y-116684000D01*
X56832500Y-116684000D02*
X57957500Y-116684000D01*
X88970700Y-116684000D02*
X90170700Y-116684000D01*
X88408100Y-116684000D02*
X88970700Y-116684000D01*
X88408100Y-116684000D02*
X87845400Y-116684000D01*
X58407800Y-116684000D02*
X59533100Y-117809300D01*
X59533100Y-117809300D02*
X86720100Y-117809300D01*
X86720100Y-117809300D02*
X87845400Y-116684000D01*
X56832500Y-116684000D02*
X55632500Y-116684000D01*
X127072000Y-116684000D02*
X128272000Y-116684000D01*
X169935000Y-111921000D02*
X171135000Y-111921000D01*
X203273000Y-116684000D02*
X204473000Y-116684000D01*
X241374000Y-116684000D02*
X242574000Y-116684000D01*
X242574000Y-116684000D02*
X243699000Y-116684000D01*
X23565500Y-46673400D02*
X26543200Y-49651100D01*
X26543200Y-49651100D02*
X26543200Y-55429000D01*
X26543200Y-55429000D02*
X45244700Y-74130500D01*
X45244700Y-74130500D02*
X45244700Y-75395300D01*
X45244700Y-77720300D02*
X46370000Y-77720300D01*
X46370000Y-77720300D02*
X51474400Y-82824700D01*
X51474400Y-82824700D02*
X52776800Y-82824700D01*
X52776800Y-82824700D02*
X59797700Y-89845600D01*
X59797700Y-89845600D02*
X59797700Y-98420300D01*
X59797700Y-98420300D02*
X59456500Y-98761500D01*
X59456500Y-98761500D02*
X59456500Y-103525400D01*
X59456500Y-103525400D02*
X69920300Y-113989200D01*
X69920300Y-113989200D02*
X69920300Y-116683000D01*
X45244700Y-76520300D02*
X45244700Y-77720300D01*
X71120300Y-116683000D02*
X69920300Y-116683000D01*
X71120300Y-116683000D02*
X72245300Y-116683000D01*
X108021000Y-116683000D02*
X109221000Y-116683000D01*
X109221000Y-116683000D02*
X110346000Y-116683000D01*
X184223000Y-116683000D02*
X185423000Y-116683000D01*
X185423000Y-116683000D02*
X186548000Y-116683000D01*
X222324000Y-116683000D02*
X223524000Y-116683000D01*
X223524000Y-116683000D02*
X224649000Y-116683000D01*
X255662000Y-116683000D02*
X256862000Y-116683000D01*
X256862000Y-116683000D02*
X257987000Y-116683000D01*
X45244700Y-76520300D02*
X45244700Y-75395300D01*
X45244700Y-69920300D02*
X45244700Y-71120300D01*
X45244700Y-71120300D02*
X45244700Y-72245300D01*
X23108300Y-54293400D02*
X22122400Y-55279300D01*
X22122400Y-55279300D02*
X22122400Y-72604500D01*
X22122400Y-72604500D02*
X23456900Y-73939000D01*
X23565500Y-56833400D02*
X23456900Y-56942000D01*
X23456900Y-56942000D02*
X23456900Y-68939000D01*
D23*
X43392150Y-19911351D02*
X43131140Y-20301979D01*
X42951354Y-20736021D01*
X42859700Y-21196798D01*
X42859700Y-21666602D01*
X42951354Y-22127379D01*
X43131140Y-22561421D01*
X43392150Y-22952049D01*
X43724351Y-23284250D01*
X44114979Y-23545260D01*
X44549021Y-23725046D01*
X45009798Y-23816700D01*
X45479602Y-23816700D01*
X45741990Y-23764508D01*
X40319872Y-29186627D01*
X40319872Y-28017100D01*
X40307612Y-27892618D01*
X40271302Y-27772920D01*
X40212337Y-27662606D01*
X40132985Y-27565915D01*
X40036294Y-27486563D01*
X39925980Y-27427598D01*
X39806282Y-27391288D01*
X39681800Y-27379028D01*
X37929200Y-27379028D01*
X37804718Y-27391288D01*
X37685020Y-27427598D01*
X37574706Y-27486563D01*
X37478015Y-27565915D01*
X37398663Y-27662606D01*
X37339698Y-27772920D01*
X37303388Y-27892618D01*
X37291128Y-28017100D01*
X37291128Y-29769700D01*
X37303388Y-29894182D01*
X37339698Y-30013880D01*
X37398663Y-30124194D01*
X37465504Y-30205640D01*
X37384902Y-30259496D01*
X37174396Y-30470002D01*
X37009003Y-30717531D01*
X36895078Y-30992570D01*
X36837000Y-31284550D01*
X36837000Y-31582250D01*
X36895078Y-31874230D01*
X37009003Y-32149269D01*
X37174396Y-32396798D01*
X37384902Y-32607304D01*
X37632431Y-32772697D01*
X37907470Y-32886622D01*
X37948060Y-32894696D01*
X37937937Y-32926231D01*
X38805500Y-33793795D01*
X39673063Y-32926231D01*
X39592246Y-32674471D01*
X39357088Y-32561914D01*
X39522204Y-32396798D01*
X39687597Y-32149269D01*
X39801522Y-31874230D01*
X39806401Y-31849700D01*
X44029452Y-27626650D01*
X44018545Y-27662606D01*
X43993781Y-27744246D01*
X43992698Y-27747815D01*
X43978024Y-27896800D01*
X43981701Y-27934132D01*
X43981700Y-37882398D01*
X39781478Y-42082621D01*
X39801522Y-42034230D01*
X39859600Y-41742250D01*
X39859600Y-41444550D01*
X39801522Y-41152570D01*
X39687597Y-40877531D01*
X39522204Y-40630002D01*
X39354160Y-40461958D01*
X39521369Y-40392697D01*
X39768898Y-40227304D01*
X39979404Y-40016798D01*
X40144797Y-39769269D01*
X40258722Y-39494230D01*
X40316800Y-39202250D01*
X40316800Y-38904550D01*
X40258722Y-38612570D01*
X40144797Y-38337531D01*
X39979404Y-38090002D01*
X39768898Y-37879496D01*
X39521369Y-37714103D01*
X39246330Y-37600178D01*
X39205740Y-37592104D01*
X39215863Y-37560569D01*
X38348300Y-36693005D01*
X37480737Y-37560569D01*
X37561554Y-37812329D01*
X37796712Y-37924886D01*
X37631596Y-38090002D01*
X37466203Y-38337531D01*
X37352278Y-38612570D01*
X37294200Y-38904550D01*
X37294200Y-39202250D01*
X37352278Y-39494230D01*
X37466203Y-39769269D01*
X37631596Y-40016798D01*
X37799640Y-40184842D01*
X37632431Y-40254103D01*
X37384902Y-40419496D01*
X37174396Y-40630002D01*
X37009003Y-40877531D01*
X36895078Y-41152570D01*
X36837000Y-41444550D01*
X36837000Y-41742250D01*
X36895078Y-42034230D01*
X37009003Y-42309269D01*
X37174396Y-42556798D01*
X37384902Y-42767304D01*
X37632431Y-42932697D01*
X37799640Y-43001958D01*
X37631596Y-43170002D01*
X37466203Y-43417531D01*
X37352278Y-43692570D01*
X37294200Y-43984550D01*
X37294200Y-44282250D01*
X37352278Y-44574230D01*
X37466203Y-44849269D01*
X37631596Y-45096798D01*
X37799640Y-45264842D01*
X37632431Y-45334103D01*
X37384902Y-45499496D01*
X37174396Y-45710002D01*
X37009003Y-45957531D01*
X36895078Y-46232570D01*
X36837000Y-46524550D01*
X36837000Y-46822250D01*
X36895078Y-47114230D01*
X37009003Y-47389269D01*
X37174396Y-47636798D01*
X37384902Y-47847304D01*
X37632431Y-48012697D01*
X37799640Y-48081958D01*
X37631596Y-48250002D01*
X37466203Y-48497531D01*
X37352278Y-48772570D01*
X37294200Y-49064550D01*
X37294200Y-49362250D01*
X37352278Y-49654230D01*
X37466203Y-49929269D01*
X37631596Y-50176798D01*
X37799640Y-50344842D01*
X37632431Y-50414103D01*
X37384902Y-50579496D01*
X37174396Y-50790002D01*
X37009003Y-51037531D01*
X36895078Y-51312570D01*
X36837000Y-51604550D01*
X36837000Y-51902250D01*
X36895078Y-52194230D01*
X37009003Y-52469269D01*
X37174396Y-52716798D01*
X37384902Y-52927304D01*
X37632431Y-53092697D01*
X37799640Y-53161958D01*
X37631596Y-53330002D01*
X37466203Y-53577531D01*
X37352278Y-53852570D01*
X37294200Y-54144550D01*
X37294200Y-54247298D01*
X25029076Y-41982175D01*
X25076800Y-41742250D01*
X25076800Y-41444550D01*
X25018722Y-41152570D01*
X24904797Y-40877531D01*
X24739404Y-40630002D01*
X24528898Y-40419496D01*
X24281369Y-40254103D01*
X24114160Y-40184842D01*
X24282204Y-40016798D01*
X24447597Y-39769269D01*
X24561522Y-39494230D01*
X24619600Y-39202250D01*
X24619600Y-38904550D01*
X24561522Y-38612570D01*
X24447597Y-38337531D01*
X24282204Y-38090002D01*
X24114160Y-37921958D01*
X24281369Y-37852697D01*
X24528898Y-37687304D01*
X24739404Y-37476798D01*
X24904797Y-37229269D01*
X25018722Y-36954230D01*
X25076800Y-36662250D01*
X25076800Y-36580891D01*
X36831187Y-36580891D01*
X36873504Y-36875567D01*
X36972498Y-37156327D01*
X37049371Y-37300146D01*
X37301131Y-37380963D01*
X38168695Y-36513400D01*
X38527905Y-36513400D01*
X39395469Y-37380963D01*
X39647229Y-37300146D01*
X39775757Y-37031621D01*
X39849429Y-36743181D01*
X39865413Y-36445909D01*
X39823096Y-36151233D01*
X39724102Y-35870473D01*
X39647229Y-35726654D01*
X39395469Y-35645837D01*
X38527905Y-36513400D01*
X38168695Y-36513400D01*
X37301131Y-35645837D01*
X37049371Y-35726654D01*
X36920843Y-35995179D01*
X36847171Y-36283619D01*
X36831187Y-36580891D01*
X25076800Y-36580891D01*
X25076800Y-36364550D01*
X25018722Y-36072570D01*
X24904797Y-35797531D01*
X24739404Y-35550002D01*
X24655633Y-35466231D01*
X37480737Y-35466231D01*
X38348300Y-36333795D01*
X39215863Y-35466231D01*
X39205762Y-35434764D01*
X39448427Y-35349202D01*
X39592246Y-35272329D01*
X39673063Y-35020569D01*
X38805500Y-34153005D01*
X37937937Y-35020569D01*
X37948038Y-35052036D01*
X37705373Y-35137598D01*
X37561554Y-35214471D01*
X37480737Y-35466231D01*
X24655633Y-35466231D01*
X24528898Y-35339496D01*
X24281369Y-35174103D01*
X24114160Y-35104842D01*
X24282204Y-34936798D01*
X24447597Y-34689269D01*
X24561522Y-34414230D01*
X24619600Y-34122250D01*
X24619600Y-34040891D01*
X37288387Y-34040891D01*
X37330704Y-34335567D01*
X37429698Y-34616327D01*
X37506571Y-34760146D01*
X37758331Y-34840963D01*
X38625895Y-33973400D01*
X38985105Y-33973400D01*
X39852669Y-34840963D01*
X40104429Y-34760146D01*
X40232957Y-34491621D01*
X40306629Y-34203181D01*
X40322613Y-33905909D01*
X40280296Y-33611233D01*
X40181302Y-33330473D01*
X40104429Y-33186654D01*
X39852669Y-33105837D01*
X38985105Y-33973400D01*
X38625895Y-33973400D01*
X37758331Y-33105837D01*
X37506571Y-33186654D01*
X37378043Y-33455179D01*
X37304371Y-33743619D01*
X37288387Y-34040891D01*
X24619600Y-34040891D01*
X24619600Y-33824550D01*
X24561522Y-33532570D01*
X24447597Y-33257531D01*
X24282204Y-33010002D01*
X24114160Y-32841958D01*
X24281369Y-32772697D01*
X24528898Y-32607304D01*
X24739404Y-32396798D01*
X24904797Y-32149269D01*
X25018722Y-31874230D01*
X25076800Y-31582250D01*
X25076800Y-31284550D01*
X25018722Y-30992570D01*
X24904797Y-30717531D01*
X24739404Y-30470002D01*
X24528898Y-30259496D01*
X24281369Y-30094103D01*
X24114160Y-30024842D01*
X24282204Y-29856798D01*
X24447597Y-29609269D01*
X24561522Y-29334230D01*
X24619600Y-29042250D01*
X24619600Y-28744550D01*
X24561522Y-28452570D01*
X24478467Y-28252056D01*
X27671900Y-28252056D01*
X27671900Y-28899144D01*
X27798140Y-29533799D01*
X28045771Y-30131631D01*
X28405274Y-30669666D01*
X28862834Y-31127226D01*
X29400869Y-31486729D01*
X29998701Y-31734360D01*
X30633356Y-31860600D01*
X31280444Y-31860600D01*
X31915099Y-31734360D01*
X32512931Y-31486729D01*
X33050966Y-31127226D01*
X33508526Y-30669666D01*
X33868029Y-30131631D01*
X34115660Y-29533799D01*
X34241900Y-28899144D01*
X34241900Y-28252056D01*
X34115660Y-27617401D01*
X33868029Y-27019569D01*
X33508526Y-26481534D01*
X33050966Y-26023974D01*
X32512931Y-25664471D01*
X31915099Y-25416840D01*
X31280444Y-25290600D01*
X30633356Y-25290600D01*
X29998701Y-25416840D01*
X29400869Y-25664471D01*
X28862834Y-26023974D01*
X28405274Y-26481534D01*
X28045771Y-27019569D01*
X27798140Y-27617401D01*
X27671900Y-28252056D01*
X24478467Y-28252056D01*
X24447597Y-28177531D01*
X24282204Y-27930002D01*
X24071698Y-27719496D01*
X23824169Y-27554103D01*
X23549130Y-27440178D01*
X23257150Y-27382100D01*
X22959450Y-27382100D01*
X22667470Y-27440178D01*
X22392431Y-27554103D01*
X22144902Y-27719496D01*
X21934396Y-27930002D01*
X21769003Y-28177531D01*
X21655078Y-28452570D01*
X21597000Y-28744550D01*
X21597000Y-29042250D01*
X21655078Y-29334230D01*
X21769003Y-29609269D01*
X21934396Y-29856798D01*
X22144902Y-30067304D01*
X22392431Y-30232697D01*
X22559640Y-30301958D01*
X22391596Y-30470002D01*
X22226203Y-30717531D01*
X22112278Y-30992570D01*
X22054200Y-31284550D01*
X22054200Y-31582250D01*
X22112278Y-31874230D01*
X22226203Y-32149269D01*
X22391596Y-32396798D01*
X22559640Y-32564842D01*
X22392431Y-32634103D01*
X22144902Y-32799496D01*
X21934396Y-33010002D01*
X21769003Y-33257531D01*
X21655078Y-33532570D01*
X21597000Y-33824550D01*
X21597000Y-34122250D01*
X21655078Y-34414230D01*
X21769003Y-34689269D01*
X21934396Y-34936798D01*
X22144902Y-35147304D01*
X22392431Y-35312697D01*
X22559640Y-35381958D01*
X22391596Y-35550002D01*
X22226203Y-35797531D01*
X22112278Y-36072570D01*
X22054200Y-36364550D01*
X22054200Y-36662250D01*
X22112278Y-36954230D01*
X22226203Y-37229269D01*
X22391596Y-37476798D01*
X22559640Y-37644842D01*
X22392431Y-37714103D01*
X22144902Y-37879496D01*
X21934396Y-38090002D01*
X21769003Y-38337531D01*
X21655078Y-38612570D01*
X21597000Y-38904550D01*
X21597000Y-39202250D01*
X21654982Y-39493749D01*
X21637554Y-39526354D01*
X21594097Y-39669615D01*
X21583100Y-39781268D01*
X21583100Y-39781278D01*
X21579424Y-39818600D01*
X21583100Y-39855923D01*
X21583101Y-42042968D01*
X21579424Y-42080300D01*
X21583101Y-42117633D01*
X21590899Y-42196801D01*
X21594098Y-42229285D01*
X21637554Y-42372546D01*
X21708126Y-42504576D01*
X21742286Y-42546199D01*
X21803100Y-42620301D01*
X21832098Y-42644099D01*
X22146456Y-42958458D01*
X22144902Y-42959496D01*
X21934396Y-43170002D01*
X21769003Y-43417531D01*
X21655078Y-43692570D01*
X21597000Y-43984550D01*
X21597000Y-44282250D01*
X21655078Y-44574230D01*
X21769003Y-44849269D01*
X21934396Y-45096798D01*
X22144902Y-45307304D01*
X22392431Y-45472697D01*
X22559640Y-45541958D01*
X22391596Y-45710002D01*
X22226203Y-45957531D01*
X22112278Y-46232570D01*
X22054200Y-46524550D01*
X22054200Y-46822250D01*
X22112278Y-47114230D01*
X22226203Y-47389269D01*
X22391596Y-47636798D01*
X22559640Y-47804842D01*
X22392431Y-47874103D01*
X22144902Y-48039496D01*
X21934396Y-48250002D01*
X21769003Y-48497531D01*
X21655078Y-48772570D01*
X21597000Y-49064550D01*
X21597000Y-49362250D01*
X21655078Y-49654230D01*
X21769003Y-49929269D01*
X21934396Y-50176798D01*
X22144902Y-50387304D01*
X22392431Y-50552697D01*
X22559640Y-50621958D01*
X22391596Y-50790002D01*
X22226203Y-51037531D01*
X22112278Y-51312570D01*
X22054200Y-51604550D01*
X22054200Y-51902250D01*
X22112278Y-52194230D01*
X22226203Y-52469269D01*
X22391596Y-52716798D01*
X22559640Y-52884842D01*
X22392431Y-52954103D01*
X22144902Y-53119496D01*
X21934396Y-53330002D01*
X21769003Y-53577531D01*
X21655078Y-53852570D01*
X21597000Y-54144550D01*
X21597000Y-54442250D01*
X21644724Y-54682175D01*
X21611402Y-54715496D01*
X21582399Y-54739299D01*
X21537486Y-54794026D01*
X21487426Y-54855024D01*
X21421434Y-54978485D01*
X21416854Y-54987054D01*
X21373397Y-55130315D01*
X21362400Y-55241968D01*
X21362400Y-55241978D01*
X21358724Y-55279300D01*
X21362400Y-55316622D01*
X21362401Y-72567167D01*
X21358724Y-72604500D01*
X21362401Y-72641833D01*
X21373398Y-72753486D01*
X21382237Y-72782624D01*
X21416854Y-72896746D01*
X21487426Y-73028776D01*
X21537245Y-73089480D01*
X21582400Y-73144501D01*
X21611398Y-73168299D01*
X21890723Y-73447624D01*
X21884732Y-73462088D01*
X21821900Y-73777967D01*
X21821900Y-74100033D01*
X21884732Y-74415912D01*
X22007982Y-74713463D01*
X22186913Y-74981252D01*
X22414648Y-75208987D01*
X22682437Y-75387918D01*
X22979988Y-75511168D01*
X23295867Y-75574000D01*
X23617933Y-75574000D01*
X23933812Y-75511168D01*
X24231363Y-75387918D01*
X24293101Y-75346666D01*
X24293101Y-85504567D01*
X24289424Y-85541900D01*
X24293101Y-85579233D01*
X24297013Y-85618946D01*
X24304098Y-85690885D01*
X24347554Y-85834146D01*
X24418126Y-85966176D01*
X24489301Y-86052902D01*
X24513100Y-86081901D01*
X24542098Y-86105699D01*
X54205722Y-115769324D01*
X54194428Y-115884000D01*
X54194428Y-117484000D01*
X54206688Y-117608482D01*
X54242998Y-117728180D01*
X54301963Y-117838494D01*
X54381315Y-117935185D01*
X54478006Y-118014537D01*
X54588320Y-118073502D01*
X54708018Y-118109812D01*
X54832500Y-118122072D01*
X56432500Y-118122072D01*
X56556982Y-118109812D01*
X56676680Y-118073502D01*
X56786994Y-118014537D01*
X56883685Y-117935185D01*
X56963037Y-117838494D01*
X56984125Y-117799042D01*
X57003006Y-117814537D01*
X57113320Y-117873502D01*
X57233018Y-117909812D01*
X57357500Y-117922072D01*
X58557500Y-117922072D01*
X58569854Y-117920855D01*
X58969301Y-118320303D01*
X58993099Y-118349301D01*
X59030506Y-118380000D01*
X50374249Y-118380000D01*
X50513381Y-118352325D01*
X50829131Y-118221537D01*
X51113298Y-118031663D01*
X51354963Y-117789998D01*
X51544837Y-117505831D01*
X51675625Y-117190081D01*
X51742300Y-116854883D01*
X51742300Y-116513117D01*
X51675625Y-116177919D01*
X51544837Y-115862169D01*
X51354963Y-115578002D01*
X51113298Y-115336337D01*
X50829131Y-115146463D01*
X50513381Y-115015675D01*
X50178183Y-114949000D01*
X49836417Y-114949000D01*
X49501219Y-115015675D01*
X49185469Y-115146463D01*
X48901302Y-115336337D01*
X48659637Y-115578002D01*
X48469763Y-115862169D01*
X48338975Y-116177919D01*
X48272300Y-116513117D01*
X48272300Y-116854883D01*
X48338975Y-117190081D01*
X48469763Y-117505831D01*
X48659637Y-117789998D01*
X48901302Y-118031663D01*
X49185469Y-118221537D01*
X49501219Y-118352325D01*
X49640351Y-118380000D01*
X46921599Y-118380000D01*
X47097250Y-118204349D01*
X47358260Y-117813721D01*
X47538046Y-117379679D01*
X47629700Y-116918902D01*
X47629700Y-116449098D01*
X47538046Y-115988321D01*
X47358260Y-115554279D01*
X47097250Y-115163651D01*
X46765049Y-114831450D01*
X46374421Y-114570440D01*
X45940379Y-114390654D01*
X45479602Y-114299000D01*
X45009798Y-114299000D01*
X44549021Y-114390654D01*
X44114979Y-114570440D01*
X43724351Y-114831450D01*
X43392150Y-115163651D01*
X43131140Y-115554279D01*
X42951354Y-115988321D01*
X42859700Y-116449098D01*
X42859700Y-116918902D01*
X42951354Y-117379679D01*
X43131140Y-117813721D01*
X43392150Y-118204349D01*
X43567801Y-118380000D01*
X21798649Y-118380000D01*
X21937781Y-118352325D01*
X22253531Y-118221537D01*
X22537698Y-118031663D01*
X22779363Y-117789998D01*
X22969237Y-117505831D01*
X23100025Y-117190081D01*
X23166700Y-116854883D01*
X23166700Y-116513117D01*
X23100025Y-116177919D01*
X22969237Y-115862169D01*
X22779363Y-115578002D01*
X22537698Y-115336337D01*
X22253531Y-115146463D01*
X21937781Y-115015675D01*
X21602583Y-114949000D01*
X21260817Y-114949000D01*
X20925619Y-115015675D01*
X20609869Y-115146463D01*
X20325702Y-115336337D01*
X20084037Y-115578002D01*
X19894163Y-115862169D01*
X19763375Y-116177919D01*
X19735400Y-116318559D01*
X19735400Y-21797141D01*
X19763375Y-21937781D01*
X19894163Y-22253531D01*
X20084037Y-22537698D01*
X20325702Y-22779363D01*
X20609869Y-22969237D01*
X20925619Y-23100025D01*
X21260817Y-23166700D01*
X21602583Y-23166700D01*
X21937781Y-23100025D01*
X22253531Y-22969237D01*
X22537698Y-22779363D01*
X22779363Y-22537698D01*
X22969237Y-22253531D01*
X23100025Y-21937781D01*
X23166700Y-21602583D01*
X23166700Y-21260817D01*
X23100025Y-20925619D01*
X22969237Y-20609869D01*
X22779363Y-20325702D01*
X22537698Y-20084037D01*
X22253531Y-19894163D01*
X21937781Y-19763375D01*
X21797141Y-19735400D01*
X43568101Y-19735400D01*
X43392150Y-19911351D01*
G04 #@! TA.AperFunction,Conductor*
D24*
G36*
X43392150Y-19911351D02*
G01*
X43131140Y-20301979D01*
X42951354Y-20736021D01*
X42859700Y-21196798D01*
X42859700Y-21666602D01*
X42951354Y-22127379D01*
X43131140Y-22561421D01*
X43392150Y-22952049D01*
X43724351Y-23284250D01*
X44114979Y-23545260D01*
X44549021Y-23725046D01*
X45009798Y-23816700D01*
X45479602Y-23816700D01*
X45741990Y-23764508D01*
X40319872Y-29186627D01*
X40319872Y-28017100D01*
X40307612Y-27892618D01*
X40271302Y-27772920D01*
X40212337Y-27662606D01*
X40132985Y-27565915D01*
X40036294Y-27486563D01*
X39925980Y-27427598D01*
X39806282Y-27391288D01*
X39681800Y-27379028D01*
X37929200Y-27379028D01*
X37804718Y-27391288D01*
X37685020Y-27427598D01*
X37574706Y-27486563D01*
X37478015Y-27565915D01*
X37398663Y-27662606D01*
X37339698Y-27772920D01*
X37303388Y-27892618D01*
X37291128Y-28017100D01*
X37291128Y-29769700D01*
X37303388Y-29894182D01*
X37339698Y-30013880D01*
X37398663Y-30124194D01*
X37465504Y-30205640D01*
X37384902Y-30259496D01*
X37174396Y-30470002D01*
X37009003Y-30717531D01*
X36895078Y-30992570D01*
X36837000Y-31284550D01*
X36837000Y-31582250D01*
X36895078Y-31874230D01*
X37009003Y-32149269D01*
X37174396Y-32396798D01*
X37384902Y-32607304D01*
X37632431Y-32772697D01*
X37907470Y-32886622D01*
X37948060Y-32894696D01*
X37937937Y-32926231D01*
X38805500Y-33793795D01*
X39673063Y-32926231D01*
X39592246Y-32674471D01*
X39357088Y-32561914D01*
X39522204Y-32396798D01*
X39687597Y-32149269D01*
X39801522Y-31874230D01*
X39806401Y-31849700D01*
X44029452Y-27626650D01*
X44018545Y-27662606D01*
X43993781Y-27744246D01*
X43992698Y-27747815D01*
X43978024Y-27896800D01*
X43981701Y-27934132D01*
X43981700Y-37882398D01*
X39781478Y-42082621D01*
X39801522Y-42034230D01*
X39859600Y-41742250D01*
X39859600Y-41444550D01*
X39801522Y-41152570D01*
X39687597Y-40877531D01*
X39522204Y-40630002D01*
X39354160Y-40461958D01*
X39521369Y-40392697D01*
X39768898Y-40227304D01*
X39979404Y-40016798D01*
X40144797Y-39769269D01*
X40258722Y-39494230D01*
X40316800Y-39202250D01*
X40316800Y-38904550D01*
X40258722Y-38612570D01*
X40144797Y-38337531D01*
X39979404Y-38090002D01*
X39768898Y-37879496D01*
X39521369Y-37714103D01*
X39246330Y-37600178D01*
X39205740Y-37592104D01*
X39215863Y-37560569D01*
X38348300Y-36693005D01*
X37480737Y-37560569D01*
X37561554Y-37812329D01*
X37796712Y-37924886D01*
X37631596Y-38090002D01*
X37466203Y-38337531D01*
X37352278Y-38612570D01*
X37294200Y-38904550D01*
X37294200Y-39202250D01*
X37352278Y-39494230D01*
X37466203Y-39769269D01*
X37631596Y-40016798D01*
X37799640Y-40184842D01*
X37632431Y-40254103D01*
X37384902Y-40419496D01*
X37174396Y-40630002D01*
X37009003Y-40877531D01*
X36895078Y-41152570D01*
X36837000Y-41444550D01*
X36837000Y-41742250D01*
X36895078Y-42034230D01*
X37009003Y-42309269D01*
X37174396Y-42556798D01*
X37384902Y-42767304D01*
X37632431Y-42932697D01*
X37799640Y-43001958D01*
X37631596Y-43170002D01*
X37466203Y-43417531D01*
X37352278Y-43692570D01*
X37294200Y-43984550D01*
X37294200Y-44282250D01*
X37352278Y-44574230D01*
X37466203Y-44849269D01*
X37631596Y-45096798D01*
X37799640Y-45264842D01*
X37632431Y-45334103D01*
X37384902Y-45499496D01*
X37174396Y-45710002D01*
X37009003Y-45957531D01*
X36895078Y-46232570D01*
X36837000Y-46524550D01*
X36837000Y-46822250D01*
X36895078Y-47114230D01*
X37009003Y-47389269D01*
X37174396Y-47636798D01*
X37384902Y-47847304D01*
X37632431Y-48012697D01*
X37799640Y-48081958D01*
X37631596Y-48250002D01*
X37466203Y-48497531D01*
X37352278Y-48772570D01*
X37294200Y-49064550D01*
X37294200Y-49362250D01*
X37352278Y-49654230D01*
X37466203Y-49929269D01*
X37631596Y-50176798D01*
X37799640Y-50344842D01*
X37632431Y-50414103D01*
X37384902Y-50579496D01*
X37174396Y-50790002D01*
X37009003Y-51037531D01*
X36895078Y-51312570D01*
X36837000Y-51604550D01*
X36837000Y-51902250D01*
X36895078Y-52194230D01*
X37009003Y-52469269D01*
X37174396Y-52716798D01*
X37384902Y-52927304D01*
X37632431Y-53092697D01*
X37799640Y-53161958D01*
X37631596Y-53330002D01*
X37466203Y-53577531D01*
X37352278Y-53852570D01*
X37294200Y-54144550D01*
X37294200Y-54247298D01*
X25029076Y-41982175D01*
X25076800Y-41742250D01*
X25076800Y-41444550D01*
X25018722Y-41152570D01*
X24904797Y-40877531D01*
X24739404Y-40630002D01*
X24528898Y-40419496D01*
X24281369Y-40254103D01*
X24114160Y-40184842D01*
X24282204Y-40016798D01*
X24447597Y-39769269D01*
X24561522Y-39494230D01*
X24619600Y-39202250D01*
X24619600Y-38904550D01*
X24561522Y-38612570D01*
X24447597Y-38337531D01*
X24282204Y-38090002D01*
X24114160Y-37921958D01*
X24281369Y-37852697D01*
X24528898Y-37687304D01*
X24739404Y-37476798D01*
X24904797Y-37229269D01*
X25018722Y-36954230D01*
X25076800Y-36662250D01*
X25076800Y-36580891D01*
X36831187Y-36580891D01*
X36873504Y-36875567D01*
X36972498Y-37156327D01*
X37049371Y-37300146D01*
X37301131Y-37380963D01*
X38168695Y-36513400D01*
X38527905Y-36513400D01*
X39395469Y-37380963D01*
X39647229Y-37300146D01*
X39775757Y-37031621D01*
X39849429Y-36743181D01*
X39865413Y-36445909D01*
X39823096Y-36151233D01*
X39724102Y-35870473D01*
X39647229Y-35726654D01*
X39395469Y-35645837D01*
X38527905Y-36513400D01*
X38168695Y-36513400D01*
X37301131Y-35645837D01*
X37049371Y-35726654D01*
X36920843Y-35995179D01*
X36847171Y-36283619D01*
X36831187Y-36580891D01*
X25076800Y-36580891D01*
X25076800Y-36364550D01*
X25018722Y-36072570D01*
X24904797Y-35797531D01*
X24739404Y-35550002D01*
X24655633Y-35466231D01*
X37480737Y-35466231D01*
X38348300Y-36333795D01*
X39215863Y-35466231D01*
X39205762Y-35434764D01*
X39448427Y-35349202D01*
X39592246Y-35272329D01*
X39673063Y-35020569D01*
X38805500Y-34153005D01*
X37937937Y-35020569D01*
X37948038Y-35052036D01*
X37705373Y-35137598D01*
X37561554Y-35214471D01*
X37480737Y-35466231D01*
X24655633Y-35466231D01*
X24528898Y-35339496D01*
X24281369Y-35174103D01*
X24114160Y-35104842D01*
X24282204Y-34936798D01*
X24447597Y-34689269D01*
X24561522Y-34414230D01*
X24619600Y-34122250D01*
X24619600Y-34040891D01*
X37288387Y-34040891D01*
X37330704Y-34335567D01*
X37429698Y-34616327D01*
X37506571Y-34760146D01*
X37758331Y-34840963D01*
X38625895Y-33973400D01*
X38985105Y-33973400D01*
X39852669Y-34840963D01*
X40104429Y-34760146D01*
X40232957Y-34491621D01*
X40306629Y-34203181D01*
X40322613Y-33905909D01*
X40280296Y-33611233D01*
X40181302Y-33330473D01*
X40104429Y-33186654D01*
X39852669Y-33105837D01*
X38985105Y-33973400D01*
X38625895Y-33973400D01*
X37758331Y-33105837D01*
X37506571Y-33186654D01*
X37378043Y-33455179D01*
X37304371Y-33743619D01*
X37288387Y-34040891D01*
X24619600Y-34040891D01*
X24619600Y-33824550D01*
X24561522Y-33532570D01*
X24447597Y-33257531D01*
X24282204Y-33010002D01*
X24114160Y-32841958D01*
X24281369Y-32772697D01*
X24528898Y-32607304D01*
X24739404Y-32396798D01*
X24904797Y-32149269D01*
X25018722Y-31874230D01*
X25076800Y-31582250D01*
X25076800Y-31284550D01*
X25018722Y-30992570D01*
X24904797Y-30717531D01*
X24739404Y-30470002D01*
X24528898Y-30259496D01*
X24281369Y-30094103D01*
X24114160Y-30024842D01*
X24282204Y-29856798D01*
X24447597Y-29609269D01*
X24561522Y-29334230D01*
X24619600Y-29042250D01*
X24619600Y-28744550D01*
X24561522Y-28452570D01*
X24478467Y-28252056D01*
X27671900Y-28252056D01*
X27671900Y-28899144D01*
X27798140Y-29533799D01*
X28045771Y-30131631D01*
X28405274Y-30669666D01*
X28862834Y-31127226D01*
X29400869Y-31486729D01*
X29998701Y-31734360D01*
X30633356Y-31860600D01*
X31280444Y-31860600D01*
X31915099Y-31734360D01*
X32512931Y-31486729D01*
X33050966Y-31127226D01*
X33508526Y-30669666D01*
X33868029Y-30131631D01*
X34115660Y-29533799D01*
X34241900Y-28899144D01*
X34241900Y-28252056D01*
X34115660Y-27617401D01*
X33868029Y-27019569D01*
X33508526Y-26481534D01*
X33050966Y-26023974D01*
X32512931Y-25664471D01*
X31915099Y-25416840D01*
X31280444Y-25290600D01*
X30633356Y-25290600D01*
X29998701Y-25416840D01*
X29400869Y-25664471D01*
X28862834Y-26023974D01*
X28405274Y-26481534D01*
X28045771Y-27019569D01*
X27798140Y-27617401D01*
X27671900Y-28252056D01*
X24478467Y-28252056D01*
X24447597Y-28177531D01*
X24282204Y-27930002D01*
X24071698Y-27719496D01*
X23824169Y-27554103D01*
X23549130Y-27440178D01*
X23257150Y-27382100D01*
X22959450Y-27382100D01*
X22667470Y-27440178D01*
X22392431Y-27554103D01*
X22144902Y-27719496D01*
X21934396Y-27930002D01*
X21769003Y-28177531D01*
X21655078Y-28452570D01*
X21597000Y-28744550D01*
X21597000Y-29042250D01*
X21655078Y-29334230D01*
X21769003Y-29609269D01*
X21934396Y-29856798D01*
X22144902Y-30067304D01*
X22392431Y-30232697D01*
X22559640Y-30301958D01*
X22391596Y-30470002D01*
X22226203Y-30717531D01*
X22112278Y-30992570D01*
X22054200Y-31284550D01*
X22054200Y-31582250D01*
X22112278Y-31874230D01*
X22226203Y-32149269D01*
X22391596Y-32396798D01*
X22559640Y-32564842D01*
X22392431Y-32634103D01*
X22144902Y-32799496D01*
X21934396Y-33010002D01*
X21769003Y-33257531D01*
X21655078Y-33532570D01*
X21597000Y-33824550D01*
X21597000Y-34122250D01*
X21655078Y-34414230D01*
X21769003Y-34689269D01*
X21934396Y-34936798D01*
X22144902Y-35147304D01*
X22392431Y-35312697D01*
X22559640Y-35381958D01*
X22391596Y-35550002D01*
X22226203Y-35797531D01*
X22112278Y-36072570D01*
X22054200Y-36364550D01*
X22054200Y-36662250D01*
X22112278Y-36954230D01*
X22226203Y-37229269D01*
X22391596Y-37476798D01*
X22559640Y-37644842D01*
X22392431Y-37714103D01*
X22144902Y-37879496D01*
X21934396Y-38090002D01*
X21769003Y-38337531D01*
X21655078Y-38612570D01*
X21597000Y-38904550D01*
X21597000Y-39202250D01*
X21654982Y-39493749D01*
X21637554Y-39526354D01*
X21594097Y-39669615D01*
X21583100Y-39781268D01*
X21583100Y-39781278D01*
X21579424Y-39818600D01*
X21583100Y-39855923D01*
X21583101Y-42042968D01*
X21579424Y-42080300D01*
X21583101Y-42117633D01*
X21590899Y-42196801D01*
X21594098Y-42229285D01*
X21637554Y-42372546D01*
X21708126Y-42504576D01*
X21742286Y-42546199D01*
X21803100Y-42620301D01*
X21832098Y-42644099D01*
X22146456Y-42958458D01*
X22144902Y-42959496D01*
X21934396Y-43170002D01*
X21769003Y-43417531D01*
X21655078Y-43692570D01*
X21597000Y-43984550D01*
X21597000Y-44282250D01*
X21655078Y-44574230D01*
X21769003Y-44849269D01*
X21934396Y-45096798D01*
X22144902Y-45307304D01*
X22392431Y-45472697D01*
X22559640Y-45541958D01*
X22391596Y-45710002D01*
X22226203Y-45957531D01*
X22112278Y-46232570D01*
X22054200Y-46524550D01*
X22054200Y-46822250D01*
X22112278Y-47114230D01*
X22226203Y-47389269D01*
X22391596Y-47636798D01*
X22559640Y-47804842D01*
X22392431Y-47874103D01*
X22144902Y-48039496D01*
X21934396Y-48250002D01*
X21769003Y-48497531D01*
X21655078Y-48772570D01*
X21597000Y-49064550D01*
X21597000Y-49362250D01*
X21655078Y-49654230D01*
X21769003Y-49929269D01*
X21934396Y-50176798D01*
X22144902Y-50387304D01*
X22392431Y-50552697D01*
X22559640Y-50621958D01*
X22391596Y-50790002D01*
X22226203Y-51037531D01*
X22112278Y-51312570D01*
X22054200Y-51604550D01*
X22054200Y-51902250D01*
X22112278Y-52194230D01*
X22226203Y-52469269D01*
X22391596Y-52716798D01*
X22559640Y-52884842D01*
X22392431Y-52954103D01*
X22144902Y-53119496D01*
X21934396Y-53330002D01*
X21769003Y-53577531D01*
X21655078Y-53852570D01*
X21597000Y-54144550D01*
X21597000Y-54442250D01*
X21644724Y-54682175D01*
X21611402Y-54715496D01*
X21582399Y-54739299D01*
X21537486Y-54794026D01*
X21487426Y-54855024D01*
X21421434Y-54978485D01*
X21416854Y-54987054D01*
X21373397Y-55130315D01*
X21362400Y-55241968D01*
X21362400Y-55241978D01*
X21358724Y-55279300D01*
X21362400Y-55316622D01*
X21362401Y-72567167D01*
X21358724Y-72604500D01*
X21362401Y-72641833D01*
X21373398Y-72753486D01*
X21382237Y-72782624D01*
X21416854Y-72896746D01*
X21487426Y-73028776D01*
X21537245Y-73089480D01*
X21582400Y-73144501D01*
X21611398Y-73168299D01*
X21890723Y-73447624D01*
X21884732Y-73462088D01*
X21821900Y-73777967D01*
X21821900Y-74100033D01*
X21884732Y-74415912D01*
X22007982Y-74713463D01*
X22186913Y-74981252D01*
X22414648Y-75208987D01*
X22682437Y-75387918D01*
X22979988Y-75511168D01*
X23295867Y-75574000D01*
X23617933Y-75574000D01*
X23933812Y-75511168D01*
X24231363Y-75387918D01*
X24293101Y-75346666D01*
X24293101Y-85504567D01*
X24289424Y-85541900D01*
X24293101Y-85579233D01*
X24297013Y-85618946D01*
X24304098Y-85690885D01*
X24347554Y-85834146D01*
X24418126Y-85966176D01*
X24489301Y-86052902D01*
X24513100Y-86081901D01*
X24542098Y-86105699D01*
X54205722Y-115769324D01*
X54194428Y-115884000D01*
X54194428Y-117484000D01*
X54206688Y-117608482D01*
X54242998Y-117728180D01*
X54301963Y-117838494D01*
X54381315Y-117935185D01*
X54478006Y-118014537D01*
X54588320Y-118073502D01*
X54708018Y-118109812D01*
X54832500Y-118122072D01*
X56432500Y-118122072D01*
X56556982Y-118109812D01*
X56676680Y-118073502D01*
X56786994Y-118014537D01*
X56883685Y-117935185D01*
X56963037Y-117838494D01*
X56984125Y-117799042D01*
X57003006Y-117814537D01*
X57113320Y-117873502D01*
X57233018Y-117909812D01*
X57357500Y-117922072D01*
X58557500Y-117922072D01*
X58569854Y-117920855D01*
X58969301Y-118320303D01*
X58993099Y-118349301D01*
X59030506Y-118380000D01*
X50374249Y-118380000D01*
X50513381Y-118352325D01*
X50829131Y-118221537D01*
X51113298Y-118031663D01*
X51354963Y-117789998D01*
X51544837Y-117505831D01*
X51675625Y-117190081D01*
X51742300Y-116854883D01*
X51742300Y-116513117D01*
X51675625Y-116177919D01*
X51544837Y-115862169D01*
X51354963Y-115578002D01*
X51113298Y-115336337D01*
X50829131Y-115146463D01*
X50513381Y-115015675D01*
X50178183Y-114949000D01*
X49836417Y-114949000D01*
X49501219Y-115015675D01*
X49185469Y-115146463D01*
X48901302Y-115336337D01*
X48659637Y-115578002D01*
X48469763Y-115862169D01*
X48338975Y-116177919D01*
X48272300Y-116513117D01*
X48272300Y-116854883D01*
X48338975Y-117190081D01*
X48469763Y-117505831D01*
X48659637Y-117789998D01*
X48901302Y-118031663D01*
X49185469Y-118221537D01*
X49501219Y-118352325D01*
X49640351Y-118380000D01*
X46921599Y-118380000D01*
X47097250Y-118204349D01*
X47358260Y-117813721D01*
X47538046Y-117379679D01*
X47629700Y-116918902D01*
X47629700Y-116449098D01*
X47538046Y-115988321D01*
X47358260Y-115554279D01*
X47097250Y-115163651D01*
X46765049Y-114831450D01*
X46374421Y-114570440D01*
X45940379Y-114390654D01*
X45479602Y-114299000D01*
X45009798Y-114299000D01*
X44549021Y-114390654D01*
X44114979Y-114570440D01*
X43724351Y-114831450D01*
X43392150Y-115163651D01*
X43131140Y-115554279D01*
X42951354Y-115988321D01*
X42859700Y-116449098D01*
X42859700Y-116918902D01*
X42951354Y-117379679D01*
X43131140Y-117813721D01*
X43392150Y-118204349D01*
X43567801Y-118380000D01*
X21798649Y-118380000D01*
X21937781Y-118352325D01*
X22253531Y-118221537D01*
X22537698Y-118031663D01*
X22779363Y-117789998D01*
X22969237Y-117505831D01*
X23100025Y-117190081D01*
X23166700Y-116854883D01*
X23166700Y-116513117D01*
X23100025Y-116177919D01*
X22969237Y-115862169D01*
X22779363Y-115578002D01*
X22537698Y-115336337D01*
X22253531Y-115146463D01*
X21937781Y-115015675D01*
X21602583Y-114949000D01*
X21260817Y-114949000D01*
X20925619Y-115015675D01*
X20609869Y-115146463D01*
X20325702Y-115336337D01*
X20084037Y-115578002D01*
X19894163Y-115862169D01*
X19763375Y-116177919D01*
X19735400Y-116318559D01*
X19735400Y-21797141D01*
X19763375Y-21937781D01*
X19894163Y-22253531D01*
X20084037Y-22537698D01*
X20325702Y-22779363D01*
X20609869Y-22969237D01*
X20925619Y-23100025D01*
X21260817Y-23166700D01*
X21602583Y-23166700D01*
X21937781Y-23100025D01*
X22253531Y-22969237D01*
X22537698Y-22779363D01*
X22779363Y-22537698D01*
X22969237Y-22253531D01*
X23100025Y-21937781D01*
X23166700Y-21602583D01*
X23166700Y-21260817D01*
X23100025Y-20925619D01*
X22969237Y-20609869D01*
X22779363Y-20325702D01*
X22537698Y-20084037D01*
X22253531Y-19894163D01*
X21937781Y-19763375D01*
X21797141Y-19735400D01*
X43568101Y-19735400D01*
X43392150Y-19911351D01*
G37*
G04 #@! TD.AperFunction*
D23*
X23650648Y-71424858D02*
X23636505Y-71439000D01*
X23650648Y-71453143D01*
X23471043Y-71632748D01*
X23456900Y-71618605D01*
X23442758Y-71632748D01*
X23263153Y-71453143D01*
X23277295Y-71439000D01*
X23263153Y-71424858D01*
X23442758Y-71245253D01*
X23456900Y-71259395D01*
X23471043Y-71245253D01*
X23650648Y-71424858D01*
G04 #@! TA.AperFunction,Conductor*
D24*
G36*
X23650648Y-71424858D02*
G01*
X23636505Y-71439000D01*
X23650648Y-71453143D01*
X23471043Y-71632748D01*
X23456900Y-71618605D01*
X23442758Y-71632748D01*
X23263153Y-71453143D01*
X23277295Y-71439000D01*
X23263153Y-71424858D01*
X23442758Y-71245253D01*
X23456900Y-71259395D01*
X23471043Y-71245253D01*
X23650648Y-71424858D01*
G37*
G04 #@! TD.AperFunction*
M02*
