G04 #@! TF.GenerationSoftware,KiCad,Pcbnew,(5.1.9)-1*
G04 #@! TF.CreationDate,2021-05-25T17:42:18-04:00*
G04 #@! TF.ProjectId,Mainpcb,4d61696e-7063-4622-9e6b-696361645f70,rev?*
G04 #@! TF.SameCoordinates,Original*
G04 #@! TF.FileFunction,Paste,Bot*
G04 #@! TF.FilePolarity,Positive*
%FSLAX46Y46*%
G04 Gerber Fmt 4.6, Leading zero omitted, Abs format (unit mm)*
G04 Created by KiCad (PCBNEW (5.1.9)-1) date 2021-05-25 17:42:18*
%MOMM*%
%LPD*%
G01*
G04 APERTURE LIST*
%ADD10R,1.200000X1.200000*%
%ADD11R,2.550000X2.500000*%
G04 APERTURE END LIST*
D10*
X45244700Y-75395300D03*
X45244700Y-72245300D03*
X260368000Y-114302000D03*
X263518000Y-114302000D03*
X243699000Y-111921000D03*
X246849000Y-111921000D03*
X224649000Y-114302000D03*
X227799000Y-114302000D03*
X205598000Y-111921000D03*
X208748000Y-111921000D03*
X186548000Y-114302000D03*
X189698000Y-114302000D03*
X157972000Y-111921000D03*
X161122000Y-111921000D03*
X129397000Y-111921000D03*
X132547000Y-111921000D03*
X110346000Y-114302000D03*
X113496000Y-114302000D03*
X91295700Y-111921000D03*
X94445700Y-111921000D03*
X72245300Y-114302000D03*
X75395300Y-114302000D03*
X53194900Y-111921000D03*
X56344900Y-111921000D03*
X262749000Y-95252000D03*
X265899000Y-95252000D03*
X243699000Y-92870700D03*
X246849000Y-92870700D03*
X224649000Y-95252000D03*
X227799000Y-95252000D03*
X205598000Y-92870700D03*
X208748000Y-92870700D03*
X186548000Y-95252000D03*
X189698000Y-95252000D03*
X167497000Y-92870700D03*
X170647000Y-92870700D03*
X148447000Y-95252000D03*
X151597000Y-95252000D03*
X129397000Y-92870700D03*
X132547000Y-92870700D03*
X110346000Y-95252000D03*
X113496000Y-95252000D03*
X91295700Y-92870700D03*
X94445700Y-92870700D03*
X72245300Y-95252000D03*
X75395300Y-95252000D03*
X53194900Y-92870700D03*
X56344900Y-92870700D03*
X262749000Y-76201600D03*
X265899000Y-76201600D03*
X243699000Y-73820300D03*
X246849000Y-73820300D03*
X224649000Y-76201600D03*
X227799000Y-76201600D03*
X205598000Y-73820300D03*
X208748000Y-73820300D03*
X186548000Y-76201600D03*
X189698000Y-76201600D03*
X167497000Y-73820300D03*
X170647000Y-73820300D03*
X148447000Y-76201600D03*
X151597000Y-76201600D03*
X129397000Y-73820300D03*
X132547000Y-73820300D03*
X110346000Y-76201600D03*
X113496000Y-76201600D03*
X91295700Y-73820300D03*
X94445700Y-73820300D03*
X72245300Y-76201600D03*
X75395300Y-76201600D03*
X53194900Y-73820300D03*
X56344900Y-73820300D03*
X262749000Y-57151200D03*
X265899000Y-57151200D03*
X246849000Y-54769900D03*
X243699000Y-54769900D03*
X224649000Y-57151200D03*
X227799000Y-57151200D03*
X205598000Y-54769900D03*
X208748000Y-54769900D03*
X186548000Y-57151200D03*
X189698000Y-57151200D03*
X167497000Y-54769900D03*
X170647000Y-54769900D03*
X148447000Y-57151200D03*
X151597000Y-57151200D03*
X129397000Y-54769900D03*
X132547000Y-54769900D03*
X110346000Y-57151200D03*
X113496000Y-57151200D03*
X91295700Y-54769900D03*
X94445700Y-54769900D03*
X72245300Y-57151200D03*
X75395300Y-57151200D03*
X53194900Y-54769900D03*
X56344900Y-54769900D03*
X262749000Y-38100800D03*
X265899000Y-38100800D03*
X243699000Y-35719500D03*
X246849000Y-35719500D03*
X224649000Y-38100800D03*
X227799000Y-38100800D03*
X205598000Y-35719500D03*
X208748000Y-35719500D03*
X186548000Y-38100800D03*
X189698000Y-38100800D03*
X167497000Y-35719500D03*
X170647000Y-35719500D03*
X148447000Y-38100800D03*
X151597000Y-38100800D03*
X129397000Y-35719500D03*
X132547000Y-35719500D03*
X110346000Y-38100800D03*
X113496000Y-38100800D03*
X91295700Y-35719500D03*
X94445700Y-35719500D03*
X72245300Y-38100800D03*
X75395300Y-38100800D03*
X53194900Y-35719500D03*
X56344900Y-35719500D03*
D11*
X270610000Y-102077000D03*
X256760000Y-104617000D03*
X251560000Y-102077000D03*
X237710000Y-104617000D03*
X232510000Y-102077000D03*
X218660000Y-104617000D03*
X213460000Y-102077000D03*
X199610000Y-104617000D03*
X194410000Y-102077000D03*
X180560000Y-104617000D03*
X165835000Y-102077000D03*
X151985000Y-104617000D03*
X137260000Y-102077000D03*
X123410000Y-104617000D03*
X118210000Y-102077000D03*
X104360000Y-104617000D03*
X99159700Y-102077000D03*
X85309700Y-104617000D03*
X80109700Y-102077000D03*
X66259700Y-104617000D03*
X61059700Y-102077000D03*
X47209700Y-104617000D03*
X270610000Y-83026700D03*
X256760000Y-85566700D03*
X251560000Y-83026700D03*
X237710000Y-85566700D03*
X232510000Y-83026700D03*
X218660000Y-85566700D03*
X213460000Y-83026700D03*
X199610000Y-85566700D03*
X194410000Y-83026700D03*
X180560000Y-85566700D03*
X175360000Y-83026700D03*
X161510000Y-85566700D03*
X156310000Y-83026700D03*
X142460000Y-85566700D03*
X137260000Y-83026700D03*
X123410000Y-85566700D03*
X118210000Y-83026700D03*
X104360000Y-85566700D03*
X99159700Y-83026700D03*
X85309700Y-85566700D03*
X80109700Y-83026700D03*
X66259700Y-85566700D03*
X61059700Y-83026700D03*
X47209700Y-85566700D03*
X270610000Y-63976700D03*
X256760000Y-66516700D03*
X251560000Y-63976700D03*
X237710000Y-66516700D03*
X232510000Y-63976700D03*
X218660000Y-66516700D03*
X213460000Y-63976700D03*
X199610000Y-66516700D03*
X194410000Y-63976700D03*
X180560000Y-66516700D03*
X175360000Y-63976700D03*
X161510000Y-66516700D03*
X156310000Y-63976700D03*
X142460000Y-66516700D03*
X137260000Y-63976700D03*
X123410000Y-66516700D03*
X118210000Y-63976700D03*
X104360000Y-66516700D03*
X99159700Y-63976700D03*
X85309700Y-66516700D03*
X80109700Y-63976700D03*
X66259700Y-66516700D03*
X61059700Y-63976700D03*
X47209700Y-66516700D03*
X270610000Y-44926700D03*
X256760000Y-47466700D03*
X251560000Y-44926700D03*
X237710000Y-47466700D03*
X232510000Y-44926700D03*
X218660000Y-47466700D03*
X213460000Y-44926700D03*
X199610000Y-47466700D03*
X194410000Y-44926700D03*
X180560000Y-47466700D03*
X175360000Y-44926700D03*
X161510000Y-47466700D03*
X156310000Y-44926700D03*
X142460000Y-47466700D03*
X137260000Y-44926700D03*
X123410000Y-47466700D03*
X118210000Y-44926700D03*
X104360000Y-47466700D03*
X99159700Y-44926700D03*
X85309700Y-47466700D03*
X80109700Y-44926700D03*
X66259700Y-47466700D03*
X61059700Y-44926700D03*
X47209700Y-47466700D03*
X270610000Y-25876700D03*
X256760000Y-28416700D03*
X251560000Y-25876700D03*
X237710000Y-28416700D03*
X232510000Y-25876700D03*
X218660000Y-28416700D03*
X213460000Y-25876700D03*
X199610000Y-28416700D03*
X194410000Y-25876700D03*
X180560000Y-28416700D03*
X175360000Y-25876700D03*
X161510000Y-28416700D03*
X156310000Y-25876700D03*
X142460000Y-28416700D03*
X137260000Y-25876700D03*
X123410000Y-28416700D03*
X118210000Y-25876700D03*
X104360000Y-28416700D03*
X99159700Y-25876700D03*
X85309700Y-28416700D03*
X80109700Y-25876700D03*
X66259700Y-28416700D03*
X61059700Y-25876700D03*
X47209700Y-28416700D03*
M02*
