M48
; DRILL file {KiCad (5.1.9)-1} date 05/25/21 17:42:21
; FORMAT={-:-/ absolute / inch / decimal}
; #@! TF.CreationDate,2021-05-25T17:42:21-04:00
; #@! TF.GenerationSoftware,Kicad,Pcbnew,(5.1.9)-1
; #@! TF.FileFunction,Plated,1,2,PTH
FMAT,2
INCH
T1C0.0157
T2C0.0276
T3C0.0394
T4C0.0430
T5C0.0591
%
G90
G05
T1
X4.5001Y-0.8438
X6.2804Y-1.5806
X8.4019Y-1.3251
T2
X1.7813Y-2.7528
X1.7813Y-3.0599
X2.0028Y-1.4063
X2.0028Y-2.1563
X2.0028Y-2.9063
X2.0028Y-3.6563
X2.0028Y-4.4063
X2.3098Y-1.4063
X2.3098Y-2.1563
X2.3098Y-2.9063
X2.3098Y-3.6563
X2.3098Y-4.4063
X2.7528Y-1.5
X2.7528Y-2.25
X2.7528Y-3.0001
X2.7528Y-3.7501
X2.7528Y-4.5001
X3.0599Y-1.5
X3.0599Y-2.25
X3.0599Y-3.0001
X3.0599Y-3.7501
X3.0599Y-4.5001
X3.5028Y-1.4063
X3.5028Y-2.1563
X3.5028Y-2.9063
X3.5028Y-3.6563
X3.5028Y-4.4063
X3.8099Y-1.4063
X3.8099Y-2.1563
X3.8099Y-2.9063
X3.8099Y-3.6563
X3.8099Y-4.4063
X4.2528Y-1.5
X4.2528Y-2.25
X4.2528Y-3.0001
X4.2528Y-3.7501
X4.2528Y-4.5001
X4.5599Y-1.5
X4.5599Y-2.25
X4.5599Y-3.0001
X4.5599Y-3.7501
X4.5599Y-4.5001
X5.0028Y-1.4063
X5.0028Y-2.1563
X5.0028Y-2.9063
X5.0028Y-3.6563
X5.0028Y-4.4063
X5.3099Y-1.4063
X5.3099Y-2.1563
X5.3099Y-2.9063
X5.3099Y-3.6563
X5.3099Y-4.4063
X5.7528Y-1.5
X5.7528Y-2.25
X5.7528Y-3.0001
X5.7528Y-3.7501
X6.0599Y-1.5
X6.0599Y-2.25
X6.0599Y-3.0001
X6.0599Y-3.7501
X6.1278Y-4.4063
X6.4349Y-4.4063
X6.5028Y-1.4063
X6.5028Y-2.1563
X6.5028Y-2.9063
X6.5028Y-3.6563
X6.8099Y-1.4063
X6.8099Y-2.1563
X6.8099Y-2.9063
X6.8099Y-3.6563
X7.2529Y-1.5
X7.2529Y-2.25
X7.2529Y-3.0001
X7.2529Y-3.7501
X7.2529Y-4.5001
X7.56Y-1.5
X7.56Y-2.25
X7.56Y-3.0001
X7.56Y-3.7501
X7.56Y-4.5001
X8.0029Y-1.4063
X8.0029Y-2.1563
X8.0029Y-2.9063
X8.0029Y-3.6563
X8.0029Y-4.4063
X8.31Y-1.4063
X8.31Y-2.1563
X8.31Y-2.9063
X8.31Y-3.6563
X8.31Y-4.4063
X8.7529Y-1.5
X8.7529Y-2.25
X8.7529Y-3.0001
X8.7529Y-3.7501
X8.7529Y-4.5001
X9.06Y-1.5
X9.06Y-2.25
X9.06Y-3.0001
X9.06Y-3.7501
X9.06Y-4.5001
X9.5029Y-1.4063
X9.5029Y-2.1563
X9.5029Y-2.9063
X9.5029Y-3.6563
X9.5029Y-4.4063
X9.81Y-1.4063
X9.81Y-2.1563
X9.81Y-2.9063
X9.81Y-3.6563
X9.81Y-4.4063
X10.1592Y-4.5001
X10.2529Y-1.5
X10.2529Y-2.25
X10.2529Y-3.0001
X10.2529Y-3.7501
X10.4663Y-4.5001
X10.56Y-1.5
X10.56Y-2.25
X10.56Y-3.0001
X10.56Y-3.7501
T3
X0.9235Y-2.7141
X0.9235Y-2.8126
X0.9235Y-2.911
X1.4944Y-2.7141
X1.4944Y-2.911
T4
X0.9098Y-1.1375
X0.9098Y-1.3375
X0.9098Y-1.5375
X0.9098Y-1.7375
X0.9098Y-1.9375
X0.9098Y-2.1375
X0.9278Y-1.2375
X0.9278Y-1.4375
X0.9278Y-1.6375
X0.9278Y-1.8375
X0.9278Y-2.0375
X0.9278Y-2.2375
X1.5098Y-1.2375
X1.5098Y-1.4375
X1.5098Y-1.6375
X1.5098Y-1.8375
X1.5098Y-2.0375
X1.5098Y-2.2375
X1.5278Y-1.1375
X1.5278Y-1.3375
X1.5278Y-1.5375
X1.5278Y-1.7375
X1.5278Y-1.9375
X1.5278Y-2.1375
T5
G00X1.2444Y-2.5921
M15
G01X1.1932Y-2.5921
M16
G05
G00X1.1932Y-3.033
M15
G01X1.2444Y-3.033
M16
G05
T0
M30
