M48
; DRILL file {KiCad (5.1.9)-1} date 06/18/21 19:30:14
; FORMAT={-:-/ absolute / inch / decimal}
; #@! TF.CreationDate,2021-06-18T19:30:14-04:00
; #@! TF.GenerationSoftware,Kicad,Pcbnew,(5.1.9)-1
; #@! TF.FileFunction,Plated,1,2,PTH
FMAT,2
INCH
T1C0.0157
T2C0.0276
T3C0.0394
T4C0.0430
T5C0.0591
%
G90
G05
T1
X5.199Y-2.9365
X6.8643Y-1.6789
X6.9117Y-1.569
X9.8664Y-1.1269
T2
X1.7813Y-2.7528
X1.7813Y-3.0599
X2.0028Y-1.5938
X2.0028Y-2.3438
X2.0028Y-3.0938
X2.0028Y-3.8438
X2.1903Y-4.5939
X2.3098Y-1.5938
X2.3098Y-2.3438
X2.3098Y-3.0938
X2.3098Y-3.8438
X2.4973Y-4.5939
X2.7528Y-1.5938
X2.7528Y-2.3438
X2.7528Y-3.0938
X2.7528Y-3.8438
X2.7528Y-4.5938
X3.0599Y-1.5938
X3.0599Y-2.3438
X3.0599Y-3.0938
X3.0599Y-3.8438
X3.0599Y-4.5938
X3.5028Y-1.5938
X3.5028Y-2.3438
X3.5028Y-3.0938
X3.5028Y-3.8438
X3.5028Y-4.5939
X3.8099Y-1.5938
X3.8099Y-2.3438
X3.8099Y-3.0938
X3.8099Y-3.8438
X3.8099Y-4.5939
X4.2528Y-1.5938
X4.2528Y-2.3438
X4.2528Y-3.0938
X4.2528Y-3.8438
X4.2528Y-4.5938
X4.5599Y-1.5938
X4.5599Y-2.3438
X4.5599Y-3.0938
X4.5599Y-3.8438
X4.5599Y-4.5938
X5.0028Y-1.5938
X5.0028Y-2.3438
X5.0028Y-3.0938
X5.0028Y-3.8438
X5.0028Y-4.5939
X5.3099Y-1.5938
X5.3099Y-2.3438
X5.3099Y-3.0938
X5.3099Y-3.8438
X5.3099Y-4.5939
X5.7528Y-1.5938
X5.7528Y-2.3438
X5.7528Y-3.0938
X5.7528Y-3.8438
X6.0599Y-1.5938
X6.0599Y-2.3438
X6.0599Y-3.0938
X6.0599Y-3.8438
X6.5028Y-1.5938
X6.5028Y-2.3438
X6.5028Y-3.0938
X6.5028Y-3.8438
X6.6904Y-4.4063
X6.8099Y-1.5938
X6.8099Y-2.3438
X6.8099Y-3.0938
X6.8099Y-3.8438
X6.9974Y-4.4063
X7.2529Y-1.5938
X7.2529Y-2.3438
X7.2529Y-3.0938
X7.2529Y-3.8438
X7.2529Y-4.5938
X7.56Y-1.5938
X7.56Y-2.3438
X7.56Y-3.0938
X7.56Y-3.8438
X7.56Y-4.5938
X8.0029Y-1.5938
X8.0029Y-2.3438
X8.0029Y-3.0938
X8.0029Y-3.8438
X8.0029Y-4.5939
X8.31Y-1.5938
X8.31Y-2.3438
X8.31Y-3.0938
X8.31Y-3.8438
X8.31Y-4.5939
X8.7529Y-1.5938
X8.7529Y-2.3438
X8.7529Y-3.0938
X8.7529Y-3.8438
X8.7529Y-4.5938
X9.06Y-1.5938
X9.06Y-2.3438
X9.06Y-3.0938
X9.06Y-3.8438
X9.06Y-4.5938
X9.5029Y-1.5938
X9.5029Y-2.3438
X9.5029Y-3.0938
X9.5029Y-3.8438
X9.5029Y-4.5939
X9.81Y-1.5938
X9.81Y-2.3438
X9.81Y-3.0938
X9.81Y-3.8438
X9.81Y-4.5939
X10.0654Y-4.5938
X10.2529Y-1.5938
X10.2529Y-2.3438
X10.2529Y-3.0938
X10.2529Y-3.8438
X10.3725Y-4.5938
X10.56Y-1.5938
X10.56Y-2.3438
X10.56Y-3.0938
X10.56Y-3.8438
T3
X0.9235Y-2.7141
X0.9235Y-2.8126
X0.9235Y-2.911
X1.4944Y-2.7141
X1.4944Y-2.911
T4
X0.9098Y-1.1375
X0.9098Y-1.3375
X0.9098Y-1.5375
X0.9098Y-1.7375
X0.9098Y-1.9375
X0.9098Y-2.1375
X0.9278Y-1.2375
X0.9278Y-1.4375
X0.9278Y-1.6375
X0.9278Y-1.8375
X0.9278Y-2.0375
X0.9278Y-2.2375
X1.5098Y-1.2375
X1.5098Y-1.4375
X1.5098Y-1.6375
X1.5098Y-1.8375
X1.5098Y-2.0375
X1.5098Y-2.2375
X1.5278Y-1.1375
X1.5278Y-1.3375
X1.5278Y-1.5375
X1.5278Y-1.7375
X1.5278Y-1.9375
X1.5278Y-2.1375
T5
G00X1.2444Y-2.5921
M15
G01X1.1932Y-2.5921
M16
G05
G00X1.1932Y-3.033
M15
G01X1.2444Y-3.033
M16
G05
T0
M30
