M48
; DRILL file {KiCad (5.1.9)-1} date 05/25/21 17:42:21
; FORMAT={-:-/ absolute / inch / decimal}
; #@! TF.CreationDate,2021-05-25T17:42:21-04:00
; #@! TF.GenerationSoftware,Kicad,Pcbnew,(5.1.9)-1
; #@! TF.FileFunction,NonPlated,1,2,NPTH
FMAT,2
INCH
T1C0.0670
T2C0.0866
T3C0.1181
T4C0.1378
T5C0.1570
T6C0.2087
%
G90
G05
T1
X1.9563Y-1.2188
X1.9563Y-1.9688
X1.9563Y-2.7188
X1.9563Y-3.4688
X1.9563Y-4.2188
X2.3563Y-1.2188
X2.3563Y-1.9688
X2.3563Y-2.7188
X2.3563Y-3.4688
X2.3563Y-4.2188
X2.7063Y-1.2188
X2.7063Y-1.9688
X2.7063Y-2.7188
X2.7063Y-3.4688
X2.7063Y-4.2188
X3.1063Y-1.2188
X3.1063Y-1.9688
X3.1063Y-2.7188
X3.1063Y-3.4688
X3.1063Y-4.2188
X3.4563Y-1.2188
X3.4563Y-1.9688
X3.4563Y-2.7188
X3.4563Y-3.4688
X3.4563Y-4.2188
X3.8563Y-1.2188
X3.8563Y-1.9688
X3.8563Y-2.7188
X3.8563Y-3.4688
X3.8563Y-4.2188
X4.2063Y-1.2188
X4.2063Y-1.9688
X4.2063Y-2.7188
X4.2063Y-3.4688
X4.2063Y-4.2188
X4.6063Y-1.2188
X4.6063Y-1.9688
X4.6063Y-2.7188
X4.6063Y-3.4688
X4.6063Y-4.2188
X4.9563Y-1.2188
X4.9563Y-1.9688
X4.9563Y-2.7188
X4.9563Y-3.4688
X4.9563Y-4.2188
X5.3563Y-1.2188
X5.3563Y-1.9688
X5.3563Y-2.7188
X5.3563Y-3.4688
X5.3563Y-4.2188
X5.7063Y-1.2188
X5.7063Y-1.9688
X5.7063Y-2.7188
X5.7063Y-3.4688
X6.0813Y-4.2188
X6.1063Y-1.2188
X6.1063Y-1.9688
X6.1063Y-2.7188
X6.1063Y-3.4688
X6.4563Y-1.2188
X6.4563Y-1.9688
X6.4563Y-2.7188
X6.4563Y-3.4688
X6.4813Y-4.2188
X6.8563Y-1.2188
X6.8563Y-1.9688
X6.8563Y-2.7188
X6.8563Y-3.4688
X7.2063Y-1.2188
X7.2063Y-1.9688
X7.2063Y-2.7188
X7.2063Y-3.4688
X7.2063Y-4.2188
X7.6063Y-1.2188
X7.6063Y-1.9688
X7.6063Y-2.7188
X7.6063Y-3.4688
X7.6063Y-4.2188
X7.9563Y-1.2188
X7.9563Y-1.9688
X7.9563Y-2.7188
X7.9563Y-3.4688
X7.9563Y-4.2188
X8.3563Y-1.2188
X8.3563Y-1.9688
X8.3563Y-2.7188
X8.3563Y-3.4688
X8.3563Y-4.2188
X8.7063Y-1.2188
X8.7063Y-1.9688
X8.7063Y-2.7188
X8.7063Y-3.4688
X8.7063Y-4.2188
X9.1063Y-1.2188
X9.1063Y-1.9688
X9.1063Y-2.7188
X9.1063Y-3.4688
X9.1063Y-4.2188
X9.4563Y-1.2188
X9.4563Y-1.9688
X9.4563Y-2.7188
X9.4563Y-3.4688
X9.4563Y-4.2188
X9.8563Y-1.2188
X9.8563Y-1.9688
X9.8563Y-2.7188
X9.8563Y-3.4688
X9.8563Y-4.2188
X10.2063Y-1.2188
X10.2063Y-1.9688
X10.2063Y-2.7188
X10.2063Y-3.4688
X10.2063Y-4.2188
X10.6063Y-1.2188
X10.6063Y-1.9688
X10.6063Y-2.7188
X10.6063Y-3.4688
X10.6063Y-4.2188
T2
X0.8438Y-0.8438
X0.8438Y-4.5939
X1.2188Y-2.4376
X1.9688Y-0.8438
X1.9688Y-4.5939
X6.2814Y-0.8438
X6.2814Y-2.3438
X6.2814Y-4.5939
X10.594Y-0.8438
X10.594Y-4.5939
T3
X2.0063Y-1.1188
X2.0063Y-1.8688
X2.0063Y-2.6188
X2.0063Y-3.3688
X2.0063Y-4.1188
X2.2563Y-1.0188
X2.2563Y-1.7688
X2.2563Y-2.5188
X2.2563Y-3.2688
X2.2563Y-4.0188
X2.7563Y-1.1188
X2.7563Y-1.8688
X2.7563Y-2.6188
X2.7563Y-3.3688
X2.7563Y-4.1188
X3.0063Y-1.0188
X3.0063Y-1.7688
X3.0063Y-2.5188
X3.0063Y-3.2688
X3.0063Y-4.0188
X3.5063Y-1.1188
X3.5063Y-1.8688
X3.5063Y-2.6188
X3.5063Y-3.3688
X3.5063Y-4.1188
X3.7563Y-1.0188
X3.7563Y-1.7688
X3.7563Y-2.5188
X3.7563Y-3.2688
X3.7563Y-4.0188
X4.2563Y-1.1188
X4.2563Y-1.8688
X4.2563Y-2.6188
X4.2563Y-3.3688
X4.2563Y-4.1188
X4.5063Y-1.0188
X4.5063Y-1.7688
X4.5063Y-2.5188
X4.5063Y-3.2688
X4.5063Y-4.0188
X5.0063Y-1.1188
X5.0063Y-1.8688
X5.0063Y-2.6188
X5.0063Y-3.3688
X5.0063Y-4.1188
X5.2563Y-1.0188
X5.2563Y-1.7688
X5.2563Y-2.5188
X5.2563Y-3.2688
X5.2563Y-4.0188
X5.7563Y-1.1188
X5.7563Y-1.8688
X5.7563Y-2.6188
X5.7563Y-3.3688
X6.0063Y-1.0188
X6.0063Y-1.7688
X6.0063Y-2.5188
X6.0063Y-3.2688
X6.1313Y-4.1188
X6.3813Y-4.0188
X6.5063Y-1.1188
X6.5063Y-1.8688
X6.5063Y-2.6188
X6.5063Y-3.3688
X6.7563Y-1.0188
X6.7563Y-1.7688
X6.7563Y-2.5188
X6.7563Y-3.2688
X7.2563Y-1.1188
X7.2563Y-1.8688
X7.2563Y-2.6188
X7.2563Y-3.3688
X7.2563Y-4.1188
X7.5063Y-1.0188
X7.5063Y-1.7688
X7.5063Y-2.5188
X7.5063Y-3.2688
X7.5063Y-4.0188
X8.0063Y-1.1188
X8.0063Y-1.8688
X8.0063Y-2.6188
X8.0063Y-3.3688
X8.0063Y-4.1188
X8.2563Y-1.0188
X8.2563Y-1.7688
X8.2563Y-2.5188
X8.2563Y-3.2688
X8.2563Y-4.0188
X8.7563Y-1.1188
X8.7563Y-1.8688
X8.7563Y-2.6188
X8.7563Y-3.3688
X8.7563Y-4.1188
X9.0063Y-1.0188
X9.0063Y-1.7688
X9.0063Y-2.5188
X9.0063Y-3.2688
X9.0063Y-4.0188
X9.5063Y-1.1188
X9.5063Y-1.8688
X9.5063Y-2.6188
X9.5063Y-3.3688
X9.5063Y-4.1188
X9.7563Y-1.0188
X9.7563Y-1.7688
X9.7563Y-2.5188
X9.7563Y-3.2688
X9.7563Y-4.0188
X10.2563Y-1.1188
X10.2563Y-1.8688
X10.2563Y-2.6188
X10.2563Y-3.3688
X10.2563Y-4.1188
X10.5063Y-1.0188
X10.5063Y-1.7688
X10.5063Y-2.5188
X10.5063Y-3.2688
X10.5063Y-4.0188
T4
X1.7813Y-0.8438
X1.7813Y-4.5939
X4.7813Y-0.8438
X4.7813Y-2.3438
X4.7813Y-4.5939
X7.7814Y-0.8438
X7.7814Y-2.3438
X7.7814Y-4.5939
X10.7815Y-0.8438
X10.7815Y-4.5939
T5
X2.1563Y-1.2188
X2.1563Y-1.9688
X2.1563Y-2.7188
X2.1563Y-3.4688
X2.1563Y-4.2188
X2.9063Y-1.2188
X2.9063Y-1.9688
X2.9063Y-2.7188
X2.9063Y-3.4688
X2.9063Y-4.2188
X3.6563Y-1.2188
X3.6563Y-1.9688
X3.6563Y-2.7188
X3.6563Y-3.4688
X3.6563Y-4.2188
X4.4063Y-1.2188
X4.4063Y-1.9688
X4.4063Y-2.7188
X4.4063Y-3.4688
X4.4063Y-4.2188
X5.1563Y-1.2188
X5.1563Y-1.9688
X5.1563Y-2.7188
X5.1563Y-3.4688
X5.1563Y-4.2188
X5.9063Y-1.2188
X5.9063Y-1.9688
X5.9063Y-2.7188
X5.9063Y-3.4688
X6.2813Y-4.2188
X6.6563Y-1.2188
X6.6563Y-1.9688
X6.6563Y-2.7188
X6.6563Y-3.4688
X7.4063Y-1.2188
X7.4063Y-1.9688
X7.4063Y-2.7188
X7.4063Y-3.4688
X7.4063Y-4.2188
X8.1563Y-1.2188
X8.1563Y-1.9688
X8.1563Y-2.7188
X8.1563Y-3.4688
X8.1563Y-4.2188
X8.9063Y-1.2188
X8.9063Y-1.9688
X8.9063Y-2.7188
X8.9063Y-3.4688
X8.9063Y-4.2188
X9.6563Y-1.2188
X9.6563Y-1.9688
X9.6563Y-2.7188
X9.6563Y-3.4688
X9.6563Y-4.2188
X10.4063Y-1.2188
X10.4063Y-1.9688
X10.4063Y-2.7188
X10.4063Y-3.4688
X10.4063Y-4.2188
T6
X1.2188Y-1.125
T0
M30
