G04 #@! TF.GenerationSoftware,KiCad,Pcbnew,(5.1.9)-1*
G04 #@! TF.CreationDate,2021-06-18T19:30:07-04:00*
G04 #@! TF.ProjectId,Mainpcb,4d61696e-7063-4622-9e6b-696361645f70,rev?*
G04 #@! TF.SameCoordinates,Original*
G04 #@! TF.FileFunction,Soldermask,Bot*
G04 #@! TF.FilePolarity,Negative*
%FSLAX46Y46*%
G04 Gerber Fmt 4.6, Leading zero omitted, Abs format (unit mm)*
G04 Created by KiCad (PCBNEW (5.1.9)-1) date 2021-06-18 19:30:07*
%MOMM*%
%LPD*%
G01*
G04 APERTURE LIST*
%ADD10C,3.048000*%
%ADD11C,3.987800*%
%ADD12C,3.500000*%
%ADD13C,5.300000*%
%ADD14C,2.200000*%
%ADD15C,1.600000*%
%ADD16R,1.600000X1.600000*%
%ADD17R,1.200000X1.200000*%
%ADD18R,2.000000X2.000000*%
%ADD19C,2.000000*%
%ADD20R,3.200000X2.000000*%
%ADD21R,2.550000X2.500000*%
%ADD22C,3.000000*%
%ADD23C,1.701800*%
%ADD24R,1.752600X1.752600*%
%ADD25C,1.752600*%
G04 APERTURE END LIST*
D10*
X147647000Y-100173000D03*
X171447000Y-100173000D03*
D11*
X147647000Y-115413000D03*
X171447000Y-115413000D03*
D12*
X273850000Y-116684000D03*
X273850000Y-21431700D03*
X197648000Y-116684000D03*
X197648000Y-59532500D03*
X197648000Y-21431700D03*
X121446000Y-116684000D03*
X121446000Y-59532500D03*
X121446000Y-21431700D03*
X45244700Y-116684000D03*
X45244700Y-21431700D03*
D13*
X30956900Y-28575600D03*
D14*
X269087000Y-116684000D03*
X269087000Y-21431700D03*
X159547000Y-116684000D03*
X159547000Y-59532500D03*
X159547000Y-21431700D03*
X50007300Y-116684000D03*
X50007300Y-21431700D03*
X30956900Y-61913800D03*
X21431700Y-116684000D03*
X21431700Y-21431700D03*
D15*
X45244700Y-69920300D03*
D16*
X45244700Y-77720300D03*
D17*
X45244700Y-75395300D03*
X45244700Y-72245300D03*
D15*
X263462000Y-116683000D03*
D16*
X255662000Y-116683000D03*
D17*
X257987000Y-116683000D03*
X261137000Y-116683000D03*
D15*
X249174000Y-116684000D03*
D16*
X241374000Y-116684000D03*
D17*
X243699000Y-116684000D03*
X246849000Y-116684000D03*
D15*
X230124000Y-116683000D03*
D16*
X222324000Y-116683000D03*
D17*
X224649000Y-116683000D03*
X227799000Y-116683000D03*
D15*
X211073000Y-116684000D03*
D16*
X203273000Y-116684000D03*
D17*
X205598000Y-116684000D03*
X208748000Y-116684000D03*
D15*
X192023000Y-116683000D03*
D16*
X184223000Y-116683000D03*
D17*
X186548000Y-116683000D03*
X189698000Y-116683000D03*
D15*
X177735000Y-111921000D03*
D16*
X169935000Y-111921000D03*
D17*
X172260000Y-111921000D03*
X175410000Y-111921000D03*
D15*
X134872000Y-116684000D03*
D16*
X127072000Y-116684000D03*
D17*
X129397000Y-116684000D03*
X132547000Y-116684000D03*
D15*
X115821000Y-116683000D03*
D16*
X108021000Y-116683000D03*
D17*
X110346000Y-116683000D03*
X113496000Y-116683000D03*
D15*
X96770700Y-116684000D03*
D16*
X88970700Y-116684000D03*
D17*
X91295700Y-116684000D03*
X94445700Y-116684000D03*
D15*
X77720300Y-116683000D03*
D16*
X69920300Y-116683000D03*
D17*
X72245300Y-116683000D03*
X75395300Y-116683000D03*
D15*
X63432500Y-116684000D03*
D16*
X55632500Y-116684000D03*
D17*
X57957500Y-116684000D03*
X61107500Y-116684000D03*
D15*
X268224000Y-97633300D03*
D16*
X260424000Y-97633300D03*
D17*
X262749000Y-97633300D03*
X265899000Y-97633300D03*
D15*
X249174000Y-97633300D03*
D16*
X241374000Y-97633300D03*
D17*
X243699000Y-97633300D03*
X246849000Y-97633300D03*
D15*
X230124000Y-97633300D03*
D16*
X222324000Y-97633300D03*
D17*
X224649000Y-97633300D03*
X227799000Y-97633300D03*
D15*
X211073000Y-97633300D03*
D16*
X203273000Y-97633300D03*
D17*
X205598000Y-97633300D03*
X208748000Y-97633300D03*
D15*
X192023000Y-97633300D03*
D16*
X184223000Y-97633300D03*
D17*
X186548000Y-97633300D03*
X189698000Y-97633300D03*
D15*
X172972000Y-97633300D03*
D16*
X165172000Y-97633300D03*
D17*
X167497000Y-97633300D03*
X170647000Y-97633300D03*
D15*
X153922000Y-97633300D03*
D16*
X146122000Y-97633300D03*
D17*
X148447000Y-97633300D03*
X151597000Y-97633300D03*
D15*
X134872000Y-97633300D03*
D16*
X127072000Y-97633300D03*
D17*
X129397000Y-97633300D03*
X132547000Y-97633300D03*
D15*
X115821000Y-97633300D03*
D16*
X108021000Y-97633300D03*
D17*
X110346000Y-97633300D03*
X113496000Y-97633300D03*
D15*
X96770700Y-97633300D03*
D16*
X88970700Y-97633300D03*
D17*
X91295700Y-97633300D03*
X94445700Y-97633300D03*
D15*
X77720300Y-97633300D03*
D16*
X69920300Y-97633300D03*
D17*
X72245300Y-97633300D03*
X75395300Y-97633300D03*
D15*
X58669900Y-97633300D03*
D16*
X50869900Y-97633300D03*
D17*
X53194900Y-97633300D03*
X56344900Y-97633300D03*
D15*
X268224000Y-78582900D03*
D16*
X260424000Y-78582900D03*
D17*
X262749000Y-78582900D03*
X265899000Y-78582900D03*
D15*
X249174000Y-78582900D03*
D16*
X241374000Y-78582900D03*
D17*
X243699000Y-78582900D03*
X246849000Y-78582900D03*
D15*
X230124000Y-78582900D03*
D16*
X222324000Y-78582900D03*
D17*
X224649000Y-78582900D03*
X227799000Y-78582900D03*
D15*
X211073000Y-78582900D03*
D16*
X203273000Y-78582900D03*
D17*
X205598000Y-78582900D03*
X208748000Y-78582900D03*
D15*
X192023000Y-78582900D03*
D16*
X184223000Y-78582900D03*
D17*
X186548000Y-78582900D03*
X189698000Y-78582900D03*
D15*
X172972000Y-78582900D03*
D16*
X165172000Y-78582900D03*
D17*
X167497000Y-78582900D03*
X170647000Y-78582900D03*
D15*
X153922000Y-78582900D03*
D16*
X146122000Y-78582900D03*
D17*
X148447000Y-78582900D03*
X151597000Y-78582900D03*
D15*
X134872000Y-78582900D03*
D16*
X127072000Y-78582900D03*
D17*
X129397000Y-78582900D03*
X132547000Y-78582900D03*
D15*
X115821000Y-78582900D03*
D16*
X108021000Y-78582900D03*
D17*
X110346000Y-78582900D03*
X113496000Y-78582900D03*
D15*
X96770700Y-78582900D03*
D16*
X88970700Y-78582900D03*
D17*
X91295700Y-78582900D03*
X94445700Y-78582900D03*
D15*
X77720300Y-78582900D03*
D16*
X69920300Y-78582900D03*
D17*
X72245300Y-78582900D03*
X75395300Y-78582900D03*
D15*
X58669900Y-78582900D03*
D16*
X50869900Y-78582900D03*
D17*
X53194900Y-78582900D03*
X56344900Y-78582900D03*
D15*
X268224000Y-59532500D03*
D16*
X260424000Y-59532500D03*
D17*
X262749000Y-59532500D03*
X265899000Y-59532500D03*
X246849000Y-59532500D03*
X243699000Y-59532500D03*
D16*
X241374000Y-59532500D03*
D15*
X249174000Y-59532500D03*
X230124000Y-59532500D03*
D16*
X222324000Y-59532500D03*
D17*
X224649000Y-59532500D03*
X227799000Y-59532500D03*
D15*
X211073000Y-59532500D03*
D16*
X203273000Y-59532500D03*
D17*
X205598000Y-59532500D03*
X208748000Y-59532500D03*
D15*
X192023000Y-59532500D03*
D16*
X184223000Y-59532500D03*
D17*
X186548000Y-59532500D03*
X189698000Y-59532500D03*
D15*
X172972000Y-59532500D03*
D16*
X165172000Y-59532500D03*
D17*
X167497000Y-59532500D03*
X170647000Y-59532500D03*
D15*
X153922000Y-59532500D03*
D16*
X146122000Y-59532500D03*
D17*
X148447000Y-59532500D03*
X151597000Y-59532500D03*
D15*
X134872000Y-59532500D03*
D16*
X127072000Y-59532500D03*
D17*
X129397000Y-59532500D03*
X132547000Y-59532500D03*
D15*
X115821000Y-59532500D03*
D16*
X108021000Y-59532500D03*
D17*
X110346000Y-59532500D03*
X113496000Y-59532500D03*
D15*
X96770700Y-59532500D03*
D16*
X88970700Y-59532500D03*
D17*
X91295700Y-59532500D03*
X94445700Y-59532500D03*
D15*
X77720300Y-59532500D03*
D16*
X69920300Y-59532500D03*
D17*
X72245300Y-59532500D03*
X75395300Y-59532500D03*
D15*
X58669900Y-59532500D03*
D16*
X50869900Y-59532500D03*
D17*
X53194900Y-59532500D03*
X56344900Y-59532500D03*
D15*
X268224000Y-40482100D03*
D16*
X260424000Y-40482100D03*
D17*
X262749000Y-40482100D03*
X265899000Y-40482100D03*
D15*
X249174000Y-40482100D03*
D16*
X241374000Y-40482100D03*
D17*
X243699000Y-40482100D03*
X246849000Y-40482100D03*
D15*
X230124000Y-40482100D03*
D16*
X222324000Y-40482100D03*
D17*
X224649000Y-40482100D03*
X227799000Y-40482100D03*
D15*
X211073000Y-40482100D03*
D16*
X203273000Y-40482100D03*
D17*
X205598000Y-40482100D03*
X208748000Y-40482100D03*
D15*
X192023000Y-40482100D03*
D16*
X184223000Y-40482100D03*
D17*
X186548000Y-40482100D03*
X189698000Y-40482100D03*
D15*
X172972000Y-40482100D03*
D16*
X165172000Y-40482100D03*
D17*
X167497000Y-40482100D03*
X170647000Y-40482100D03*
D15*
X153922000Y-40482100D03*
D16*
X146122000Y-40482100D03*
D17*
X148447000Y-40482100D03*
X151597000Y-40482100D03*
D15*
X134872000Y-40482100D03*
D16*
X127072000Y-40482100D03*
D17*
X129397000Y-40482100D03*
X132547000Y-40482100D03*
D15*
X115821000Y-40482100D03*
D16*
X108021000Y-40482100D03*
D17*
X110346000Y-40482100D03*
X113496000Y-40482100D03*
D15*
X96770700Y-40482100D03*
D16*
X88970700Y-40482100D03*
D17*
X91295700Y-40482100D03*
X94445700Y-40482100D03*
D15*
X77720300Y-40482100D03*
D16*
X69920300Y-40482100D03*
D17*
X72245300Y-40482100D03*
X75395300Y-40482100D03*
D15*
X58669900Y-40482100D03*
D16*
X50869900Y-40482100D03*
D17*
X53194900Y-40482100D03*
X56344900Y-40482100D03*
D18*
X23456900Y-68939000D03*
D19*
X23456900Y-71439000D03*
X23456900Y-73939000D03*
D20*
X30956900Y-77039000D03*
D19*
X37956900Y-68939000D03*
X37956900Y-73939000D03*
D20*
X30956900Y-65839000D03*
D21*
X270610000Y-102077000D03*
D22*
X266860000Y-102077000D03*
X260510000Y-104617000D03*
D11*
X264320000Y-107157000D03*
D23*
X269400000Y-107157000D03*
X259240000Y-107157000D03*
D21*
X256760000Y-104617000D03*
X251560000Y-102077000D03*
D22*
X247810000Y-102077000D03*
X241460000Y-104617000D03*
D11*
X245270000Y-107157000D03*
D23*
X250350000Y-107157000D03*
X240190000Y-107157000D03*
D21*
X237710000Y-104617000D03*
X232510000Y-102077000D03*
D22*
X228760000Y-102077000D03*
X222410000Y-104617000D03*
D11*
X226220000Y-107157000D03*
D23*
X231300000Y-107157000D03*
X221140000Y-107157000D03*
D21*
X218660000Y-104617000D03*
X213460000Y-102077000D03*
D22*
X209710000Y-102077000D03*
X203360000Y-104617000D03*
D11*
X207170000Y-107157000D03*
D23*
X212250000Y-107157000D03*
X202090000Y-107157000D03*
D21*
X199610000Y-104617000D03*
X194410000Y-102077000D03*
D22*
X190660000Y-102077000D03*
X184310000Y-104617000D03*
D11*
X188120000Y-107157000D03*
D23*
X193200000Y-107157000D03*
X183040000Y-107157000D03*
D21*
X180560000Y-104617000D03*
X165835000Y-102077000D03*
D22*
X162085000Y-102077000D03*
X155735000Y-104617000D03*
D11*
X159545000Y-107157000D03*
D23*
X164625000Y-107157000D03*
X154465000Y-107157000D03*
D21*
X151985000Y-104617000D03*
X137260000Y-102077000D03*
D22*
X133510000Y-102077000D03*
X127160000Y-104617000D03*
D11*
X130970000Y-107157000D03*
D23*
X136050000Y-107157000D03*
X125890000Y-107157000D03*
D21*
X123410000Y-104617000D03*
X118210000Y-102077000D03*
D22*
X114460000Y-102077000D03*
X108110000Y-104617000D03*
D11*
X111920000Y-107157000D03*
D23*
X117000000Y-107157000D03*
X106840000Y-107157000D03*
D21*
X104360000Y-104617000D03*
X99159700Y-102077000D03*
D22*
X95409700Y-102077000D03*
X89059700Y-104617000D03*
D11*
X92869700Y-107157000D03*
D23*
X97949700Y-107157000D03*
X87789700Y-107157000D03*
D21*
X85309700Y-104617000D03*
X80109700Y-102077000D03*
D22*
X76359700Y-102077000D03*
X70009700Y-104617000D03*
D11*
X73819700Y-107157000D03*
D23*
X78899700Y-107157000D03*
X68739700Y-107157000D03*
D21*
X66259700Y-104617000D03*
X61059700Y-102077000D03*
D22*
X57309700Y-102077000D03*
X50959700Y-104617000D03*
D11*
X54769700Y-107157000D03*
D23*
X59849700Y-107157000D03*
X49689700Y-107157000D03*
D21*
X47209700Y-104617000D03*
X270610000Y-83026700D03*
D22*
X266860000Y-83026700D03*
X260510000Y-85566700D03*
D11*
X264320000Y-88106700D03*
D23*
X269400000Y-88106700D03*
X259240000Y-88106700D03*
D21*
X256760000Y-85566700D03*
X251560000Y-83026700D03*
D22*
X247810000Y-83026700D03*
X241460000Y-85566700D03*
D11*
X245270000Y-88106700D03*
D23*
X250350000Y-88106700D03*
X240190000Y-88106700D03*
D21*
X237710000Y-85566700D03*
X232510000Y-83026700D03*
D22*
X228760000Y-83026700D03*
X222410000Y-85566700D03*
D11*
X226220000Y-88106700D03*
D23*
X231300000Y-88106700D03*
X221140000Y-88106700D03*
D21*
X218660000Y-85566700D03*
X213460000Y-83026700D03*
D22*
X209710000Y-83026700D03*
X203360000Y-85566700D03*
D11*
X207170000Y-88106700D03*
D23*
X212250000Y-88106700D03*
X202090000Y-88106700D03*
D21*
X199610000Y-85566700D03*
X194410000Y-83026700D03*
D22*
X190660000Y-83026700D03*
X184310000Y-85566700D03*
D11*
X188120000Y-88106700D03*
D23*
X193200000Y-88106700D03*
X183040000Y-88106700D03*
D21*
X180560000Y-85566700D03*
X175360000Y-83026700D03*
D22*
X171610000Y-83026700D03*
X165260000Y-85566700D03*
D11*
X169070000Y-88106700D03*
D23*
X174150000Y-88106700D03*
X163990000Y-88106700D03*
D21*
X161510000Y-85566700D03*
X156310000Y-83026700D03*
D22*
X152560000Y-83026700D03*
X146210000Y-85566700D03*
D11*
X150020000Y-88106700D03*
D23*
X155100000Y-88106700D03*
X144940000Y-88106700D03*
D21*
X142460000Y-85566700D03*
X137260000Y-83026700D03*
D22*
X133510000Y-83026700D03*
X127160000Y-85566700D03*
D11*
X130970000Y-88106700D03*
D23*
X136050000Y-88106700D03*
X125890000Y-88106700D03*
D21*
X123410000Y-85566700D03*
X118210000Y-83026700D03*
D22*
X114460000Y-83026700D03*
X108110000Y-85566700D03*
D11*
X111920000Y-88106700D03*
D23*
X117000000Y-88106700D03*
X106840000Y-88106700D03*
D21*
X104360000Y-85566700D03*
X99159700Y-83026700D03*
D22*
X95409700Y-83026700D03*
X89059700Y-85566700D03*
D11*
X92869700Y-88106700D03*
D23*
X97949700Y-88106700D03*
X87789700Y-88106700D03*
D21*
X85309700Y-85566700D03*
X80109700Y-83026700D03*
D22*
X76359700Y-83026700D03*
X70009700Y-85566700D03*
D11*
X73819700Y-88106700D03*
D23*
X78899700Y-88106700D03*
X68739700Y-88106700D03*
D21*
X66259700Y-85566700D03*
X61059700Y-83026700D03*
D22*
X57309700Y-83026700D03*
X50959700Y-85566700D03*
D11*
X54769700Y-88106700D03*
D23*
X59849700Y-88106700D03*
X49689700Y-88106700D03*
D21*
X47209700Y-85566700D03*
X270610000Y-63976700D03*
D22*
X266860000Y-63976700D03*
X260510000Y-66516700D03*
D11*
X264320000Y-69056700D03*
D23*
X269400000Y-69056700D03*
X259240000Y-69056700D03*
D21*
X256760000Y-66516700D03*
X251560000Y-63976700D03*
D22*
X247810000Y-63976700D03*
X241460000Y-66516700D03*
D11*
X245270000Y-69056700D03*
D23*
X250350000Y-69056700D03*
X240190000Y-69056700D03*
D21*
X237710000Y-66516700D03*
X232510000Y-63976700D03*
D22*
X228760000Y-63976700D03*
X222410000Y-66516700D03*
D11*
X226220000Y-69056700D03*
D23*
X231300000Y-69056700D03*
X221140000Y-69056700D03*
D21*
X218660000Y-66516700D03*
X213460000Y-63976700D03*
D22*
X209710000Y-63976700D03*
X203360000Y-66516700D03*
D11*
X207170000Y-69056700D03*
D23*
X212250000Y-69056700D03*
X202090000Y-69056700D03*
D21*
X199610000Y-66516700D03*
X194410000Y-63976700D03*
D22*
X190660000Y-63976700D03*
X184310000Y-66516700D03*
D11*
X188120000Y-69056700D03*
D23*
X193200000Y-69056700D03*
X183040000Y-69056700D03*
D21*
X180560000Y-66516700D03*
X175360000Y-63976700D03*
D22*
X171610000Y-63976700D03*
X165260000Y-66516700D03*
D11*
X169070000Y-69056700D03*
D23*
X174150000Y-69056700D03*
X163990000Y-69056700D03*
D21*
X161510000Y-66516700D03*
X156310000Y-63976700D03*
D22*
X152560000Y-63976700D03*
X146210000Y-66516700D03*
D11*
X150020000Y-69056700D03*
D23*
X155100000Y-69056700D03*
X144940000Y-69056700D03*
D21*
X142460000Y-66516700D03*
X137260000Y-63976700D03*
D22*
X133510000Y-63976700D03*
X127160000Y-66516700D03*
D11*
X130970000Y-69056700D03*
D23*
X136050000Y-69056700D03*
X125890000Y-69056700D03*
D21*
X123410000Y-66516700D03*
X118210000Y-63976700D03*
D22*
X114460000Y-63976700D03*
X108110000Y-66516700D03*
D11*
X111920000Y-69056700D03*
D23*
X117000000Y-69056700D03*
X106840000Y-69056700D03*
D21*
X104360000Y-66516700D03*
X99159700Y-63976700D03*
D22*
X95409700Y-63976700D03*
X89059700Y-66516700D03*
D11*
X92869700Y-69056700D03*
D23*
X97949700Y-69056700D03*
X87789700Y-69056700D03*
D21*
X85309700Y-66516700D03*
X80109700Y-63976700D03*
D22*
X76359700Y-63976700D03*
X70009700Y-66516700D03*
D11*
X73819700Y-69056700D03*
D23*
X78899700Y-69056700D03*
X68739700Y-69056700D03*
D21*
X66259700Y-66516700D03*
X61059700Y-63976700D03*
D22*
X57309700Y-63976700D03*
X50959700Y-66516700D03*
D11*
X54769700Y-69056700D03*
D23*
X59849700Y-69056700D03*
X49689700Y-69056700D03*
D21*
X47209700Y-66516700D03*
X270610000Y-44926700D03*
D22*
X266860000Y-44926700D03*
X260510000Y-47466700D03*
D11*
X264320000Y-50006700D03*
D23*
X269400000Y-50006700D03*
X259240000Y-50006700D03*
D21*
X256760000Y-47466700D03*
X251560000Y-44926700D03*
D22*
X247810000Y-44926700D03*
X241460000Y-47466700D03*
D11*
X245270000Y-50006700D03*
D23*
X250350000Y-50006700D03*
X240190000Y-50006700D03*
D21*
X237710000Y-47466700D03*
X232510000Y-44926700D03*
D22*
X228760000Y-44926700D03*
X222410000Y-47466700D03*
D11*
X226220000Y-50006700D03*
D23*
X231300000Y-50006700D03*
X221140000Y-50006700D03*
D21*
X218660000Y-47466700D03*
X213460000Y-44926700D03*
D22*
X209710000Y-44926700D03*
X203360000Y-47466700D03*
D11*
X207170000Y-50006700D03*
D23*
X212250000Y-50006700D03*
X202090000Y-50006700D03*
D21*
X199610000Y-47466700D03*
X194410000Y-44926700D03*
D22*
X190660000Y-44926700D03*
X184310000Y-47466700D03*
D11*
X188120000Y-50006700D03*
D23*
X193200000Y-50006700D03*
X183040000Y-50006700D03*
D21*
X180560000Y-47466700D03*
X175360000Y-44926700D03*
D22*
X171610000Y-44926700D03*
X165260000Y-47466700D03*
D11*
X169070000Y-50006700D03*
D23*
X174150000Y-50006700D03*
X163990000Y-50006700D03*
D21*
X161510000Y-47466700D03*
X156310000Y-44926700D03*
D22*
X152560000Y-44926700D03*
X146210000Y-47466700D03*
D11*
X150020000Y-50006700D03*
D23*
X155100000Y-50006700D03*
X144940000Y-50006700D03*
D21*
X142460000Y-47466700D03*
X137260000Y-44926700D03*
D22*
X133510000Y-44926700D03*
X127160000Y-47466700D03*
D11*
X130970000Y-50006700D03*
D23*
X136050000Y-50006700D03*
X125890000Y-50006700D03*
D21*
X123410000Y-47466700D03*
X118210000Y-44926700D03*
D22*
X114460000Y-44926700D03*
X108110000Y-47466700D03*
D11*
X111920000Y-50006700D03*
D23*
X117000000Y-50006700D03*
X106840000Y-50006700D03*
D21*
X104360000Y-47466700D03*
X99159700Y-44926700D03*
D22*
X95409700Y-44926700D03*
X89059700Y-47466700D03*
D11*
X92869700Y-50006700D03*
D23*
X97949700Y-50006700D03*
X87789700Y-50006700D03*
D21*
X85309700Y-47466700D03*
X80109700Y-44926700D03*
D22*
X76359700Y-44926700D03*
X70009700Y-47466700D03*
D11*
X73819700Y-50006700D03*
D23*
X78899700Y-50006700D03*
X68739700Y-50006700D03*
D21*
X66259700Y-47466700D03*
X61059700Y-44926700D03*
D22*
X57309700Y-44926700D03*
X50959700Y-47466700D03*
D11*
X54769700Y-50006700D03*
D23*
X59849700Y-50006700D03*
X49689700Y-50006700D03*
D21*
X47209700Y-47466700D03*
X270610000Y-25876700D03*
D22*
X266860000Y-25876700D03*
X260510000Y-28416700D03*
D11*
X264320000Y-30956700D03*
D23*
X269400000Y-30956700D03*
X259240000Y-30956700D03*
D21*
X256760000Y-28416700D03*
X251560000Y-25876700D03*
D22*
X247810000Y-25876700D03*
X241460000Y-28416700D03*
D11*
X245270000Y-30956700D03*
D23*
X250350000Y-30956700D03*
X240190000Y-30956700D03*
D21*
X237710000Y-28416700D03*
X232510000Y-25876700D03*
D22*
X228760000Y-25876700D03*
X222410000Y-28416700D03*
D11*
X226220000Y-30956700D03*
D23*
X231300000Y-30956700D03*
X221140000Y-30956700D03*
D21*
X218660000Y-28416700D03*
X213460000Y-25876700D03*
D22*
X209710000Y-25876700D03*
X203360000Y-28416700D03*
D11*
X207170000Y-30956700D03*
D23*
X212250000Y-30956700D03*
X202090000Y-30956700D03*
D21*
X199610000Y-28416700D03*
X194410000Y-25876700D03*
D22*
X190660000Y-25876700D03*
X184310000Y-28416700D03*
D11*
X188120000Y-30956700D03*
D23*
X193200000Y-30956700D03*
X183040000Y-30956700D03*
D21*
X180560000Y-28416700D03*
X175360000Y-25876700D03*
D22*
X171610000Y-25876700D03*
X165260000Y-28416700D03*
D11*
X169070000Y-30956700D03*
D23*
X174150000Y-30956700D03*
X163990000Y-30956700D03*
D21*
X161510000Y-28416700D03*
X156310000Y-25876700D03*
D22*
X152560000Y-25876700D03*
X146210000Y-28416700D03*
D11*
X150020000Y-30956700D03*
D23*
X155100000Y-30956700D03*
X144940000Y-30956700D03*
D21*
X142460000Y-28416700D03*
X137260000Y-25876700D03*
D22*
X133510000Y-25876700D03*
X127160000Y-28416700D03*
D11*
X130970000Y-30956700D03*
D23*
X136050000Y-30956700D03*
X125890000Y-30956700D03*
D21*
X123410000Y-28416700D03*
X118210000Y-25876700D03*
D22*
X114460000Y-25876700D03*
X108110000Y-28416700D03*
D11*
X111920000Y-30956700D03*
D23*
X117000000Y-30956700D03*
X106840000Y-30956700D03*
D21*
X104360000Y-28416700D03*
X99159700Y-25876700D03*
D22*
X95409700Y-25876700D03*
X89059700Y-28416700D03*
D11*
X92869700Y-30956700D03*
D23*
X97949700Y-30956700D03*
X87789700Y-30956700D03*
D21*
X85309700Y-28416700D03*
X80109700Y-25876700D03*
D22*
X76359700Y-25876700D03*
X70009700Y-28416700D03*
D11*
X73819700Y-30956700D03*
D23*
X78899700Y-30956700D03*
X68739700Y-30956700D03*
D21*
X66259700Y-28416700D03*
X61059700Y-25876700D03*
D22*
X57309700Y-25876700D03*
X50959700Y-28416700D03*
D11*
X54769700Y-30956700D03*
D23*
X59849700Y-30956700D03*
X49689700Y-30956700D03*
D21*
X47209700Y-28416700D03*
D24*
X38805500Y-28893400D03*
D25*
X38348300Y-31433400D03*
X38805500Y-33973400D03*
X38348300Y-36513400D03*
X38805500Y-39053400D03*
X38348300Y-41593400D03*
X38805500Y-44133400D03*
X38348300Y-46673400D03*
X38805500Y-49213400D03*
X38348300Y-51753400D03*
X38805500Y-54293400D03*
X23565500Y-56833400D03*
X23108300Y-54293400D03*
X23565500Y-51753400D03*
X23108300Y-49213400D03*
X23565500Y-46673400D03*
X23108300Y-44133400D03*
X23565500Y-41593400D03*
X23108300Y-39053400D03*
X23565500Y-36513400D03*
X23108300Y-33973400D03*
X23565500Y-31433400D03*
X38348300Y-56833400D03*
X23108300Y-28893400D03*
M02*
