  0
SECTION
  2
HEADER
  9
$ACADVER
  1
AC1009
  9
$EXTMIN
 10
0.0
 20
0.0
 30
0.0
  9
$EXTMAX
 10
1000.0
 20
1000.0
 30
0.0
  9
$FILLMODE
 70
 0
  9
$SPLFRAME
 70
 1
  0
ENDSEC
  0
SECTION
  2
TABLES
  0
TABLE
  2
LAYER
 70
1
  0
LAYER
  2
0
 70
     0
 62
     7
  6
CONTINUOUS
  0
ENDTAB
  0
ENDSEC
  0
SECTION
  2
ENTITIES
  0
LINE
  8
0
 62
     0
 10
237.696
 20
107.502
 30
0.0
 11
237.932
 21
107.492
 31
0.0
  0
LINE
  8
0
 62
     0
 10
237.932
 20
107.492
 30
0.0
 11
238.165
 21
107.466
 31
0.0
  0
LINE
  8
0
 62
     0
 10
238.165
 20
107.466
 30
0.0
 11
238.397
 21
107.419
 31
0.0
  0
LINE
  8
0
 62
     0
 10
238.397
 20
107.419
 30
0.0
 11
238.624
 21
107.356
 31
0.0
  0
LINE
  8
0
 62
     0
 10
238.624
 20
107.356
 30
0.0
 11
238.844
 21
107.273
 31
0.0
  0
LINE
  8
0
 62
     0
 10
238.844
 20
107.273
 30
0.0
 11
239.058
 21
107.176
 31
0.0
  0
LINE
  8
0
 62
     0
 10
239.058
 20
107.176
 30
0.0
 11
239.263
 21
107.06
 31
0.0
  0
LINE
  8
0
 62
     0
 10
239.263
 20
107.06
 30
0.0
 11
239.459
 21
106.93
 31
0.0
  0
LINE
  8
0
 62
     0
 10
239.459
 20
106.93
 30
0.0
 11
239.645
 21
106.784
 31
0.0
  0
LINE
  8
0
 62
     0
 10
239.645
 20
106.784
 30
0.0
 11
239.817
 21
106.624
 31
0.0
  0
LINE
  8
0
 62
     0
 10
239.817
 20
106.624
 30
0.0
 11
239.977
 21
106.451
 31
0.0
  0
LINE
  8
0
 62
     0
 10
239.977
 20
106.451
 30
0.0
 11
240.123
 21
106.266
 31
0.0
  0
LINE
  8
0
 62
     0
 10
240.123
 20
106.266
 30
0.0
 11
240.254
 21
106.07
 31
0.0
  0
LINE
  8
0
 62
     0
 10
240.254
 20
106.07
 30
0.0
 11
240.37
 21
105.864
 31
0.0
  0
LINE
  8
0
 62
     0
 10
240.37
 20
105.864
 30
0.0
 11
240.468
 21
105.65
 31
0.0
  0
LINE
  8
0
 62
     0
 10
240.468
 20
105.65
 30
0.0
 11
240.549
 21
105.429
 31
0.0
  0
LINE
  8
0
 62
     0
 10
240.549
 20
105.429
 30
0.0
 11
240.614
 21
105.202
 31
0.0
  0
LINE
  8
0
 62
     0
 10
240.614
 20
105.202
 30
0.0
 11
240.659
 21
104.972
 31
0.0
  0
LINE
  8
0
 62
     0
 10
240.659
 20
104.972
 30
0.0
 11
240.687
 21
104.738
 31
0.0
  0
LINE
  8
0
 62
     0
 10
240.687
 20
104.738
 30
0.0
 11
240.696
 21
104.502
 31
0.0
  0
LINE
  8
0
 62
     0
 10
240.696
 20
104.502
 30
0.0
 11
240.696
 21
3.25217
 31
0.0
  0
LINE
  8
0
 62
     0
 10
240.696
 20
3.25217
 30
0.0
 11
240.687
 21
3.01515
 31
0.0
  0
LINE
  8
0
 62
     0
 10
240.687
 20
3.01515
 30
0.0
 11
240.659
 21
2.78226
 31
0.0
  0
LINE
  8
0
 62
     0
 10
240.659
 20
2.78226
 30
0.0
 11
240.614
 21
2.55075
 31
0.0
  0
LINE
  8
0
 62
     0
 10
240.614
 20
2.55075
 30
0.0
 11
240.549
 21
2.32337
 31
0.0
  0
LINE
  8
0
 62
     0
 10
240.549
 20
2.32337
 30
0.0
 11
240.468
 21
2.10289
 31
0.0
  0
LINE
  8
0
 62
     0
 10
240.468
 20
2.10289
 30
0.0
 11
240.37
 21
1.88929
 31
0.0
  0
LINE
  8
0
 62
     0
 10
240.37
 20
1.88929
 30
0.0
 11
240.254
 21
1.68396
 31
0.0
  0
LINE
  8
0
 62
     0
 10
240.254
 20
1.68396
 30
0.0
 11
240.123
 21
1.48828
 31
0.0
  0
LINE
  8
0
 62
     0
 10
240.123
 20
1.48828
 30
0.0
 11
239.977
 21
1.30225
 31
0.0
  0
LINE
  8
0
 62
     0
 10
239.977
 20
1.30225
 30
0.0
 11
239.817
 21
1.12999
 31
0.0
  0
LINE
  8
0
 62
     0
 10
239.817
 20
1.12999
 30
0.0
 11
239.645
 21
0.970139
 31
0.0
  0
LINE
  8
0
 62
     0
 10
239.645
 20
0.970139
 30
0.0
 11
239.459
 21
0.824068
 31
0.0
  0
LINE
  8
0
 62
     0
 10
239.459
 20
0.824068
 30
0.0
 11
239.263
 21
0.693152
 31
0.0
  0
LINE
  8
0
 62
     0
 10
239.263
 20
0.693152
 30
0.0
 11
239.058
 21
0.577398
 31
0.0
  0
LINE
  8
0
 62
     0
 10
239.058
 20
0.577398
 30
0.0
 11
238.844
 21
0.479559
 31
0.0
  0
LINE
  8
0
 62
     0
 10
238.844
 20
0.479559
 30
0.0
 11
238.624
 21
0.398254
 31
0.0
  0
LINE
  8
0
 62
     0
 10
238.624
 20
0.398254
 30
0.0
 11
238.397
 21
0.333485
 31
0.0
  0
LINE
  8
0
 62
     0
 10
238.397
 20
0.333485
 30
0.0
 11
238.165
 21
0.28801
 31
0.0
  0
LINE
  8
0
 62
     0
 10
238.165
 20
0.28801
 30
0.0
 11
237.932
 21
0.260449
 31
0.0
  0
LINE
  8
0
 62
     0
 10
237.932
 20
0.260449
 30
0.0
 11
237.696
 21
0.250803
 31
0.0
  0
LINE
  8
0
 62
     0
 10
237.696
 20
0.250803
 30
0.0
 11
3.09507
 21
0.252181
 31
0.0
  0
LINE
  8
0
 62
     0
 10
3.09507
 20
0.252181
 30
0.0
 11
2.85943
 21
0.260449
 31
0.0
  0
LINE
  8
0
 62
     0
 10
2.85943
 20
0.260449
 30
0.0
 11
2.62516
 21
0.28801
 31
0.0
  0
LINE
  8
0
 62
     0
 10
2.62516
 20
0.28801
 30
0.0
 11
2.39503
 21
0.333485
 31
0.0
  0
LINE
  8
0
 62
     0
 10
2.39503
 20
0.333485
 30
0.0
 11
2.16765
 21
0.398254
 31
0.0
  0
LINE
  8
0
 62
     0
 10
2.16765
 20
0.398254
 30
0.0
 11
1.94717
 21
0.479559
 31
0.0
  0
LINE
  8
0
 62
     0
 10
1.94717
 20
0.479559
 30
0.0
 11
1.73357
 21
0.577398
 31
0.0
  0
LINE
  8
0
 62
     0
 10
1.73357
 20
0.577398
 30
0.0
 11
1.52687
 21
0.693152
 31
0.0
  0
LINE
  8
0
 62
     0
 10
1.52687
 20
0.693152
 30
0.0
 11
1.33119
 21
0.824068
 31
0.0
  0
LINE
  8
0
 62
     0
 10
1.33119
 20
0.824068
 30
0.0
 11
1.14653
 21
0.970139
 31
0.0
  0
LINE
  8
0
 62
     0
 10
1.14653
 20
0.970139
 30
0.0
 11
0.972894
 21
1.12999
 31
0.0
  0
LINE
  8
0
 62
     0
 10
0.972894
 20
1.12999
 30
0.0
 11
0.813043
 21
1.30225
 31
0.0
  0
LINE
  8
0
 62
     0
 10
0.813043
 20
1.30225
 30
0.0
 11
0.666972
 21
1.48828
 31
0.0
  0
LINE
  8
0
 62
     0
 10
0.666972
 20
1.48828
 30
0.0
 11
0.537436
 21
1.68396
 31
0.0
  0
LINE
  8
0
 62
     0
 10
0.537436
 20
1.68396
 30
0.0
 11
0.421679
 21
1.88929
 31
0.0
  0
LINE
  8
0
 62
     0
 10
0.421679
 20
1.88929
 30
0.0
 11
0.323839
 21
2.10289
 31
0.0
  0
LINE
  8
0
 62
     0
 10
0.323839
 20
2.10289
 30
0.0
 11
0.241157
 21
2.32337
 31
0.0
  0
LINE
  8
0
 62
     0
 10
0.241157
 20
2.32337
 30
0.0
 11
0.177767
 21
2.55075
 31
0.0
  0
LINE
  8
0
 62
     0
 10
0.177767
 20
2.55075
 30
0.0
 11
0.130914
 21
2.78226
 31
0.0
  0
LINE
  8
0
 62
     0
 10
0.130914
 20
2.78226
 30
0.0
 11
0.104731
 21
3.01515
 31
0.0
  0
LINE
  8
0
 62
     0
 10
0.104731
 20
3.01515
 30
0.0
 11
0.0950846
 21
3.25217
 31
0.0
  0
LINE
  8
0
 62
     0
 10
0.0950846
 20
3.25217
 30
0.0
 11
0.0950846
 21
104.502
 31
0.0
  0
LINE
  8
0
 62
     0
 10
0.0950846
 20
104.502
 30
0.0
 11
0.104731
 21
104.738
 31
0.0
  0
LINE
  8
0
 62
     0
 10
0.104731
 20
104.738
 30
0.0
 11
0.130914
 21
104.972
 31
0.0
  0
LINE
  8
0
 62
     0
 10
0.130914
 20
104.972
 30
0.0
 11
0.177767
 21
105.202
 31
0.0
  0
LINE
  8
0
 62
     0
 10
0.177767
 20
105.202
 30
0.0
 11
0.241157
 21
105.429
 31
0.0
  0
LINE
  8
0
 62
     0
 10
0.241157
 20
105.429
 30
0.0
 11
0.323839
 21
105.65
 31
0.0
  0
LINE
  8
0
 62
     0
 10
0.323839
 20
105.65
 30
0.0
 11
0.421679
 21
105.864
 31
0.0
  0
LINE
  8
0
 62
     0
 10
0.421679
 20
105.864
 30
0.0
 11
0.537436
 21
106.07
 31
0.0
  0
LINE
  8
0
 62
     0
 10
0.537436
 20
106.07
 30
0.0
 11
0.666972
 21
106.266
 31
0.0
  0
LINE
  8
0
 62
     0
 10
0.666972
 20
106.266
 30
0.0
 11
0.813043
 21
106.451
 31
0.0
  0
LINE
  8
0
 62
     0
 10
0.813043
 20
106.451
 30
0.0
 11
0.972894
 21
106.624
 31
0.0
  0
LINE
  8
0
 62
     0
 10
0.972894
 20
106.624
 30
0.0
 11
1.14653
 21
106.784
 31
0.0
  0
LINE
  8
0
 62
     0
 10
1.14653
 20
106.784
 30
0.0
 11
1.33119
 21
106.93
 31
0.0
  0
LINE
  8
0
 62
     0
 10
1.33119
 20
106.93
 30
0.0
 11
1.52687
 21
107.06
 31
0.0
  0
LINE
  8
0
 62
     0
 10
1.52687
 20
107.06
 30
0.0
 11
1.73357
 21
107.176
 31
0.0
  0
LINE
  8
0
 62
     0
 10
1.73357
 20
107.176
 30
0.0
 11
1.94717
 21
107.273
 31
0.0
  0
LINE
  8
0
 62
     0
 10
1.94717
 20
107.273
 30
0.0
 11
2.16765
 21
107.356
 31
0.0
  0
LINE
  8
0
 62
     0
 10
2.16765
 20
107.356
 30
0.0
 11
2.39503
 21
107.419
 31
0.0
  0
LINE
  8
0
 62
     0
 10
2.39503
 20
107.419
 30
0.0
 11
2.62516
 21
107.466
 31
0.0
  0
LINE
  8
0
 62
     0
 10
2.62516
 20
107.466
 30
0.0
 11
2.85943
 21
107.492
 31
0.0
  0
LINE
  8
0
 62
     0
 10
2.85943
 20
107.492
 30
0.0
 11
3.09507
 21
107.502
 31
0.0
  0
LINE
  8
0
 62
     0
 10
3.09507
 20
107.502
 30
0.0
 11
237.696
 21
107.502
 31
0.0
  0
LINE
  8
0
 62
     0
 10
2.75608
 20
4.2981
 30
0.0
 11
2.44878
 21
4.14101
 31
0.0
  0
LINE
  8
0
 62
     0
 10
2.44878
 20
4.14101
 30
0.0
 11
2.20486
 21
3.8971
 31
0.0
  0
LINE
  8
0
 62
     0
 10
2.20486
 20
3.8971
 30
0.0
 11
2.04914
 21
3.59117
 31
0.0
  0
LINE
  8
0
 62
     0
 10
2.04914
 20
3.59117
 30
0.0
 11
1.9954
 21
3.25079
 31
0.0
  0
LINE
  8
0
 62
     0
 10
1.9954
 20
3.25079
 30
0.0
 11
2.04914
 21
2.9118
 31
0.0
  0
LINE
  8
0
 62
     0
 10
2.04914
 20
2.9118
 30
0.0
 11
2.20486
 21
2.60449
 31
0.0
  0
LINE
  8
0
 62
     0
 10
2.20486
 20
2.60449
 30
0.0
 11
2.44878
 21
2.36196
 31
0.0
  0
LINE
  8
0
 62
     0
 10
2.44878
 20
2.36196
 30
0.0
 11
2.75608
 21
2.20486
 31
0.0
  0
LINE
  8
0
 62
     0
 10
2.75608
 20
2.20486
 30
0.0
 11
3.09507
 21
2.15112
 31
0.0
  0
LINE
  8
0
 62
     0
 10
3.09507
 20
2.15112
 30
0.0
 11
3.43407
 21
2.20486
 31
0.0
  0
LINE
  8
0
 62
     0
 10
3.43407
 20
2.20486
 30
0.0
 11
3.74138
 21
2.36196
 31
0.0
  0
LINE
  8
0
 62
     0
 10
3.74138
 20
2.36196
 30
0.0
 11
3.98392
 21
2.60449
 31
0.0
  0
LINE
  8
0
 62
     0
 10
3.98392
 20
2.60449
 30
0.0
 11
4.14101
 21
2.9118
 31
0.0
  0
LINE
  8
0
 62
     0
 10
4.14101
 20
2.9118
 30
0.0
 11
4.19612
 21
3.25079
 31
0.0
  0
LINE
  8
0
 62
     0
 10
4.19612
 20
3.25079
 30
0.0
 11
4.14101
 21
3.59117
 31
0.0
  0
LINE
  8
0
 62
     0
 10
4.14101
 20
3.59117
 30
0.0
 11
3.98392
 21
3.8971
 31
0.0
  0
LINE
  8
0
 62
     0
 10
3.98392
 20
3.8971
 30
0.0
 11
3.74138
 21
4.14101
 31
0.0
  0
LINE
  8
0
 62
     0
 10
3.74138
 20
4.14101
 30
0.0
 11
3.43407
 21
4.2981
 31
0.0
  0
LINE
  8
0
 62
     0
 10
3.43407
 20
4.2981
 30
0.0
 11
3.09507
 21
4.35046
 31
0.0
  0
LINE
  8
0
 62
     0
 10
3.09507
 20
4.35046
 30
0.0
 11
2.75608
 21
4.2981
 31
0.0
  0
LINE
  8
0
 62
     0
 10
80.9554
 20
4.2981
 30
0.0
 11
80.6482
 21
4.14101
 31
0.0
  0
LINE
  8
0
 62
     0
 10
80.6482
 20
4.14101
 30
0.0
 11
80.4058
 21
3.8971
 31
0.0
  0
LINE
  8
0
 62
     0
 10
80.4058
 20
3.8971
 30
0.0
 11
80.2499
 21
3.59117
 31
0.0
  0
LINE
  8
0
 62
     0
 10
80.2499
 20
3.59117
 30
0.0
 11
80.1949
 21
3.25079
 31
0.0
  0
LINE
  8
0
 62
     0
 10
80.1949
 20
3.25079
 30
0.0
 11
80.2499
 21
2.9118
 31
0.0
  0
LINE
  8
0
 62
     0
 10
80.2499
 20
2.9118
 30
0.0
 11
80.4058
 21
2.60449
 31
0.0
  0
LINE
  8
0
 62
     0
 10
80.4058
 20
2.60449
 30
0.0
 11
80.6482
 21
2.36196
 31
0.0
  0
LINE
  8
0
 62
     0
 10
80.6482
 20
2.36196
 30
0.0
 11
80.9554
 21
2.20486
 31
0.0
  0
LINE
  8
0
 62
     0
 10
80.9554
 20
2.20486
 30
0.0
 11
81.2959
 21
2.15112
 31
0.0
  0
LINE
  8
0
 62
     0
 10
81.2959
 20
2.15112
 30
0.0
 11
81.6349
 21
2.20486
 31
0.0
  0
LINE
  8
0
 62
     0
 10
81.6349
 20
2.20486
 30
0.0
 11
81.9408
 21
2.36196
 31
0.0
  0
LINE
  8
0
 62
     0
 10
81.9408
 20
2.36196
 30
0.0
 11
82.1849
 21
2.60449
 31
0.0
  0
LINE
  8
0
 62
     0
 10
82.1849
 20
2.60449
 30
0.0
 11
82.3419
 21
2.9118
 31
0.0
  0
LINE
  8
0
 62
     0
 10
82.3419
 20
2.9118
 30
0.0
 11
82.3958
 21
3.25079
 31
0.0
  0
LINE
  8
0
 62
     0
 10
82.3958
 20
3.25079
 30
0.0
 11
82.3419
 21
3.59117
 31
0.0
  0
LINE
  8
0
 62
     0
 10
82.3419
 20
3.59117
 30
0.0
 11
82.1849
 21
3.8971
 31
0.0
  0
LINE
  8
0
 62
     0
 10
82.1849
 20
3.8971
 30
0.0
 11
81.9408
 21
4.14101
 31
0.0
  0
LINE
  8
0
 62
     0
 10
81.9408
 20
4.14101
 30
0.0
 11
81.6349
 21
4.2981
 31
0.0
  0
LINE
  8
0
 62
     0
 10
81.6349
 20
4.2981
 30
0.0
 11
81.2959
 21
4.35046
 31
0.0
  0
LINE
  8
0
 62
     0
 10
81.2959
 20
4.35046
 30
0.0
 11
80.9554
 21
4.2981
 31
0.0
  0
LINE
  8
0
 62
     0
 10
159.155
 20
4.2981
 30
0.0
 11
158.849
 21
4.14101
 31
0.0
  0
LINE
  8
0
 62
     0
 10
158.849
 20
4.14101
 30
0.0
 11
158.605
 21
3.8971
 31
0.0
  0
LINE
  8
0
 62
     0
 10
158.605
 20
3.8971
 30
0.0
 11
158.449
 21
3.59117
 31
0.0
  0
LINE
  8
0
 62
     0
 10
158.449
 20
3.59117
 30
0.0
 11
158.396
 21
3.25079
 31
0.0
  0
LINE
  8
0
 62
     0
 10
158.396
 20
3.25079
 30
0.0
 11
158.449
 21
2.9118
 31
0.0
  0
LINE
  8
0
 62
     0
 10
158.449
 20
2.9118
 30
0.0
 11
158.605
 21
2.60449
 31
0.0
  0
LINE
  8
0
 62
     0
 10
158.605
 20
2.60449
 30
0.0
 11
158.849
 21
2.36196
 31
0.0
  0
LINE
  8
0
 62
     0
 10
158.849
 20
2.36196
 30
0.0
 11
159.155
 21
2.20486
 31
0.0
  0
LINE
  8
0
 62
     0
 10
159.155
 20
2.20486
 30
0.0
 11
159.495
 21
2.15112
 31
0.0
  0
LINE
  8
0
 62
     0
 10
159.495
 20
2.15112
 30
0.0
 11
159.836
 21
2.20486
 31
0.0
  0
LINE
  8
0
 62
     0
 10
159.836
 20
2.20486
 30
0.0
 11
160.142
 21
2.36196
 31
0.0
  0
LINE
  8
0
 62
     0
 10
160.142
 20
2.36196
 30
0.0
 11
160.386
 21
2.60449
 31
0.0
  0
LINE
  8
0
 62
     0
 10
160.386
 20
2.60449
 30
0.0
 11
160.541
 21
2.9118
 31
0.0
  0
LINE
  8
0
 62
     0
 10
160.541
 20
2.9118
 30
0.0
 11
160.595
 21
3.25079
 31
0.0
  0
LINE
  8
0
 62
     0
 10
160.595
 20
3.25079
 30
0.0
 11
160.541
 21
3.59117
 31
0.0
  0
LINE
  8
0
 62
     0
 10
160.541
 20
3.59117
 30
0.0
 11
160.386
 21
3.8971
 31
0.0
  0
LINE
  8
0
 62
     0
 10
160.386
 20
3.8971
 30
0.0
 11
160.142
 21
4.14101
 31
0.0
  0
LINE
  8
0
 62
     0
 10
160.142
 20
4.14101
 30
0.0
 11
159.836
 21
4.2981
 31
0.0
  0
LINE
  8
0
 62
     0
 10
159.836
 20
4.2981
 30
0.0
 11
159.495
 21
4.35046
 31
0.0
  0
LINE
  8
0
 62
     0
 10
159.495
 20
4.35046
 30
0.0
 11
159.155
 21
4.2981
 31
0.0
  0
LINE
  8
0
 62
     0
 10
237.356
 20
4.2981
 30
0.0
 11
237.05
 21
4.14101
 31
0.0
  0
LINE
  8
0
 62
     0
 10
237.05
 20
4.14101
 30
0.0
 11
236.806
 21
3.8971
 31
0.0
  0
LINE
  8
0
 62
     0
 10
236.806
 20
3.8971
 30
0.0
 11
236.649
 21
3.59117
 31
0.0
  0
LINE
  8
0
 62
     0
 10
236.649
 20
3.59117
 30
0.0
 11
236.597
 21
3.25079
 31
0.0
  0
LINE
  8
0
 62
     0
 10
236.597
 20
3.25079
 30
0.0
 11
236.649
 21
2.9118
 31
0.0
  0
LINE
  8
0
 62
     0
 10
236.649
 20
2.9118
 30
0.0
 11
236.806
 21
2.60449
 31
0.0
  0
LINE
  8
0
 62
     0
 10
236.806
 20
2.60449
 30
0.0
 11
237.05
 21
2.36196
 31
0.0
  0
LINE
  8
0
 62
     0
 10
237.05
 20
2.36196
 30
0.0
 11
237.356
 21
2.20486
 31
0.0
  0
LINE
  8
0
 62
     0
 10
237.356
 20
2.20486
 30
0.0
 11
237.696
 21
2.15112
 31
0.0
  0
LINE
  8
0
 62
     0
 10
237.696
 20
2.15112
 30
0.0
 11
238.035
 21
2.20486
 31
0.0
  0
LINE
  8
0
 62
     0
 10
238.035
 20
2.20486
 30
0.0
 11
238.343
 21
2.36196
 31
0.0
  0
LINE
  8
0
 62
     0
 10
238.343
 20
2.36196
 30
0.0
 11
238.585
 21
2.60449
 31
0.0
  0
LINE
  8
0
 62
     0
 10
238.585
 20
2.60449
 30
0.0
 11
238.742
 21
2.9118
 31
0.0
  0
LINE
  8
0
 62
     0
 10
238.742
 20
2.9118
 30
0.0
 11
238.796
 21
3.25079
 31
0.0
  0
LINE
  8
0
 62
     0
 10
238.796
 20
3.25079
 30
0.0
 11
238.742
 21
3.59117
 31
0.0
  0
LINE
  8
0
 62
     0
 10
238.742
 20
3.59117
 30
0.0
 11
238.585
 21
3.8971
 31
0.0
  0
LINE
  8
0
 62
     0
 10
238.585
 20
3.8971
 30
0.0
 11
238.343
 21
4.14101
 31
0.0
  0
LINE
  8
0
 62
     0
 10
238.343
 20
4.14101
 30
0.0
 11
238.035
 21
4.2981
 31
0.0
  0
LINE
  8
0
 62
     0
 10
238.035
 20
4.2981
 30
0.0
 11
237.696
 21
4.35046
 31
0.0
  0
LINE
  8
0
 62
     0
 10
237.696
 20
4.35046
 30
0.0
 11
237.356
 21
4.2981
 31
0.0
  0
LINE
  8
0
 62
     0
 10
2.75608
 20
105.548
 30
0.0
 11
2.44878
 21
105.392
 31
0.0
  0
LINE
  8
0
 62
     0
 10
2.44878
 20
105.392
 30
0.0
 11
2.20486
 21
105.149
 31
0.0
  0
LINE
  8
0
 62
     0
 10
2.20486
 20
105.149
 30
0.0
 11
2.04914
 21
104.841
 31
0.0
  0
LINE
  8
0
 62
     0
 10
2.04914
 20
104.841
 30
0.0
 11
1.9954
 21
104.502
 31
0.0
  0
LINE
  8
0
 62
     0
 10
1.9954
 20
104.502
 30
0.0
 11
2.04914
 21
104.163
 31
0.0
  0
LINE
  8
0
 62
     0
 10
2.04914
 20
104.163
 30
0.0
 11
2.20486
 21
103.856
 31
0.0
  0
LINE
  8
0
 62
     0
 10
2.20486
 20
103.856
 30
0.0
 11
2.44878
 21
103.613
 31
0.0
  0
LINE
  8
0
 62
     0
 10
2.44878
 20
103.613
 30
0.0
 11
2.75608
 21
103.456
 31
0.0
  0
LINE
  8
0
 62
     0
 10
2.75608
 20
103.456
 30
0.0
 11
3.09507
 21
103.401
 31
0.0
  0
LINE
  8
0
 62
     0
 10
3.09507
 20
103.401
 30
0.0
 11
3.43407
 21
103.456
 31
0.0
  0
LINE
  8
0
 62
     0
 10
3.43407
 20
103.456
 30
0.0
 11
3.74138
 21
103.613
 31
0.0
  0
LINE
  8
0
 62
     0
 10
3.74138
 20
103.613
 30
0.0
 11
3.98392
 21
103.856
 31
0.0
  0
LINE
  8
0
 62
     0
 10
3.98392
 20
103.856
 30
0.0
 11
4.14101
 21
104.163
 31
0.0
  0
LINE
  8
0
 62
     0
 10
4.14101
 20
104.163
 30
0.0
 11
4.19612
 21
104.502
 31
0.0
  0
LINE
  8
0
 62
     0
 10
4.19612
 20
104.502
 30
0.0
 11
4.14101
 21
104.841
 31
0.0
  0
LINE
  8
0
 62
     0
 10
4.14101
 20
104.841
 30
0.0
 11
3.98392
 21
105.149
 31
0.0
  0
LINE
  8
0
 62
     0
 10
3.98392
 20
105.149
 30
0.0
 11
3.74138
 21
105.392
 31
0.0
  0
LINE
  8
0
 62
     0
 10
3.74138
 20
105.392
 30
0.0
 11
3.43407
 21
105.548
 31
0.0
  0
LINE
  8
0
 62
     0
 10
3.43407
 20
105.548
 30
0.0
 11
3.09507
 21
105.602
 31
0.0
  0
LINE
  8
0
 62
     0
 10
3.09507
 20
105.602
 30
0.0
 11
2.75608
 21
105.548
 31
0.0
  0
LINE
  8
0
 62
     0
 10
237.356
 20
105.548
 30
0.0
 11
237.05
 21
105.392
 31
0.0
  0
LINE
  8
0
 62
     0
 10
237.05
 20
105.392
 30
0.0
 11
236.806
 21
105.149
 31
0.0
  0
LINE
  8
0
 62
     0
 10
236.806
 20
105.149
 30
0.0
 11
236.649
 21
104.841
 31
0.0
  0
LINE
  8
0
 62
     0
 10
236.649
 20
104.841
 30
0.0
 11
236.597
 21
104.502
 31
0.0
  0
LINE
  8
0
 62
     0
 10
236.597
 20
104.502
 30
0.0
 11
236.649
 21
104.163
 31
0.0
  0
LINE
  8
0
 62
     0
 10
236.649
 20
104.163
 30
0.0
 11
236.806
 21
103.856
 31
0.0
  0
LINE
  8
0
 62
     0
 10
236.806
 20
103.856
 30
0.0
 11
237.05
 21
103.613
 31
0.0
  0
LINE
  8
0
 62
     0
 10
237.05
 20
103.613
 30
0.0
 11
237.356
 21
103.456
 31
0.0
  0
LINE
  8
0
 62
     0
 10
237.356
 20
103.456
 30
0.0
 11
237.696
 21
103.401
 31
0.0
  0
LINE
  8
0
 62
     0
 10
237.696
 20
103.401
 30
0.0
 11
238.035
 21
103.456
 31
0.0
  0
LINE
  8
0
 62
     0
 10
238.035
 20
103.456
 30
0.0
 11
238.343
 21
103.613
 31
0.0
  0
LINE
  8
0
 62
     0
 10
238.343
 20
103.613
 30
0.0
 11
238.585
 21
103.856
 31
0.0
  0
LINE
  8
0
 62
     0
 10
238.585
 20
103.856
 30
0.0
 11
238.742
 21
104.163
 31
0.0
  0
LINE
  8
0
 62
     0
 10
238.742
 20
104.163
 30
0.0
 11
238.796
 21
104.502
 31
0.0
  0
LINE
  8
0
 62
     0
 10
238.796
 20
104.502
 30
0.0
 11
238.742
 21
104.841
 31
0.0
  0
LINE
  8
0
 62
     0
 10
238.742
 20
104.841
 30
0.0
 11
238.585
 21
105.149
 31
0.0
  0
LINE
  8
0
 62
     0
 10
238.585
 20
105.149
 30
0.0
 11
238.343
 21
105.392
 31
0.0
  0
LINE
  8
0
 62
     0
 10
238.343
 20
105.392
 30
0.0
 11
238.035
 21
105.548
 31
0.0
  0
LINE
  8
0
 62
     0
 10
238.035
 20
105.548
 30
0.0
 11
237.696
 21
105.602
 31
0.0
  0
LINE
  8
0
 62
     0
 10
237.696
 20
105.602
 30
0.0
 11
237.356
 21
105.548
 31
0.0
  0
LINE
  8
0
 62
     0
 10
159.155
 20
105.548
 30
0.0
 11
158.849
 21
105.392
 31
0.0
  0
LINE
  8
0
 62
     0
 10
158.849
 20
105.392
 30
0.0
 11
158.605
 21
105.149
 31
0.0
  0
LINE
  8
0
 62
     0
 10
158.605
 20
105.149
 30
0.0
 11
158.449
 21
104.841
 31
0.0
  0
LINE
  8
0
 62
     0
 10
158.449
 20
104.841
 30
0.0
 11
158.396
 21
104.502
 31
0.0
  0
LINE
  8
0
 62
     0
 10
158.396
 20
104.502
 30
0.0
 11
158.449
 21
104.163
 31
0.0
  0
LINE
  8
0
 62
     0
 10
158.449
 20
104.163
 30
0.0
 11
158.605
 21
103.856
 31
0.0
  0
LINE
  8
0
 62
     0
 10
158.605
 20
103.856
 30
0.0
 11
158.849
 21
103.613
 31
0.0
  0
LINE
  8
0
 62
     0
 10
158.849
 20
103.613
 30
0.0
 11
159.155
 21
103.456
 31
0.0
  0
LINE
  8
0
 62
     0
 10
159.155
 20
103.456
 30
0.0
 11
159.495
 21
103.401
 31
0.0
  0
LINE
  8
0
 62
     0
 10
159.495
 20
103.401
 30
0.0
 11
159.836
 21
103.456
 31
0.0
  0
LINE
  8
0
 62
     0
 10
159.836
 20
103.456
 30
0.0
 11
160.142
 21
103.613
 31
0.0
  0
LINE
  8
0
 62
     0
 10
160.142
 20
103.613
 30
0.0
 11
160.386
 21
103.856
 31
0.0
  0
LINE
  8
0
 62
     0
 10
160.386
 20
103.856
 30
0.0
 11
160.541
 21
104.163
 31
0.0
  0
LINE
  8
0
 62
     0
 10
160.541
 20
104.163
 30
0.0
 11
160.595
 21
104.502
 31
0.0
  0
LINE
  8
0
 62
     0
 10
160.595
 20
104.502
 30
0.0
 11
160.541
 21
104.841
 31
0.0
  0
LINE
  8
0
 62
     0
 10
160.541
 20
104.841
 30
0.0
 11
160.386
 21
105.149
 31
0.0
  0
LINE
  8
0
 62
     0
 10
160.386
 20
105.149
 30
0.0
 11
160.142
 21
105.392
 31
0.0
  0
LINE
  8
0
 62
     0
 10
160.142
 20
105.392
 30
0.0
 11
159.836
 21
105.548
 31
0.0
  0
LINE
  8
0
 62
     0
 10
159.836
 20
105.548
 30
0.0
 11
159.495
 21
105.602
 31
0.0
  0
LINE
  8
0
 62
     0
 10
159.495
 20
105.602
 30
0.0
 11
159.155
 21
105.548
 31
0.0
  0
LINE
  8
0
 62
     0
 10
80.9554
 20
105.548
 30
0.0
 11
80.6482
 21
105.392
 31
0.0
  0
LINE
  8
0
 62
     0
 10
80.6482
 20
105.392
 30
0.0
 11
80.4058
 21
105.149
 31
0.0
  0
LINE
  8
0
 62
     0
 10
80.4058
 20
105.149
 30
0.0
 11
80.2499
 21
104.841
 31
0.0
  0
LINE
  8
0
 62
     0
 10
80.2499
 20
104.841
 30
0.0
 11
80.1949
 21
104.502
 31
0.0
  0
LINE
  8
0
 62
     0
 10
80.1949
 20
104.502
 30
0.0
 11
80.2499
 21
104.163
 31
0.0
  0
LINE
  8
0
 62
     0
 10
80.2499
 20
104.163
 30
0.0
 11
80.4058
 21
103.856
 31
0.0
  0
LINE
  8
0
 62
     0
 10
80.4058
 20
103.856
 30
0.0
 11
80.6482
 21
103.613
 31
0.0
  0
LINE
  8
0
 62
     0
 10
80.6482
 20
103.613
 30
0.0
 11
80.9554
 21
103.456
 31
0.0
  0
LINE
  8
0
 62
     0
 10
80.9554
 20
103.456
 30
0.0
 11
81.2959
 21
103.401
 31
0.0
  0
LINE
  8
0
 62
     0
 10
81.2959
 20
103.401
 30
0.0
 11
81.6349
 21
103.456
 31
0.0
  0
LINE
  8
0
 62
     0
 10
81.6349
 20
103.456
 30
0.0
 11
81.9408
 21
103.613
 31
0.0
  0
LINE
  8
0
 62
     0
 10
81.9408
 20
103.613
 30
0.0
 11
82.1849
 21
103.856
 31
0.0
  0
LINE
  8
0
 62
     0
 10
82.1849
 20
103.856
 30
0.0
 11
82.3419
 21
104.163
 31
0.0
  0
LINE
  8
0
 62
     0
 10
82.3419
 20
104.163
 30
0.0
 11
82.3958
 21
104.502
 31
0.0
  0
LINE
  8
0
 62
     0
 10
82.3958
 20
104.502
 30
0.0
 11
82.3419
 21
104.841
 31
0.0
  0
LINE
  8
0
 62
     0
 10
82.3419
 20
104.841
 30
0.0
 11
82.1849
 21
105.149
 31
0.0
  0
LINE
  8
0
 62
     0
 10
82.1849
 20
105.149
 30
0.0
 11
81.9408
 21
105.392
 31
0.0
  0
LINE
  8
0
 62
     0
 10
81.9408
 20
105.392
 30
0.0
 11
81.6349
 21
105.548
 31
0.0
  0
LINE
  8
0
 62
     0
 10
81.6349
 20
105.548
 30
0.0
 11
81.2959
 21
105.602
 31
0.0
  0
LINE
  8
0
 62
     0
 10
81.2959
 20
105.602
 30
0.0
 11
80.9554
 21
105.548
 31
0.0
  0
ENDSEC
  0
EOF
