  0
SECTION
  2
HEADER
  9
$ACADVER
  1
AC1009
  9
$EXTMIN
 10
0.0
 20
0.0
 30
0.0
  9
$EXTMAX
 10
1000.0
 20
1000.0
 30
0.0
  9
$FILLMODE
 70
 0
  9
$SPLFRAME
 70
 1
  0
ENDSEC
  0
SECTION
  2
TABLES
  0
TABLE
  2
LAYER
 70
1
  0
LAYER
  2
0
 70
     0
 62
     7
  6
CONTINUOUS
  0
ENDTAB
  0
ENDSEC
  0
SECTION
  2
ENTITIES
  0
LINE
  8
0
 62
     0
 10
237.696
 20
107.502
 30
0.0
 11
237.932
 21
107.492
 31
0.0
  0
LINE
  8
0
 62
     0
 10
237.932
 20
107.492
 30
0.0
 11
238.165
 21
107.466
 31
0.0
  0
LINE
  8
0
 62
     0
 10
238.165
 20
107.466
 30
0.0
 11
238.397
 21
107.419
 31
0.0
  0
LINE
  8
0
 62
     0
 10
238.397
 20
107.419
 30
0.0
 11
238.624
 21
107.356
 31
0.0
  0
LINE
  8
0
 62
     0
 10
238.624
 20
107.356
 30
0.0
 11
238.844
 21
107.273
 31
0.0
  0
LINE
  8
0
 62
     0
 10
238.844
 20
107.273
 30
0.0
 11
239.058
 21
107.176
 31
0.0
  0
LINE
  8
0
 62
     0
 10
239.058
 20
107.176
 30
0.0
 11
239.263
 21
107.06
 31
0.0
  0
LINE
  8
0
 62
     0
 10
239.263
 20
107.06
 30
0.0
 11
239.459
 21
106.93
 31
0.0
  0
LINE
  8
0
 62
     0
 10
239.459
 20
106.93
 30
0.0
 11
239.645
 21
106.784
 31
0.0
  0
LINE
  8
0
 62
     0
 10
239.645
 20
106.784
 30
0.0
 11
239.817
 21
106.624
 31
0.0
  0
LINE
  8
0
 62
     0
 10
239.817
 20
106.624
 30
0.0
 11
239.977
 21
106.451
 31
0.0
  0
LINE
  8
0
 62
     0
 10
239.977
 20
106.451
 30
0.0
 11
240.123
 21
106.266
 31
0.0
  0
LINE
  8
0
 62
     0
 10
240.123
 20
106.266
 30
0.0
 11
240.254
 21
106.07
 31
0.0
  0
LINE
  8
0
 62
     0
 10
240.254
 20
106.07
 30
0.0
 11
240.37
 21
105.864
 31
0.0
  0
LINE
  8
0
 62
     0
 10
240.37
 20
105.864
 30
0.0
 11
240.468
 21
105.65
 31
0.0
  0
LINE
  8
0
 62
     0
 10
240.468
 20
105.65
 30
0.0
 11
240.549
 21
105.429
 31
0.0
  0
LINE
  8
0
 62
     0
 10
240.549
 20
105.429
 30
0.0
 11
240.614
 21
105.202
 31
0.0
  0
LINE
  8
0
 62
     0
 10
240.614
 20
105.202
 30
0.0
 11
240.659
 21
104.972
 31
0.0
  0
LINE
  8
0
 62
     0
 10
240.659
 20
104.972
 30
0.0
 11
240.687
 21
104.738
 31
0.0
  0
LINE
  8
0
 62
     0
 10
240.687
 20
104.738
 30
0.0
 11
240.696
 21
104.502
 31
0.0
  0
LINE
  8
0
 62
     0
 10
240.696
 20
104.502
 30
0.0
 11
240.696
 21
3.25217
 31
0.0
  0
LINE
  8
0
 62
     0
 10
240.696
 20
3.25217
 30
0.0
 11
240.687
 21
3.01515
 31
0.0
  0
LINE
  8
0
 62
     0
 10
240.687
 20
3.01515
 30
0.0
 11
240.659
 21
2.78226
 31
0.0
  0
LINE
  8
0
 62
     0
 10
240.659
 20
2.78226
 30
0.0
 11
240.614
 21
2.55075
 31
0.0
  0
LINE
  8
0
 62
     0
 10
240.614
 20
2.55075
 30
0.0
 11
240.549
 21
2.32337
 31
0.0
  0
LINE
  8
0
 62
     0
 10
240.549
 20
2.32337
 30
0.0
 11
240.468
 21
2.10289
 31
0.0
  0
LINE
  8
0
 62
     0
 10
240.468
 20
2.10289
 30
0.0
 11
240.37
 21
1.88929
 31
0.0
  0
LINE
  8
0
 62
     0
 10
240.37
 20
1.88929
 30
0.0
 11
240.254
 21
1.68396
 31
0.0
  0
LINE
  8
0
 62
     0
 10
240.254
 20
1.68396
 30
0.0
 11
240.123
 21
1.48828
 31
0.0
  0
LINE
  8
0
 62
     0
 10
240.123
 20
1.48828
 30
0.0
 11
239.977
 21
1.30225
 31
0.0
  0
LINE
  8
0
 62
     0
 10
239.977
 20
1.30225
 30
0.0
 11
239.817
 21
1.12999
 31
0.0
  0
LINE
  8
0
 62
     0
 10
239.817
 20
1.12999
 30
0.0
 11
239.645
 21
0.970139
 31
0.0
  0
LINE
  8
0
 62
     0
 10
239.645
 20
0.970139
 30
0.0
 11
239.459
 21
0.824068
 31
0.0
  0
LINE
  8
0
 62
     0
 10
239.459
 20
0.824068
 30
0.0
 11
239.263
 21
0.693152
 31
0.0
  0
LINE
  8
0
 62
     0
 10
239.263
 20
0.693152
 30
0.0
 11
239.058
 21
0.577398
 31
0.0
  0
LINE
  8
0
 62
     0
 10
239.058
 20
0.577398
 30
0.0
 11
238.844
 21
0.479559
 31
0.0
  0
LINE
  8
0
 62
     0
 10
238.844
 20
0.479559
 30
0.0
 11
238.624
 21
0.398254
 31
0.0
  0
LINE
  8
0
 62
     0
 10
238.624
 20
0.398254
 30
0.0
 11
238.397
 21
0.333485
 31
0.0
  0
LINE
  8
0
 62
     0
 10
238.397
 20
0.333485
 30
0.0
 11
238.165
 21
0.28801
 31
0.0
  0
LINE
  8
0
 62
     0
 10
238.165
 20
0.28801
 30
0.0
 11
237.932
 21
0.260449
 31
0.0
  0
LINE
  8
0
 62
     0
 10
237.932
 20
0.260449
 30
0.0
 11
237.696
 21
0.250803
 31
0.0
  0
LINE
  8
0
 62
     0
 10
237.696
 20
0.250803
 30
0.0
 11
3.09507
 21
0.252181
 31
0.0
  0
LINE
  8
0
 62
     0
 10
3.09507
 20
0.252181
 30
0.0
 11
2.85943
 21
0.260449
 31
0.0
  0
LINE
  8
0
 62
     0
 10
2.85943
 20
0.260449
 30
0.0
 11
2.62516
 21
0.28801
 31
0.0
  0
LINE
  8
0
 62
     0
 10
2.62516
 20
0.28801
 30
0.0
 11
2.39503
 21
0.333485
 31
0.0
  0
LINE
  8
0
 62
     0
 10
2.39503
 20
0.333485
 30
0.0
 11
2.16765
 21
0.398254
 31
0.0
  0
LINE
  8
0
 62
     0
 10
2.16765
 20
0.398254
 30
0.0
 11
1.94717
 21
0.479559
 31
0.0
  0
LINE
  8
0
 62
     0
 10
1.94717
 20
0.479559
 30
0.0
 11
1.73357
 21
0.577398
 31
0.0
  0
LINE
  8
0
 62
     0
 10
1.73357
 20
0.577398
 30
0.0
 11
1.52687
 21
0.693152
 31
0.0
  0
LINE
  8
0
 62
     0
 10
1.52687
 20
0.693152
 30
0.0
 11
1.33119
 21
0.824068
 31
0.0
  0
LINE
  8
0
 62
     0
 10
1.33119
 20
0.824068
 30
0.0
 11
1.14653
 21
0.970139
 31
0.0
  0
LINE
  8
0
 62
     0
 10
1.14653
 20
0.970139
 30
0.0
 11
0.972894
 21
1.12999
 31
0.0
  0
LINE
  8
0
 62
     0
 10
0.972894
 20
1.12999
 30
0.0
 11
0.813043
 21
1.30225
 31
0.0
  0
LINE
  8
0
 62
     0
 10
0.813043
 20
1.30225
 30
0.0
 11
0.666972
 21
1.48828
 31
0.0
  0
LINE
  8
0
 62
     0
 10
0.666972
 20
1.48828
 30
0.0
 11
0.537436
 21
1.68396
 31
0.0
  0
LINE
  8
0
 62
     0
 10
0.537436
 20
1.68396
 30
0.0
 11
0.421679
 21
1.88929
 31
0.0
  0
LINE
  8
0
 62
     0
 10
0.421679
 20
1.88929
 30
0.0
 11
0.323839
 21
2.10289
 31
0.0
  0
LINE
  8
0
 62
     0
 10
0.323839
 20
2.10289
 30
0.0
 11
0.241157
 21
2.32337
 31
0.0
  0
LINE
  8
0
 62
     0
 10
0.241157
 20
2.32337
 30
0.0
 11
0.177767
 21
2.55075
 31
0.0
  0
LINE
  8
0
 62
     0
 10
0.177767
 20
2.55075
 30
0.0
 11
0.130914
 21
2.78226
 31
0.0
  0
LINE
  8
0
 62
     0
 10
0.130914
 20
2.78226
 30
0.0
 11
0.104731
 21
3.01515
 31
0.0
  0
LINE
  8
0
 62
     0
 10
0.104731
 20
3.01515
 30
0.0
 11
0.0950846
 21
3.25217
 31
0.0
  0
LINE
  8
0
 62
     0
 10
0.0950846
 20
3.25217
 30
0.0
 11
0.0950846
 21
104.502
 31
0.0
  0
LINE
  8
0
 62
     0
 10
0.0950846
 20
104.502
 30
0.0
 11
0.104731
 21
104.738
 31
0.0
  0
LINE
  8
0
 62
     0
 10
0.104731
 20
104.738
 30
0.0
 11
0.130914
 21
104.972
 31
0.0
  0
LINE
  8
0
 62
     0
 10
0.130914
 20
104.972
 30
0.0
 11
0.177767
 21
105.202
 31
0.0
  0
LINE
  8
0
 62
     0
 10
0.177767
 20
105.202
 30
0.0
 11
0.241157
 21
105.429
 31
0.0
  0
LINE
  8
0
 62
     0
 10
0.241157
 20
105.429
 30
0.0
 11
0.323839
 21
105.65
 31
0.0
  0
LINE
  8
0
 62
     0
 10
0.323839
 20
105.65
 30
0.0
 11
0.421679
 21
105.864
 31
0.0
  0
LINE
  8
0
 62
     0
 10
0.421679
 20
105.864
 30
0.0
 11
0.537436
 21
106.07
 31
0.0
  0
LINE
  8
0
 62
     0
 10
0.537436
 20
106.07
 30
0.0
 11
0.666972
 21
106.266
 31
0.0
  0
LINE
  8
0
 62
     0
 10
0.666972
 20
106.266
 30
0.0
 11
0.813043
 21
106.451
 31
0.0
  0
LINE
  8
0
 62
     0
 10
0.813043
 20
106.451
 30
0.0
 11
0.972894
 21
106.624
 31
0.0
  0
LINE
  8
0
 62
     0
 10
0.972894
 20
106.624
 30
0.0
 11
1.14653
 21
106.784
 31
0.0
  0
LINE
  8
0
 62
     0
 10
1.14653
 20
106.784
 30
0.0
 11
1.33119
 21
106.93
 31
0.0
  0
LINE
  8
0
 62
     0
 10
1.33119
 20
106.93
 30
0.0
 11
1.52687
 21
107.06
 31
0.0
  0
LINE
  8
0
 62
     0
 10
1.52687
 20
107.06
 30
0.0
 11
1.73357
 21
107.176
 31
0.0
  0
LINE
  8
0
 62
     0
 10
1.73357
 20
107.176
 30
0.0
 11
1.94717
 21
107.273
 31
0.0
  0
LINE
  8
0
 62
     0
 10
1.94717
 20
107.273
 30
0.0
 11
2.16765
 21
107.356
 31
0.0
  0
LINE
  8
0
 62
     0
 10
2.16765
 20
107.356
 30
0.0
 11
2.39503
 21
107.419
 31
0.0
  0
LINE
  8
0
 62
     0
 10
2.39503
 20
107.419
 30
0.0
 11
2.62516
 21
107.466
 31
0.0
  0
LINE
  8
0
 62
     0
 10
2.62516
 20
107.466
 30
0.0
 11
2.85943
 21
107.492
 31
0.0
  0
LINE
  8
0
 62
     0
 10
2.85943
 20
107.492
 30
0.0
 11
3.09507
 21
107.502
 31
0.0
  0
LINE
  8
0
 62
     0
 10
3.09507
 20
107.502
 30
0.0
 11
237.696
 21
107.502
 31
0.0
  0
LINE
  8
0
 62
     0
 10
2.60036
 20
4.77213
 30
0.0
 11
2.15387
 21
4.54614
 31
0.0
  0
LINE
  8
0
 62
     0
 10
2.15387
 20
4.54614
 30
0.0
 11
1.8011
 21
4.19199
 31
0.0
  0
LINE
  8
0
 62
     0
 10
1.8011
 20
4.19199
 30
0.0
 11
1.57372
 21
3.74551
 31
0.0
  0
LINE
  8
0
 62
     0
 10
1.57372
 20
3.74551
 30
0.0
 11
1.49517
 21
3.25217
 31
0.0
  0
LINE
  8
0
 62
     0
 10
1.49517
 20
3.25217
 30
0.0
 11
1.57372
 21
2.75608
 31
0.0
  0
LINE
  8
0
 62
     0
 10
1.57372
 20
2.75608
 30
0.0
 11
1.8011
 21
2.31097
 31
0.0
  0
LINE
  8
0
 62
     0
 10
1.8011
 20
2.31097
 30
0.0
 11
2.15387
 21
1.95682
 31
0.0
  0
LINE
  8
0
 62
     0
 10
2.15387
 20
1.95682
 30
0.0
 11
2.60036
 21
1.72944
 31
0.0
  0
LINE
  8
0
 62
     0
 10
2.60036
 20
1.72944
 30
0.0
 11
3.09507
 21
1.65227
 31
0.0
  0
LINE
  8
0
 62
     0
 10
3.09507
 20
1.65227
 30
0.0
 11
3.5898
 21
1.72944
 31
0.0
  0
LINE
  8
0
 62
     0
 10
3.5898
 20
1.72944
 30
0.0
 11
4.0349
 21
1.95682
 31
0.0
  0
LINE
  8
0
 62
     0
 10
4.0349
 20
1.95682
 30
0.0
 11
4.38905
 21
2.31097
 31
0.0
  0
LINE
  8
0
 62
     0
 10
4.38905
 20
2.31097
 30
0.0
 11
4.61641
 21
2.75608
 31
0.0
  0
LINE
  8
0
 62
     0
 10
4.61641
 20
2.75608
 30
0.0
 11
4.69498
 21
3.25217
 31
0.0
  0
LINE
  8
0
 62
     0
 10
4.69498
 20
3.25217
 30
0.0
 11
4.61641
 21
3.74551
 31
0.0
  0
LINE
  8
0
 62
     0
 10
4.61641
 20
3.74551
 30
0.0
 11
4.38905
 21
4.19199
 31
0.0
  0
LINE
  8
0
 62
     0
 10
4.38905
 20
4.19199
 30
0.0
 11
4.0349
 21
4.54614
 31
0.0
  0
LINE
  8
0
 62
     0
 10
4.0349
 20
4.54614
 30
0.0
 11
3.5898
 21
4.77213
 31
0.0
  0
LINE
  8
0
 62
     0
 10
3.5898
 20
4.77213
 30
0.0
 11
3.09507
 21
4.85069
 31
0.0
  0
LINE
  8
0
 62
     0
 10
3.09507
 20
4.85069
 30
0.0
 11
2.60036
 21
4.77213
 31
0.0
  0
LINE
  8
0
 62
     0
 10
80.7999
 20
4.77213
 30
0.0
 11
80.3547
 21
4.54614
 31
0.0
  0
LINE
  8
0
 62
     0
 10
80.3547
 20
4.54614
 30
0.0
 11
80.0005
 21
4.19199
 31
0.0
  0
LINE
  8
0
 62
     0
 10
80.0005
 20
4.19199
 30
0.0
 11
79.7733
 21
3.74551
 31
0.0
  0
LINE
  8
0
 62
     0
 10
79.7733
 20
3.74551
 30
0.0
 11
79.696
 21
3.25217
 31
0.0
  0
LINE
  8
0
 62
     0
 10
79.696
 20
3.25217
 30
0.0
 11
79.7733
 21
2.75608
 31
0.0
  0
LINE
  8
0
 62
     0
 10
79.7733
 20
2.75608
 30
0.0
 11
80.0005
 21
2.31097
 31
0.0
  0
LINE
  8
0
 62
     0
 10
80.0005
 20
2.31097
 30
0.0
 11
80.3547
 21
1.95682
 31
0.0
  0
LINE
  8
0
 62
     0
 10
80.3547
 20
1.95682
 30
0.0
 11
80.7999
 21
1.72944
 31
0.0
  0
LINE
  8
0
 62
     0
 10
80.7999
 20
1.72944
 30
0.0
 11
81.2959
 21
1.65227
 31
0.0
  0
LINE
  8
0
 62
     0
 10
81.2959
 20
1.65227
 30
0.0
 11
81.7894
 21
1.72944
 31
0.0
  0
LINE
  8
0
 62
     0
 10
81.7894
 20
1.72944
 30
0.0
 11
82.2357
 21
1.95682
 31
0.0
  0
LINE
  8
0
 62
     0
 10
82.2357
 20
1.95682
 30
0.0
 11
82.5899
 21
2.31097
 31
0.0
  0
LINE
  8
0
 62
     0
 10
82.5899
 20
2.31097
 30
0.0
 11
82.8174
 21
2.75608
 31
0.0
  0
LINE
  8
0
 62
     0
 10
82.8174
 20
2.75608
 30
0.0
 11
82.8957
 21
3.25217
 31
0.0
  0
LINE
  8
0
 62
     0
 10
82.8957
 20
3.25217
 30
0.0
 11
82.8174
 21
3.74551
 31
0.0
  0
LINE
  8
0
 62
     0
 10
82.8174
 20
3.74551
 30
0.0
 11
82.5899
 21
4.19199
 31
0.0
  0
LINE
  8
0
 62
     0
 10
82.5899
 20
4.19199
 30
0.0
 11
82.2357
 21
4.54614
 31
0.0
  0
LINE
  8
0
 62
     0
 10
82.2357
 20
4.54614
 30
0.0
 11
81.7894
 21
4.77213
 31
0.0
  0
LINE
  8
0
 62
     0
 10
81.7894
 20
4.77213
 30
0.0
 11
81.2959
 21
4.85069
 31
0.0
  0
LINE
  8
0
 62
     0
 10
81.2959
 20
4.85069
 30
0.0
 11
80.7999
 21
4.77213
 31
0.0
  0
LINE
  8
0
 62
     0
 10
159.001
 20
4.77213
 30
0.0
 11
158.556
 21
4.54614
 31
0.0
  0
LINE
  8
0
 62
     0
 10
158.556
 20
4.54614
 30
0.0
 11
158.201
 21
4.19199
 31
0.0
  0
LINE
  8
0
 62
     0
 10
158.201
 20
4.19199
 30
0.0
 11
157.974
 21
3.74551
 31
0.0
  0
LINE
  8
0
 62
     0
 10
157.974
 20
3.74551
 30
0.0
 11
157.896
 21
3.25217
 31
0.0
  0
LINE
  8
0
 62
     0
 10
157.896
 20
3.25217
 30
0.0
 11
157.974
 21
2.75608
 31
0.0
  0
LINE
  8
0
 62
     0
 10
157.974
 20
2.75608
 30
0.0
 11
158.201
 21
2.31097
 31
0.0
  0
LINE
  8
0
 62
     0
 10
158.201
 20
2.31097
 30
0.0
 11
158.556
 21
1.95682
 31
0.0
  0
LINE
  8
0
 62
     0
 10
158.556
 20
1.95682
 30
0.0
 11
159.001
 21
1.72944
 31
0.0
  0
LINE
  8
0
 62
     0
 10
159.001
 20
1.72944
 30
0.0
 11
159.495
 21
1.65227
 31
0.0
  0
LINE
  8
0
 62
     0
 10
159.495
 20
1.65227
 30
0.0
 11
159.99
 21
1.72944
 31
0.0
  0
LINE
  8
0
 62
     0
 10
159.99
 20
1.72944
 30
0.0
 11
160.437
 21
1.95682
 31
0.0
  0
LINE
  8
0
 62
     0
 10
160.437
 20
1.95682
 30
0.0
 11
160.791
 21
2.31097
 31
0.0
  0
LINE
  8
0
 62
     0
 10
160.791
 20
2.31097
 30
0.0
 11
161.017
 21
2.75608
 31
0.0
  0
LINE
  8
0
 62
     0
 10
161.017
 20
2.75608
 30
0.0
 11
161.095
 21
3.25217
 31
0.0
  0
LINE
  8
0
 62
     0
 10
161.095
 20
3.25217
 30
0.0
 11
161.017
 21
3.74551
 31
0.0
  0
LINE
  8
0
 62
     0
 10
161.017
 20
3.74551
 30
0.0
 11
160.791
 21
4.19199
 31
0.0
  0
LINE
  8
0
 62
     0
 10
160.791
 20
4.19199
 30
0.0
 11
160.437
 21
4.54614
 31
0.0
  0
LINE
  8
0
 62
     0
 10
160.437
 20
4.54614
 30
0.0
 11
159.99
 21
4.77213
 31
0.0
  0
LINE
  8
0
 62
     0
 10
159.99
 20
4.77213
 30
0.0
 11
159.495
 21
4.85069
 31
0.0
  0
LINE
  8
0
 62
     0
 10
159.495
 20
4.85069
 30
0.0
 11
159.001
 21
4.77213
 31
0.0
  0
LINE
  8
0
 62
     0
 10
237.202
 20
4.77213
 30
0.0
 11
236.755
 21
4.54614
 31
0.0
  0
LINE
  8
0
 62
     0
 10
236.755
 20
4.54614
 30
0.0
 11
236.401
 21
4.19199
 31
0.0
  0
LINE
  8
0
 62
     0
 10
236.401
 20
4.19199
 30
0.0
 11
236.175
 21
3.74551
 31
0.0
  0
LINE
  8
0
 62
     0
 10
236.175
 20
3.74551
 30
0.0
 11
236.097
 21
3.25217
 31
0.0
  0
LINE
  8
0
 62
     0
 10
236.097
 20
3.25217
 30
0.0
 11
236.175
 21
2.75608
 31
0.0
  0
LINE
  8
0
 62
     0
 10
236.175
 20
2.75608
 30
0.0
 11
236.401
 21
2.31097
 31
0.0
  0
LINE
  8
0
 62
     0
 10
236.401
 20
2.31097
 30
0.0
 11
236.755
 21
1.95682
 31
0.0
  0
LINE
  8
0
 62
     0
 10
236.755
 20
1.95682
 30
0.0
 11
237.202
 21
1.72944
 31
0.0
  0
LINE
  8
0
 62
     0
 10
237.202
 20
1.72944
 30
0.0
 11
237.696
 21
1.65227
 31
0.0
  0
LINE
  8
0
 62
     0
 10
237.696
 20
1.65227
 30
0.0
 11
238.191
 21
1.72944
 31
0.0
  0
LINE
  8
0
 62
     0
 10
238.191
 20
1.72944
 30
0.0
 11
238.636
 21
1.95682
 31
0.0
  0
LINE
  8
0
 62
     0
 10
238.636
 20
1.95682
 30
0.0
 11
238.99
 21
2.31097
 31
0.0
  0
LINE
  8
0
 62
     0
 10
238.99
 20
2.31097
 30
0.0
 11
239.218
 21
2.75608
 31
0.0
  0
LINE
  8
0
 62
     0
 10
239.218
 20
2.75608
 30
0.0
 11
239.296
 21
3.25217
 31
0.0
  0
LINE
  8
0
 62
     0
 10
239.296
 20
3.25217
 30
0.0
 11
239.218
 21
3.74551
 31
0.0
  0
LINE
  8
0
 62
     0
 10
239.218
 20
3.74551
 30
0.0
 11
238.99
 21
4.19199
 31
0.0
  0
LINE
  8
0
 62
     0
 10
238.99
 20
4.19199
 30
0.0
 11
238.636
 21
4.54614
 31
0.0
  0
LINE
  8
0
 62
     0
 10
238.636
 20
4.54614
 30
0.0
 11
238.191
 21
4.77213
 31
0.0
  0
LINE
  8
0
 62
     0
 10
238.191
 20
4.77213
 30
0.0
 11
237.696
 21
4.85069
 31
0.0
  0
LINE
  8
0
 62
     0
 10
237.696
 20
4.85069
 30
0.0
 11
237.202
 21
4.77213
 31
0.0
  0
LINE
  8
0
 62
     0
 10
2.60036
 20
106.023
 30
0.0
 11
2.15387
 21
105.796
 31
0.0
  0
LINE
  8
0
 62
     0
 10
2.15387
 20
105.796
 30
0.0
 11
1.8011
 21
105.444
 31
0.0
  0
LINE
  8
0
 62
     0
 10
1.8011
 20
105.444
 30
0.0
 11
1.57372
 21
104.997
 31
0.0
  0
LINE
  8
0
 62
     0
 10
1.57372
 20
104.997
 30
0.0
 11
1.49517
 21
104.502
 31
0.0
  0
LINE
  8
0
 62
     0
 10
1.49517
 20
104.502
 30
0.0
 11
1.57372
 21
104.007
 31
0.0
  0
LINE
  8
0
 62
     0
 10
1.57372
 20
104.007
 30
0.0
 11
1.8011
 21
103.562
 31
0.0
  0
LINE
  8
0
 62
     0
 10
1.8011
 20
103.562
 30
0.0
 11
2.15387
 21
103.208
 31
0.0
  0
LINE
  8
0
 62
     0
 10
2.15387
 20
103.208
 30
0.0
 11
2.60036
 21
102.981
 31
0.0
  0
LINE
  8
0
 62
     0
 10
2.60036
 20
102.981
 30
0.0
 11
3.09507
 21
102.902
 31
0.0
  0
LINE
  8
0
 62
     0
 10
3.09507
 20
102.902
 30
0.0
 11
3.5898
 21
102.981
 31
0.0
  0
LINE
  8
0
 62
     0
 10
3.5898
 20
102.981
 30
0.0
 11
4.0349
 21
103.208
 31
0.0
  0
LINE
  8
0
 62
     0
 10
4.0349
 20
103.208
 30
0.0
 11
4.38905
 21
103.562
 31
0.0
  0
LINE
  8
0
 62
     0
 10
4.38905
 20
103.562
 30
0.0
 11
4.61641
 21
104.007
 31
0.0
  0
LINE
  8
0
 62
     0
 10
4.61641
 20
104.007
 30
0.0
 11
4.69498
 21
104.502
 31
0.0
  0
LINE
  8
0
 62
     0
 10
4.69498
 20
104.502
 30
0.0
 11
4.61641
 21
104.997
 31
0.0
  0
LINE
  8
0
 62
     0
 10
4.61641
 20
104.997
 30
0.0
 11
4.38905
 21
105.444
 31
0.0
  0
LINE
  8
0
 62
     0
 10
4.38905
 20
105.444
 30
0.0
 11
4.0349
 21
105.796
 31
0.0
  0
LINE
  8
0
 62
     0
 10
4.0349
 20
105.796
 30
0.0
 11
3.5898
 21
106.023
 31
0.0
  0
LINE
  8
0
 62
     0
 10
3.5898
 20
106.023
 30
0.0
 11
3.09507
 21
106.102
 31
0.0
  0
LINE
  8
0
 62
     0
 10
3.09507
 20
106.102
 30
0.0
 11
2.60036
 21
106.023
 31
0.0
  0
LINE
  8
0
 62
     0
 10
237.202
 20
106.023
 30
0.0
 11
236.755
 21
105.796
 31
0.0
  0
LINE
  8
0
 62
     0
 10
236.755
 20
105.796
 30
0.0
 11
236.401
 21
105.444
 31
0.0
  0
LINE
  8
0
 62
     0
 10
236.401
 20
105.444
 30
0.0
 11
236.175
 21
104.997
 31
0.0
  0
LINE
  8
0
 62
     0
 10
236.175
 20
104.997
 30
0.0
 11
236.097
 21
104.502
 31
0.0
  0
LINE
  8
0
 62
     0
 10
236.097
 20
104.502
 30
0.0
 11
236.175
 21
104.007
 31
0.0
  0
LINE
  8
0
 62
     0
 10
236.175
 20
104.007
 30
0.0
 11
236.401
 21
103.562
 31
0.0
  0
LINE
  8
0
 62
     0
 10
236.401
 20
103.562
 30
0.0
 11
236.755
 21
103.208
 31
0.0
  0
LINE
  8
0
 62
     0
 10
236.755
 20
103.208
 30
0.0
 11
237.202
 21
102.981
 31
0.0
  0
LINE
  8
0
 62
     0
 10
237.202
 20
102.981
 30
0.0
 11
237.696
 21
102.902
 31
0.0
  0
LINE
  8
0
 62
     0
 10
237.696
 20
102.902
 30
0.0
 11
238.191
 21
102.981
 31
0.0
  0
LINE
  8
0
 62
     0
 10
238.191
 20
102.981
 30
0.0
 11
238.636
 21
103.208
 31
0.0
  0
LINE
  8
0
 62
     0
 10
238.636
 20
103.208
 30
0.0
 11
238.99
 21
103.562
 31
0.0
  0
LINE
  8
0
 62
     0
 10
238.99
 20
103.562
 30
0.0
 11
239.218
 21
104.007
 31
0.0
  0
LINE
  8
0
 62
     0
 10
239.218
 20
104.007
 30
0.0
 11
239.296
 21
104.502
 31
0.0
  0
LINE
  8
0
 62
     0
 10
239.296
 20
104.502
 30
0.0
 11
239.218
 21
104.997
 31
0.0
  0
LINE
  8
0
 62
     0
 10
239.218
 20
104.997
 30
0.0
 11
238.99
 21
105.444
 31
0.0
  0
LINE
  8
0
 62
     0
 10
238.99
 20
105.444
 30
0.0
 11
238.636
 21
105.796
 31
0.0
  0
LINE
  8
0
 62
     0
 10
238.636
 20
105.796
 30
0.0
 11
238.191
 21
106.023
 31
0.0
  0
LINE
  8
0
 62
     0
 10
238.191
 20
106.023
 30
0.0
 11
237.696
 21
106.102
 31
0.0
  0
LINE
  8
0
 62
     0
 10
237.696
 20
106.102
 30
0.0
 11
237.202
 21
106.023
 31
0.0
  0
LINE
  8
0
 62
     0
 10
159.001
 20
106.023
 30
0.0
 11
158.556
 21
105.796
 31
0.0
  0
LINE
  8
0
 62
     0
 10
158.556
 20
105.796
 30
0.0
 11
158.201
 21
105.444
 31
0.0
  0
LINE
  8
0
 62
     0
 10
158.201
 20
105.444
 30
0.0
 11
157.974
 21
104.997
 31
0.0
  0
LINE
  8
0
 62
     0
 10
157.974
 20
104.997
 30
0.0
 11
157.896
 21
104.502
 31
0.0
  0
LINE
  8
0
 62
     0
 10
157.896
 20
104.502
 30
0.0
 11
157.974
 21
104.007
 31
0.0
  0
LINE
  8
0
 62
     0
 10
157.974
 20
104.007
 30
0.0
 11
158.201
 21
103.562
 31
0.0
  0
LINE
  8
0
 62
     0
 10
158.201
 20
103.562
 30
0.0
 11
158.556
 21
103.208
 31
0.0
  0
LINE
  8
0
 62
     0
 10
158.556
 20
103.208
 30
0.0
 11
159.001
 21
102.981
 31
0.0
  0
LINE
  8
0
 62
     0
 10
159.001
 20
102.981
 30
0.0
 11
159.495
 21
102.902
 31
0.0
  0
LINE
  8
0
 62
     0
 10
159.495
 20
102.902
 30
0.0
 11
159.99
 21
102.981
 31
0.0
  0
LINE
  8
0
 62
     0
 10
159.99
 20
102.981
 30
0.0
 11
160.437
 21
103.208
 31
0.0
  0
LINE
  8
0
 62
     0
 10
160.437
 20
103.208
 30
0.0
 11
160.791
 21
103.562
 31
0.0
  0
LINE
  8
0
 62
     0
 10
160.791
 20
103.562
 30
0.0
 11
161.017
 21
104.007
 31
0.0
  0
LINE
  8
0
 62
     0
 10
161.017
 20
104.007
 30
0.0
 11
161.095
 21
104.502
 31
0.0
  0
LINE
  8
0
 62
     0
 10
161.095
 20
104.502
 30
0.0
 11
161.017
 21
104.997
 31
0.0
  0
LINE
  8
0
 62
     0
 10
161.017
 20
104.997
 30
0.0
 11
160.791
 21
105.444
 31
0.0
  0
LINE
  8
0
 62
     0
 10
160.791
 20
105.444
 30
0.0
 11
160.437
 21
105.796
 31
0.0
  0
LINE
  8
0
 62
     0
 10
160.437
 20
105.796
 30
0.0
 11
159.99
 21
106.023
 31
0.0
  0
LINE
  8
0
 62
     0
 10
159.99
 20
106.023
 30
0.0
 11
159.495
 21
106.102
 31
0.0
  0
LINE
  8
0
 62
     0
 10
159.495
 20
106.102
 30
0.0
 11
159.001
 21
106.023
 31
0.0
  0
LINE
  8
0
 62
     0
 10
80.7999
 20
106.023
 30
0.0
 11
80.3547
 21
105.796
 31
0.0
  0
LINE
  8
0
 62
     0
 10
80.3547
 20
105.796
 30
0.0
 11
80.0005
 21
105.444
 31
0.0
  0
LINE
  8
0
 62
     0
 10
80.0005
 20
105.444
 30
0.0
 11
79.7733
 21
104.997
 31
0.0
  0
LINE
  8
0
 62
     0
 10
79.7733
 20
104.997
 30
0.0
 11
79.696
 21
104.502
 31
0.0
  0
LINE
  8
0
 62
     0
 10
79.696
 20
104.502
 30
0.0
 11
79.7733
 21
104.007
 31
0.0
  0
LINE
  8
0
 62
     0
 10
79.7733
 20
104.007
 30
0.0
 11
80.0005
 21
103.562
 31
0.0
  0
LINE
  8
0
 62
     0
 10
80.0005
 20
103.562
 30
0.0
 11
80.3547
 21
103.208
 31
0.0
  0
LINE
  8
0
 62
     0
 10
80.3547
 20
103.208
 30
0.0
 11
80.7999
 21
102.981
 31
0.0
  0
LINE
  8
0
 62
     0
 10
80.7999
 20
102.981
 30
0.0
 11
81.2959
 21
102.902
 31
0.0
  0
LINE
  8
0
 62
     0
 10
81.2959
 20
102.902
 30
0.0
 11
81.7894
 21
102.981
 31
0.0
  0
LINE
  8
0
 62
     0
 10
81.7894
 20
102.981
 30
0.0
 11
82.2357
 21
103.208
 31
0.0
  0
LINE
  8
0
 62
     0
 10
82.2357
 20
103.208
 30
0.0
 11
82.5899
 21
103.562
 31
0.0
  0
LINE
  8
0
 62
     0
 10
82.5899
 20
103.562
 30
0.0
 11
82.8174
 21
104.007
 31
0.0
  0
LINE
  8
0
 62
     0
 10
82.8174
 20
104.007
 30
0.0
 11
82.8957
 21
104.502
 31
0.0
  0
LINE
  8
0
 62
     0
 10
82.8957
 20
104.502
 30
0.0
 11
82.8174
 21
104.997
 31
0.0
  0
LINE
  8
0
 62
     0
 10
82.8174
 20
104.997
 30
0.0
 11
82.5899
 21
105.444
 31
0.0
  0
LINE
  8
0
 62
     0
 10
82.5899
 20
105.444
 30
0.0
 11
82.2357
 21
105.796
 31
0.0
  0
LINE
  8
0
 62
     0
 10
82.2357
 20
105.796
 30
0.0
 11
81.7894
 21
106.023
 31
0.0
  0
LINE
  8
0
 62
     0
 10
81.7894
 20
106.023
 30
0.0
 11
81.2959
 21
106.102
 31
0.0
  0
LINE
  8
0
 62
     0
 10
81.2959
 20
106.102
 30
0.0
 11
80.7999
 21
106.023
 31
0.0
  0
ENDSEC
  0
EOF
