  0
SECTION
  2
HEADER
  9
$ACADVER
  1
AC1009
  9
$EXTMIN
 10
0.0
 20
0.0
 30
0.0
  9
$EXTMAX
 10
1000.0
 20
1000.0
 30
0.0
  9
$FILLMODE
 70
 0
  9
$SPLFRAME
 70
 1
  0
ENDSEC
  0
SECTION
  2
TABLES
  0
TABLE
  2
LAYER
 70
1
  0
LAYER
  2
0
 70
     0
 62
     7
  6
CONTINUOUS
  0
ENDTAB
  0
ENDSEC
  0
SECTION
  2
ENTITIES
  0
LINE
  8
0
 62
     0
 10
237.696
 20
107.502
 30
0.0
 11
237.932
 21
107.492
 31
0.0
  0
LINE
  8
0
 62
     0
 10
237.932
 20
107.492
 30
0.0
 11
238.165
 21
107.466
 31
0.0
  0
LINE
  8
0
 62
     0
 10
238.165
 20
107.466
 30
0.0
 11
238.397
 21
107.419
 31
0.0
  0
LINE
  8
0
 62
     0
 10
238.397
 20
107.419
 30
0.0
 11
238.624
 21
107.356
 31
0.0
  0
LINE
  8
0
 62
     0
 10
238.624
 20
107.356
 30
0.0
 11
238.844
 21
107.273
 31
0.0
  0
LINE
  8
0
 62
     0
 10
238.844
 20
107.273
 30
0.0
 11
239.058
 21
107.176
 31
0.0
  0
LINE
  8
0
 62
     0
 10
239.058
 20
107.176
 30
0.0
 11
239.263
 21
107.06
 31
0.0
  0
LINE
  8
0
 62
     0
 10
239.263
 20
107.06
 30
0.0
 11
239.459
 21
106.93
 31
0.0
  0
LINE
  8
0
 62
     0
 10
239.459
 20
106.93
 30
0.0
 11
239.645
 21
106.784
 31
0.0
  0
LINE
  8
0
 62
     0
 10
239.645
 20
106.784
 30
0.0
 11
239.817
 21
106.624
 31
0.0
  0
LINE
  8
0
 62
     0
 10
239.817
 20
106.624
 30
0.0
 11
239.977
 21
106.451
 31
0.0
  0
LINE
  8
0
 62
     0
 10
239.977
 20
106.451
 30
0.0
 11
240.123
 21
106.266
 31
0.0
  0
LINE
  8
0
 62
     0
 10
240.123
 20
106.266
 30
0.0
 11
240.254
 21
106.07
 31
0.0
  0
LINE
  8
0
 62
     0
 10
240.254
 20
106.07
 30
0.0
 11
240.37
 21
105.864
 31
0.0
  0
LINE
  8
0
 62
     0
 10
240.37
 20
105.864
 30
0.0
 11
240.468
 21
105.65
 31
0.0
  0
LINE
  8
0
 62
     0
 10
240.468
 20
105.65
 30
0.0
 11
240.549
 21
105.429
 31
0.0
  0
LINE
  8
0
 62
     0
 10
240.549
 20
105.429
 30
0.0
 11
240.614
 21
105.202
 31
0.0
  0
LINE
  8
0
 62
     0
 10
240.614
 20
105.202
 30
0.0
 11
240.659
 21
104.972
 31
0.0
  0
LINE
  8
0
 62
     0
 10
240.659
 20
104.972
 30
0.0
 11
240.687
 21
104.738
 31
0.0
  0
LINE
  8
0
 62
     0
 10
240.687
 20
104.738
 30
0.0
 11
240.696
 21
104.502
 31
0.0
  0
LINE
  8
0
 62
     0
 10
240.696
 20
104.502
 30
0.0
 11
240.696
 21
3.25217
 31
0.0
  0
LINE
  8
0
 62
     0
 10
240.696
 20
3.25217
 30
0.0
 11
240.687
 21
3.01515
 31
0.0
  0
LINE
  8
0
 62
     0
 10
240.687
 20
3.01515
 30
0.0
 11
240.659
 21
2.78226
 31
0.0
  0
LINE
  8
0
 62
     0
 10
240.659
 20
2.78226
 30
0.0
 11
240.614
 21
2.55075
 31
0.0
  0
LINE
  8
0
 62
     0
 10
240.614
 20
2.55075
 30
0.0
 11
240.549
 21
2.32337
 31
0.0
  0
LINE
  8
0
 62
     0
 10
240.549
 20
2.32337
 30
0.0
 11
240.468
 21
2.10289
 31
0.0
  0
LINE
  8
0
 62
     0
 10
240.468
 20
2.10289
 30
0.0
 11
240.37
 21
1.88929
 31
0.0
  0
LINE
  8
0
 62
     0
 10
240.37
 20
1.88929
 30
0.0
 11
240.254
 21
1.68396
 31
0.0
  0
LINE
  8
0
 62
     0
 10
240.254
 20
1.68396
 30
0.0
 11
240.123
 21
1.48828
 31
0.0
  0
LINE
  8
0
 62
     0
 10
240.123
 20
1.48828
 30
0.0
 11
239.977
 21
1.30225
 31
0.0
  0
LINE
  8
0
 62
     0
 10
239.977
 20
1.30225
 30
0.0
 11
239.817
 21
1.12999
 31
0.0
  0
LINE
  8
0
 62
     0
 10
239.817
 20
1.12999
 30
0.0
 11
239.645
 21
0.970139
 31
0.0
  0
LINE
  8
0
 62
     0
 10
239.645
 20
0.970139
 30
0.0
 11
239.459
 21
0.824068
 31
0.0
  0
LINE
  8
0
 62
     0
 10
239.459
 20
0.824068
 30
0.0
 11
239.263
 21
0.693152
 31
0.0
  0
LINE
  8
0
 62
     0
 10
239.263
 20
0.693152
 30
0.0
 11
239.058
 21
0.577398
 31
0.0
  0
LINE
  8
0
 62
     0
 10
239.058
 20
0.577398
 30
0.0
 11
238.844
 21
0.479559
 31
0.0
  0
LINE
  8
0
 62
     0
 10
238.844
 20
0.479559
 30
0.0
 11
238.624
 21
0.398254
 31
0.0
  0
LINE
  8
0
 62
     0
 10
238.624
 20
0.398254
 30
0.0
 11
238.397
 21
0.333485
 31
0.0
  0
LINE
  8
0
 62
     0
 10
238.397
 20
0.333485
 30
0.0
 11
238.165
 21
0.28801
 31
0.0
  0
LINE
  8
0
 62
     0
 10
238.165
 20
0.28801
 30
0.0
 11
237.932
 21
0.260449
 31
0.0
  0
LINE
  8
0
 62
     0
 10
237.932
 20
0.260449
 30
0.0
 11
237.696
 21
0.250803
 31
0.0
  0
LINE
  8
0
 62
     0
 10
237.696
 20
0.250803
 30
0.0
 11
3.09507
 21
0.252181
 31
0.0
  0
LINE
  8
0
 62
     0
 10
3.09507
 20
0.252181
 30
0.0
 11
2.85943
 21
0.260449
 31
0.0
  0
LINE
  8
0
 62
     0
 10
2.85943
 20
0.260449
 30
0.0
 11
2.62516
 21
0.28801
 31
0.0
  0
LINE
  8
0
 62
     0
 10
2.62516
 20
0.28801
 30
0.0
 11
2.39503
 21
0.333485
 31
0.0
  0
LINE
  8
0
 62
     0
 10
2.39503
 20
0.333485
 30
0.0
 11
2.16765
 21
0.398254
 31
0.0
  0
LINE
  8
0
 62
     0
 10
2.16765
 20
0.398254
 30
0.0
 11
1.94717
 21
0.479559
 31
0.0
  0
LINE
  8
0
 62
     0
 10
1.94717
 20
0.479559
 30
0.0
 11
1.73357
 21
0.577398
 31
0.0
  0
LINE
  8
0
 62
     0
 10
1.73357
 20
0.577398
 30
0.0
 11
1.52687
 21
0.693152
 31
0.0
  0
LINE
  8
0
 62
     0
 10
1.52687
 20
0.693152
 30
0.0
 11
1.33119
 21
0.824068
 31
0.0
  0
LINE
  8
0
 62
     0
 10
1.33119
 20
0.824068
 30
0.0
 11
1.14653
 21
0.970139
 31
0.0
  0
LINE
  8
0
 62
     0
 10
1.14653
 20
0.970139
 30
0.0
 11
0.972894
 21
1.12999
 31
0.0
  0
LINE
  8
0
 62
     0
 10
0.972894
 20
1.12999
 30
0.0
 11
0.813043
 21
1.30225
 31
0.0
  0
LINE
  8
0
 62
     0
 10
0.813043
 20
1.30225
 30
0.0
 11
0.666972
 21
1.48828
 31
0.0
  0
LINE
  8
0
 62
     0
 10
0.666972
 20
1.48828
 30
0.0
 11
0.537436
 21
1.68396
 31
0.0
  0
LINE
  8
0
 62
     0
 10
0.537436
 20
1.68396
 30
0.0
 11
0.421679
 21
1.88929
 31
0.0
  0
LINE
  8
0
 62
     0
 10
0.421679
 20
1.88929
 30
0.0
 11
0.323839
 21
2.10289
 31
0.0
  0
LINE
  8
0
 62
     0
 10
0.323839
 20
2.10289
 30
0.0
 11
0.241157
 21
2.32337
 31
0.0
  0
LINE
  8
0
 62
     0
 10
0.241157
 20
2.32337
 30
0.0
 11
0.177767
 21
2.55075
 31
0.0
  0
LINE
  8
0
 62
     0
 10
0.177767
 20
2.55075
 30
0.0
 11
0.130914
 21
2.78226
 31
0.0
  0
LINE
  8
0
 62
     0
 10
0.130914
 20
2.78226
 30
0.0
 11
0.104731
 21
3.01515
 31
0.0
  0
LINE
  8
0
 62
     0
 10
0.104731
 20
3.01515
 30
0.0
 11
0.0950846
 21
3.25217
 31
0.0
  0
LINE
  8
0
 62
     0
 10
0.0950846
 20
3.25217
 30
0.0
 11
0.0950846
 21
104.502
 31
0.0
  0
LINE
  8
0
 62
     0
 10
0.0950846
 20
104.502
 30
0.0
 11
0.104731
 21
104.738
 31
0.0
  0
LINE
  8
0
 62
     0
 10
0.104731
 20
104.738
 30
0.0
 11
0.130914
 21
104.972
 31
0.0
  0
LINE
  8
0
 62
     0
 10
0.130914
 20
104.972
 30
0.0
 11
0.177767
 21
105.202
 31
0.0
  0
LINE
  8
0
 62
     0
 10
0.177767
 20
105.202
 30
0.0
 11
0.241157
 21
105.429
 31
0.0
  0
LINE
  8
0
 62
     0
 10
0.241157
 20
105.429
 30
0.0
 11
0.323839
 21
105.65
 31
0.0
  0
LINE
  8
0
 62
     0
 10
0.323839
 20
105.65
 30
0.0
 11
0.421679
 21
105.864
 31
0.0
  0
LINE
  8
0
 62
     0
 10
0.421679
 20
105.864
 30
0.0
 11
0.537436
 21
106.07
 31
0.0
  0
LINE
  8
0
 62
     0
 10
0.537436
 20
106.07
 30
0.0
 11
0.666972
 21
106.266
 31
0.0
  0
LINE
  8
0
 62
     0
 10
0.666972
 20
106.266
 30
0.0
 11
0.813043
 21
106.451
 31
0.0
  0
LINE
  8
0
 62
     0
 10
0.813043
 20
106.451
 30
0.0
 11
0.972894
 21
106.624
 31
0.0
  0
LINE
  8
0
 62
     0
 10
0.972894
 20
106.624
 30
0.0
 11
1.14653
 21
106.784
 31
0.0
  0
LINE
  8
0
 62
     0
 10
1.14653
 20
106.784
 30
0.0
 11
1.33119
 21
106.93
 31
0.0
  0
LINE
  8
0
 62
     0
 10
1.33119
 20
106.93
 30
0.0
 11
1.52687
 21
107.06
 31
0.0
  0
LINE
  8
0
 62
     0
 10
1.52687
 20
107.06
 30
0.0
 11
1.73357
 21
107.176
 31
0.0
  0
LINE
  8
0
 62
     0
 10
1.73357
 20
107.176
 30
0.0
 11
1.94717
 21
107.273
 31
0.0
  0
LINE
  8
0
 62
     0
 10
1.94717
 20
107.273
 30
0.0
 11
2.16765
 21
107.356
 31
0.0
  0
LINE
  8
0
 62
     0
 10
2.16765
 20
107.356
 30
0.0
 11
2.39503
 21
107.419
 31
0.0
  0
LINE
  8
0
 62
     0
 10
2.39503
 20
107.419
 30
0.0
 11
2.62516
 21
107.466
 31
0.0
  0
LINE
  8
0
 62
     0
 10
2.62516
 20
107.466
 30
0.0
 11
2.85943
 21
107.492
 31
0.0
  0
LINE
  8
0
 62
     0
 10
2.85943
 20
107.492
 30
0.0
 11
3.09507
 21
107.502
 31
0.0
  0
LINE
  8
0
 62
     0
 10
3.09507
 20
107.502
 30
0.0
 11
237.696
 21
107.502
 31
0.0
  0
LINE
  8
0
 62
     0
 10
2.60036
 20
4.77213
 30
0.0
 11
2.15387
 21
4.54614
 31
0.0
  0
LINE
  8
0
 62
     0
 10
2.15387
 20
4.54614
 30
0.0
 11
1.8011
 21
4.19199
 31
0.0
  0
LINE
  8
0
 62
     0
 10
1.8011
 20
4.19199
 30
0.0
 11
1.57372
 21
3.74551
 31
0.0
  0
LINE
  8
0
 62
     0
 10
1.57372
 20
3.74551
 30
0.0
 11
1.49517
 21
3.25217
 31
0.0
  0
LINE
  8
0
 62
     0
 10
1.49517
 20
3.25217
 30
0.0
 11
1.57372
 21
2.75608
 31
0.0
  0
LINE
  8
0
 62
     0
 10
1.57372
 20
2.75608
 30
0.0
 11
1.8011
 21
2.31097
 31
0.0
  0
LINE
  8
0
 62
     0
 10
1.8011
 20
2.31097
 30
0.0
 11
2.15387
 21
1.95682
 31
0.0
  0
LINE
  8
0
 62
     0
 10
2.15387
 20
1.95682
 30
0.0
 11
2.60036
 21
1.72944
 31
0.0
  0
LINE
  8
0
 62
     0
 10
2.60036
 20
1.72944
 30
0.0
 11
3.09507
 21
1.65227
 31
0.0
  0
LINE
  8
0
 62
     0
 10
3.09507
 20
1.65227
 30
0.0
 11
3.5898
 21
1.72944
 31
0.0
  0
LINE
  8
0
 62
     0
 10
3.5898
 20
1.72944
 30
0.0
 11
4.0349
 21
1.95682
 31
0.0
  0
LINE
  8
0
 62
     0
 10
4.0349
 20
1.95682
 30
0.0
 11
4.38905
 21
2.31097
 31
0.0
  0
LINE
  8
0
 62
     0
 10
4.38905
 20
2.31097
 30
0.0
 11
4.61641
 21
2.75608
 31
0.0
  0
LINE
  8
0
 62
     0
 10
4.61641
 20
2.75608
 30
0.0
 11
4.69498
 21
3.25217
 31
0.0
  0
LINE
  8
0
 62
     0
 10
4.69498
 20
3.25217
 30
0.0
 11
4.61641
 21
3.74551
 31
0.0
  0
LINE
  8
0
 62
     0
 10
4.61641
 20
3.74551
 30
0.0
 11
4.38905
 21
4.19199
 31
0.0
  0
LINE
  8
0
 62
     0
 10
4.38905
 20
4.19199
 30
0.0
 11
4.0349
 21
4.54614
 31
0.0
  0
LINE
  8
0
 62
     0
 10
4.0349
 20
4.54614
 30
0.0
 11
3.5898
 21
4.77213
 31
0.0
  0
LINE
  8
0
 62
     0
 10
3.5898
 20
4.77213
 30
0.0
 11
3.09507
 21
4.85069
 31
0.0
  0
LINE
  8
0
 62
     0
 10
3.09507
 20
4.85069
 30
0.0
 11
2.60036
 21
4.77213
 31
0.0
  0
LINE
  8
0
 62
     0
 10
80.7999
 20
4.77213
 30
0.0
 11
80.3547
 21
4.54614
 31
0.0
  0
LINE
  8
0
 62
     0
 10
80.3547
 20
4.54614
 30
0.0
 11
80.0005
 21
4.19199
 31
0.0
  0
LINE
  8
0
 62
     0
 10
80.0005
 20
4.19199
 30
0.0
 11
79.7733
 21
3.74551
 31
0.0
  0
LINE
  8
0
 62
     0
 10
79.7733
 20
3.74551
 30
0.0
 11
79.696
 21
3.25217
 31
0.0
  0
LINE
  8
0
 62
     0
 10
79.696
 20
3.25217
 30
0.0
 11
79.7733
 21
2.75608
 31
0.0
  0
LINE
  8
0
 62
     0
 10
79.7733
 20
2.75608
 30
0.0
 11
80.0005
 21
2.31097
 31
0.0
  0
LINE
  8
0
 62
     0
 10
80.0005
 20
2.31097
 30
0.0
 11
80.3547
 21
1.95682
 31
0.0
  0
LINE
  8
0
 62
     0
 10
80.3547
 20
1.95682
 30
0.0
 11
80.7999
 21
1.72944
 31
0.0
  0
LINE
  8
0
 62
     0
 10
80.7999
 20
1.72944
 30
0.0
 11
81.2959
 21
1.65227
 31
0.0
  0
LINE
  8
0
 62
     0
 10
81.2959
 20
1.65227
 30
0.0
 11
81.7894
 21
1.72944
 31
0.0
  0
LINE
  8
0
 62
     0
 10
81.7894
 20
1.72944
 30
0.0
 11
82.2357
 21
1.95682
 31
0.0
  0
LINE
  8
0
 62
     0
 10
82.2357
 20
1.95682
 30
0.0
 11
82.5899
 21
2.31097
 31
0.0
  0
LINE
  8
0
 62
     0
 10
82.5899
 20
2.31097
 30
0.0
 11
82.8174
 21
2.75608
 31
0.0
  0
LINE
  8
0
 62
     0
 10
82.8174
 20
2.75608
 30
0.0
 11
82.8957
 21
3.25217
 31
0.0
  0
LINE
  8
0
 62
     0
 10
82.8957
 20
3.25217
 30
0.0
 11
82.8174
 21
3.74551
 31
0.0
  0
LINE
  8
0
 62
     0
 10
82.8174
 20
3.74551
 30
0.0
 11
82.5899
 21
4.19199
 31
0.0
  0
LINE
  8
0
 62
     0
 10
82.5899
 20
4.19199
 30
0.0
 11
82.2357
 21
4.54614
 31
0.0
  0
LINE
  8
0
 62
     0
 10
82.2357
 20
4.54614
 30
0.0
 11
81.7894
 21
4.77213
 31
0.0
  0
LINE
  8
0
 62
     0
 10
81.7894
 20
4.77213
 30
0.0
 11
81.2959
 21
4.85069
 31
0.0
  0
LINE
  8
0
 62
     0
 10
81.2959
 20
4.85069
 30
0.0
 11
80.7999
 21
4.77213
 31
0.0
  0
LINE
  8
0
 62
     0
 10
159.001
 20
4.77213
 30
0.0
 11
158.556
 21
4.54614
 31
0.0
  0
LINE
  8
0
 62
     0
 10
158.556
 20
4.54614
 30
0.0
 11
158.201
 21
4.19199
 31
0.0
  0
LINE
  8
0
 62
     0
 10
158.201
 20
4.19199
 30
0.0
 11
157.974
 21
3.74551
 31
0.0
  0
LINE
  8
0
 62
     0
 10
157.974
 20
3.74551
 30
0.0
 11
157.896
 21
3.25217
 31
0.0
  0
LINE
  8
0
 62
     0
 10
157.896
 20
3.25217
 30
0.0
 11
157.974
 21
2.75608
 31
0.0
  0
LINE
  8
0
 62
     0
 10
157.974
 20
2.75608
 30
0.0
 11
158.201
 21
2.31097
 31
0.0
  0
LINE
  8
0
 62
     0
 10
158.201
 20
2.31097
 30
0.0
 11
158.556
 21
1.95682
 31
0.0
  0
LINE
  8
0
 62
     0
 10
158.556
 20
1.95682
 30
0.0
 11
159.001
 21
1.72944
 31
0.0
  0
LINE
  8
0
 62
     0
 10
159.001
 20
1.72944
 30
0.0
 11
159.495
 21
1.65227
 31
0.0
  0
LINE
  8
0
 62
     0
 10
159.495
 20
1.65227
 30
0.0
 11
159.99
 21
1.72944
 31
0.0
  0
LINE
  8
0
 62
     0
 10
159.99
 20
1.72944
 30
0.0
 11
160.437
 21
1.95682
 31
0.0
  0
LINE
  8
0
 62
     0
 10
160.437
 20
1.95682
 30
0.0
 11
160.791
 21
2.31097
 31
0.0
  0
LINE
  8
0
 62
     0
 10
160.791
 20
2.31097
 30
0.0
 11
161.017
 21
2.75608
 31
0.0
  0
LINE
  8
0
 62
     0
 10
161.017
 20
2.75608
 30
0.0
 11
161.095
 21
3.25217
 31
0.0
  0
LINE
  8
0
 62
     0
 10
161.095
 20
3.25217
 30
0.0
 11
161.017
 21
3.74551
 31
0.0
  0
LINE
  8
0
 62
     0
 10
161.017
 20
3.74551
 30
0.0
 11
160.791
 21
4.19199
 31
0.0
  0
LINE
  8
0
 62
     0
 10
160.791
 20
4.19199
 30
0.0
 11
160.437
 21
4.54614
 31
0.0
  0
LINE
  8
0
 62
     0
 10
160.437
 20
4.54614
 30
0.0
 11
159.99
 21
4.77213
 31
0.0
  0
LINE
  8
0
 62
     0
 10
159.99
 20
4.77213
 30
0.0
 11
159.495
 21
4.85069
 31
0.0
  0
LINE
  8
0
 62
     0
 10
159.495
 20
4.85069
 30
0.0
 11
159.001
 21
4.77213
 31
0.0
  0
LINE
  8
0
 62
     0
 10
237.202
 20
4.77213
 30
0.0
 11
236.755
 21
4.54614
 31
0.0
  0
LINE
  8
0
 62
     0
 10
236.755
 20
4.54614
 30
0.0
 11
236.401
 21
4.19199
 31
0.0
  0
LINE
  8
0
 62
     0
 10
236.401
 20
4.19199
 30
0.0
 11
236.175
 21
3.74551
 31
0.0
  0
LINE
  8
0
 62
     0
 10
236.175
 20
3.74551
 30
0.0
 11
236.097
 21
3.25217
 31
0.0
  0
LINE
  8
0
 62
     0
 10
236.097
 20
3.25217
 30
0.0
 11
236.175
 21
2.75608
 31
0.0
  0
LINE
  8
0
 62
     0
 10
236.175
 20
2.75608
 30
0.0
 11
236.401
 21
2.31097
 31
0.0
  0
LINE
  8
0
 62
     0
 10
236.401
 20
2.31097
 30
0.0
 11
236.755
 21
1.95682
 31
0.0
  0
LINE
  8
0
 62
     0
 10
236.755
 20
1.95682
 30
0.0
 11
237.202
 21
1.72944
 31
0.0
  0
LINE
  8
0
 62
     0
 10
237.202
 20
1.72944
 30
0.0
 11
237.696
 21
1.65227
 31
0.0
  0
LINE
  8
0
 62
     0
 10
237.696
 20
1.65227
 30
0.0
 11
238.191
 21
1.72944
 31
0.0
  0
LINE
  8
0
 62
     0
 10
238.191
 20
1.72944
 30
0.0
 11
238.636
 21
1.95682
 31
0.0
  0
LINE
  8
0
 62
     0
 10
238.636
 20
1.95682
 30
0.0
 11
238.99
 21
2.31097
 31
0.0
  0
LINE
  8
0
 62
     0
 10
238.99
 20
2.31097
 30
0.0
 11
239.218
 21
2.75608
 31
0.0
  0
LINE
  8
0
 62
     0
 10
239.218
 20
2.75608
 30
0.0
 11
239.296
 21
3.25217
 31
0.0
  0
LINE
  8
0
 62
     0
 10
239.296
 20
3.25217
 30
0.0
 11
239.218
 21
3.74551
 31
0.0
  0
LINE
  8
0
 62
     0
 10
239.218
 20
3.74551
 30
0.0
 11
238.99
 21
4.19199
 31
0.0
  0
LINE
  8
0
 62
     0
 10
238.99
 20
4.19199
 30
0.0
 11
238.636
 21
4.54614
 31
0.0
  0
LINE
  8
0
 62
     0
 10
238.636
 20
4.54614
 30
0.0
 11
238.191
 21
4.77213
 31
0.0
  0
LINE
  8
0
 62
     0
 10
238.191
 20
4.77213
 30
0.0
 11
237.696
 21
4.85069
 31
0.0
  0
LINE
  8
0
 62
     0
 10
237.696
 20
4.85069
 30
0.0
 11
237.202
 21
4.77213
 31
0.0
  0
LINE
  8
0
 62
     0
 10
113.396
 20
22.7762
 30
0.0
 11
113.396
 21
21.7771
 31
0.0
  0
LINE
  8
0
 62
     0
 10
113.396
 20
21.7771
 30
0.0
 11
112.595
 21
21.7771
 31
0.0
  0
LINE
  8
0
 62
     0
 10
112.595
 20
21.7771
 30
0.0
 11
112.595
 21
18.6779
 31
0.0
  0
LINE
  8
0
 62
     0
 10
112.595
 20
18.6779
 30
0.0
 11
113.396
 21
18.6779
 31
0.0
  0
LINE
  8
0
 62
     0
 10
113.396
 20
18.6779
 30
0.0
 11
113.396
 21
18.0771
 31
0.0
  0
LINE
  8
0
 62
     0
 10
113.396
 20
18.0771
 30
0.0
 11
111.869
 21
18.0771
 31
0.0
  0
LINE
  8
0
 62
     0
 10
111.869
 20
18.0771
 30
0.0
 11
111.869
 21
21.3072
 31
0.0
  0
LINE
  8
0
 62
     0
 10
111.869
 20
21.3072
 30
0.0
 11
105.12
 21
21.3072
 31
0.0
  0
LINE
  8
0
 62
     0
 10
105.12
 20
21.3072
 30
0.0
 11
105.12
 21
18.0771
 31
0.0
  0
LINE
  8
0
 62
     0
 10
105.12
 20
18.0771
 30
0.0
 11
104.294
 21
18.0771
 31
0.0
  0
LINE
  8
0
 62
     0
 10
104.294
 20
18.0771
 30
0.0
 11
104.294
 21
15.2769
 31
0.0
  0
LINE
  8
0
 62
     0
 10
104.294
 20
15.2769
 30
0.0
 11
105.12
 21
15.2769
 31
0.0
  0
LINE
  8
0
 62
     0
 10
105.12
 20
15.2769
 30
0.0
 11
105.12
 21
9.00825
 31
0.0
  0
LINE
  8
0
 62
     0
 10
105.12
 20
9.00825
 30
0.0
 11
106.845
 21
9.00825
 31
0.0
  0
LINE
  8
0
 62
     0
 10
106.845
 20
9.00825
 30
0.0
 11
106.845
 21
7.80658
 31
0.0
  0
LINE
  8
0
 62
     0
 10
106.845
 20
7.80658
 30
0.0
 11
110.145
 21
7.80658
 31
0.0
  0
LINE
  8
0
 62
     0
 10
110.145
 20
7.80658
 30
0.0
 11
110.145
 21
9.00825
 31
0.0
  0
LINE
  8
0
 62
     0
 10
110.145
 20
9.00825
 30
0.0
 11
111.869
 21
9.00825
 31
0.0
  0
LINE
  8
0
 62
     0
 10
111.869
 20
9.00825
 30
0.0
 11
111.869
 21
13.4772
 31
0.0
  0
LINE
  8
0
 62
     0
 10
111.869
 20
13.4772
 30
0.0
 11
113.396
 21
13.4772
 31
0.0
  0
LINE
  8
0
 62
     0
 10
113.396
 20
13.4772
 30
0.0
 11
113.396
 21
12.8764
 31
0.0
  0
LINE
  8
0
 62
     0
 10
113.396
 20
12.8764
 30
0.0
 11
112.595
 21
12.8764
 31
0.0
  0
LINE
  8
0
 62
     0
 10
112.595
 20
12.8764
 30
0.0
 11
112.595
 21
9.77717
 31
0.0
  0
LINE
  8
0
 62
     0
 10
112.595
 20
9.77717
 30
0.0
 11
113.396
 21
9.77717
 31
0.0
  0
LINE
  8
0
 62
     0
 10
113.396
 20
9.77717
 30
0.0
 11
113.396
 21
8.77672
 31
0.0
  0
LINE
  8
0
 62
     0
 10
113.396
 20
8.77672
 30
0.0
 11
127.395
 21
8.77672
 31
0.0
  0
LINE
  8
0
 62
     0
 10
127.395
 20
8.77672
 30
0.0
 11
127.395
 21
9.77717
 31
0.0
  0
LINE
  8
0
 62
     0
 10
127.395
 20
9.77717
 30
0.0
 11
128.196
 21
9.77717
 31
0.0
  0
LINE
  8
0
 62
     0
 10
128.196
 20
9.77717
 30
0.0
 11
128.196
 21
12.8764
 31
0.0
  0
LINE
  8
0
 62
     0
 10
128.196
 20
12.8764
 30
0.0
 11
127.395
 21
12.8764
 31
0.0
  0
LINE
  8
0
 62
     0
 10
127.395
 20
12.8764
 30
0.0
 11
127.395
 21
13.4772
 31
0.0
  0
LINE
  8
0
 62
     0
 10
127.395
 20
13.4772
 30
0.0
 11
128.921
 21
13.4772
 31
0.0
  0
LINE
  8
0
 62
     0
 10
128.921
 20
13.4772
 30
0.0
 11
128.921
 21
9.00825
 31
0.0
  0
LINE
  8
0
 62
     0
 10
128.921
 20
9.00825
 30
0.0
 11
130.645
 21
9.00825
 31
0.0
  0
LINE
  8
0
 62
     0
 10
130.645
 20
9.00825
 30
0.0
 11
130.645
 21
7.80658
 31
0.0
  0
LINE
  8
0
 62
     0
 10
130.645
 20
7.80658
 30
0.0
 11
133.945
 21
7.80658
 31
0.0
  0
LINE
  8
0
 62
     0
 10
133.945
 20
7.80658
 30
0.0
 11
133.945
 21
9.00825
 31
0.0
  0
LINE
  8
0
 62
     0
 10
133.945
 20
9.00825
 30
0.0
 11
135.671
 21
9.00825
 31
0.0
  0
LINE
  8
0
 62
     0
 10
135.671
 20
9.00825
 30
0.0
 11
135.671
 21
15.2769
 31
0.0
  0
LINE
  8
0
 62
     0
 10
135.671
 20
15.2769
 30
0.0
 11
136.496
 21
15.2769
 31
0.0
  0
LINE
  8
0
 62
     0
 10
136.496
 20
15.2769
 30
0.0
 11
136.496
 21
18.0771
 31
0.0
  0
LINE
  8
0
 62
     0
 10
136.496
 20
18.0771
 30
0.0
 11
135.671
 21
18.0771
 31
0.0
  0
LINE
  8
0
 62
     0
 10
135.671
 20
18.0771
 30
0.0
 11
135.671
 21
21.3072
 31
0.0
  0
LINE
  8
0
 62
     0
 10
135.671
 20
21.3072
 30
0.0
 11
128.921
 21
21.3072
 31
0.0
  0
LINE
  8
0
 62
     0
 10
128.921
 20
21.3072
 30
0.0
 11
128.921
 21
18.0771
 31
0.0
  0
LINE
  8
0
 62
     0
 10
128.921
 20
18.0771
 30
0.0
 11
127.395
 21
18.0771
 31
0.0
  0
LINE
  8
0
 62
     0
 10
127.395
 20
18.0771
 30
0.0
 11
127.395
 21
18.6779
 31
0.0
  0
LINE
  8
0
 62
     0
 10
127.395
 20
18.6779
 30
0.0
 11
128.196
 21
18.6779
 31
0.0
  0
LINE
  8
0
 62
     0
 10
128.196
 20
18.6779
 30
0.0
 11
128.196
 21
21.7771
 31
0.0
  0
LINE
  8
0
 62
     0
 10
128.196
 20
21.7771
 30
0.0
 11
127.395
 21
21.7771
 31
0.0
  0
LINE
  8
0
 62
     0
 10
127.395
 20
21.7771
 30
0.0
 11
127.395
 21
22.7762
 31
0.0
  0
LINE
  8
0
 62
     0
 10
127.395
 20
22.7762
 30
0.0
 11
113.396
 21
22.7762
 31
0.0
  0
LINE
  8
0
 62
     0
 10
218.171
 20
22.7762
 30
0.0
 11
218.171
 21
21.7771
 31
0.0
  0
LINE
  8
0
 62
     0
 10
218.171
 20
21.7771
 30
0.0
 11
217.37
 21
21.7771
 31
0.0
  0
LINE
  8
0
 62
     0
 10
217.37
 20
21.7771
 30
0.0
 11
217.37
 21
18.6779
 31
0.0
  0
LINE
  8
0
 62
     0
 10
217.37
 20
18.6779
 30
0.0
 11
218.171
 21
18.6779
 31
0.0
  0
LINE
  8
0
 62
     0
 10
218.171
 20
18.6779
 30
0.0
 11
218.171
 21
12.8764
 31
0.0
  0
LINE
  8
0
 62
     0
 10
218.171
 20
12.8764
 30
0.0
 11
217.37
 21
12.8764
 31
0.0
  0
LINE
  8
0
 62
     0
 10
217.37
 20
12.8764
 30
0.0
 11
217.37
 21
9.77717
 31
0.0
  0
LINE
  8
0
 62
     0
 10
217.37
 20
9.77717
 30
0.0
 11
218.171
 21
9.77717
 31
0.0
  0
LINE
  8
0
 62
     0
 10
218.171
 20
9.77717
 30
0.0
 11
218.171
 21
8.77672
 31
0.0
  0
LINE
  8
0
 62
     0
 10
218.171
 20
8.77672
 30
0.0
 11
232.17
 21
8.77672
 31
0.0
  0
LINE
  8
0
 62
     0
 10
232.17
 20
8.77672
 30
0.0
 11
232.17
 21
9.77717
 31
0.0
  0
LINE
  8
0
 62
     0
 10
232.17
 20
9.77717
 30
0.0
 11
232.971
 21
9.77717
 31
0.0
  0
LINE
  8
0
 62
     0
 10
232.971
 20
9.77717
 30
0.0
 11
232.971
 21
12.8764
 31
0.0
  0
LINE
  8
0
 62
     0
 10
232.971
 20
12.8764
 30
0.0
 11
232.17
 21
12.8764
 31
0.0
  0
LINE
  8
0
 62
     0
 10
232.17
 20
12.8764
 30
0.0
 11
232.17
 21
18.6779
 31
0.0
  0
LINE
  8
0
 62
     0
 10
232.17
 20
18.6779
 30
0.0
 11
232.971
 21
18.6779
 31
0.0
  0
LINE
  8
0
 62
     0
 10
232.971
 20
18.6779
 30
0.0
 11
232.971
 21
21.7771
 31
0.0
  0
LINE
  8
0
 62
     0
 10
232.971
 20
21.7771
 30
0.0
 11
232.17
 21
21.7771
 31
0.0
  0
LINE
  8
0
 62
     0
 10
232.17
 20
21.7771
 30
0.0
 11
232.17
 21
22.7762
 31
0.0
  0
LINE
  8
0
 62
     0
 10
232.17
 20
22.7762
 30
0.0
 11
218.171
 21
22.7762
 31
0.0
  0
LINE
  8
0
 62
     0
 10
199.121
 20
22.7762
 30
0.0
 11
199.121
 21
21.7771
 31
0.0
  0
LINE
  8
0
 62
     0
 10
199.121
 20
21.7771
 30
0.0
 11
198.32
 21
21.7771
 31
0.0
  0
LINE
  8
0
 62
     0
 10
198.32
 20
21.7771
 30
0.0
 11
198.32
 21
18.6779
 31
0.0
  0
LINE
  8
0
 62
     0
 10
198.32
 20
18.6779
 30
0.0
 11
199.121
 21
18.6779
 31
0.0
  0
LINE
  8
0
 62
     0
 10
199.121
 20
18.6779
 30
0.0
 11
199.121
 21
12.8764
 31
0.0
  0
LINE
  8
0
 62
     0
 10
199.121
 20
12.8764
 30
0.0
 11
198.32
 21
12.8764
 31
0.0
  0
LINE
  8
0
 62
     0
 10
198.32
 20
12.8764
 30
0.0
 11
198.32
 21
9.77717
 31
0.0
  0
LINE
  8
0
 62
     0
 10
198.32
 20
9.77717
 30
0.0
 11
199.121
 21
9.77717
 31
0.0
  0
LINE
  8
0
 62
     0
 10
199.121
 20
9.77717
 30
0.0
 11
199.121
 21
8.77672
 31
0.0
  0
LINE
  8
0
 62
     0
 10
199.121
 20
8.77672
 30
0.0
 11
213.12
 21
8.77672
 31
0.0
  0
LINE
  8
0
 62
     0
 10
213.12
 20
8.77672
 30
0.0
 11
213.12
 21
9.77717
 31
0.0
  0
LINE
  8
0
 62
     0
 10
213.12
 20
9.77717
 30
0.0
 11
213.921
 21
9.77717
 31
0.0
  0
LINE
  8
0
 62
     0
 10
213.921
 20
9.77717
 30
0.0
 11
213.921
 21
12.8764
 31
0.0
  0
LINE
  8
0
 62
     0
 10
213.921
 20
12.8764
 30
0.0
 11
213.12
 21
12.8764
 31
0.0
  0
LINE
  8
0
 62
     0
 10
213.12
 20
12.8764
 30
0.0
 11
213.12
 21
18.6779
 31
0.0
  0
LINE
  8
0
 62
     0
 10
213.12
 20
18.6779
 30
0.0
 11
213.921
 21
18.6779
 31
0.0
  0
LINE
  8
0
 62
     0
 10
213.921
 20
18.6779
 30
0.0
 11
213.921
 21
21.7771
 31
0.0
  0
LINE
  8
0
 62
     0
 10
213.921
 20
21.7771
 30
0.0
 11
213.12
 21
21.7771
 31
0.0
  0
LINE
  8
0
 62
     0
 10
213.12
 20
21.7771
 30
0.0
 11
213.12
 21
22.7762
 31
0.0
  0
LINE
  8
0
 62
     0
 10
213.12
 20
22.7762
 30
0.0
 11
199.121
 21
22.7762
 31
0.0
  0
LINE
  8
0
 62
     0
 10
180.071
 20
22.7762
 30
0.0
 11
180.071
 21
21.7771
 31
0.0
  0
LINE
  8
0
 62
     0
 10
180.071
 20
21.7771
 30
0.0
 11
179.27
 21
21.7771
 31
0.0
  0
LINE
  8
0
 62
     0
 10
179.27
 20
21.7771
 30
0.0
 11
179.27
 21
18.6779
 31
0.0
  0
LINE
  8
0
 62
     0
 10
179.27
 20
18.6779
 30
0.0
 11
180.071
 21
18.6779
 31
0.0
  0
LINE
  8
0
 62
     0
 10
180.071
 20
18.6779
 30
0.0
 11
180.071
 21
12.8764
 31
0.0
  0
LINE
  8
0
 62
     0
 10
180.071
 20
12.8764
 30
0.0
 11
179.27
 21
12.8764
 31
0.0
  0
LINE
  8
0
 62
     0
 10
179.27
 20
12.8764
 30
0.0
 11
179.27
 21
9.77717
 31
0.0
  0
LINE
  8
0
 62
     0
 10
179.27
 20
9.77717
 30
0.0
 11
180.071
 21
9.77717
 31
0.0
  0
LINE
  8
0
 62
     0
 10
180.071
 20
9.77717
 30
0.0
 11
180.071
 21
8.77672
 31
0.0
  0
LINE
  8
0
 62
     0
 10
180.071
 20
8.77672
 30
0.0
 11
194.07
 21
8.77672
 31
0.0
  0
LINE
  8
0
 62
     0
 10
194.07
 20
8.77672
 30
0.0
 11
194.07
 21
9.77717
 31
0.0
  0
LINE
  8
0
 62
     0
 10
194.07
 20
9.77717
 30
0.0
 11
194.871
 21
9.77717
 31
0.0
  0
LINE
  8
0
 62
     0
 10
194.871
 20
9.77717
 30
0.0
 11
194.871
 21
12.8764
 31
0.0
  0
LINE
  8
0
 62
     0
 10
194.871
 20
12.8764
 30
0.0
 11
194.07
 21
12.8764
 31
0.0
  0
LINE
  8
0
 62
     0
 10
194.07
 20
12.8764
 30
0.0
 11
194.07
 21
18.6779
 31
0.0
  0
LINE
  8
0
 62
     0
 10
194.07
 20
18.6779
 30
0.0
 11
194.871
 21
18.6779
 31
0.0
  0
LINE
  8
0
 62
     0
 10
194.871
 20
18.6779
 30
0.0
 11
194.871
 21
21.7771
 31
0.0
  0
LINE
  8
0
 62
     0
 10
194.871
 20
21.7771
 30
0.0
 11
194.07
 21
21.7771
 31
0.0
  0
LINE
  8
0
 62
     0
 10
194.07
 20
21.7771
 30
0.0
 11
194.07
 21
22.7762
 31
0.0
  0
LINE
  8
0
 62
     0
 10
194.07
 20
22.7762
 30
0.0
 11
180.071
 21
22.7762
 31
0.0
  0
LINE
  8
0
 62
     0
 10
161.021
 20
22.7762
 30
0.0
 11
161.021
 21
21.7771
 31
0.0
  0
LINE
  8
0
 62
     0
 10
161.021
 20
21.7771
 30
0.0
 11
160.22
 21
21.7771
 31
0.0
  0
LINE
  8
0
 62
     0
 10
160.22
 20
21.7771
 30
0.0
 11
160.22
 21
18.6779
 31
0.0
  0
LINE
  8
0
 62
     0
 10
160.22
 20
18.6779
 30
0.0
 11
161.021
 21
18.6779
 31
0.0
  0
LINE
  8
0
 62
     0
 10
161.021
 20
18.6779
 30
0.0
 11
161.021
 21
12.8764
 31
0.0
  0
LINE
  8
0
 62
     0
 10
161.021
 20
12.8764
 30
0.0
 11
160.22
 21
12.8764
 31
0.0
  0
LINE
  8
0
 62
     0
 10
160.22
 20
12.8764
 30
0.0
 11
160.22
 21
9.77717
 31
0.0
  0
LINE
  8
0
 62
     0
 10
160.22
 20
9.77717
 30
0.0
 11
161.021
 21
9.77717
 31
0.0
  0
LINE
  8
0
 62
     0
 10
161.021
 20
9.77717
 30
0.0
 11
161.021
 21
8.77672
 31
0.0
  0
LINE
  8
0
 62
     0
 10
161.021
 20
8.77672
 30
0.0
 11
175.02
 21
8.77672
 31
0.0
  0
LINE
  8
0
 62
     0
 10
175.02
 20
8.77672
 30
0.0
 11
175.02
 21
9.77717
 31
0.0
  0
LINE
  8
0
 62
     0
 10
175.02
 20
9.77717
 30
0.0
 11
175.821
 21
9.77717
 31
0.0
  0
LINE
  8
0
 62
     0
 10
175.821
 20
9.77717
 30
0.0
 11
175.821
 21
12.8764
 31
0.0
  0
LINE
  8
0
 62
     0
 10
175.821
 20
12.8764
 30
0.0
 11
175.02
 21
12.8764
 31
0.0
  0
LINE
  8
0
 62
     0
 10
175.02
 20
12.8764
 30
0.0
 11
175.02
 21
18.6779
 31
0.0
  0
LINE
  8
0
 62
     0
 10
175.02
 20
18.6779
 30
0.0
 11
175.821
 21
18.6779
 31
0.0
  0
LINE
  8
0
 62
     0
 10
175.821
 20
18.6779
 30
0.0
 11
175.821
 21
21.7771
 31
0.0
  0
LINE
  8
0
 62
     0
 10
175.821
 20
21.7771
 30
0.0
 11
175.02
 21
21.7771
 31
0.0
  0
LINE
  8
0
 62
     0
 10
175.02
 20
21.7771
 30
0.0
 11
175.02
 21
22.7762
 31
0.0
  0
LINE
  8
0
 62
     0
 10
175.02
 20
22.7762
 30
0.0
 11
161.021
 21
22.7762
 31
0.0
  0
LINE
  8
0
 62
     0
 10
141.971
 20
22.7762
 30
0.0
 11
141.971
 21
21.7771
 31
0.0
  0
LINE
  8
0
 62
     0
 10
141.971
 20
21.7771
 30
0.0
 11
141.17
 21
21.7771
 31
0.0
  0
LINE
  8
0
 62
     0
 10
141.17
 20
21.7771
 30
0.0
 11
141.17
 21
18.6779
 31
0.0
  0
LINE
  8
0
 62
     0
 10
141.17
 20
18.6779
 30
0.0
 11
141.971
 21
18.6779
 31
0.0
  0
LINE
  8
0
 62
     0
 10
141.971
 20
18.6779
 30
0.0
 11
141.971
 21
12.8764
 31
0.0
  0
LINE
  8
0
 62
     0
 10
141.971
 20
12.8764
 30
0.0
 11
141.17
 21
12.8764
 31
0.0
  0
LINE
  8
0
 62
     0
 10
141.17
 20
12.8764
 30
0.0
 11
141.17
 21
9.77717
 31
0.0
  0
LINE
  8
0
 62
     0
 10
141.17
 20
9.77717
 30
0.0
 11
141.971
 21
9.77717
 31
0.0
  0
LINE
  8
0
 62
     0
 10
141.971
 20
9.77717
 30
0.0
 11
141.971
 21
8.77672
 31
0.0
  0
LINE
  8
0
 62
     0
 10
141.971
 20
8.77672
 30
0.0
 11
155.97
 21
8.77672
 31
0.0
  0
LINE
  8
0
 62
     0
 10
155.97
 20
8.77672
 30
0.0
 11
155.97
 21
9.77717
 31
0.0
  0
LINE
  8
0
 62
     0
 10
155.97
 20
9.77717
 30
0.0
 11
156.771
 21
9.77717
 31
0.0
  0
LINE
  8
0
 62
     0
 10
156.771
 20
9.77717
 30
0.0
 11
156.771
 21
12.8764
 31
0.0
  0
LINE
  8
0
 62
     0
 10
156.771
 20
12.8764
 30
0.0
 11
155.97
 21
12.8764
 31
0.0
  0
LINE
  8
0
 62
     0
 10
155.97
 20
12.8764
 30
0.0
 11
155.97
 21
18.6779
 31
0.0
  0
LINE
  8
0
 62
     0
 10
155.97
 20
18.6779
 30
0.0
 11
156.771
 21
18.6779
 31
0.0
  0
LINE
  8
0
 62
     0
 10
156.771
 20
18.6779
 30
0.0
 11
156.771
 21
21.7771
 31
0.0
  0
LINE
  8
0
 62
     0
 10
156.771
 20
21.7771
 30
0.0
 11
155.97
 21
21.7771
 31
0.0
  0
LINE
  8
0
 62
     0
 10
155.97
 20
21.7771
 30
0.0
 11
155.97
 21
22.7762
 31
0.0
  0
LINE
  8
0
 62
     0
 10
155.97
 20
22.7762
 30
0.0
 11
141.971
 21
22.7762
 31
0.0
  0
LINE
  8
0
 62
     0
 10
84.8212
 20
22.7762
 30
0.0
 11
84.8212
 21
21.7771
 31
0.0
  0
LINE
  8
0
 62
     0
 10
84.8212
 20
21.7771
 30
0.0
 11
84.0204
 21
21.7771
 31
0.0
  0
LINE
  8
0
 62
     0
 10
84.0204
 20
21.7771
 30
0.0
 11
84.0204
 21
18.6779
 31
0.0
  0
LINE
  8
0
 62
     0
 10
84.0204
 20
18.6779
 30
0.0
 11
84.8212
 21
18.6779
 31
0.0
  0
LINE
  8
0
 62
     0
 10
84.8212
 20
18.6779
 30
0.0
 11
84.8212
 21
12.8764
 31
0.0
  0
LINE
  8
0
 62
     0
 10
84.8212
 20
12.8764
 30
0.0
 11
84.0204
 21
12.8764
 31
0.0
  0
LINE
  8
0
 62
     0
 10
84.0204
 20
12.8764
 30
0.0
 11
84.0204
 21
9.77717
 31
0.0
  0
LINE
  8
0
 62
     0
 10
84.0204
 20
9.77717
 30
0.0
 11
84.8212
 21
9.77717
 31
0.0
  0
LINE
  8
0
 62
     0
 10
84.8212
 20
9.77717
 30
0.0
 11
84.8212
 21
8.77672
 31
0.0
  0
LINE
  8
0
 62
     0
 10
84.8212
 20
8.77672
 30
0.0
 11
98.8205
 21
8.77672
 31
0.0
  0
LINE
  8
0
 62
     0
 10
98.8205
 20
8.77672
 30
0.0
 11
98.8205
 21
9.77717
 31
0.0
  0
LINE
  8
0
 62
     0
 10
98.8205
 20
9.77717
 30
0.0
 11
99.6199
 21
9.77717
 31
0.0
  0
LINE
  8
0
 62
     0
 10
99.6199
 20
9.77717
 30
0.0
 11
99.6199
 21
12.8764
 31
0.0
  0
LINE
  8
0
 62
     0
 10
99.6199
 20
12.8764
 30
0.0
 11
98.8205
 21
12.8764
 31
0.0
  0
LINE
  8
0
 62
     0
 10
98.8205
 20
12.8764
 30
0.0
 11
98.8205
 21
18.6779
 31
0.0
  0
LINE
  8
0
 62
     0
 10
98.8205
 20
18.6779
 30
0.0
 11
99.6199
 21
18.6779
 31
0.0
  0
LINE
  8
0
 62
     0
 10
99.6199
 20
18.6779
 30
0.0
 11
99.6199
 21
21.7771
 31
0.0
  0
LINE
  8
0
 62
     0
 10
99.6199
 20
21.7771
 30
0.0
 11
98.8205
 21
21.7771
 31
0.0
  0
LINE
  8
0
 62
     0
 10
98.8205
 20
21.7771
 30
0.0
 11
98.8205
 21
22.7762
 31
0.0
  0
LINE
  8
0
 62
     0
 10
98.8205
 20
22.7762
 30
0.0
 11
84.8212
 21
22.7762
 31
0.0
  0
LINE
  8
0
 62
     0
 10
65.7712
 20
22.7762
 30
0.0
 11
65.7712
 21
21.7771
 31
0.0
  0
LINE
  8
0
 62
     0
 10
65.7712
 20
21.7771
 30
0.0
 11
64.9704
 21
21.7771
 31
0.0
  0
LINE
  8
0
 62
     0
 10
64.9704
 20
21.7771
 30
0.0
 11
64.9704
 21
18.6779
 31
0.0
  0
LINE
  8
0
 62
     0
 10
64.9704
 20
18.6779
 30
0.0
 11
65.7712
 21
18.6779
 31
0.0
  0
LINE
  8
0
 62
     0
 10
65.7712
 20
18.6779
 30
0.0
 11
65.7712
 21
12.8764
 31
0.0
  0
LINE
  8
0
 62
     0
 10
65.7712
 20
12.8764
 30
0.0
 11
64.9704
 21
12.8764
 31
0.0
  0
LINE
  8
0
 62
     0
 10
64.9704
 20
12.8764
 30
0.0
 11
64.9704
 21
9.77717
 31
0.0
  0
LINE
  8
0
 62
     0
 10
64.9704
 20
9.77717
 30
0.0
 11
65.7712
 21
9.77717
 31
0.0
  0
LINE
  8
0
 62
     0
 10
65.7712
 20
9.77717
 30
0.0
 11
65.7712
 21
8.77672
 31
0.0
  0
LINE
  8
0
 62
     0
 10
65.7712
 20
8.77672
 30
0.0
 11
79.7705
 21
8.77672
 31
0.0
  0
LINE
  8
0
 62
     0
 10
79.7705
 20
8.77672
 30
0.0
 11
79.7705
 21
9.77717
 31
0.0
  0
LINE
  8
0
 62
     0
 10
79.7705
 20
9.77717
 30
0.0
 11
80.5713
 21
9.77717
 31
0.0
  0
LINE
  8
0
 62
     0
 10
80.5713
 20
9.77717
 30
0.0
 11
80.5713
 21
12.8764
 31
0.0
  0
LINE
  8
0
 62
     0
 10
80.5713
 20
12.8764
 30
0.0
 11
79.7705
 21
12.8764
 31
0.0
  0
LINE
  8
0
 62
     0
 10
79.7705
 20
12.8764
 30
0.0
 11
79.7705
 21
18.6779
 31
0.0
  0
LINE
  8
0
 62
     0
 10
79.7705
 20
18.6779
 30
0.0
 11
80.5713
 21
18.6779
 31
0.0
  0
LINE
  8
0
 62
     0
 10
80.5713
 20
18.6779
 30
0.0
 11
80.5713
 21
21.7771
 31
0.0
  0
LINE
  8
0
 62
     0
 10
80.5713
 20
21.7771
 30
0.0
 11
79.7705
 21
21.7771
 31
0.0
  0
LINE
  8
0
 62
     0
 10
79.7705
 20
21.7771
 30
0.0
 11
79.7705
 21
22.7762
 31
0.0
  0
LINE
  8
0
 62
     0
 10
79.7705
 20
22.7762
 30
0.0
 11
65.7712
 21
22.7762
 31
0.0
  0
LINE
  8
0
 62
     0
 10
46.7212
 20
22.7762
 30
0.0
 11
46.7212
 21
21.7771
 31
0.0
  0
LINE
  8
0
 62
     0
 10
46.7212
 20
21.7771
 30
0.0
 11
45.9204
 21
21.7771
 31
0.0
  0
LINE
  8
0
 62
     0
 10
45.9204
 20
21.7771
 30
0.0
 11
45.9204
 21
18.6779
 31
0.0
  0
LINE
  8
0
 62
     0
 10
45.9204
 20
18.6779
 30
0.0
 11
46.7212
 21
18.6779
 31
0.0
  0
LINE
  8
0
 62
     0
 10
46.7212
 20
18.6779
 30
0.0
 11
46.7212
 21
12.8764
 31
0.0
  0
LINE
  8
0
 62
     0
 10
46.7212
 20
12.8764
 30
0.0
 11
45.9204
 21
12.8764
 31
0.0
  0
LINE
  8
0
 62
     0
 10
45.9204
 20
12.8764
 30
0.0
 11
45.9204
 21
9.77717
 31
0.0
  0
LINE
  8
0
 62
     0
 10
45.9204
 20
9.77717
 30
0.0
 11
46.7212
 21
9.77717
 31
0.0
  0
LINE
  8
0
 62
     0
 10
46.7212
 20
9.77717
 30
0.0
 11
46.7212
 21
8.77672
 31
0.0
  0
LINE
  8
0
 62
     0
 10
46.7212
 20
8.77672
 30
0.0
 11
60.7205
 21
8.77672
 31
0.0
  0
LINE
  8
0
 62
     0
 10
60.7205
 20
8.77672
 30
0.0
 11
60.7205
 21
9.77717
 31
0.0
  0
LINE
  8
0
 62
     0
 10
60.7205
 20
9.77717
 30
0.0
 11
61.5213
 21
9.77717
 31
0.0
  0
LINE
  8
0
 62
     0
 10
61.5213
 20
9.77717
 30
0.0
 11
61.5213
 21
12.8764
 31
0.0
  0
LINE
  8
0
 62
     0
 10
61.5213
 20
12.8764
 30
0.0
 11
60.7205
 21
12.8764
 31
0.0
  0
LINE
  8
0
 62
     0
 10
60.7205
 20
12.8764
 30
0.0
 11
60.7205
 21
18.6779
 31
0.0
  0
LINE
  8
0
 62
     0
 10
60.7205
 20
18.6779
 30
0.0
 11
61.5213
 21
18.6779
 31
0.0
  0
LINE
  8
0
 62
     0
 10
61.5213
 20
18.6779
 30
0.0
 11
61.5213
 21
21.7771
 31
0.0
  0
LINE
  8
0
 62
     0
 10
61.5213
 20
21.7771
 30
0.0
 11
60.7205
 21
21.7771
 31
0.0
  0
LINE
  8
0
 62
     0
 10
60.7205
 20
21.7771
 30
0.0
 11
60.7205
 21
22.7762
 31
0.0
  0
LINE
  8
0
 62
     0
 10
60.7205
 20
22.7762
 30
0.0
 11
46.7212
 21
22.7762
 31
0.0
  0
LINE
  8
0
 62
     0
 10
27.671
 20
22.7762
 30
0.0
 11
27.671
 21
21.7771
 31
0.0
  0
LINE
  8
0
 62
     0
 10
27.671
 20
21.7771
 30
0.0
 11
26.8704
 21
21.7771
 31
0.0
  0
LINE
  8
0
 62
     0
 10
26.8704
 20
21.7771
 30
0.0
 11
26.8704
 21
18.6779
 31
0.0
  0
LINE
  8
0
 62
     0
 10
26.8704
 20
18.6779
 30
0.0
 11
27.671
 21
18.6779
 31
0.0
  0
LINE
  8
0
 62
     0
 10
27.671
 20
18.6779
 30
0.0
 11
27.671
 21
12.8764
 31
0.0
  0
LINE
  8
0
 62
     0
 10
27.671
 20
12.8764
 30
0.0
 11
26.8704
 21
12.8764
 31
0.0
  0
LINE
  8
0
 62
     0
 10
26.8704
 20
12.8764
 30
0.0
 11
26.8704
 21
9.77717
 31
0.0
  0
LINE
  8
0
 62
     0
 10
26.8704
 20
9.77717
 30
0.0
 11
27.671
 21
9.77717
 31
0.0
  0
LINE
  8
0
 62
     0
 10
27.671
 20
9.77717
 30
0.0
 11
27.671
 21
8.77672
 31
0.0
  0
LINE
  8
0
 62
     0
 10
27.671
 20
8.77672
 30
0.0
 11
41.6705
 21
8.77672
 31
0.0
  0
LINE
  8
0
 62
     0
 10
41.6705
 20
8.77672
 30
0.0
 11
41.6705
 21
9.77717
 31
0.0
  0
LINE
  8
0
 62
     0
 10
41.6705
 20
9.77717
 30
0.0
 11
42.4713
 21
9.77717
 31
0.0
  0
LINE
  8
0
 62
     0
 10
42.4713
 20
9.77717
 30
0.0
 11
42.4713
 21
12.8764
 31
0.0
  0
LINE
  8
0
 62
     0
 10
42.4713
 20
12.8764
 30
0.0
 11
41.6705
 21
12.8764
 31
0.0
  0
LINE
  8
0
 62
     0
 10
41.6705
 20
12.8764
 30
0.0
 11
41.6705
 21
18.6779
 31
0.0
  0
LINE
  8
0
 62
     0
 10
41.6705
 20
18.6779
 30
0.0
 11
42.4713
 21
18.6779
 31
0.0
  0
LINE
  8
0
 62
     0
 10
42.4713
 20
18.6779
 30
0.0
 11
42.4713
 21
21.7771
 31
0.0
  0
LINE
  8
0
 62
     0
 10
42.4713
 20
21.7771
 30
0.0
 11
41.6705
 21
21.7771
 31
0.0
  0
LINE
  8
0
 62
     0
 10
41.6705
 20
21.7771
 30
0.0
 11
41.6705
 21
22.7762
 31
0.0
  0
LINE
  8
0
 62
     0
 10
41.6705
 20
22.7762
 30
0.0
 11
27.671
 21
22.7762
 31
0.0
  0
LINE
  8
0
 62
     0
 10
8.61963
 20
22.7762
 30
0.0
 11
8.61963
 21
21.7771
 31
0.0
  0
LINE
  8
0
 62
     0
 10
8.61963
 20
21.7771
 30
0.0
 11
7.819
 21
21.7771
 31
0.0
  0
LINE
  8
0
 62
     0
 10
7.819
 20
21.7771
 30
0.0
 11
7.819
 21
18.6779
 31
0.0
  0
LINE
  8
0
 62
     0
 10
7.819
 20
18.6779
 30
0.0
 11
8.61963
 21
18.6779
 31
0.0
  0
LINE
  8
0
 62
     0
 10
8.61963
 20
18.6779
 30
0.0
 11
8.61963
 21
12.8764
 31
0.0
  0
LINE
  8
0
 62
     0
 10
8.61963
 20
12.8764
 30
0.0
 11
7.819
 21
12.8764
 31
0.0
  0
LINE
  8
0
 62
     0
 10
7.819
 20
12.8764
 30
0.0
 11
7.819
 21
9.77717
 31
0.0
  0
LINE
  8
0
 62
     0
 10
7.819
 20
9.77717
 30
0.0
 11
8.61963
 21
9.77717
 31
0.0
  0
LINE
  8
0
 62
     0
 10
8.61963
 20
9.77717
 30
0.0
 11
8.61963
 21
8.77672
 31
0.0
  0
LINE
  8
0
 62
     0
 10
8.61963
 20
8.77672
 30
0.0
 11
22.6205
 21
8.77672
 31
0.0
  0
LINE
  8
0
 62
     0
 10
22.6205
 20
8.77672
 30
0.0
 11
22.6205
 21
9.77717
 31
0.0
  0
LINE
  8
0
 62
     0
 10
22.6205
 20
9.77717
 30
0.0
 11
23.4211
 21
9.77717
 31
0.0
  0
LINE
  8
0
 62
     0
 10
23.4211
 20
9.77717
 30
0.0
 11
23.4211
 21
12.8764
 31
0.0
  0
LINE
  8
0
 62
     0
 10
23.4211
 20
12.8764
 30
0.0
 11
22.6205
 21
12.8764
 31
0.0
  0
LINE
  8
0
 62
     0
 10
22.6205
 20
12.8764
 30
0.0
 11
22.6205
 21
18.6779
 31
0.0
  0
LINE
  8
0
 62
     0
 10
22.6205
 20
18.6779
 30
0.0
 11
23.4211
 21
18.6779
 31
0.0
  0
LINE
  8
0
 62
     0
 10
23.4211
 20
18.6779
 30
0.0
 11
23.4211
 21
21.7771
 31
0.0
  0
LINE
  8
0
 62
     0
 10
23.4211
 20
21.7771
 30
0.0
 11
22.6205
 21
21.7771
 31
0.0
  0
LINE
  8
0
 62
     0
 10
22.6205
 20
21.7771
 30
0.0
 11
22.6205
 21
22.7762
 31
0.0
  0
LINE
  8
0
 62
     0
 10
22.6205
 20
22.7762
 30
0.0
 11
8.61963
 21
22.7762
 31
0.0
  0
LINE
  8
0
 62
     0
 10
218.171
 20
41.8264
 30
0.0
 11
218.171
 21
40.827
 31
0.0
  0
LINE
  8
0
 62
     0
 10
218.171
 20
40.827
 30
0.0
 11
217.37
 21
40.827
 31
0.0
  0
LINE
  8
0
 62
     0
 10
217.37
 20
40.827
 30
0.0
 11
217.37
 21
37.7278
 31
0.0
  0
LINE
  8
0
 62
     0
 10
217.37
 20
37.7278
 30
0.0
 11
218.171
 21
37.7278
 31
0.0
  0
LINE
  8
0
 62
     0
 10
218.171
 20
37.7278
 30
0.0
 11
218.171
 21
31.9264
 31
0.0
  0
LINE
  8
0
 62
     0
 10
218.171
 20
31.9264
 30
0.0
 11
217.37
 21
31.9264
 31
0.0
  0
LINE
  8
0
 62
     0
 10
217.37
 20
31.9264
 30
0.0
 11
217.37
 21
28.8272
 31
0.0
  0
LINE
  8
0
 62
     0
 10
217.37
 20
28.8272
 30
0.0
 11
218.171
 21
28.8272
 31
0.0
  0
LINE
  8
0
 62
     0
 10
218.171
 20
28.8272
 30
0.0
 11
218.171
 21
27.8267
 31
0.0
  0
LINE
  8
0
 62
     0
 10
218.171
 20
27.8267
 30
0.0
 11
232.17
 21
27.8267
 31
0.0
  0
LINE
  8
0
 62
     0
 10
232.17
 20
27.8267
 30
0.0
 11
232.17
 21
28.8272
 31
0.0
  0
LINE
  8
0
 62
     0
 10
232.17
 20
28.8272
 30
0.0
 11
232.971
 21
28.8272
 31
0.0
  0
LINE
  8
0
 62
     0
 10
232.971
 20
28.8272
 30
0.0
 11
232.971
 21
31.9264
 31
0.0
  0
LINE
  8
0
 62
     0
 10
232.971
 20
31.9264
 30
0.0
 11
232.17
 21
31.9264
 31
0.0
  0
LINE
  8
0
 62
     0
 10
232.17
 20
31.9264
 30
0.0
 11
232.17
 21
37.7278
 31
0.0
  0
LINE
  8
0
 62
     0
 10
232.17
 20
37.7278
 30
0.0
 11
232.971
 21
37.7278
 31
0.0
  0
LINE
  8
0
 62
     0
 10
232.971
 20
37.7278
 30
0.0
 11
232.971
 21
40.827
 31
0.0
  0
LINE
  8
0
 62
     0
 10
232.971
 20
40.827
 30
0.0
 11
232.17
 21
40.827
 31
0.0
  0
LINE
  8
0
 62
     0
 10
232.17
 20
40.827
 30
0.0
 11
232.17
 21
41.8264
 31
0.0
  0
LINE
  8
0
 62
     0
 10
232.17
 20
41.8264
 30
0.0
 11
218.171
 21
41.8264
 31
0.0
  0
LINE
  8
0
 62
     0
 10
199.121
 20
41.8264
 30
0.0
 11
199.121
 21
40.827
 31
0.0
  0
LINE
  8
0
 62
     0
 10
199.121
 20
40.827
 30
0.0
 11
198.32
 21
40.827
 31
0.0
  0
LINE
  8
0
 62
     0
 10
198.32
 20
40.827
 30
0.0
 11
198.32
 21
37.7278
 31
0.0
  0
LINE
  8
0
 62
     0
 10
198.32
 20
37.7278
 30
0.0
 11
199.121
 21
37.7278
 31
0.0
  0
LINE
  8
0
 62
     0
 10
199.121
 20
37.7278
 30
0.0
 11
199.121
 21
31.9264
 31
0.0
  0
LINE
  8
0
 62
     0
 10
199.121
 20
31.9264
 30
0.0
 11
198.32
 21
31.9264
 31
0.0
  0
LINE
  8
0
 62
     0
 10
198.32
 20
31.9264
 30
0.0
 11
198.32
 21
28.8272
 31
0.0
  0
LINE
  8
0
 62
     0
 10
198.32
 20
28.8272
 30
0.0
 11
199.121
 21
28.8272
 31
0.0
  0
LINE
  8
0
 62
     0
 10
199.121
 20
28.8272
 30
0.0
 11
199.121
 21
27.8267
 31
0.0
  0
LINE
  8
0
 62
     0
 10
199.121
 20
27.8267
 30
0.0
 11
213.12
 21
27.8267
 31
0.0
  0
LINE
  8
0
 62
     0
 10
213.12
 20
27.8267
 30
0.0
 11
213.12
 21
28.8272
 31
0.0
  0
LINE
  8
0
 62
     0
 10
213.12
 20
28.8272
 30
0.0
 11
213.921
 21
28.8272
 31
0.0
  0
LINE
  8
0
 62
     0
 10
213.921
 20
28.8272
 30
0.0
 11
213.921
 21
31.9264
 31
0.0
  0
LINE
  8
0
 62
     0
 10
213.921
 20
31.9264
 30
0.0
 11
213.12
 21
31.9264
 31
0.0
  0
LINE
  8
0
 62
     0
 10
213.12
 20
31.9264
 30
0.0
 11
213.12
 21
37.7278
 31
0.0
  0
LINE
  8
0
 62
     0
 10
213.12
 20
37.7278
 30
0.0
 11
213.921
 21
37.7278
 31
0.0
  0
LINE
  8
0
 62
     0
 10
213.921
 20
37.7278
 30
0.0
 11
213.921
 21
40.827
 31
0.0
  0
LINE
  8
0
 62
     0
 10
213.921
 20
40.827
 30
0.0
 11
213.12
 21
40.827
 31
0.0
  0
LINE
  8
0
 62
     0
 10
213.12
 20
40.827
 30
0.0
 11
213.12
 21
41.8264
 31
0.0
  0
LINE
  8
0
 62
     0
 10
213.12
 20
41.8264
 30
0.0
 11
199.121
 21
41.8264
 31
0.0
  0
LINE
  8
0
 62
     0
 10
180.071
 20
41.8264
 30
0.0
 11
180.071
 21
40.827
 31
0.0
  0
LINE
  8
0
 62
     0
 10
180.071
 20
40.827
 30
0.0
 11
179.27
 21
40.827
 31
0.0
  0
LINE
  8
0
 62
     0
 10
179.27
 20
40.827
 30
0.0
 11
179.27
 21
37.7278
 31
0.0
  0
LINE
  8
0
 62
     0
 10
179.27
 20
37.7278
 30
0.0
 11
180.071
 21
37.7278
 31
0.0
  0
LINE
  8
0
 62
     0
 10
180.071
 20
37.7278
 30
0.0
 11
180.071
 21
31.9264
 31
0.0
  0
LINE
  8
0
 62
     0
 10
180.071
 20
31.9264
 30
0.0
 11
179.27
 21
31.9264
 31
0.0
  0
LINE
  8
0
 62
     0
 10
179.27
 20
31.9264
 30
0.0
 11
179.27
 21
28.8272
 31
0.0
  0
LINE
  8
0
 62
     0
 10
179.27
 20
28.8272
 30
0.0
 11
180.071
 21
28.8272
 31
0.0
  0
LINE
  8
0
 62
     0
 10
180.071
 20
28.8272
 30
0.0
 11
180.071
 21
27.8267
 31
0.0
  0
LINE
  8
0
 62
     0
 10
180.071
 20
27.8267
 30
0.0
 11
194.07
 21
27.8267
 31
0.0
  0
LINE
  8
0
 62
     0
 10
194.07
 20
27.8267
 30
0.0
 11
194.07
 21
28.8272
 31
0.0
  0
LINE
  8
0
 62
     0
 10
194.07
 20
28.8272
 30
0.0
 11
194.871
 21
28.8272
 31
0.0
  0
LINE
  8
0
 62
     0
 10
194.871
 20
28.8272
 30
0.0
 11
194.871
 21
31.9264
 31
0.0
  0
LINE
  8
0
 62
     0
 10
194.871
 20
31.9264
 30
0.0
 11
194.07
 21
31.9264
 31
0.0
  0
LINE
  8
0
 62
     0
 10
194.07
 20
31.9264
 30
0.0
 11
194.07
 21
37.7278
 31
0.0
  0
LINE
  8
0
 62
     0
 10
194.07
 20
37.7278
 30
0.0
 11
194.871
 21
37.7278
 31
0.0
  0
LINE
  8
0
 62
     0
 10
194.871
 20
37.7278
 30
0.0
 11
194.871
 21
40.827
 31
0.0
  0
LINE
  8
0
 62
     0
 10
194.871
 20
40.827
 30
0.0
 11
194.07
 21
40.827
 31
0.0
  0
LINE
  8
0
 62
     0
 10
194.07
 20
40.827
 30
0.0
 11
194.07
 21
41.8264
 31
0.0
  0
LINE
  8
0
 62
     0
 10
194.07
 20
41.8264
 30
0.0
 11
180.071
 21
41.8264
 31
0.0
  0
LINE
  8
0
 62
     0
 10
161.021
 20
41.8264
 30
0.0
 11
161.021
 21
40.827
 31
0.0
  0
LINE
  8
0
 62
     0
 10
161.021
 20
40.827
 30
0.0
 11
160.22
 21
40.827
 31
0.0
  0
LINE
  8
0
 62
     0
 10
160.22
 20
40.827
 30
0.0
 11
160.22
 21
37.7278
 31
0.0
  0
LINE
  8
0
 62
     0
 10
160.22
 20
37.7278
 30
0.0
 11
161.021
 21
37.7278
 31
0.0
  0
LINE
  8
0
 62
     0
 10
161.021
 20
37.7278
 30
0.0
 11
161.021
 21
31.9264
 31
0.0
  0
LINE
  8
0
 62
     0
 10
161.021
 20
31.9264
 30
0.0
 11
160.22
 21
31.9264
 31
0.0
  0
LINE
  8
0
 62
     0
 10
160.22
 20
31.9264
 30
0.0
 11
160.22
 21
28.8272
 31
0.0
  0
LINE
  8
0
 62
     0
 10
160.22
 20
28.8272
 30
0.0
 11
161.021
 21
28.8272
 31
0.0
  0
LINE
  8
0
 62
     0
 10
161.021
 20
28.8272
 30
0.0
 11
161.021
 21
27.8267
 31
0.0
  0
LINE
  8
0
 62
     0
 10
161.021
 20
27.8267
 30
0.0
 11
175.02
 21
27.8267
 31
0.0
  0
LINE
  8
0
 62
     0
 10
175.02
 20
27.8267
 30
0.0
 11
175.02
 21
28.8272
 31
0.0
  0
LINE
  8
0
 62
     0
 10
175.02
 20
28.8272
 30
0.0
 11
175.821
 21
28.8272
 31
0.0
  0
LINE
  8
0
 62
     0
 10
175.821
 20
28.8272
 30
0.0
 11
175.821
 21
31.9264
 31
0.0
  0
LINE
  8
0
 62
     0
 10
175.821
 20
31.9264
 30
0.0
 11
175.02
 21
31.9264
 31
0.0
  0
LINE
  8
0
 62
     0
 10
175.02
 20
31.9264
 30
0.0
 11
175.02
 21
37.7278
 31
0.0
  0
LINE
  8
0
 62
     0
 10
175.02
 20
37.7278
 30
0.0
 11
175.821
 21
37.7278
 31
0.0
  0
LINE
  8
0
 62
     0
 10
175.821
 20
37.7278
 30
0.0
 11
175.821
 21
40.827
 31
0.0
  0
LINE
  8
0
 62
     0
 10
175.821
 20
40.827
 30
0.0
 11
175.02
 21
40.827
 31
0.0
  0
LINE
  8
0
 62
     0
 10
175.02
 20
40.827
 30
0.0
 11
175.02
 21
41.8264
 31
0.0
  0
LINE
  8
0
 62
     0
 10
175.02
 20
41.8264
 30
0.0
 11
161.021
 21
41.8264
 31
0.0
  0
LINE
  8
0
 62
     0
 10
141.971
 20
41.8264
 30
0.0
 11
141.971
 21
40.827
 31
0.0
  0
LINE
  8
0
 62
     0
 10
141.971
 20
40.827
 30
0.0
 11
141.17
 21
40.827
 31
0.0
  0
LINE
  8
0
 62
     0
 10
141.17
 20
40.827
 30
0.0
 11
141.17
 21
37.7278
 31
0.0
  0
LINE
  8
0
 62
     0
 10
141.17
 20
37.7278
 30
0.0
 11
141.971
 21
37.7278
 31
0.0
  0
LINE
  8
0
 62
     0
 10
141.971
 20
37.7278
 30
0.0
 11
141.971
 21
31.9264
 31
0.0
  0
LINE
  8
0
 62
     0
 10
141.971
 20
31.9264
 30
0.0
 11
141.17
 21
31.9264
 31
0.0
  0
LINE
  8
0
 62
     0
 10
141.17
 20
31.9264
 30
0.0
 11
141.17
 21
28.8272
 31
0.0
  0
LINE
  8
0
 62
     0
 10
141.17
 20
28.8272
 30
0.0
 11
141.971
 21
28.8272
 31
0.0
  0
LINE
  8
0
 62
     0
 10
141.971
 20
28.8272
 30
0.0
 11
141.971
 21
27.8267
 31
0.0
  0
LINE
  8
0
 62
     0
 10
141.971
 20
27.8267
 30
0.0
 11
155.97
 21
27.8267
 31
0.0
  0
LINE
  8
0
 62
     0
 10
155.97
 20
27.8267
 30
0.0
 11
155.97
 21
28.8272
 31
0.0
  0
LINE
  8
0
 62
     0
 10
155.97
 20
28.8272
 30
0.0
 11
156.771
 21
28.8272
 31
0.0
  0
LINE
  8
0
 62
     0
 10
156.771
 20
28.8272
 30
0.0
 11
156.771
 21
31.9264
 31
0.0
  0
LINE
  8
0
 62
     0
 10
156.771
 20
31.9264
 30
0.0
 11
155.97
 21
31.9264
 31
0.0
  0
LINE
  8
0
 62
     0
 10
155.97
 20
31.9264
 30
0.0
 11
155.97
 21
37.7278
 31
0.0
  0
LINE
  8
0
 62
     0
 10
155.97
 20
37.7278
 30
0.0
 11
156.771
 21
37.7278
 31
0.0
  0
LINE
  8
0
 62
     0
 10
156.771
 20
37.7278
 30
0.0
 11
156.771
 21
40.827
 31
0.0
  0
LINE
  8
0
 62
     0
 10
156.771
 20
40.827
 30
0.0
 11
155.97
 21
40.827
 31
0.0
  0
LINE
  8
0
 62
     0
 10
155.97
 20
40.827
 30
0.0
 11
155.97
 21
41.8264
 31
0.0
  0
LINE
  8
0
 62
     0
 10
155.97
 20
41.8264
 30
0.0
 11
141.971
 21
41.8264
 31
0.0
  0
LINE
  8
0
 62
     0
 10
122.92
 20
41.8264
 30
0.0
 11
122.92
 21
40.827
 31
0.0
  0
LINE
  8
0
 62
     0
 10
122.92
 20
40.827
 30
0.0
 11
122.119
 21
40.827
 31
0.0
  0
LINE
  8
0
 62
     0
 10
122.119
 20
40.827
 30
0.0
 11
122.119
 21
37.7278
 31
0.0
  0
LINE
  8
0
 62
     0
 10
122.119
 20
37.7278
 30
0.0
 11
122.92
 21
37.7278
 31
0.0
  0
LINE
  8
0
 62
     0
 10
122.92
 20
37.7278
 30
0.0
 11
122.92
 21
31.9264
 31
0.0
  0
LINE
  8
0
 62
     0
 10
122.92
 20
31.9264
 30
0.0
 11
122.119
 21
31.9264
 31
0.0
  0
LINE
  8
0
 62
     0
 10
122.119
 20
31.9264
 30
0.0
 11
122.119
 21
28.8272
 31
0.0
  0
LINE
  8
0
 62
     0
 10
122.119
 20
28.8272
 30
0.0
 11
122.92
 21
28.8272
 31
0.0
  0
LINE
  8
0
 62
     0
 10
122.92
 20
28.8272
 30
0.0
 11
122.92
 21
27.8267
 31
0.0
  0
LINE
  8
0
 62
     0
 10
122.92
 20
27.8267
 30
0.0
 11
136.92
 21
27.8267
 31
0.0
  0
LINE
  8
0
 62
     0
 10
136.92
 20
27.8267
 30
0.0
 11
136.92
 21
28.8272
 31
0.0
  0
LINE
  8
0
 62
     0
 10
136.92
 20
28.8272
 30
0.0
 11
137.721
 21
28.8272
 31
0.0
  0
LINE
  8
0
 62
     0
 10
137.721
 20
28.8272
 30
0.0
 11
137.721
 21
31.9264
 31
0.0
  0
LINE
  8
0
 62
     0
 10
137.721
 20
31.9264
 30
0.0
 11
136.92
 21
31.9264
 31
0.0
  0
LINE
  8
0
 62
     0
 10
136.92
 20
31.9264
 30
0.0
 11
136.92
 21
37.7278
 31
0.0
  0
LINE
  8
0
 62
     0
 10
136.92
 20
37.7278
 30
0.0
 11
137.721
 21
37.7278
 31
0.0
  0
LINE
  8
0
 62
     0
 10
137.721
 20
37.7278
 30
0.0
 11
137.721
 21
40.827
 31
0.0
  0
LINE
  8
0
 62
     0
 10
137.721
 20
40.827
 30
0.0
 11
136.92
 21
40.827
 31
0.0
  0
LINE
  8
0
 62
     0
 10
136.92
 20
40.827
 30
0.0
 11
136.92
 21
41.8264
 31
0.0
  0
LINE
  8
0
 62
     0
 10
136.92
 20
41.8264
 30
0.0
 11
122.92
 21
41.8264
 31
0.0
  0
LINE
  8
0
 62
     0
 10
103.87
 20
41.8264
 30
0.0
 11
103.87
 21
40.827
 31
0.0
  0
LINE
  8
0
 62
     0
 10
103.87
 20
40.827
 30
0.0
 11
103.07
 21
40.827
 31
0.0
  0
LINE
  8
0
 62
     0
 10
103.07
 20
40.827
 30
0.0
 11
103.07
 21
37.7278
 31
0.0
  0
LINE
  8
0
 62
     0
 10
103.07
 20
37.7278
 30
0.0
 11
103.87
 21
37.7278
 31
0.0
  0
LINE
  8
0
 62
     0
 10
103.87
 20
37.7278
 30
0.0
 11
103.87
 21
31.9264
 31
0.0
  0
LINE
  8
0
 62
     0
 10
103.87
 20
31.9264
 30
0.0
 11
103.07
 21
31.9264
 31
0.0
  0
LINE
  8
0
 62
     0
 10
103.07
 20
31.9264
 30
0.0
 11
103.07
 21
28.8272
 31
0.0
  0
LINE
  8
0
 62
     0
 10
103.07
 20
28.8272
 30
0.0
 11
103.87
 21
28.8272
 31
0.0
  0
LINE
  8
0
 62
     0
 10
103.87
 20
28.8272
 30
0.0
 11
103.87
 21
27.8267
 31
0.0
  0
LINE
  8
0
 62
     0
 10
103.87
 20
27.8267
 30
0.0
 11
117.869
 21
27.8267
 31
0.0
  0
LINE
  8
0
 62
     0
 10
117.869
 20
27.8267
 30
0.0
 11
117.869
 21
28.8272
 31
0.0
  0
LINE
  8
0
 62
     0
 10
117.869
 20
28.8272
 30
0.0
 11
118.67
 21
28.8272
 31
0.0
  0
LINE
  8
0
 62
     0
 10
118.67
 20
28.8272
 30
0.0
 11
118.67
 21
31.9264
 31
0.0
  0
LINE
  8
0
 62
     0
 10
118.67
 20
31.9264
 30
0.0
 11
117.869
 21
31.9264
 31
0.0
  0
LINE
  8
0
 62
     0
 10
117.869
 20
31.9264
 30
0.0
 11
117.869
 21
37.7278
 31
0.0
  0
LINE
  8
0
 62
     0
 10
117.869
 20
37.7278
 30
0.0
 11
118.67
 21
37.7278
 31
0.0
  0
LINE
  8
0
 62
     0
 10
118.67
 20
37.7278
 30
0.0
 11
118.67
 21
40.827
 31
0.0
  0
LINE
  8
0
 62
     0
 10
118.67
 20
40.827
 30
0.0
 11
117.869
 21
40.827
 31
0.0
  0
LINE
  8
0
 62
     0
 10
117.869
 20
40.827
 30
0.0
 11
117.869
 21
41.8264
 31
0.0
  0
LINE
  8
0
 62
     0
 10
117.869
 20
41.8264
 30
0.0
 11
103.87
 21
41.8264
 31
0.0
  0
LINE
  8
0
 62
     0
 10
84.8212
 20
41.8264
 30
0.0
 11
84.8212
 21
40.827
 31
0.0
  0
LINE
  8
0
 62
     0
 10
84.8212
 20
40.827
 30
0.0
 11
84.0204
 21
40.827
 31
0.0
  0
LINE
  8
0
 62
     0
 10
84.0204
 20
40.827
 30
0.0
 11
84.0204
 21
37.7278
 31
0.0
  0
LINE
  8
0
 62
     0
 10
84.0204
 20
37.7278
 30
0.0
 11
84.8212
 21
37.7278
 31
0.0
  0
LINE
  8
0
 62
     0
 10
84.8212
 20
37.7278
 30
0.0
 11
84.8212
 21
31.9264
 31
0.0
  0
LINE
  8
0
 62
     0
 10
84.8212
 20
31.9264
 30
0.0
 11
84.0204
 21
31.9264
 31
0.0
  0
LINE
  8
0
 62
     0
 10
84.0204
 20
31.9264
 30
0.0
 11
84.0204
 21
28.8272
 31
0.0
  0
LINE
  8
0
 62
     0
 10
84.0204
 20
28.8272
 30
0.0
 11
84.8212
 21
28.8272
 31
0.0
  0
LINE
  8
0
 62
     0
 10
84.8212
 20
28.8272
 30
0.0
 11
84.8212
 21
27.8267
 31
0.0
  0
LINE
  8
0
 62
     0
 10
84.8212
 20
27.8267
 30
0.0
 11
98.8205
 21
27.8267
 31
0.0
  0
LINE
  8
0
 62
     0
 10
98.8205
 20
27.8267
 30
0.0
 11
98.8205
 21
28.8272
 31
0.0
  0
LINE
  8
0
 62
     0
 10
98.8205
 20
28.8272
 30
0.0
 11
99.6199
 21
28.8272
 31
0.0
  0
LINE
  8
0
 62
     0
 10
99.6199
 20
28.8272
 30
0.0
 11
99.6199
 21
31.9264
 31
0.0
  0
LINE
  8
0
 62
     0
 10
99.6199
 20
31.9264
 30
0.0
 11
98.8205
 21
31.9264
 31
0.0
  0
LINE
  8
0
 62
     0
 10
98.8205
 20
31.9264
 30
0.0
 11
98.8205
 21
37.7278
 31
0.0
  0
LINE
  8
0
 62
     0
 10
98.8205
 20
37.7278
 30
0.0
 11
99.6199
 21
37.7278
 31
0.0
  0
LINE
  8
0
 62
     0
 10
99.6199
 20
37.7278
 30
0.0
 11
99.6199
 21
40.827
 31
0.0
  0
LINE
  8
0
 62
     0
 10
99.6199
 20
40.827
 30
0.0
 11
98.8205
 21
40.827
 31
0.0
  0
LINE
  8
0
 62
     0
 10
98.8205
 20
40.827
 30
0.0
 11
98.8205
 21
41.8264
 31
0.0
  0
LINE
  8
0
 62
     0
 10
98.8205
 20
41.8264
 30
0.0
 11
84.8212
 21
41.8264
 31
0.0
  0
LINE
  8
0
 62
     0
 10
65.7712
 20
41.8264
 30
0.0
 11
65.7712
 21
40.827
 31
0.0
  0
LINE
  8
0
 62
     0
 10
65.7712
 20
40.827
 30
0.0
 11
64.9704
 21
40.827
 31
0.0
  0
LINE
  8
0
 62
     0
 10
64.9704
 20
40.827
 30
0.0
 11
64.9704
 21
37.7278
 31
0.0
  0
LINE
  8
0
 62
     0
 10
64.9704
 20
37.7278
 30
0.0
 11
65.7712
 21
37.7278
 31
0.0
  0
LINE
  8
0
 62
     0
 10
65.7712
 20
37.7278
 30
0.0
 11
65.7712
 21
31.9264
 31
0.0
  0
LINE
  8
0
 62
     0
 10
65.7712
 20
31.9264
 30
0.0
 11
64.9704
 21
31.9264
 31
0.0
  0
LINE
  8
0
 62
     0
 10
64.9704
 20
31.9264
 30
0.0
 11
64.9704
 21
28.8272
 31
0.0
  0
LINE
  8
0
 62
     0
 10
64.9704
 20
28.8272
 30
0.0
 11
65.7712
 21
28.8272
 31
0.0
  0
LINE
  8
0
 62
     0
 10
65.7712
 20
28.8272
 30
0.0
 11
65.7712
 21
27.8267
 31
0.0
  0
LINE
  8
0
 62
     0
 10
65.7712
 20
27.8267
 30
0.0
 11
79.7705
 21
27.8267
 31
0.0
  0
LINE
  8
0
 62
     0
 10
79.7705
 20
27.8267
 30
0.0
 11
79.7705
 21
28.8272
 31
0.0
  0
LINE
  8
0
 62
     0
 10
79.7705
 20
28.8272
 30
0.0
 11
80.5713
 21
28.8272
 31
0.0
  0
LINE
  8
0
 62
     0
 10
80.5713
 20
28.8272
 30
0.0
 11
80.5713
 21
31.9264
 31
0.0
  0
LINE
  8
0
 62
     0
 10
80.5713
 20
31.9264
 30
0.0
 11
79.7705
 21
31.9264
 31
0.0
  0
LINE
  8
0
 62
     0
 10
79.7705
 20
31.9264
 30
0.0
 11
79.7705
 21
37.7278
 31
0.0
  0
LINE
  8
0
 62
     0
 10
79.7705
 20
37.7278
 30
0.0
 11
80.5713
 21
37.7278
 31
0.0
  0
LINE
  8
0
 62
     0
 10
80.5713
 20
37.7278
 30
0.0
 11
80.5713
 21
40.827
 31
0.0
  0
LINE
  8
0
 62
     0
 10
80.5713
 20
40.827
 30
0.0
 11
79.7705
 21
40.827
 31
0.0
  0
LINE
  8
0
 62
     0
 10
79.7705
 20
40.827
 30
0.0
 11
79.7705
 21
41.8264
 31
0.0
  0
LINE
  8
0
 62
     0
 10
79.7705
 20
41.8264
 30
0.0
 11
65.7712
 21
41.8264
 31
0.0
  0
LINE
  8
0
 62
     0
 10
46.7212
 20
41.8264
 30
0.0
 11
46.7212
 21
40.827
 31
0.0
  0
LINE
  8
0
 62
     0
 10
46.7212
 20
40.827
 30
0.0
 11
45.9204
 21
40.827
 31
0.0
  0
LINE
  8
0
 62
     0
 10
45.9204
 20
40.827
 30
0.0
 11
45.9204
 21
37.7278
 31
0.0
  0
LINE
  8
0
 62
     0
 10
45.9204
 20
37.7278
 30
0.0
 11
46.7212
 21
37.7278
 31
0.0
  0
LINE
  8
0
 62
     0
 10
46.7212
 20
37.7278
 30
0.0
 11
46.7212
 21
31.9264
 31
0.0
  0
LINE
  8
0
 62
     0
 10
46.7212
 20
31.9264
 30
0.0
 11
45.9204
 21
31.9264
 31
0.0
  0
LINE
  8
0
 62
     0
 10
45.9204
 20
31.9264
 30
0.0
 11
45.9204
 21
28.8272
 31
0.0
  0
LINE
  8
0
 62
     0
 10
45.9204
 20
28.8272
 30
0.0
 11
46.7212
 21
28.8272
 31
0.0
  0
LINE
  8
0
 62
     0
 10
46.7212
 20
28.8272
 30
0.0
 11
46.7212
 21
27.8267
 31
0.0
  0
LINE
  8
0
 62
     0
 10
46.7212
 20
27.8267
 30
0.0
 11
60.7205
 21
27.8267
 31
0.0
  0
LINE
  8
0
 62
     0
 10
60.7205
 20
27.8267
 30
0.0
 11
60.7205
 21
28.8272
 31
0.0
  0
LINE
  8
0
 62
     0
 10
60.7205
 20
28.8272
 30
0.0
 11
61.5213
 21
28.8272
 31
0.0
  0
LINE
  8
0
 62
     0
 10
61.5213
 20
28.8272
 30
0.0
 11
61.5213
 21
31.9264
 31
0.0
  0
LINE
  8
0
 62
     0
 10
61.5213
 20
31.9264
 30
0.0
 11
60.7205
 21
31.9264
 31
0.0
  0
LINE
  8
0
 62
     0
 10
60.7205
 20
31.9264
 30
0.0
 11
60.7205
 21
37.7278
 31
0.0
  0
LINE
  8
0
 62
     0
 10
60.7205
 20
37.7278
 30
0.0
 11
61.5213
 21
37.7278
 31
0.0
  0
LINE
  8
0
 62
     0
 10
61.5213
 20
37.7278
 30
0.0
 11
61.5213
 21
40.827
 31
0.0
  0
LINE
  8
0
 62
     0
 10
61.5213
 20
40.827
 30
0.0
 11
60.7205
 21
40.827
 31
0.0
  0
LINE
  8
0
 62
     0
 10
60.7205
 20
40.827
 30
0.0
 11
60.7205
 21
41.8264
 31
0.0
  0
LINE
  8
0
 62
     0
 10
60.7205
 20
41.8264
 30
0.0
 11
46.7212
 21
41.8264
 31
0.0
  0
LINE
  8
0
 62
     0
 10
27.671
 20
41.8264
 30
0.0
 11
27.671
 21
40.827
 31
0.0
  0
LINE
  8
0
 62
     0
 10
27.671
 20
40.827
 30
0.0
 11
26.8704
 21
40.827
 31
0.0
  0
LINE
  8
0
 62
     0
 10
26.8704
 20
40.827
 30
0.0
 11
26.8704
 21
37.7278
 31
0.0
  0
LINE
  8
0
 62
     0
 10
26.8704
 20
37.7278
 30
0.0
 11
27.671
 21
37.7278
 31
0.0
  0
LINE
  8
0
 62
     0
 10
27.671
 20
37.7278
 30
0.0
 11
27.671
 21
31.9264
 31
0.0
  0
LINE
  8
0
 62
     0
 10
27.671
 20
31.9264
 30
0.0
 11
26.8704
 21
31.9264
 31
0.0
  0
LINE
  8
0
 62
     0
 10
26.8704
 20
31.9264
 30
0.0
 11
26.8704
 21
28.8272
 31
0.0
  0
LINE
  8
0
 62
     0
 10
26.8704
 20
28.8272
 30
0.0
 11
27.671
 21
28.8272
 31
0.0
  0
LINE
  8
0
 62
     0
 10
27.671
 20
28.8272
 30
0.0
 11
27.671
 21
27.8267
 31
0.0
  0
LINE
  8
0
 62
     0
 10
27.671
 20
27.8267
 30
0.0
 11
41.6705
 21
27.8267
 31
0.0
  0
LINE
  8
0
 62
     0
 10
41.6705
 20
27.8267
 30
0.0
 11
41.6705
 21
28.8272
 31
0.0
  0
LINE
  8
0
 62
     0
 10
41.6705
 20
28.8272
 30
0.0
 11
42.4713
 21
28.8272
 31
0.0
  0
LINE
  8
0
 62
     0
 10
42.4713
 20
28.8272
 30
0.0
 11
42.4713
 21
31.9264
 31
0.0
  0
LINE
  8
0
 62
     0
 10
42.4713
 20
31.9264
 30
0.0
 11
41.6705
 21
31.9264
 31
0.0
  0
LINE
  8
0
 62
     0
 10
41.6705
 20
31.9264
 30
0.0
 11
41.6705
 21
37.7278
 31
0.0
  0
LINE
  8
0
 62
     0
 10
41.6705
 20
37.7278
 30
0.0
 11
42.4713
 21
37.7278
 31
0.0
  0
LINE
  8
0
 62
     0
 10
42.4713
 20
37.7278
 30
0.0
 11
42.4713
 21
40.827
 31
0.0
  0
LINE
  8
0
 62
     0
 10
42.4713
 20
40.827
 30
0.0
 11
41.6705
 21
40.827
 31
0.0
  0
LINE
  8
0
 62
     0
 10
41.6705
 20
40.827
 30
0.0
 11
41.6705
 21
41.8264
 31
0.0
  0
LINE
  8
0
 62
     0
 10
41.6705
 20
41.8264
 30
0.0
 11
27.671
 21
41.8264
 31
0.0
  0
LINE
  8
0
 62
     0
 10
8.61963
 20
41.8264
 30
0.0
 11
8.61963
 21
40.827
 31
0.0
  0
LINE
  8
0
 62
     0
 10
8.61963
 20
40.827
 30
0.0
 11
7.819
 21
40.827
 31
0.0
  0
LINE
  8
0
 62
     0
 10
7.819
 20
40.827
 30
0.0
 11
7.819
 21
37.7278
 31
0.0
  0
LINE
  8
0
 62
     0
 10
7.819
 20
37.7278
 30
0.0
 11
8.61963
 21
37.7278
 31
0.0
  0
LINE
  8
0
 62
     0
 10
8.61963
 20
37.7278
 30
0.0
 11
8.61963
 21
31.9264
 31
0.0
  0
LINE
  8
0
 62
     0
 10
8.61963
 20
31.9264
 30
0.0
 11
7.819
 21
31.9264
 31
0.0
  0
LINE
  8
0
 62
     0
 10
7.819
 20
31.9264
 30
0.0
 11
7.819
 21
28.8272
 31
0.0
  0
LINE
  8
0
 62
     0
 10
7.819
 20
28.8272
 30
0.0
 11
8.61963
 21
28.8272
 31
0.0
  0
LINE
  8
0
 62
     0
 10
8.61963
 20
28.8272
 30
0.0
 11
8.61963
 21
27.8267
 31
0.0
  0
LINE
  8
0
 62
     0
 10
8.61963
 20
27.8267
 30
0.0
 11
22.6205
 21
27.8267
 31
0.0
  0
LINE
  8
0
 62
     0
 10
22.6205
 20
27.8267
 30
0.0
 11
22.6205
 21
28.8272
 31
0.0
  0
LINE
  8
0
 62
     0
 10
22.6205
 20
28.8272
 30
0.0
 11
23.4211
 21
28.8272
 31
0.0
  0
LINE
  8
0
 62
     0
 10
23.4211
 20
28.8272
 30
0.0
 11
23.4211
 21
31.9264
 31
0.0
  0
LINE
  8
0
 62
     0
 10
23.4211
 20
31.9264
 30
0.0
 11
22.6205
 21
31.9264
 31
0.0
  0
LINE
  8
0
 62
     0
 10
22.6205
 20
31.9264
 30
0.0
 11
22.6205
 21
37.7278
 31
0.0
  0
LINE
  8
0
 62
     0
 10
22.6205
 20
37.7278
 30
0.0
 11
23.4211
 21
37.7278
 31
0.0
  0
LINE
  8
0
 62
     0
 10
23.4211
 20
37.7278
 30
0.0
 11
23.4211
 21
40.827
 31
0.0
  0
LINE
  8
0
 62
     0
 10
23.4211
 20
40.827
 30
0.0
 11
22.6205
 21
40.827
 31
0.0
  0
LINE
  8
0
 62
     0
 10
22.6205
 20
40.827
 30
0.0
 11
22.6205
 21
41.8264
 31
0.0
  0
LINE
  8
0
 62
     0
 10
22.6205
 20
41.8264
 30
0.0
 11
8.61963
 21
41.8264
 31
0.0
  0
LINE
  8
0
 62
     0
 10
218.171
 20
60.8764
 30
0.0
 11
218.171
 21
59.877
 31
0.0
  0
LINE
  8
0
 62
     0
 10
218.171
 20
59.877
 30
0.0
 11
217.37
 21
59.877
 31
0.0
  0
LINE
  8
0
 62
     0
 10
217.37
 20
59.877
 30
0.0
 11
217.37
 21
56.7764
 31
0.0
  0
LINE
  8
0
 62
     0
 10
217.37
 20
56.7764
 30
0.0
 11
218.171
 21
56.7764
 31
0.0
  0
LINE
  8
0
 62
     0
 10
218.171
 20
56.7764
 30
0.0
 11
218.171
 21
50.9764
 31
0.0
  0
LINE
  8
0
 62
     0
 10
218.171
 20
50.9764
 30
0.0
 11
217.37
 21
50.9764
 31
0.0
  0
LINE
  8
0
 62
     0
 10
217.37
 20
50.9764
 30
0.0
 11
217.37
 21
47.8772
 31
0.0
  0
LINE
  8
0
 62
     0
 10
217.37
 20
47.8772
 30
0.0
 11
218.171
 21
47.8772
 31
0.0
  0
LINE
  8
0
 62
     0
 10
218.171
 20
47.8772
 30
0.0
 11
218.171
 21
46.8768
 31
0.0
  0
LINE
  8
0
 62
     0
 10
218.171
 20
46.8768
 30
0.0
 11
232.17
 21
46.8768
 31
0.0
  0
LINE
  8
0
 62
     0
 10
232.17
 20
46.8768
 30
0.0
 11
232.17
 21
47.8772
 31
0.0
  0
LINE
  8
0
 62
     0
 10
232.17
 20
47.8772
 30
0.0
 11
232.971
 21
47.8772
 31
0.0
  0
LINE
  8
0
 62
     0
 10
232.971
 20
47.8772
 30
0.0
 11
232.971
 21
50.9764
 31
0.0
  0
LINE
  8
0
 62
     0
 10
232.971
 20
50.9764
 30
0.0
 11
232.17
 21
50.9764
 31
0.0
  0
LINE
  8
0
 62
     0
 10
232.17
 20
50.9764
 30
0.0
 11
232.17
 21
56.7764
 31
0.0
  0
LINE
  8
0
 62
     0
 10
232.17
 20
56.7764
 30
0.0
 11
232.971
 21
56.7764
 31
0.0
  0
LINE
  8
0
 62
     0
 10
232.971
 20
56.7764
 30
0.0
 11
232.971
 21
59.877
 31
0.0
  0
LINE
  8
0
 62
     0
 10
232.971
 20
59.877
 30
0.0
 11
232.17
 21
59.877
 31
0.0
  0
LINE
  8
0
 62
     0
 10
232.17
 20
59.877
 30
0.0
 11
232.17
 21
60.8764
 31
0.0
  0
LINE
  8
0
 62
     0
 10
232.17
 20
60.8764
 30
0.0
 11
218.171
 21
60.8764
 31
0.0
  0
LINE
  8
0
 62
     0
 10
199.121
 20
60.8764
 30
0.0
 11
199.121
 21
59.877
 31
0.0
  0
LINE
  8
0
 62
     0
 10
199.121
 20
59.877
 30
0.0
 11
198.32
 21
59.877
 31
0.0
  0
LINE
  8
0
 62
     0
 10
198.32
 20
59.877
 30
0.0
 11
198.32
 21
56.7764
 31
0.0
  0
LINE
  8
0
 62
     0
 10
198.32
 20
56.7764
 30
0.0
 11
199.121
 21
56.7764
 31
0.0
  0
LINE
  8
0
 62
     0
 10
199.121
 20
56.7764
 30
0.0
 11
199.121
 21
50.9764
 31
0.0
  0
LINE
  8
0
 62
     0
 10
199.121
 20
50.9764
 30
0.0
 11
198.32
 21
50.9764
 31
0.0
  0
LINE
  8
0
 62
     0
 10
198.32
 20
50.9764
 30
0.0
 11
198.32
 21
47.8772
 31
0.0
  0
LINE
  8
0
 62
     0
 10
198.32
 20
47.8772
 30
0.0
 11
199.121
 21
47.8772
 31
0.0
  0
LINE
  8
0
 62
     0
 10
199.121
 20
47.8772
 30
0.0
 11
199.121
 21
46.8768
 31
0.0
  0
LINE
  8
0
 62
     0
 10
199.121
 20
46.8768
 30
0.0
 11
213.12
 21
46.8768
 31
0.0
  0
LINE
  8
0
 62
     0
 10
213.12
 20
46.8768
 30
0.0
 11
213.12
 21
47.8772
 31
0.0
  0
LINE
  8
0
 62
     0
 10
213.12
 20
47.8772
 30
0.0
 11
213.921
 21
47.8772
 31
0.0
  0
LINE
  8
0
 62
     0
 10
213.921
 20
47.8772
 30
0.0
 11
213.921
 21
50.9764
 31
0.0
  0
LINE
  8
0
 62
     0
 10
213.921
 20
50.9764
 30
0.0
 11
213.12
 21
50.9764
 31
0.0
  0
LINE
  8
0
 62
     0
 10
213.12
 20
50.9764
 30
0.0
 11
213.12
 21
56.7764
 31
0.0
  0
LINE
  8
0
 62
     0
 10
213.12
 20
56.7764
 30
0.0
 11
213.921
 21
56.7764
 31
0.0
  0
LINE
  8
0
 62
     0
 10
213.921
 20
56.7764
 30
0.0
 11
213.921
 21
59.877
 31
0.0
  0
LINE
  8
0
 62
     0
 10
213.921
 20
59.877
 30
0.0
 11
213.12
 21
59.877
 31
0.0
  0
LINE
  8
0
 62
     0
 10
213.12
 20
59.877
 30
0.0
 11
213.12
 21
60.8764
 31
0.0
  0
LINE
  8
0
 62
     0
 10
213.12
 20
60.8764
 30
0.0
 11
199.121
 21
60.8764
 31
0.0
  0
LINE
  8
0
 62
     0
 10
180.071
 20
60.8764
 30
0.0
 11
180.071
 21
59.877
 31
0.0
  0
LINE
  8
0
 62
     0
 10
180.071
 20
59.877
 30
0.0
 11
179.27
 21
59.877
 31
0.0
  0
LINE
  8
0
 62
     0
 10
179.27
 20
59.877
 30
0.0
 11
179.27
 21
56.7764
 31
0.0
  0
LINE
  8
0
 62
     0
 10
179.27
 20
56.7764
 30
0.0
 11
180.071
 21
56.7764
 31
0.0
  0
LINE
  8
0
 62
     0
 10
180.071
 20
56.7764
 30
0.0
 11
180.071
 21
50.9764
 31
0.0
  0
LINE
  8
0
 62
     0
 10
180.071
 20
50.9764
 30
0.0
 11
179.27
 21
50.9764
 31
0.0
  0
LINE
  8
0
 62
     0
 10
179.27
 20
50.9764
 30
0.0
 11
179.27
 21
47.8772
 31
0.0
  0
LINE
  8
0
 62
     0
 10
179.27
 20
47.8772
 30
0.0
 11
180.071
 21
47.8772
 31
0.0
  0
LINE
  8
0
 62
     0
 10
180.071
 20
47.8772
 30
0.0
 11
180.071
 21
46.8768
 31
0.0
  0
LINE
  8
0
 62
     0
 10
180.071
 20
46.8768
 30
0.0
 11
194.07
 21
46.8768
 31
0.0
  0
LINE
  8
0
 62
     0
 10
194.07
 20
46.8768
 30
0.0
 11
194.07
 21
47.8772
 31
0.0
  0
LINE
  8
0
 62
     0
 10
194.07
 20
47.8772
 30
0.0
 11
194.871
 21
47.8772
 31
0.0
  0
LINE
  8
0
 62
     0
 10
194.871
 20
47.8772
 30
0.0
 11
194.871
 21
50.9764
 31
0.0
  0
LINE
  8
0
 62
     0
 10
194.871
 20
50.9764
 30
0.0
 11
194.07
 21
50.9764
 31
0.0
  0
LINE
  8
0
 62
     0
 10
194.07
 20
50.9764
 30
0.0
 11
194.07
 21
56.7764
 31
0.0
  0
LINE
  8
0
 62
     0
 10
194.07
 20
56.7764
 30
0.0
 11
194.871
 21
56.7764
 31
0.0
  0
LINE
  8
0
 62
     0
 10
194.871
 20
56.7764
 30
0.0
 11
194.871
 21
59.877
 31
0.0
  0
LINE
  8
0
 62
     0
 10
194.871
 20
59.877
 30
0.0
 11
194.07
 21
59.877
 31
0.0
  0
LINE
  8
0
 62
     0
 10
194.07
 20
59.877
 30
0.0
 11
194.07
 21
60.8764
 31
0.0
  0
LINE
  8
0
 62
     0
 10
194.07
 20
60.8764
 30
0.0
 11
180.071
 21
60.8764
 31
0.0
  0
LINE
  8
0
 62
     0
 10
161.021
 20
60.8764
 30
0.0
 11
161.021
 21
59.877
 31
0.0
  0
LINE
  8
0
 62
     0
 10
161.021
 20
59.877
 30
0.0
 11
160.22
 21
59.877
 31
0.0
  0
LINE
  8
0
 62
     0
 10
160.22
 20
59.877
 30
0.0
 11
160.22
 21
56.7764
 31
0.0
  0
LINE
  8
0
 62
     0
 10
160.22
 20
56.7764
 30
0.0
 11
161.021
 21
56.7764
 31
0.0
  0
LINE
  8
0
 62
     0
 10
161.021
 20
56.7764
 30
0.0
 11
161.021
 21
50.9764
 31
0.0
  0
LINE
  8
0
 62
     0
 10
161.021
 20
50.9764
 30
0.0
 11
160.22
 21
50.9764
 31
0.0
  0
LINE
  8
0
 62
     0
 10
160.22
 20
50.9764
 30
0.0
 11
160.22
 21
47.8772
 31
0.0
  0
LINE
  8
0
 62
     0
 10
160.22
 20
47.8772
 30
0.0
 11
161.021
 21
47.8772
 31
0.0
  0
LINE
  8
0
 62
     0
 10
161.021
 20
47.8772
 30
0.0
 11
161.021
 21
46.8768
 31
0.0
  0
LINE
  8
0
 62
     0
 10
161.021
 20
46.8768
 30
0.0
 11
175.02
 21
46.8768
 31
0.0
  0
LINE
  8
0
 62
     0
 10
175.02
 20
46.8768
 30
0.0
 11
175.02
 21
47.8772
 31
0.0
  0
LINE
  8
0
 62
     0
 10
175.02
 20
47.8772
 30
0.0
 11
175.821
 21
47.8772
 31
0.0
  0
LINE
  8
0
 62
     0
 10
175.821
 20
47.8772
 30
0.0
 11
175.821
 21
50.9764
 31
0.0
  0
LINE
  8
0
 62
     0
 10
175.821
 20
50.9764
 30
0.0
 11
175.02
 21
50.9764
 31
0.0
  0
LINE
  8
0
 62
     0
 10
175.02
 20
50.9764
 30
0.0
 11
175.02
 21
56.7764
 31
0.0
  0
LINE
  8
0
 62
     0
 10
175.02
 20
56.7764
 30
0.0
 11
175.821
 21
56.7764
 31
0.0
  0
LINE
  8
0
 62
     0
 10
175.821
 20
56.7764
 30
0.0
 11
175.821
 21
59.877
 31
0.0
  0
LINE
  8
0
 62
     0
 10
175.821
 20
59.877
 30
0.0
 11
175.02
 21
59.877
 31
0.0
  0
LINE
  8
0
 62
     0
 10
175.02
 20
59.877
 30
0.0
 11
175.02
 21
60.8764
 31
0.0
  0
LINE
  8
0
 62
     0
 10
175.02
 20
60.8764
 30
0.0
 11
161.021
 21
60.8764
 31
0.0
  0
LINE
  8
0
 62
     0
 10
141.971
 20
60.8764
 30
0.0
 11
141.971
 21
59.877
 31
0.0
  0
LINE
  8
0
 62
     0
 10
141.971
 20
59.877
 30
0.0
 11
141.17
 21
59.877
 31
0.0
  0
LINE
  8
0
 62
     0
 10
141.17
 20
59.877
 30
0.0
 11
141.17
 21
56.7764
 31
0.0
  0
LINE
  8
0
 62
     0
 10
141.17
 20
56.7764
 30
0.0
 11
141.971
 21
56.7764
 31
0.0
  0
LINE
  8
0
 62
     0
 10
141.971
 20
56.7764
 30
0.0
 11
141.971
 21
50.9764
 31
0.0
  0
LINE
  8
0
 62
     0
 10
141.971
 20
50.9764
 30
0.0
 11
141.17
 21
50.9764
 31
0.0
  0
LINE
  8
0
 62
     0
 10
141.17
 20
50.9764
 30
0.0
 11
141.17
 21
47.8772
 31
0.0
  0
LINE
  8
0
 62
     0
 10
141.17
 20
47.8772
 30
0.0
 11
141.971
 21
47.8772
 31
0.0
  0
LINE
  8
0
 62
     0
 10
141.971
 20
47.8772
 30
0.0
 11
141.971
 21
46.8768
 31
0.0
  0
LINE
  8
0
 62
     0
 10
141.971
 20
46.8768
 30
0.0
 11
155.97
 21
46.8768
 31
0.0
  0
LINE
  8
0
 62
     0
 10
155.97
 20
46.8768
 30
0.0
 11
155.97
 21
47.8772
 31
0.0
  0
LINE
  8
0
 62
     0
 10
155.97
 20
47.8772
 30
0.0
 11
156.771
 21
47.8772
 31
0.0
  0
LINE
  8
0
 62
     0
 10
156.771
 20
47.8772
 30
0.0
 11
156.771
 21
50.9764
 31
0.0
  0
LINE
  8
0
 62
     0
 10
156.771
 20
50.9764
 30
0.0
 11
155.97
 21
50.9764
 31
0.0
  0
LINE
  8
0
 62
     0
 10
155.97
 20
50.9764
 30
0.0
 11
155.97
 21
56.7764
 31
0.0
  0
LINE
  8
0
 62
     0
 10
155.97
 20
56.7764
 30
0.0
 11
156.771
 21
56.7764
 31
0.0
  0
LINE
  8
0
 62
     0
 10
156.771
 20
56.7764
 30
0.0
 11
156.771
 21
59.877
 31
0.0
  0
LINE
  8
0
 62
     0
 10
156.771
 20
59.877
 30
0.0
 11
155.97
 21
59.877
 31
0.0
  0
LINE
  8
0
 62
     0
 10
155.97
 20
59.877
 30
0.0
 11
155.97
 21
60.8764
 31
0.0
  0
LINE
  8
0
 62
     0
 10
155.97
 20
60.8764
 30
0.0
 11
141.971
 21
60.8764
 31
0.0
  0
LINE
  8
0
 62
     0
 10
122.92
 20
60.8764
 30
0.0
 11
122.92
 21
59.877
 31
0.0
  0
LINE
  8
0
 62
     0
 10
122.92
 20
59.877
 30
0.0
 11
122.119
 21
59.877
 31
0.0
  0
LINE
  8
0
 62
     0
 10
122.119
 20
59.877
 30
0.0
 11
122.119
 21
56.7764
 31
0.0
  0
LINE
  8
0
 62
     0
 10
122.119
 20
56.7764
 30
0.0
 11
122.92
 21
56.7764
 31
0.0
  0
LINE
  8
0
 62
     0
 10
122.92
 20
56.7764
 30
0.0
 11
122.92
 21
50.9764
 31
0.0
  0
LINE
  8
0
 62
     0
 10
122.92
 20
50.9764
 30
0.0
 11
122.119
 21
50.9764
 31
0.0
  0
LINE
  8
0
 62
     0
 10
122.119
 20
50.9764
 30
0.0
 11
122.119
 21
47.8772
 31
0.0
  0
LINE
  8
0
 62
     0
 10
122.119
 20
47.8772
 30
0.0
 11
122.92
 21
47.8772
 31
0.0
  0
LINE
  8
0
 62
     0
 10
122.92
 20
47.8772
 30
0.0
 11
122.92
 21
46.8768
 31
0.0
  0
LINE
  8
0
 62
     0
 10
122.92
 20
46.8768
 30
0.0
 11
136.92
 21
46.8768
 31
0.0
  0
LINE
  8
0
 62
     0
 10
136.92
 20
46.8768
 30
0.0
 11
136.92
 21
47.8772
 31
0.0
  0
LINE
  8
0
 62
     0
 10
136.92
 20
47.8772
 30
0.0
 11
137.721
 21
47.8772
 31
0.0
  0
LINE
  8
0
 62
     0
 10
137.721
 20
47.8772
 30
0.0
 11
137.721
 21
50.9764
 31
0.0
  0
LINE
  8
0
 62
     0
 10
137.721
 20
50.9764
 30
0.0
 11
136.92
 21
50.9764
 31
0.0
  0
LINE
  8
0
 62
     0
 10
136.92
 20
50.9764
 30
0.0
 11
136.92
 21
56.7764
 31
0.0
  0
LINE
  8
0
 62
     0
 10
136.92
 20
56.7764
 30
0.0
 11
137.721
 21
56.7764
 31
0.0
  0
LINE
  8
0
 62
     0
 10
137.721
 20
56.7764
 30
0.0
 11
137.721
 21
59.877
 31
0.0
  0
LINE
  8
0
 62
     0
 10
137.721
 20
59.877
 30
0.0
 11
136.92
 21
59.877
 31
0.0
  0
LINE
  8
0
 62
     0
 10
136.92
 20
59.877
 30
0.0
 11
136.92
 21
60.8764
 31
0.0
  0
LINE
  8
0
 62
     0
 10
136.92
 20
60.8764
 30
0.0
 11
122.92
 21
60.8764
 31
0.0
  0
LINE
  8
0
 62
     0
 10
103.87
 20
60.8764
 30
0.0
 11
103.87
 21
59.877
 31
0.0
  0
LINE
  8
0
 62
     0
 10
103.87
 20
59.877
 30
0.0
 11
103.07
 21
59.877
 31
0.0
  0
LINE
  8
0
 62
     0
 10
103.07
 20
59.877
 30
0.0
 11
103.07
 21
56.7764
 31
0.0
  0
LINE
  8
0
 62
     0
 10
103.07
 20
56.7764
 30
0.0
 11
103.87
 21
56.7764
 31
0.0
  0
LINE
  8
0
 62
     0
 10
103.87
 20
56.7764
 30
0.0
 11
103.87
 21
50.9764
 31
0.0
  0
LINE
  8
0
 62
     0
 10
103.87
 20
50.9764
 30
0.0
 11
103.07
 21
50.9764
 31
0.0
  0
LINE
  8
0
 62
     0
 10
103.07
 20
50.9764
 30
0.0
 11
103.07
 21
47.8772
 31
0.0
  0
LINE
  8
0
 62
     0
 10
103.07
 20
47.8772
 30
0.0
 11
103.87
 21
47.8772
 31
0.0
  0
LINE
  8
0
 62
     0
 10
103.87
 20
47.8772
 30
0.0
 11
103.87
 21
46.8768
 31
0.0
  0
LINE
  8
0
 62
     0
 10
103.87
 20
46.8768
 30
0.0
 11
117.869
 21
46.8768
 31
0.0
  0
LINE
  8
0
 62
     0
 10
117.869
 20
46.8768
 30
0.0
 11
117.869
 21
47.8772
 31
0.0
  0
LINE
  8
0
 62
     0
 10
117.869
 20
47.8772
 30
0.0
 11
118.67
 21
47.8772
 31
0.0
  0
LINE
  8
0
 62
     0
 10
118.67
 20
47.8772
 30
0.0
 11
118.67
 21
50.9764
 31
0.0
  0
LINE
  8
0
 62
     0
 10
118.67
 20
50.9764
 30
0.0
 11
117.869
 21
50.9764
 31
0.0
  0
LINE
  8
0
 62
     0
 10
117.869
 20
50.9764
 30
0.0
 11
117.869
 21
56.7764
 31
0.0
  0
LINE
  8
0
 62
     0
 10
117.869
 20
56.7764
 30
0.0
 11
118.67
 21
56.7764
 31
0.0
  0
LINE
  8
0
 62
     0
 10
118.67
 20
56.7764
 30
0.0
 11
118.67
 21
59.877
 31
0.0
  0
LINE
  8
0
 62
     0
 10
118.67
 20
59.877
 30
0.0
 11
117.869
 21
59.877
 31
0.0
  0
LINE
  8
0
 62
     0
 10
117.869
 20
59.877
 30
0.0
 11
117.869
 21
60.8764
 31
0.0
  0
LINE
  8
0
 62
     0
 10
117.869
 20
60.8764
 30
0.0
 11
103.87
 21
60.8764
 31
0.0
  0
LINE
  8
0
 62
     0
 10
84.8212
 20
60.8764
 30
0.0
 11
84.8212
 21
59.877
 31
0.0
  0
LINE
  8
0
 62
     0
 10
84.8212
 20
59.877
 30
0.0
 11
84.0204
 21
59.877
 31
0.0
  0
LINE
  8
0
 62
     0
 10
84.0204
 20
59.877
 30
0.0
 11
84.0204
 21
56.7764
 31
0.0
  0
LINE
  8
0
 62
     0
 10
84.0204
 20
56.7764
 30
0.0
 11
84.8212
 21
56.7764
 31
0.0
  0
LINE
  8
0
 62
     0
 10
84.8212
 20
56.7764
 30
0.0
 11
84.8212
 21
50.9764
 31
0.0
  0
LINE
  8
0
 62
     0
 10
84.8212
 20
50.9764
 30
0.0
 11
84.0204
 21
50.9764
 31
0.0
  0
LINE
  8
0
 62
     0
 10
84.0204
 20
50.9764
 30
0.0
 11
84.0204
 21
47.8772
 31
0.0
  0
LINE
  8
0
 62
     0
 10
84.0204
 20
47.8772
 30
0.0
 11
84.8212
 21
47.8772
 31
0.0
  0
LINE
  8
0
 62
     0
 10
84.8212
 20
47.8772
 30
0.0
 11
84.8212
 21
46.8768
 31
0.0
  0
LINE
  8
0
 62
     0
 10
84.8212
 20
46.8768
 30
0.0
 11
98.8205
 21
46.8768
 31
0.0
  0
LINE
  8
0
 62
     0
 10
98.8205
 20
46.8768
 30
0.0
 11
98.8205
 21
47.8772
 31
0.0
  0
LINE
  8
0
 62
     0
 10
98.8205
 20
47.8772
 30
0.0
 11
99.6199
 21
47.8772
 31
0.0
  0
LINE
  8
0
 62
     0
 10
99.6199
 20
47.8772
 30
0.0
 11
99.6199
 21
50.9764
 31
0.0
  0
LINE
  8
0
 62
     0
 10
99.6199
 20
50.9764
 30
0.0
 11
98.8205
 21
50.9764
 31
0.0
  0
LINE
  8
0
 62
     0
 10
98.8205
 20
50.9764
 30
0.0
 11
98.8205
 21
56.7764
 31
0.0
  0
LINE
  8
0
 62
     0
 10
98.8205
 20
56.7764
 30
0.0
 11
99.6199
 21
56.7764
 31
0.0
  0
LINE
  8
0
 62
     0
 10
99.6199
 20
56.7764
 30
0.0
 11
99.6199
 21
59.877
 31
0.0
  0
LINE
  8
0
 62
     0
 10
99.6199
 20
59.877
 30
0.0
 11
98.8205
 21
59.877
 31
0.0
  0
LINE
  8
0
 62
     0
 10
98.8205
 20
59.877
 30
0.0
 11
98.8205
 21
60.8764
 31
0.0
  0
LINE
  8
0
 62
     0
 10
98.8205
 20
60.8764
 30
0.0
 11
84.8212
 21
60.8764
 31
0.0
  0
LINE
  8
0
 62
     0
 10
65.7712
 20
60.8764
 30
0.0
 11
65.7712
 21
59.877
 31
0.0
  0
LINE
  8
0
 62
     0
 10
65.7712
 20
59.877
 30
0.0
 11
64.9704
 21
59.877
 31
0.0
  0
LINE
  8
0
 62
     0
 10
64.9704
 20
59.877
 30
0.0
 11
64.9704
 21
56.7764
 31
0.0
  0
LINE
  8
0
 62
     0
 10
64.9704
 20
56.7764
 30
0.0
 11
65.7712
 21
56.7764
 31
0.0
  0
LINE
  8
0
 62
     0
 10
65.7712
 20
56.7764
 30
0.0
 11
65.7712
 21
50.9764
 31
0.0
  0
LINE
  8
0
 62
     0
 10
65.7712
 20
50.9764
 30
0.0
 11
64.9704
 21
50.9764
 31
0.0
  0
LINE
  8
0
 62
     0
 10
64.9704
 20
50.9764
 30
0.0
 11
64.9704
 21
47.8772
 31
0.0
  0
LINE
  8
0
 62
     0
 10
64.9704
 20
47.8772
 30
0.0
 11
65.7712
 21
47.8772
 31
0.0
  0
LINE
  8
0
 62
     0
 10
65.7712
 20
47.8772
 30
0.0
 11
65.7712
 21
46.8768
 31
0.0
  0
LINE
  8
0
 62
     0
 10
65.7712
 20
46.8768
 30
0.0
 11
79.7705
 21
46.8768
 31
0.0
  0
LINE
  8
0
 62
     0
 10
79.7705
 20
46.8768
 30
0.0
 11
79.7705
 21
47.8772
 31
0.0
  0
LINE
  8
0
 62
     0
 10
79.7705
 20
47.8772
 30
0.0
 11
80.5713
 21
47.8772
 31
0.0
  0
LINE
  8
0
 62
     0
 10
80.5713
 20
47.8772
 30
0.0
 11
80.5713
 21
50.9764
 31
0.0
  0
LINE
  8
0
 62
     0
 10
80.5713
 20
50.9764
 30
0.0
 11
79.7705
 21
50.9764
 31
0.0
  0
LINE
  8
0
 62
     0
 10
79.7705
 20
50.9764
 30
0.0
 11
79.7705
 21
56.7764
 31
0.0
  0
LINE
  8
0
 62
     0
 10
79.7705
 20
56.7764
 30
0.0
 11
80.5713
 21
56.7764
 31
0.0
  0
LINE
  8
0
 62
     0
 10
80.5713
 20
56.7764
 30
0.0
 11
80.5713
 21
59.877
 31
0.0
  0
LINE
  8
0
 62
     0
 10
80.5713
 20
59.877
 30
0.0
 11
79.7705
 21
59.877
 31
0.0
  0
LINE
  8
0
 62
     0
 10
79.7705
 20
59.877
 30
0.0
 11
79.7705
 21
60.8764
 31
0.0
  0
LINE
  8
0
 62
     0
 10
79.7705
 20
60.8764
 30
0.0
 11
65.7712
 21
60.8764
 31
0.0
  0
LINE
  8
0
 62
     0
 10
46.7212
 20
60.8764
 30
0.0
 11
46.7212
 21
59.877
 31
0.0
  0
LINE
  8
0
 62
     0
 10
46.7212
 20
59.877
 30
0.0
 11
45.9204
 21
59.877
 31
0.0
  0
LINE
  8
0
 62
     0
 10
45.9204
 20
59.877
 30
0.0
 11
45.9204
 21
56.7764
 31
0.0
  0
LINE
  8
0
 62
     0
 10
45.9204
 20
56.7764
 30
0.0
 11
46.7212
 21
56.7764
 31
0.0
  0
LINE
  8
0
 62
     0
 10
46.7212
 20
56.7764
 30
0.0
 11
46.7212
 21
50.9764
 31
0.0
  0
LINE
  8
0
 62
     0
 10
46.7212
 20
50.9764
 30
0.0
 11
45.9204
 21
50.9764
 31
0.0
  0
LINE
  8
0
 62
     0
 10
45.9204
 20
50.9764
 30
0.0
 11
45.9204
 21
47.8772
 31
0.0
  0
LINE
  8
0
 62
     0
 10
45.9204
 20
47.8772
 30
0.0
 11
46.7212
 21
47.8772
 31
0.0
  0
LINE
  8
0
 62
     0
 10
46.7212
 20
47.8772
 30
0.0
 11
46.7212
 21
46.8768
 31
0.0
  0
LINE
  8
0
 62
     0
 10
46.7212
 20
46.8768
 30
0.0
 11
60.7205
 21
46.8768
 31
0.0
  0
LINE
  8
0
 62
     0
 10
60.7205
 20
46.8768
 30
0.0
 11
60.7205
 21
47.8772
 31
0.0
  0
LINE
  8
0
 62
     0
 10
60.7205
 20
47.8772
 30
0.0
 11
61.5213
 21
47.8772
 31
0.0
  0
LINE
  8
0
 62
     0
 10
61.5213
 20
47.8772
 30
0.0
 11
61.5213
 21
50.9764
 31
0.0
  0
LINE
  8
0
 62
     0
 10
61.5213
 20
50.9764
 30
0.0
 11
60.7205
 21
50.9764
 31
0.0
  0
LINE
  8
0
 62
     0
 10
60.7205
 20
50.9764
 30
0.0
 11
60.7205
 21
56.7764
 31
0.0
  0
LINE
  8
0
 62
     0
 10
60.7205
 20
56.7764
 30
0.0
 11
61.5213
 21
56.7764
 31
0.0
  0
LINE
  8
0
 62
     0
 10
61.5213
 20
56.7764
 30
0.0
 11
61.5213
 21
59.877
 31
0.0
  0
LINE
  8
0
 62
     0
 10
61.5213
 20
59.877
 30
0.0
 11
60.7205
 21
59.877
 31
0.0
  0
LINE
  8
0
 62
     0
 10
60.7205
 20
59.877
 30
0.0
 11
60.7205
 21
60.8764
 31
0.0
  0
LINE
  8
0
 62
     0
 10
60.7205
 20
60.8764
 30
0.0
 11
46.7212
 21
60.8764
 31
0.0
  0
LINE
  8
0
 62
     0
 10
27.671
 20
60.8764
 30
0.0
 11
27.671
 21
59.877
 31
0.0
  0
LINE
  8
0
 62
     0
 10
27.671
 20
59.877
 30
0.0
 11
26.8704
 21
59.877
 31
0.0
  0
LINE
  8
0
 62
     0
 10
26.8704
 20
59.877
 30
0.0
 11
26.8704
 21
56.7764
 31
0.0
  0
LINE
  8
0
 62
     0
 10
26.8704
 20
56.7764
 30
0.0
 11
27.671
 21
56.7764
 31
0.0
  0
LINE
  8
0
 62
     0
 10
27.671
 20
56.7764
 30
0.0
 11
27.671
 21
50.9764
 31
0.0
  0
LINE
  8
0
 62
     0
 10
27.671
 20
50.9764
 30
0.0
 11
26.8704
 21
50.9764
 31
0.0
  0
LINE
  8
0
 62
     0
 10
26.8704
 20
50.9764
 30
0.0
 11
26.8704
 21
47.8772
 31
0.0
  0
LINE
  8
0
 62
     0
 10
26.8704
 20
47.8772
 30
0.0
 11
27.671
 21
47.8772
 31
0.0
  0
LINE
  8
0
 62
     0
 10
27.671
 20
47.8772
 30
0.0
 11
27.671
 21
46.8768
 31
0.0
  0
LINE
  8
0
 62
     0
 10
27.671
 20
46.8768
 30
0.0
 11
41.6705
 21
46.8768
 31
0.0
  0
LINE
  8
0
 62
     0
 10
41.6705
 20
46.8768
 30
0.0
 11
41.6705
 21
47.8772
 31
0.0
  0
LINE
  8
0
 62
     0
 10
41.6705
 20
47.8772
 30
0.0
 11
42.4713
 21
47.8772
 31
0.0
  0
LINE
  8
0
 62
     0
 10
42.4713
 20
47.8772
 30
0.0
 11
42.4713
 21
50.9764
 31
0.0
  0
LINE
  8
0
 62
     0
 10
42.4713
 20
50.9764
 30
0.0
 11
41.6705
 21
50.9764
 31
0.0
  0
LINE
  8
0
 62
     0
 10
41.6705
 20
50.9764
 30
0.0
 11
41.6705
 21
56.7764
 31
0.0
  0
LINE
  8
0
 62
     0
 10
41.6705
 20
56.7764
 30
0.0
 11
42.4713
 21
56.7764
 31
0.0
  0
LINE
  8
0
 62
     0
 10
42.4713
 20
56.7764
 30
0.0
 11
42.4713
 21
59.877
 31
0.0
  0
LINE
  8
0
 62
     0
 10
42.4713
 20
59.877
 30
0.0
 11
41.6705
 21
59.877
 31
0.0
  0
LINE
  8
0
 62
     0
 10
41.6705
 20
59.877
 30
0.0
 11
41.6705
 21
60.8764
 31
0.0
  0
LINE
  8
0
 62
     0
 10
41.6705
 20
60.8764
 30
0.0
 11
27.671
 21
60.8764
 31
0.0
  0
LINE
  8
0
 62
     0
 10
8.61963
 20
60.8764
 30
0.0
 11
8.61963
 21
59.877
 31
0.0
  0
LINE
  8
0
 62
     0
 10
8.61963
 20
59.877
 30
0.0
 11
7.819
 21
59.877
 31
0.0
  0
LINE
  8
0
 62
     0
 10
7.819
 20
59.877
 30
0.0
 11
7.819
 21
56.7764
 31
0.0
  0
LINE
  8
0
 62
     0
 10
7.819
 20
56.7764
 30
0.0
 11
8.61963
 21
56.7764
 31
0.0
  0
LINE
  8
0
 62
     0
 10
8.61963
 20
56.7764
 30
0.0
 11
8.61963
 21
50.9764
 31
0.0
  0
LINE
  8
0
 62
     0
 10
8.61963
 20
50.9764
 30
0.0
 11
7.819
 21
50.9764
 31
0.0
  0
LINE
  8
0
 62
     0
 10
7.819
 20
50.9764
 30
0.0
 11
7.819
 21
47.8772
 31
0.0
  0
LINE
  8
0
 62
     0
 10
7.819
 20
47.8772
 30
0.0
 11
8.61963
 21
47.8772
 31
0.0
  0
LINE
  8
0
 62
     0
 10
8.61963
 20
47.8772
 30
0.0
 11
8.61963
 21
46.8768
 31
0.0
  0
LINE
  8
0
 62
     0
 10
8.61963
 20
46.8768
 30
0.0
 11
22.6205
 21
46.8768
 31
0.0
  0
LINE
  8
0
 62
     0
 10
22.6205
 20
46.8768
 30
0.0
 11
22.6205
 21
47.8772
 31
0.0
  0
LINE
  8
0
 62
     0
 10
22.6205
 20
47.8772
 30
0.0
 11
23.4211
 21
47.8772
 31
0.0
  0
LINE
  8
0
 62
     0
 10
23.4211
 20
47.8772
 30
0.0
 11
23.4211
 21
50.9764
 31
0.0
  0
LINE
  8
0
 62
     0
 10
23.4211
 20
50.9764
 30
0.0
 11
22.6205
 21
50.9764
 31
0.0
  0
LINE
  8
0
 62
     0
 10
22.6205
 20
50.9764
 30
0.0
 11
22.6205
 21
56.7764
 31
0.0
  0
LINE
  8
0
 62
     0
 10
22.6205
 20
56.7764
 30
0.0
 11
23.4211
 21
56.7764
 31
0.0
  0
LINE
  8
0
 62
     0
 10
23.4211
 20
56.7764
 30
0.0
 11
23.4211
 21
59.877
 31
0.0
  0
LINE
  8
0
 62
     0
 10
23.4211
 20
59.877
 30
0.0
 11
22.6205
 21
59.877
 31
0.0
  0
LINE
  8
0
 62
     0
 10
22.6205
 20
59.877
 30
0.0
 11
22.6205
 21
60.8764
 31
0.0
  0
LINE
  8
0
 62
     0
 10
22.6205
 20
60.8764
 30
0.0
 11
8.61963
 21
60.8764
 31
0.0
  0
LINE
  8
0
 62
     0
 10
218.171
 20
79.9264
 30
0.0
 11
218.171
 21
78.927
 31
0.0
  0
LINE
  8
0
 62
     0
 10
218.171
 20
78.927
 30
0.0
 11
217.37
 21
78.927
 31
0.0
  0
LINE
  8
0
 62
     0
 10
217.37
 20
78.927
 30
0.0
 11
217.37
 21
75.8264
 31
0.0
  0
LINE
  8
0
 62
     0
 10
217.37
 20
75.8264
 30
0.0
 11
218.171
 21
75.8264
 31
0.0
  0
LINE
  8
0
 62
     0
 10
218.171
 20
75.8264
 30
0.0
 11
218.171
 21
70.0264
 31
0.0
  0
LINE
  8
0
 62
     0
 10
218.171
 20
70.0264
 30
0.0
 11
217.37
 21
70.0264
 31
0.0
  0
LINE
  8
0
 62
     0
 10
217.37
 20
70.0264
 30
0.0
 11
217.37
 21
66.9272
 31
0.0
  0
LINE
  8
0
 62
     0
 10
217.37
 20
66.9272
 30
0.0
 11
218.171
 21
66.9272
 31
0.0
  0
LINE
  8
0
 62
     0
 10
218.171
 20
66.9272
 30
0.0
 11
218.171
 21
65.9268
 31
0.0
  0
LINE
  8
0
 62
     0
 10
218.171
 20
65.9268
 30
0.0
 11
232.17
 21
65.9268
 31
0.0
  0
LINE
  8
0
 62
     0
 10
232.17
 20
65.9268
 30
0.0
 11
232.17
 21
66.9272
 31
0.0
  0
LINE
  8
0
 62
     0
 10
232.17
 20
66.9272
 30
0.0
 11
232.971
 21
66.9272
 31
0.0
  0
LINE
  8
0
 62
     0
 10
232.971
 20
66.9272
 30
0.0
 11
232.971
 21
70.0264
 31
0.0
  0
LINE
  8
0
 62
     0
 10
232.971
 20
70.0264
 30
0.0
 11
232.17
 21
70.0264
 31
0.0
  0
LINE
  8
0
 62
     0
 10
232.17
 20
70.0264
 30
0.0
 11
232.17
 21
75.8264
 31
0.0
  0
LINE
  8
0
 62
     0
 10
232.17
 20
75.8264
 30
0.0
 11
232.971
 21
75.8264
 31
0.0
  0
LINE
  8
0
 62
     0
 10
232.971
 20
75.8264
 30
0.0
 11
232.971
 21
78.927
 31
0.0
  0
LINE
  8
0
 62
     0
 10
232.971
 20
78.927
 30
0.0
 11
232.17
 21
78.927
 31
0.0
  0
LINE
  8
0
 62
     0
 10
232.17
 20
78.927
 30
0.0
 11
232.17
 21
79.9264
 31
0.0
  0
LINE
  8
0
 62
     0
 10
232.17
 20
79.9264
 30
0.0
 11
218.171
 21
79.9264
 31
0.0
  0
LINE
  8
0
 62
     0
 10
199.121
 20
79.9264
 30
0.0
 11
199.121
 21
78.927
 31
0.0
  0
LINE
  8
0
 62
     0
 10
199.121
 20
78.927
 30
0.0
 11
198.32
 21
78.927
 31
0.0
  0
LINE
  8
0
 62
     0
 10
198.32
 20
78.927
 30
0.0
 11
198.32
 21
75.8264
 31
0.0
  0
LINE
  8
0
 62
     0
 10
198.32
 20
75.8264
 30
0.0
 11
199.121
 21
75.8264
 31
0.0
  0
LINE
  8
0
 62
     0
 10
199.121
 20
75.8264
 30
0.0
 11
199.121
 21
70.0264
 31
0.0
  0
LINE
  8
0
 62
     0
 10
199.121
 20
70.0264
 30
0.0
 11
198.32
 21
70.0264
 31
0.0
  0
LINE
  8
0
 62
     0
 10
198.32
 20
70.0264
 30
0.0
 11
198.32
 21
66.9272
 31
0.0
  0
LINE
  8
0
 62
     0
 10
198.32
 20
66.9272
 30
0.0
 11
199.121
 21
66.9272
 31
0.0
  0
LINE
  8
0
 62
     0
 10
199.121
 20
66.9272
 30
0.0
 11
199.121
 21
65.9268
 31
0.0
  0
LINE
  8
0
 62
     0
 10
199.121
 20
65.9268
 30
0.0
 11
213.12
 21
65.9268
 31
0.0
  0
LINE
  8
0
 62
     0
 10
213.12
 20
65.9268
 30
0.0
 11
213.12
 21
66.9272
 31
0.0
  0
LINE
  8
0
 62
     0
 10
213.12
 20
66.9272
 30
0.0
 11
213.921
 21
66.9272
 31
0.0
  0
LINE
  8
0
 62
     0
 10
213.921
 20
66.9272
 30
0.0
 11
213.921
 21
70.0264
 31
0.0
  0
LINE
  8
0
 62
     0
 10
213.921
 20
70.0264
 30
0.0
 11
213.12
 21
70.0264
 31
0.0
  0
LINE
  8
0
 62
     0
 10
213.12
 20
70.0264
 30
0.0
 11
213.12
 21
75.8264
 31
0.0
  0
LINE
  8
0
 62
     0
 10
213.12
 20
75.8264
 30
0.0
 11
213.921
 21
75.8264
 31
0.0
  0
LINE
  8
0
 62
     0
 10
213.921
 20
75.8264
 30
0.0
 11
213.921
 21
78.927
 31
0.0
  0
LINE
  8
0
 62
     0
 10
213.921
 20
78.927
 30
0.0
 11
213.12
 21
78.927
 31
0.0
  0
LINE
  8
0
 62
     0
 10
213.12
 20
78.927
 30
0.0
 11
213.12
 21
79.9264
 31
0.0
  0
LINE
  8
0
 62
     0
 10
213.12
 20
79.9264
 30
0.0
 11
199.121
 21
79.9264
 31
0.0
  0
LINE
  8
0
 62
     0
 10
180.071
 20
79.9264
 30
0.0
 11
180.071
 21
78.927
 31
0.0
  0
LINE
  8
0
 62
     0
 10
180.071
 20
78.927
 30
0.0
 11
179.27
 21
78.927
 31
0.0
  0
LINE
  8
0
 62
     0
 10
179.27
 20
78.927
 30
0.0
 11
179.27
 21
75.8264
 31
0.0
  0
LINE
  8
0
 62
     0
 10
179.27
 20
75.8264
 30
0.0
 11
180.071
 21
75.8264
 31
0.0
  0
LINE
  8
0
 62
     0
 10
180.071
 20
75.8264
 30
0.0
 11
180.071
 21
70.0264
 31
0.0
  0
LINE
  8
0
 62
     0
 10
180.071
 20
70.0264
 30
0.0
 11
179.27
 21
70.0264
 31
0.0
  0
LINE
  8
0
 62
     0
 10
179.27
 20
70.0264
 30
0.0
 11
179.27
 21
66.9272
 31
0.0
  0
LINE
  8
0
 62
     0
 10
179.27
 20
66.9272
 30
0.0
 11
180.071
 21
66.9272
 31
0.0
  0
LINE
  8
0
 62
     0
 10
180.071
 20
66.9272
 30
0.0
 11
180.071
 21
65.9268
 31
0.0
  0
LINE
  8
0
 62
     0
 10
180.071
 20
65.9268
 30
0.0
 11
194.07
 21
65.9268
 31
0.0
  0
LINE
  8
0
 62
     0
 10
194.07
 20
65.9268
 30
0.0
 11
194.07
 21
66.9272
 31
0.0
  0
LINE
  8
0
 62
     0
 10
194.07
 20
66.9272
 30
0.0
 11
194.871
 21
66.9272
 31
0.0
  0
LINE
  8
0
 62
     0
 10
194.871
 20
66.9272
 30
0.0
 11
194.871
 21
70.0264
 31
0.0
  0
LINE
  8
0
 62
     0
 10
194.871
 20
70.0264
 30
0.0
 11
194.07
 21
70.0264
 31
0.0
  0
LINE
  8
0
 62
     0
 10
194.07
 20
70.0264
 30
0.0
 11
194.07
 21
75.8264
 31
0.0
  0
LINE
  8
0
 62
     0
 10
194.07
 20
75.8264
 30
0.0
 11
194.871
 21
75.8264
 31
0.0
  0
LINE
  8
0
 62
     0
 10
194.871
 20
75.8264
 30
0.0
 11
194.871
 21
78.927
 31
0.0
  0
LINE
  8
0
 62
     0
 10
194.871
 20
78.927
 30
0.0
 11
194.07
 21
78.927
 31
0.0
  0
LINE
  8
0
 62
     0
 10
194.07
 20
78.927
 30
0.0
 11
194.07
 21
79.9264
 31
0.0
  0
LINE
  8
0
 62
     0
 10
194.07
 20
79.9264
 30
0.0
 11
180.071
 21
79.9264
 31
0.0
  0
LINE
  8
0
 62
     0
 10
161.021
 20
79.9264
 30
0.0
 11
161.021
 21
78.927
 31
0.0
  0
LINE
  8
0
 62
     0
 10
161.021
 20
78.927
 30
0.0
 11
160.22
 21
78.927
 31
0.0
  0
LINE
  8
0
 62
     0
 10
160.22
 20
78.927
 30
0.0
 11
160.22
 21
75.8264
 31
0.0
  0
LINE
  8
0
 62
     0
 10
160.22
 20
75.8264
 30
0.0
 11
161.021
 21
75.8264
 31
0.0
  0
LINE
  8
0
 62
     0
 10
161.021
 20
75.8264
 30
0.0
 11
161.021
 21
70.0264
 31
0.0
  0
LINE
  8
0
 62
     0
 10
161.021
 20
70.0264
 30
0.0
 11
160.22
 21
70.0264
 31
0.0
  0
LINE
  8
0
 62
     0
 10
160.22
 20
70.0264
 30
0.0
 11
160.22
 21
66.9272
 31
0.0
  0
LINE
  8
0
 62
     0
 10
160.22
 20
66.9272
 30
0.0
 11
161.021
 21
66.9272
 31
0.0
  0
LINE
  8
0
 62
     0
 10
161.021
 20
66.9272
 30
0.0
 11
161.021
 21
65.9268
 31
0.0
  0
LINE
  8
0
 62
     0
 10
161.021
 20
65.9268
 30
0.0
 11
175.02
 21
65.9268
 31
0.0
  0
LINE
  8
0
 62
     0
 10
175.02
 20
65.9268
 30
0.0
 11
175.02
 21
66.9272
 31
0.0
  0
LINE
  8
0
 62
     0
 10
175.02
 20
66.9272
 30
0.0
 11
175.821
 21
66.9272
 31
0.0
  0
LINE
  8
0
 62
     0
 10
175.821
 20
66.9272
 30
0.0
 11
175.821
 21
70.0264
 31
0.0
  0
LINE
  8
0
 62
     0
 10
175.821
 20
70.0264
 30
0.0
 11
175.02
 21
70.0264
 31
0.0
  0
LINE
  8
0
 62
     0
 10
175.02
 20
70.0264
 30
0.0
 11
175.02
 21
75.8264
 31
0.0
  0
LINE
  8
0
 62
     0
 10
175.02
 20
75.8264
 30
0.0
 11
175.821
 21
75.8264
 31
0.0
  0
LINE
  8
0
 62
     0
 10
175.821
 20
75.8264
 30
0.0
 11
175.821
 21
78.927
 31
0.0
  0
LINE
  8
0
 62
     0
 10
175.821
 20
78.927
 30
0.0
 11
175.02
 21
78.927
 31
0.0
  0
LINE
  8
0
 62
     0
 10
175.02
 20
78.927
 30
0.0
 11
175.02
 21
79.9264
 31
0.0
  0
LINE
  8
0
 62
     0
 10
175.02
 20
79.9264
 30
0.0
 11
161.021
 21
79.9264
 31
0.0
  0
LINE
  8
0
 62
     0
 10
141.971
 20
79.9264
 30
0.0
 11
141.971
 21
78.927
 31
0.0
  0
LINE
  8
0
 62
     0
 10
141.971
 20
78.927
 30
0.0
 11
141.17
 21
78.927
 31
0.0
  0
LINE
  8
0
 62
     0
 10
141.17
 20
78.927
 30
0.0
 11
141.17
 21
75.8264
 31
0.0
  0
LINE
  8
0
 62
     0
 10
141.17
 20
75.8264
 30
0.0
 11
141.971
 21
75.8264
 31
0.0
  0
LINE
  8
0
 62
     0
 10
141.971
 20
75.8264
 30
0.0
 11
141.971
 21
70.0264
 31
0.0
  0
LINE
  8
0
 62
     0
 10
141.971
 20
70.0264
 30
0.0
 11
141.17
 21
70.0264
 31
0.0
  0
LINE
  8
0
 62
     0
 10
141.17
 20
70.0264
 30
0.0
 11
141.17
 21
66.9272
 31
0.0
  0
LINE
  8
0
 62
     0
 10
141.17
 20
66.9272
 30
0.0
 11
141.971
 21
66.9272
 31
0.0
  0
LINE
  8
0
 62
     0
 10
141.971
 20
66.9272
 30
0.0
 11
141.971
 21
65.9268
 31
0.0
  0
LINE
  8
0
 62
     0
 10
141.971
 20
65.9268
 30
0.0
 11
155.97
 21
65.9268
 31
0.0
  0
LINE
  8
0
 62
     0
 10
155.97
 20
65.9268
 30
0.0
 11
155.97
 21
66.9272
 31
0.0
  0
LINE
  8
0
 62
     0
 10
155.97
 20
66.9272
 30
0.0
 11
156.771
 21
66.9272
 31
0.0
  0
LINE
  8
0
 62
     0
 10
156.771
 20
66.9272
 30
0.0
 11
156.771
 21
70.0264
 31
0.0
  0
LINE
  8
0
 62
     0
 10
156.771
 20
70.0264
 30
0.0
 11
155.97
 21
70.0264
 31
0.0
  0
LINE
  8
0
 62
     0
 10
155.97
 20
70.0264
 30
0.0
 11
155.97
 21
75.8264
 31
0.0
  0
LINE
  8
0
 62
     0
 10
155.97
 20
75.8264
 30
0.0
 11
156.771
 21
75.8264
 31
0.0
  0
LINE
  8
0
 62
     0
 10
156.771
 20
75.8264
 30
0.0
 11
156.771
 21
78.927
 31
0.0
  0
LINE
  8
0
 62
     0
 10
156.771
 20
78.927
 30
0.0
 11
155.97
 21
78.927
 31
0.0
  0
LINE
  8
0
 62
     0
 10
155.97
 20
78.927
 30
0.0
 11
155.97
 21
79.9264
 31
0.0
  0
LINE
  8
0
 62
     0
 10
155.97
 20
79.9264
 30
0.0
 11
141.971
 21
79.9264
 31
0.0
  0
LINE
  8
0
 62
     0
 10
122.92
 20
79.9264
 30
0.0
 11
122.92
 21
78.927
 31
0.0
  0
LINE
  8
0
 62
     0
 10
122.92
 20
78.927
 30
0.0
 11
122.119
 21
78.927
 31
0.0
  0
LINE
  8
0
 62
     0
 10
122.119
 20
78.927
 30
0.0
 11
122.119
 21
75.8264
 31
0.0
  0
LINE
  8
0
 62
     0
 10
122.119
 20
75.8264
 30
0.0
 11
122.92
 21
75.8264
 31
0.0
  0
LINE
  8
0
 62
     0
 10
122.92
 20
75.8264
 30
0.0
 11
122.92
 21
70.0264
 31
0.0
  0
LINE
  8
0
 62
     0
 10
122.92
 20
70.0264
 30
0.0
 11
122.119
 21
70.0264
 31
0.0
  0
LINE
  8
0
 62
     0
 10
122.119
 20
70.0264
 30
0.0
 11
122.119
 21
66.9272
 31
0.0
  0
LINE
  8
0
 62
     0
 10
122.119
 20
66.9272
 30
0.0
 11
122.92
 21
66.9272
 31
0.0
  0
LINE
  8
0
 62
     0
 10
122.92
 20
66.9272
 30
0.0
 11
122.92
 21
65.9268
 31
0.0
  0
LINE
  8
0
 62
     0
 10
122.92
 20
65.9268
 30
0.0
 11
136.92
 21
65.9268
 31
0.0
  0
LINE
  8
0
 62
     0
 10
136.92
 20
65.9268
 30
0.0
 11
136.92
 21
66.9272
 31
0.0
  0
LINE
  8
0
 62
     0
 10
136.92
 20
66.9272
 30
0.0
 11
137.721
 21
66.9272
 31
0.0
  0
LINE
  8
0
 62
     0
 10
137.721
 20
66.9272
 30
0.0
 11
137.721
 21
70.0264
 31
0.0
  0
LINE
  8
0
 62
     0
 10
137.721
 20
70.0264
 30
0.0
 11
136.92
 21
70.0264
 31
0.0
  0
LINE
  8
0
 62
     0
 10
136.92
 20
70.0264
 30
0.0
 11
136.92
 21
75.8264
 31
0.0
  0
LINE
  8
0
 62
     0
 10
136.92
 20
75.8264
 30
0.0
 11
137.721
 21
75.8264
 31
0.0
  0
LINE
  8
0
 62
     0
 10
137.721
 20
75.8264
 30
0.0
 11
137.721
 21
78.927
 31
0.0
  0
LINE
  8
0
 62
     0
 10
137.721
 20
78.927
 30
0.0
 11
136.92
 21
78.927
 31
0.0
  0
LINE
  8
0
 62
     0
 10
136.92
 20
78.927
 30
0.0
 11
136.92
 21
79.9264
 31
0.0
  0
LINE
  8
0
 62
     0
 10
136.92
 20
79.9264
 30
0.0
 11
122.92
 21
79.9264
 31
0.0
  0
LINE
  8
0
 62
     0
 10
103.87
 20
79.9264
 30
0.0
 11
103.87
 21
78.927
 31
0.0
  0
LINE
  8
0
 62
     0
 10
103.87
 20
78.927
 30
0.0
 11
103.07
 21
78.927
 31
0.0
  0
LINE
  8
0
 62
     0
 10
103.07
 20
78.927
 30
0.0
 11
103.07
 21
75.8264
 31
0.0
  0
LINE
  8
0
 62
     0
 10
103.07
 20
75.8264
 30
0.0
 11
103.87
 21
75.8264
 31
0.0
  0
LINE
  8
0
 62
     0
 10
103.87
 20
75.8264
 30
0.0
 11
103.87
 21
70.0264
 31
0.0
  0
LINE
  8
0
 62
     0
 10
103.87
 20
70.0264
 30
0.0
 11
103.07
 21
70.0264
 31
0.0
  0
LINE
  8
0
 62
     0
 10
103.07
 20
70.0264
 30
0.0
 11
103.07
 21
66.9272
 31
0.0
  0
LINE
  8
0
 62
     0
 10
103.07
 20
66.9272
 30
0.0
 11
103.87
 21
66.9272
 31
0.0
  0
LINE
  8
0
 62
     0
 10
103.87
 20
66.9272
 30
0.0
 11
103.87
 21
65.9268
 31
0.0
  0
LINE
  8
0
 62
     0
 10
103.87
 20
65.9268
 30
0.0
 11
117.869
 21
65.9268
 31
0.0
  0
LINE
  8
0
 62
     0
 10
117.869
 20
65.9268
 30
0.0
 11
117.869
 21
66.9272
 31
0.0
  0
LINE
  8
0
 62
     0
 10
117.869
 20
66.9272
 30
0.0
 11
118.67
 21
66.9272
 31
0.0
  0
LINE
  8
0
 62
     0
 10
118.67
 20
66.9272
 30
0.0
 11
118.67
 21
70.0264
 31
0.0
  0
LINE
  8
0
 62
     0
 10
118.67
 20
70.0264
 30
0.0
 11
117.869
 21
70.0264
 31
0.0
  0
LINE
  8
0
 62
     0
 10
117.869
 20
70.0264
 30
0.0
 11
117.869
 21
75.8264
 31
0.0
  0
LINE
  8
0
 62
     0
 10
117.869
 20
75.8264
 30
0.0
 11
118.67
 21
75.8264
 31
0.0
  0
LINE
  8
0
 62
     0
 10
118.67
 20
75.8264
 30
0.0
 11
118.67
 21
78.927
 31
0.0
  0
LINE
  8
0
 62
     0
 10
118.67
 20
78.927
 30
0.0
 11
117.869
 21
78.927
 31
0.0
  0
LINE
  8
0
 62
     0
 10
117.869
 20
78.927
 30
0.0
 11
117.869
 21
79.9264
 31
0.0
  0
LINE
  8
0
 62
     0
 10
117.869
 20
79.9264
 30
0.0
 11
103.87
 21
79.9264
 31
0.0
  0
LINE
  8
0
 62
     0
 10
84.8212
 20
79.9264
 30
0.0
 11
84.8212
 21
78.927
 31
0.0
  0
LINE
  8
0
 62
     0
 10
84.8212
 20
78.927
 30
0.0
 11
84.0204
 21
78.927
 31
0.0
  0
LINE
  8
0
 62
     0
 10
84.0204
 20
78.927
 30
0.0
 11
84.0204
 21
75.8264
 31
0.0
  0
LINE
  8
0
 62
     0
 10
84.0204
 20
75.8264
 30
0.0
 11
84.8212
 21
75.8264
 31
0.0
  0
LINE
  8
0
 62
     0
 10
84.8212
 20
75.8264
 30
0.0
 11
84.8212
 21
70.0264
 31
0.0
  0
LINE
  8
0
 62
     0
 10
84.8212
 20
70.0264
 30
0.0
 11
84.0204
 21
70.0264
 31
0.0
  0
LINE
  8
0
 62
     0
 10
84.0204
 20
70.0264
 30
0.0
 11
84.0204
 21
66.9272
 31
0.0
  0
LINE
  8
0
 62
     0
 10
84.0204
 20
66.9272
 30
0.0
 11
84.8212
 21
66.9272
 31
0.0
  0
LINE
  8
0
 62
     0
 10
84.8212
 20
66.9272
 30
0.0
 11
84.8212
 21
65.9268
 31
0.0
  0
LINE
  8
0
 62
     0
 10
84.8212
 20
65.9268
 30
0.0
 11
98.8205
 21
65.9268
 31
0.0
  0
LINE
  8
0
 62
     0
 10
98.8205
 20
65.9268
 30
0.0
 11
98.8205
 21
66.9272
 31
0.0
  0
LINE
  8
0
 62
     0
 10
98.8205
 20
66.9272
 30
0.0
 11
99.6199
 21
66.9272
 31
0.0
  0
LINE
  8
0
 62
     0
 10
99.6199
 20
66.9272
 30
0.0
 11
99.6199
 21
70.0264
 31
0.0
  0
LINE
  8
0
 62
     0
 10
99.6199
 20
70.0264
 30
0.0
 11
98.8205
 21
70.0264
 31
0.0
  0
LINE
  8
0
 62
     0
 10
98.8205
 20
70.0264
 30
0.0
 11
98.8205
 21
75.8264
 31
0.0
  0
LINE
  8
0
 62
     0
 10
98.8205
 20
75.8264
 30
0.0
 11
99.6199
 21
75.8264
 31
0.0
  0
LINE
  8
0
 62
     0
 10
99.6199
 20
75.8264
 30
0.0
 11
99.6199
 21
78.927
 31
0.0
  0
LINE
  8
0
 62
     0
 10
99.6199
 20
78.927
 30
0.0
 11
98.8205
 21
78.927
 31
0.0
  0
LINE
  8
0
 62
     0
 10
98.8205
 20
78.927
 30
0.0
 11
98.8205
 21
79.9264
 31
0.0
  0
LINE
  8
0
 62
     0
 10
98.8205
 20
79.9264
 30
0.0
 11
84.8212
 21
79.9264
 31
0.0
  0
LINE
  8
0
 62
     0
 10
65.7712
 20
79.9264
 30
0.0
 11
65.7712
 21
78.927
 31
0.0
  0
LINE
  8
0
 62
     0
 10
65.7712
 20
78.927
 30
0.0
 11
64.9704
 21
78.927
 31
0.0
  0
LINE
  8
0
 62
     0
 10
64.9704
 20
78.927
 30
0.0
 11
64.9704
 21
75.8264
 31
0.0
  0
LINE
  8
0
 62
     0
 10
64.9704
 20
75.8264
 30
0.0
 11
65.7712
 21
75.8264
 31
0.0
  0
LINE
  8
0
 62
     0
 10
65.7712
 20
75.8264
 30
0.0
 11
65.7712
 21
70.0264
 31
0.0
  0
LINE
  8
0
 62
     0
 10
65.7712
 20
70.0264
 30
0.0
 11
64.9704
 21
70.0264
 31
0.0
  0
LINE
  8
0
 62
     0
 10
64.9704
 20
70.0264
 30
0.0
 11
64.9704
 21
66.9272
 31
0.0
  0
LINE
  8
0
 62
     0
 10
64.9704
 20
66.9272
 30
0.0
 11
65.7712
 21
66.9272
 31
0.0
  0
LINE
  8
0
 62
     0
 10
65.7712
 20
66.9272
 30
0.0
 11
65.7712
 21
65.9268
 31
0.0
  0
LINE
  8
0
 62
     0
 10
65.7712
 20
65.9268
 30
0.0
 11
79.7705
 21
65.9268
 31
0.0
  0
LINE
  8
0
 62
     0
 10
79.7705
 20
65.9268
 30
0.0
 11
79.7705
 21
66.9272
 31
0.0
  0
LINE
  8
0
 62
     0
 10
79.7705
 20
66.9272
 30
0.0
 11
80.5713
 21
66.9272
 31
0.0
  0
LINE
  8
0
 62
     0
 10
80.5713
 20
66.9272
 30
0.0
 11
80.5713
 21
70.0264
 31
0.0
  0
LINE
  8
0
 62
     0
 10
80.5713
 20
70.0264
 30
0.0
 11
79.7705
 21
70.0264
 31
0.0
  0
LINE
  8
0
 62
     0
 10
79.7705
 20
70.0264
 30
0.0
 11
79.7705
 21
75.8264
 31
0.0
  0
LINE
  8
0
 62
     0
 10
79.7705
 20
75.8264
 30
0.0
 11
80.5713
 21
75.8264
 31
0.0
  0
LINE
  8
0
 62
     0
 10
80.5713
 20
75.8264
 30
0.0
 11
80.5713
 21
78.927
 31
0.0
  0
LINE
  8
0
 62
     0
 10
80.5713
 20
78.927
 30
0.0
 11
79.7705
 21
78.927
 31
0.0
  0
LINE
  8
0
 62
     0
 10
79.7705
 20
78.927
 30
0.0
 11
79.7705
 21
79.9264
 31
0.0
  0
LINE
  8
0
 62
     0
 10
79.7705
 20
79.9264
 30
0.0
 11
65.7712
 21
79.9264
 31
0.0
  0
LINE
  8
0
 62
     0
 10
46.7212
 20
79.9264
 30
0.0
 11
46.7212
 21
78.927
 31
0.0
  0
LINE
  8
0
 62
     0
 10
46.7212
 20
78.927
 30
0.0
 11
45.9204
 21
78.927
 31
0.0
  0
LINE
  8
0
 62
     0
 10
45.9204
 20
78.927
 30
0.0
 11
45.9204
 21
75.8264
 31
0.0
  0
LINE
  8
0
 62
     0
 10
45.9204
 20
75.8264
 30
0.0
 11
46.7212
 21
75.8264
 31
0.0
  0
LINE
  8
0
 62
     0
 10
46.7212
 20
75.8264
 30
0.0
 11
46.7212
 21
70.0264
 31
0.0
  0
LINE
  8
0
 62
     0
 10
46.7212
 20
70.0264
 30
0.0
 11
45.9204
 21
70.0264
 31
0.0
  0
LINE
  8
0
 62
     0
 10
45.9204
 20
70.0264
 30
0.0
 11
45.9204
 21
66.9272
 31
0.0
  0
LINE
  8
0
 62
     0
 10
45.9204
 20
66.9272
 30
0.0
 11
46.7212
 21
66.9272
 31
0.0
  0
LINE
  8
0
 62
     0
 10
46.7212
 20
66.9272
 30
0.0
 11
46.7212
 21
65.9268
 31
0.0
  0
LINE
  8
0
 62
     0
 10
46.7212
 20
65.9268
 30
0.0
 11
60.7205
 21
65.9268
 31
0.0
  0
LINE
  8
0
 62
     0
 10
60.7205
 20
65.9268
 30
0.0
 11
60.7205
 21
66.9272
 31
0.0
  0
LINE
  8
0
 62
     0
 10
60.7205
 20
66.9272
 30
0.0
 11
61.5213
 21
66.9272
 31
0.0
  0
LINE
  8
0
 62
     0
 10
61.5213
 20
66.9272
 30
0.0
 11
61.5213
 21
70.0264
 31
0.0
  0
LINE
  8
0
 62
     0
 10
61.5213
 20
70.0264
 30
0.0
 11
60.7205
 21
70.0264
 31
0.0
  0
LINE
  8
0
 62
     0
 10
60.7205
 20
70.0264
 30
0.0
 11
60.7205
 21
75.8264
 31
0.0
  0
LINE
  8
0
 62
     0
 10
60.7205
 20
75.8264
 30
0.0
 11
61.5213
 21
75.8264
 31
0.0
  0
LINE
  8
0
 62
     0
 10
61.5213
 20
75.8264
 30
0.0
 11
61.5213
 21
78.927
 31
0.0
  0
LINE
  8
0
 62
     0
 10
61.5213
 20
78.927
 30
0.0
 11
60.7205
 21
78.927
 31
0.0
  0
LINE
  8
0
 62
     0
 10
60.7205
 20
78.927
 30
0.0
 11
60.7205
 21
79.9264
 31
0.0
  0
LINE
  8
0
 62
     0
 10
60.7205
 20
79.9264
 30
0.0
 11
46.7212
 21
79.9264
 31
0.0
  0
LINE
  8
0
 62
     0
 10
27.671
 20
79.9264
 30
0.0
 11
27.671
 21
78.927
 31
0.0
  0
LINE
  8
0
 62
     0
 10
27.671
 20
78.927
 30
0.0
 11
26.8704
 21
78.927
 31
0.0
  0
LINE
  8
0
 62
     0
 10
26.8704
 20
78.927
 30
0.0
 11
26.8704
 21
75.8264
 31
0.0
  0
LINE
  8
0
 62
     0
 10
26.8704
 20
75.8264
 30
0.0
 11
27.671
 21
75.8264
 31
0.0
  0
LINE
  8
0
 62
     0
 10
27.671
 20
75.8264
 30
0.0
 11
27.671
 21
70.0264
 31
0.0
  0
LINE
  8
0
 62
     0
 10
27.671
 20
70.0264
 30
0.0
 11
26.8704
 21
70.0264
 31
0.0
  0
LINE
  8
0
 62
     0
 10
26.8704
 20
70.0264
 30
0.0
 11
26.8704
 21
66.9272
 31
0.0
  0
LINE
  8
0
 62
     0
 10
26.8704
 20
66.9272
 30
0.0
 11
27.671
 21
66.9272
 31
0.0
  0
LINE
  8
0
 62
     0
 10
27.671
 20
66.9272
 30
0.0
 11
27.671
 21
65.9268
 31
0.0
  0
LINE
  8
0
 62
     0
 10
27.671
 20
65.9268
 30
0.0
 11
41.6705
 21
65.9268
 31
0.0
  0
LINE
  8
0
 62
     0
 10
41.6705
 20
65.9268
 30
0.0
 11
41.6705
 21
66.9272
 31
0.0
  0
LINE
  8
0
 62
     0
 10
41.6705
 20
66.9272
 30
0.0
 11
42.4713
 21
66.9272
 31
0.0
  0
LINE
  8
0
 62
     0
 10
42.4713
 20
66.9272
 30
0.0
 11
42.4713
 21
70.0264
 31
0.0
  0
LINE
  8
0
 62
     0
 10
42.4713
 20
70.0264
 30
0.0
 11
41.6705
 21
70.0264
 31
0.0
  0
LINE
  8
0
 62
     0
 10
41.6705
 20
70.0264
 30
0.0
 11
41.6705
 21
75.8264
 31
0.0
  0
LINE
  8
0
 62
     0
 10
41.6705
 20
75.8264
 30
0.0
 11
42.4713
 21
75.8264
 31
0.0
  0
LINE
  8
0
 62
     0
 10
42.4713
 20
75.8264
 30
0.0
 11
42.4713
 21
78.927
 31
0.0
  0
LINE
  8
0
 62
     0
 10
42.4713
 20
78.927
 30
0.0
 11
41.6705
 21
78.927
 31
0.0
  0
LINE
  8
0
 62
     0
 10
41.6705
 20
78.927
 30
0.0
 11
41.6705
 21
79.9264
 31
0.0
  0
LINE
  8
0
 62
     0
 10
41.6705
 20
79.9264
 30
0.0
 11
27.671
 21
79.9264
 31
0.0
  0
LINE
  8
0
 62
     0
 10
8.61963
 20
79.9264
 30
0.0
 11
8.61963
 21
78.927
 31
0.0
  0
LINE
  8
0
 62
     0
 10
8.61963
 20
78.927
 30
0.0
 11
7.819
 21
78.927
 31
0.0
  0
LINE
  8
0
 62
     0
 10
7.819
 20
78.927
 30
0.0
 11
7.819
 21
75.8264
 31
0.0
  0
LINE
  8
0
 62
     0
 10
7.819
 20
75.8264
 30
0.0
 11
8.61963
 21
75.8264
 31
0.0
  0
LINE
  8
0
 62
     0
 10
8.61963
 20
75.8264
 30
0.0
 11
8.61963
 21
70.0264
 31
0.0
  0
LINE
  8
0
 62
     0
 10
8.61963
 20
70.0264
 30
0.0
 11
7.819
 21
70.0264
 31
0.0
  0
LINE
  8
0
 62
     0
 10
7.819
 20
70.0264
 30
0.0
 11
7.819
 21
66.9272
 31
0.0
  0
LINE
  8
0
 62
     0
 10
7.819
 20
66.9272
 30
0.0
 11
8.61963
 21
66.9272
 31
0.0
  0
LINE
  8
0
 62
     0
 10
8.61963
 20
66.9272
 30
0.0
 11
8.61963
 21
65.9268
 31
0.0
  0
LINE
  8
0
 62
     0
 10
8.61963
 20
65.9268
 30
0.0
 11
22.6205
 21
65.9268
 31
0.0
  0
LINE
  8
0
 62
     0
 10
22.6205
 20
65.9268
 30
0.0
 11
22.6205
 21
66.9272
 31
0.0
  0
LINE
  8
0
 62
     0
 10
22.6205
 20
66.9272
 30
0.0
 11
23.4211
 21
66.9272
 31
0.0
  0
LINE
  8
0
 62
     0
 10
23.4211
 20
66.9272
 30
0.0
 11
23.4211
 21
70.0264
 31
0.0
  0
LINE
  8
0
 62
     0
 10
23.4211
 20
70.0264
 30
0.0
 11
22.6205
 21
70.0264
 31
0.0
  0
LINE
  8
0
 62
     0
 10
22.6205
 20
70.0264
 30
0.0
 11
22.6205
 21
75.8264
 31
0.0
  0
LINE
  8
0
 62
     0
 10
22.6205
 20
75.8264
 30
0.0
 11
23.4211
 21
75.8264
 31
0.0
  0
LINE
  8
0
 62
     0
 10
23.4211
 20
75.8264
 30
0.0
 11
23.4211
 21
78.927
 31
0.0
  0
LINE
  8
0
 62
     0
 10
23.4211
 20
78.927
 30
0.0
 11
22.6205
 21
78.927
 31
0.0
  0
LINE
  8
0
 62
     0
 10
22.6205
 20
78.927
 30
0.0
 11
22.6205
 21
79.9264
 31
0.0
  0
LINE
  8
0
 62
     0
 10
22.6205
 20
79.9264
 30
0.0
 11
8.61963
 21
79.9264
 31
0.0
  0
LINE
  8
0
 62
     0
 10
218.171
 20
98.9775
 30
0.0
 11
218.171
 21
97.977
 31
0.0
  0
LINE
  8
0
 62
     0
 10
218.171
 20
97.977
 30
0.0
 11
217.37
 21
97.977
 31
0.0
  0
LINE
  8
0
 62
     0
 10
217.37
 20
97.977
 30
0.0
 11
217.37
 21
94.8764
 31
0.0
  0
LINE
  8
0
 62
     0
 10
217.37
 20
94.8764
 30
0.0
 11
218.171
 21
94.8764
 31
0.0
  0
LINE
  8
0
 62
     0
 10
218.171
 20
94.8764
 30
0.0
 11
218.171
 21
89.0778
 31
0.0
  0
LINE
  8
0
 62
     0
 10
218.171
 20
89.0778
 30
0.0
 11
217.37
 21
89.0778
 31
0.0
  0
LINE
  8
0
 62
     0
 10
217.37
 20
89.0778
 30
0.0
 11
217.37
 21
85.9772
 31
0.0
  0
LINE
  8
0
 62
     0
 10
217.37
 20
85.9772
 30
0.0
 11
218.171
 21
85.9772
 31
0.0
  0
LINE
  8
0
 62
     0
 10
218.171
 20
85.9772
 30
0.0
 11
218.171
 21
84.9768
 31
0.0
  0
LINE
  8
0
 62
     0
 10
218.171
 20
84.9768
 30
0.0
 11
232.17
 21
84.9768
 31
0.0
  0
LINE
  8
0
 62
     0
 10
232.17
 20
84.9768
 30
0.0
 11
232.17
 21
85.9772
 31
0.0
  0
LINE
  8
0
 62
     0
 10
232.17
 20
85.9772
 30
0.0
 11
232.971
 21
85.9772
 31
0.0
  0
LINE
  8
0
 62
     0
 10
232.971
 20
85.9772
 30
0.0
 11
232.971
 21
89.0778
 31
0.0
  0
LINE
  8
0
 62
     0
 10
232.971
 20
89.0778
 30
0.0
 11
232.17
 21
89.0778
 31
0.0
  0
LINE
  8
0
 62
     0
 10
232.17
 20
89.0778
 30
0.0
 11
232.17
 21
94.8764
 31
0.0
  0
LINE
  8
0
 62
     0
 10
232.17
 20
94.8764
 30
0.0
 11
232.971
 21
94.8764
 31
0.0
  0
LINE
  8
0
 62
     0
 10
232.971
 20
94.8764
 30
0.0
 11
232.971
 21
97.977
 31
0.0
  0
LINE
  8
0
 62
     0
 10
232.971
 20
97.977
 30
0.0
 11
232.17
 21
97.977
 31
0.0
  0
LINE
  8
0
 62
     0
 10
232.17
 20
97.977
 30
0.0
 11
232.17
 21
98.9775
 31
0.0
  0
LINE
  8
0
 62
     0
 10
232.17
 20
98.9775
 30
0.0
 11
218.171
 21
98.9775
 31
0.0
  0
LINE
  8
0
 62
     0
 10
199.121
 20
98.9775
 30
0.0
 11
199.121
 21
97.977
 31
0.0
  0
LINE
  8
0
 62
     0
 10
199.121
 20
97.977
 30
0.0
 11
198.32
 21
97.977
 31
0.0
  0
LINE
  8
0
 62
     0
 10
198.32
 20
97.977
 30
0.0
 11
198.32
 21
94.8764
 31
0.0
  0
LINE
  8
0
 62
     0
 10
198.32
 20
94.8764
 30
0.0
 11
199.121
 21
94.8764
 31
0.0
  0
LINE
  8
0
 62
     0
 10
199.121
 20
94.8764
 30
0.0
 11
199.121
 21
89.0778
 31
0.0
  0
LINE
  8
0
 62
     0
 10
199.121
 20
89.0778
 30
0.0
 11
198.32
 21
89.0778
 31
0.0
  0
LINE
  8
0
 62
     0
 10
198.32
 20
89.0778
 30
0.0
 11
198.32
 21
85.9772
 31
0.0
  0
LINE
  8
0
 62
     0
 10
198.32
 20
85.9772
 30
0.0
 11
199.121
 21
85.9772
 31
0.0
  0
LINE
  8
0
 62
     0
 10
199.121
 20
85.9772
 30
0.0
 11
199.121
 21
84.9768
 31
0.0
  0
LINE
  8
0
 62
     0
 10
199.121
 20
84.9768
 30
0.0
 11
213.12
 21
84.9768
 31
0.0
  0
LINE
  8
0
 62
     0
 10
213.12
 20
84.9768
 30
0.0
 11
213.12
 21
85.9772
 31
0.0
  0
LINE
  8
0
 62
     0
 10
213.12
 20
85.9772
 30
0.0
 11
213.921
 21
85.9772
 31
0.0
  0
LINE
  8
0
 62
     0
 10
213.921
 20
85.9772
 30
0.0
 11
213.921
 21
89.0778
 31
0.0
  0
LINE
  8
0
 62
     0
 10
213.921
 20
89.0778
 30
0.0
 11
213.12
 21
89.0778
 31
0.0
  0
LINE
  8
0
 62
     0
 10
213.12
 20
89.0778
 30
0.0
 11
213.12
 21
94.8764
 31
0.0
  0
LINE
  8
0
 62
     0
 10
213.12
 20
94.8764
 30
0.0
 11
213.921
 21
94.8764
 31
0.0
  0
LINE
  8
0
 62
     0
 10
213.921
 20
94.8764
 30
0.0
 11
213.921
 21
97.977
 31
0.0
  0
LINE
  8
0
 62
     0
 10
213.921
 20
97.977
 30
0.0
 11
213.12
 21
97.977
 31
0.0
  0
LINE
  8
0
 62
     0
 10
213.12
 20
97.977
 30
0.0
 11
213.12
 21
98.9775
 31
0.0
  0
LINE
  8
0
 62
     0
 10
213.12
 20
98.9775
 30
0.0
 11
199.121
 21
98.9775
 31
0.0
  0
LINE
  8
0
 62
     0
 10
180.071
 20
98.9775
 30
0.0
 11
180.071
 21
97.977
 31
0.0
  0
LINE
  8
0
 62
     0
 10
180.071
 20
97.977
 30
0.0
 11
179.27
 21
97.977
 31
0.0
  0
LINE
  8
0
 62
     0
 10
179.27
 20
97.977
 30
0.0
 11
179.27
 21
94.8764
 31
0.0
  0
LINE
  8
0
 62
     0
 10
179.27
 20
94.8764
 30
0.0
 11
180.071
 21
94.8764
 31
0.0
  0
LINE
  8
0
 62
     0
 10
180.071
 20
94.8764
 30
0.0
 11
180.071
 21
89.0778
 31
0.0
  0
LINE
  8
0
 62
     0
 10
180.071
 20
89.0778
 30
0.0
 11
179.27
 21
89.0778
 31
0.0
  0
LINE
  8
0
 62
     0
 10
179.27
 20
89.0778
 30
0.0
 11
179.27
 21
85.9772
 31
0.0
  0
LINE
  8
0
 62
     0
 10
179.27
 20
85.9772
 30
0.0
 11
180.071
 21
85.9772
 31
0.0
  0
LINE
  8
0
 62
     0
 10
180.071
 20
85.9772
 30
0.0
 11
180.071
 21
84.9768
 31
0.0
  0
LINE
  8
0
 62
     0
 10
180.071
 20
84.9768
 30
0.0
 11
194.07
 21
84.9768
 31
0.0
  0
LINE
  8
0
 62
     0
 10
194.07
 20
84.9768
 30
0.0
 11
194.07
 21
85.9772
 31
0.0
  0
LINE
  8
0
 62
     0
 10
194.07
 20
85.9772
 30
0.0
 11
194.871
 21
85.9772
 31
0.0
  0
LINE
  8
0
 62
     0
 10
194.871
 20
85.9772
 30
0.0
 11
194.871
 21
89.0778
 31
0.0
  0
LINE
  8
0
 62
     0
 10
194.871
 20
89.0778
 30
0.0
 11
194.07
 21
89.0778
 31
0.0
  0
LINE
  8
0
 62
     0
 10
194.07
 20
89.0778
 30
0.0
 11
194.07
 21
94.8764
 31
0.0
  0
LINE
  8
0
 62
     0
 10
194.07
 20
94.8764
 30
0.0
 11
194.871
 21
94.8764
 31
0.0
  0
LINE
  8
0
 62
     0
 10
194.871
 20
94.8764
 30
0.0
 11
194.871
 21
97.977
 31
0.0
  0
LINE
  8
0
 62
     0
 10
194.871
 20
97.977
 30
0.0
 11
194.07
 21
97.977
 31
0.0
  0
LINE
  8
0
 62
     0
 10
194.07
 20
97.977
 30
0.0
 11
194.07
 21
98.9775
 31
0.0
  0
LINE
  8
0
 62
     0
 10
194.07
 20
98.9775
 30
0.0
 11
180.071
 21
98.9775
 31
0.0
  0
LINE
  8
0
 62
     0
 10
161.021
 20
98.9775
 30
0.0
 11
161.021
 21
97.977
 31
0.0
  0
LINE
  8
0
 62
     0
 10
161.021
 20
97.977
 30
0.0
 11
160.22
 21
97.977
 31
0.0
  0
LINE
  8
0
 62
     0
 10
160.22
 20
97.977
 30
0.0
 11
160.22
 21
94.8764
 31
0.0
  0
LINE
  8
0
 62
     0
 10
160.22
 20
94.8764
 30
0.0
 11
161.021
 21
94.8764
 31
0.0
  0
LINE
  8
0
 62
     0
 10
161.021
 20
94.8764
 30
0.0
 11
161.021
 21
89.0778
 31
0.0
  0
LINE
  8
0
 62
     0
 10
161.021
 20
89.0778
 30
0.0
 11
160.22
 21
89.0778
 31
0.0
  0
LINE
  8
0
 62
     0
 10
160.22
 20
89.0778
 30
0.0
 11
160.22
 21
85.9772
 31
0.0
  0
LINE
  8
0
 62
     0
 10
160.22
 20
85.9772
 30
0.0
 11
161.021
 21
85.9772
 31
0.0
  0
LINE
  8
0
 62
     0
 10
161.021
 20
85.9772
 30
0.0
 11
161.021
 21
84.9768
 31
0.0
  0
LINE
  8
0
 62
     0
 10
161.021
 20
84.9768
 30
0.0
 11
175.02
 21
84.9768
 31
0.0
  0
LINE
  8
0
 62
     0
 10
175.02
 20
84.9768
 30
0.0
 11
175.02
 21
85.9772
 31
0.0
  0
LINE
  8
0
 62
     0
 10
175.02
 20
85.9772
 30
0.0
 11
175.821
 21
85.9772
 31
0.0
  0
LINE
  8
0
 62
     0
 10
175.821
 20
85.9772
 30
0.0
 11
175.821
 21
89.0778
 31
0.0
  0
LINE
  8
0
 62
     0
 10
175.821
 20
89.0778
 30
0.0
 11
175.02
 21
89.0778
 31
0.0
  0
LINE
  8
0
 62
     0
 10
175.02
 20
89.0778
 30
0.0
 11
175.02
 21
94.8764
 31
0.0
  0
LINE
  8
0
 62
     0
 10
175.02
 20
94.8764
 30
0.0
 11
175.821
 21
94.8764
 31
0.0
  0
LINE
  8
0
 62
     0
 10
175.821
 20
94.8764
 30
0.0
 11
175.821
 21
97.977
 31
0.0
  0
LINE
  8
0
 62
     0
 10
175.821
 20
97.977
 30
0.0
 11
175.02
 21
97.977
 31
0.0
  0
LINE
  8
0
 62
     0
 10
175.02
 20
97.977
 30
0.0
 11
175.02
 21
98.9775
 31
0.0
  0
LINE
  8
0
 62
     0
 10
175.02
 20
98.9775
 30
0.0
 11
161.021
 21
98.9775
 31
0.0
  0
LINE
  8
0
 62
     0
 10
141.971
 20
98.9775
 30
0.0
 11
141.971
 21
97.977
 31
0.0
  0
LINE
  8
0
 62
     0
 10
141.971
 20
97.977
 30
0.0
 11
141.17
 21
97.977
 31
0.0
  0
LINE
  8
0
 62
     0
 10
141.17
 20
97.977
 30
0.0
 11
141.17
 21
94.8764
 31
0.0
  0
LINE
  8
0
 62
     0
 10
141.17
 20
94.8764
 30
0.0
 11
141.971
 21
94.8764
 31
0.0
  0
LINE
  8
0
 62
     0
 10
141.971
 20
94.8764
 30
0.0
 11
141.971
 21
89.0778
 31
0.0
  0
LINE
  8
0
 62
     0
 10
141.971
 20
89.0778
 30
0.0
 11
141.17
 21
89.0778
 31
0.0
  0
LINE
  8
0
 62
     0
 10
141.17
 20
89.0778
 30
0.0
 11
141.17
 21
85.9772
 31
0.0
  0
LINE
  8
0
 62
     0
 10
141.17
 20
85.9772
 30
0.0
 11
141.971
 21
85.9772
 31
0.0
  0
LINE
  8
0
 62
     0
 10
141.971
 20
85.9772
 30
0.0
 11
141.971
 21
84.9768
 31
0.0
  0
LINE
  8
0
 62
     0
 10
141.971
 20
84.9768
 30
0.0
 11
155.97
 21
84.9768
 31
0.0
  0
LINE
  8
0
 62
     0
 10
155.97
 20
84.9768
 30
0.0
 11
155.97
 21
85.9772
 31
0.0
  0
LINE
  8
0
 62
     0
 10
155.97
 20
85.9772
 30
0.0
 11
156.771
 21
85.9772
 31
0.0
  0
LINE
  8
0
 62
     0
 10
156.771
 20
85.9772
 30
0.0
 11
156.771
 21
89.0778
 31
0.0
  0
LINE
  8
0
 62
     0
 10
156.771
 20
89.0778
 30
0.0
 11
155.97
 21
89.0778
 31
0.0
  0
LINE
  8
0
 62
     0
 10
155.97
 20
89.0778
 30
0.0
 11
155.97
 21
94.8764
 31
0.0
  0
LINE
  8
0
 62
     0
 10
155.97
 20
94.8764
 30
0.0
 11
156.771
 21
94.8764
 31
0.0
  0
LINE
  8
0
 62
     0
 10
156.771
 20
94.8764
 30
0.0
 11
156.771
 21
97.977
 31
0.0
  0
LINE
  8
0
 62
     0
 10
156.771
 20
97.977
 30
0.0
 11
155.97
 21
97.977
 31
0.0
  0
LINE
  8
0
 62
     0
 10
155.97
 20
97.977
 30
0.0
 11
155.97
 21
98.9775
 31
0.0
  0
LINE
  8
0
 62
     0
 10
155.97
 20
98.9775
 30
0.0
 11
141.971
 21
98.9775
 31
0.0
  0
LINE
  8
0
 62
     0
 10
122.92
 20
98.9775
 30
0.0
 11
122.92
 21
97.977
 31
0.0
  0
LINE
  8
0
 62
     0
 10
122.92
 20
97.977
 30
0.0
 11
122.119
 21
97.977
 31
0.0
  0
LINE
  8
0
 62
     0
 10
122.119
 20
97.977
 30
0.0
 11
122.119
 21
94.8764
 31
0.0
  0
LINE
  8
0
 62
     0
 10
122.119
 20
94.8764
 30
0.0
 11
122.92
 21
94.8764
 31
0.0
  0
LINE
  8
0
 62
     0
 10
122.92
 20
94.8764
 30
0.0
 11
122.92
 21
89.0778
 31
0.0
  0
LINE
  8
0
 62
     0
 10
122.92
 20
89.0778
 30
0.0
 11
122.119
 21
89.0778
 31
0.0
  0
LINE
  8
0
 62
     0
 10
122.119
 20
89.0778
 30
0.0
 11
122.119
 21
85.9772
 31
0.0
  0
LINE
  8
0
 62
     0
 10
122.119
 20
85.9772
 30
0.0
 11
122.92
 21
85.9772
 31
0.0
  0
LINE
  8
0
 62
     0
 10
122.92
 20
85.9772
 30
0.0
 11
122.92
 21
84.9768
 31
0.0
  0
LINE
  8
0
 62
     0
 10
122.92
 20
84.9768
 30
0.0
 11
136.92
 21
84.9768
 31
0.0
  0
LINE
  8
0
 62
     0
 10
136.92
 20
84.9768
 30
0.0
 11
136.92
 21
85.9772
 31
0.0
  0
LINE
  8
0
 62
     0
 10
136.92
 20
85.9772
 30
0.0
 11
137.721
 21
85.9772
 31
0.0
  0
LINE
  8
0
 62
     0
 10
137.721
 20
85.9772
 30
0.0
 11
137.721
 21
89.0778
 31
0.0
  0
LINE
  8
0
 62
     0
 10
137.721
 20
89.0778
 30
0.0
 11
136.92
 21
89.0778
 31
0.0
  0
LINE
  8
0
 62
     0
 10
136.92
 20
89.0778
 30
0.0
 11
136.92
 21
94.8764
 31
0.0
  0
LINE
  8
0
 62
     0
 10
136.92
 20
94.8764
 30
0.0
 11
137.721
 21
94.8764
 31
0.0
  0
LINE
  8
0
 62
     0
 10
137.721
 20
94.8764
 30
0.0
 11
137.721
 21
97.977
 31
0.0
  0
LINE
  8
0
 62
     0
 10
137.721
 20
97.977
 30
0.0
 11
136.92
 21
97.977
 31
0.0
  0
LINE
  8
0
 62
     0
 10
136.92
 20
97.977
 30
0.0
 11
136.92
 21
98.9775
 31
0.0
  0
LINE
  8
0
 62
     0
 10
136.92
 20
98.9775
 30
0.0
 11
122.92
 21
98.9775
 31
0.0
  0
LINE
  8
0
 62
     0
 10
103.87
 20
98.9775
 30
0.0
 11
103.87
 21
97.977
 31
0.0
  0
LINE
  8
0
 62
     0
 10
103.87
 20
97.977
 30
0.0
 11
103.07
 21
97.977
 31
0.0
  0
LINE
  8
0
 62
     0
 10
103.07
 20
97.977
 30
0.0
 11
103.07
 21
94.8764
 31
0.0
  0
LINE
  8
0
 62
     0
 10
103.07
 20
94.8764
 30
0.0
 11
103.87
 21
94.8764
 31
0.0
  0
LINE
  8
0
 62
     0
 10
103.87
 20
94.8764
 30
0.0
 11
103.87
 21
89.0778
 31
0.0
  0
LINE
  8
0
 62
     0
 10
103.87
 20
89.0778
 30
0.0
 11
103.07
 21
89.0778
 31
0.0
  0
LINE
  8
0
 62
     0
 10
103.07
 20
89.0778
 30
0.0
 11
103.07
 21
85.9772
 31
0.0
  0
LINE
  8
0
 62
     0
 10
103.07
 20
85.9772
 30
0.0
 11
103.87
 21
85.9772
 31
0.0
  0
LINE
  8
0
 62
     0
 10
103.87
 20
85.9772
 30
0.0
 11
103.87
 21
84.9768
 31
0.0
  0
LINE
  8
0
 62
     0
 10
103.87
 20
84.9768
 30
0.0
 11
117.869
 21
84.9768
 31
0.0
  0
LINE
  8
0
 62
     0
 10
117.869
 20
84.9768
 30
0.0
 11
117.869
 21
85.9772
 31
0.0
  0
LINE
  8
0
 62
     0
 10
117.869
 20
85.9772
 30
0.0
 11
118.67
 21
85.9772
 31
0.0
  0
LINE
  8
0
 62
     0
 10
118.67
 20
85.9772
 30
0.0
 11
118.67
 21
89.0778
 31
0.0
  0
LINE
  8
0
 62
     0
 10
118.67
 20
89.0778
 30
0.0
 11
117.869
 21
89.0778
 31
0.0
  0
LINE
  8
0
 62
     0
 10
117.869
 20
89.0778
 30
0.0
 11
117.869
 21
94.8764
 31
0.0
  0
LINE
  8
0
 62
     0
 10
117.869
 20
94.8764
 30
0.0
 11
118.67
 21
94.8764
 31
0.0
  0
LINE
  8
0
 62
     0
 10
118.67
 20
94.8764
 30
0.0
 11
118.67
 21
97.977
 31
0.0
  0
LINE
  8
0
 62
     0
 10
118.67
 20
97.977
 30
0.0
 11
117.869
 21
97.977
 31
0.0
  0
LINE
  8
0
 62
     0
 10
117.869
 20
97.977
 30
0.0
 11
117.869
 21
98.9775
 31
0.0
  0
LINE
  8
0
 62
     0
 10
117.869
 20
98.9775
 30
0.0
 11
103.87
 21
98.9775
 31
0.0
  0
LINE
  8
0
 62
     0
 10
84.8212
 20
98.9775
 30
0.0
 11
84.8212
 21
97.977
 31
0.0
  0
LINE
  8
0
 62
     0
 10
84.8212
 20
97.977
 30
0.0
 11
84.0204
 21
97.977
 31
0.0
  0
LINE
  8
0
 62
     0
 10
84.0204
 20
97.977
 30
0.0
 11
84.0204
 21
94.8764
 31
0.0
  0
LINE
  8
0
 62
     0
 10
84.0204
 20
94.8764
 30
0.0
 11
84.8212
 21
94.8764
 31
0.0
  0
LINE
  8
0
 62
     0
 10
84.8212
 20
94.8764
 30
0.0
 11
84.8212
 21
89.0778
 31
0.0
  0
LINE
  8
0
 62
     0
 10
84.8212
 20
89.0778
 30
0.0
 11
84.0204
 21
89.0778
 31
0.0
  0
LINE
  8
0
 62
     0
 10
84.0204
 20
89.0778
 30
0.0
 11
84.0204
 21
85.9772
 31
0.0
  0
LINE
  8
0
 62
     0
 10
84.0204
 20
85.9772
 30
0.0
 11
84.8212
 21
85.9772
 31
0.0
  0
LINE
  8
0
 62
     0
 10
84.8212
 20
85.9772
 30
0.0
 11
84.8212
 21
84.9768
 31
0.0
  0
LINE
  8
0
 62
     0
 10
84.8212
 20
84.9768
 30
0.0
 11
98.8205
 21
84.9768
 31
0.0
  0
LINE
  8
0
 62
     0
 10
98.8205
 20
84.9768
 30
0.0
 11
98.8205
 21
85.9772
 31
0.0
  0
LINE
  8
0
 62
     0
 10
98.8205
 20
85.9772
 30
0.0
 11
99.6199
 21
85.9772
 31
0.0
  0
LINE
  8
0
 62
     0
 10
99.6199
 20
85.9772
 30
0.0
 11
99.6199
 21
89.0778
 31
0.0
  0
LINE
  8
0
 62
     0
 10
99.6199
 20
89.0778
 30
0.0
 11
98.8205
 21
89.0778
 31
0.0
  0
LINE
  8
0
 62
     0
 10
98.8205
 20
89.0778
 30
0.0
 11
98.8205
 21
94.8764
 31
0.0
  0
LINE
  8
0
 62
     0
 10
98.8205
 20
94.8764
 30
0.0
 11
99.6199
 21
94.8764
 31
0.0
  0
LINE
  8
0
 62
     0
 10
99.6199
 20
94.8764
 30
0.0
 11
99.6199
 21
97.977
 31
0.0
  0
LINE
  8
0
 62
     0
 10
99.6199
 20
97.977
 30
0.0
 11
98.8205
 21
97.977
 31
0.0
  0
LINE
  8
0
 62
     0
 10
98.8205
 20
97.977
 30
0.0
 11
98.8205
 21
98.9775
 31
0.0
  0
LINE
  8
0
 62
     0
 10
98.8205
 20
98.9775
 30
0.0
 11
84.8212
 21
98.9775
 31
0.0
  0
LINE
  8
0
 62
     0
 10
65.7712
 20
98.9775
 30
0.0
 11
65.7712
 21
97.977
 31
0.0
  0
LINE
  8
0
 62
     0
 10
65.7712
 20
97.977
 30
0.0
 11
64.9704
 21
97.977
 31
0.0
  0
LINE
  8
0
 62
     0
 10
64.9704
 20
97.977
 30
0.0
 11
64.9704
 21
94.8764
 31
0.0
  0
LINE
  8
0
 62
     0
 10
64.9704
 20
94.8764
 30
0.0
 11
65.7712
 21
94.8764
 31
0.0
  0
LINE
  8
0
 62
     0
 10
65.7712
 20
94.8764
 30
0.0
 11
65.7712
 21
89.0778
 31
0.0
  0
LINE
  8
0
 62
     0
 10
65.7712
 20
89.0778
 30
0.0
 11
64.9704
 21
89.0778
 31
0.0
  0
LINE
  8
0
 62
     0
 10
64.9704
 20
89.0778
 30
0.0
 11
64.9704
 21
85.9772
 31
0.0
  0
LINE
  8
0
 62
     0
 10
64.9704
 20
85.9772
 30
0.0
 11
65.7712
 21
85.9772
 31
0.0
  0
LINE
  8
0
 62
     0
 10
65.7712
 20
85.9772
 30
0.0
 11
65.7712
 21
84.9768
 31
0.0
  0
LINE
  8
0
 62
     0
 10
65.7712
 20
84.9768
 30
0.0
 11
79.7705
 21
84.9768
 31
0.0
  0
LINE
  8
0
 62
     0
 10
79.7705
 20
84.9768
 30
0.0
 11
79.7705
 21
85.9772
 31
0.0
  0
LINE
  8
0
 62
     0
 10
79.7705
 20
85.9772
 30
0.0
 11
80.5713
 21
85.9772
 31
0.0
  0
LINE
  8
0
 62
     0
 10
80.5713
 20
85.9772
 30
0.0
 11
80.5713
 21
89.0778
 31
0.0
  0
LINE
  8
0
 62
     0
 10
80.5713
 20
89.0778
 30
0.0
 11
79.7705
 21
89.0778
 31
0.0
  0
LINE
  8
0
 62
     0
 10
79.7705
 20
89.0778
 30
0.0
 11
79.7705
 21
94.8764
 31
0.0
  0
LINE
  8
0
 62
     0
 10
79.7705
 20
94.8764
 30
0.0
 11
80.5713
 21
94.8764
 31
0.0
  0
LINE
  8
0
 62
     0
 10
80.5713
 20
94.8764
 30
0.0
 11
80.5713
 21
97.977
 31
0.0
  0
LINE
  8
0
 62
     0
 10
80.5713
 20
97.977
 30
0.0
 11
79.7705
 21
97.977
 31
0.0
  0
LINE
  8
0
 62
     0
 10
79.7705
 20
97.977
 30
0.0
 11
79.7705
 21
98.9775
 31
0.0
  0
LINE
  8
0
 62
     0
 10
79.7705
 20
98.9775
 30
0.0
 11
65.7712
 21
98.9775
 31
0.0
  0
LINE
  8
0
 62
     0
 10
46.7212
 20
98.9775
 30
0.0
 11
46.7212
 21
97.977
 31
0.0
  0
LINE
  8
0
 62
     0
 10
46.7212
 20
97.977
 30
0.0
 11
45.9204
 21
97.977
 31
0.0
  0
LINE
  8
0
 62
     0
 10
45.9204
 20
97.977
 30
0.0
 11
45.9204
 21
94.8764
 31
0.0
  0
LINE
  8
0
 62
     0
 10
45.9204
 20
94.8764
 30
0.0
 11
46.7212
 21
94.8764
 31
0.0
  0
LINE
  8
0
 62
     0
 10
46.7212
 20
94.8764
 30
0.0
 11
46.7212
 21
89.0778
 31
0.0
  0
LINE
  8
0
 62
     0
 10
46.7212
 20
89.0778
 30
0.0
 11
45.9204
 21
89.0778
 31
0.0
  0
LINE
  8
0
 62
     0
 10
45.9204
 20
89.0778
 30
0.0
 11
45.9204
 21
85.9772
 31
0.0
  0
LINE
  8
0
 62
     0
 10
45.9204
 20
85.9772
 30
0.0
 11
46.7212
 21
85.9772
 31
0.0
  0
LINE
  8
0
 62
     0
 10
46.7212
 20
85.9772
 30
0.0
 11
46.7212
 21
84.9768
 31
0.0
  0
LINE
  8
0
 62
     0
 10
46.7212
 20
84.9768
 30
0.0
 11
60.7205
 21
84.9768
 31
0.0
  0
LINE
  8
0
 62
     0
 10
60.7205
 20
84.9768
 30
0.0
 11
60.7205
 21
85.9772
 31
0.0
  0
LINE
  8
0
 62
     0
 10
60.7205
 20
85.9772
 30
0.0
 11
61.5213
 21
85.9772
 31
0.0
  0
LINE
  8
0
 62
     0
 10
61.5213
 20
85.9772
 30
0.0
 11
61.5213
 21
89.0778
 31
0.0
  0
LINE
  8
0
 62
     0
 10
61.5213
 20
89.0778
 30
0.0
 11
60.7205
 21
89.0778
 31
0.0
  0
LINE
  8
0
 62
     0
 10
60.7205
 20
89.0778
 30
0.0
 11
60.7205
 21
94.8764
 31
0.0
  0
LINE
  8
0
 62
     0
 10
60.7205
 20
94.8764
 30
0.0
 11
61.5213
 21
94.8764
 31
0.0
  0
LINE
  8
0
 62
     0
 10
61.5213
 20
94.8764
 30
0.0
 11
61.5213
 21
97.977
 31
0.0
  0
LINE
  8
0
 62
     0
 10
61.5213
 20
97.977
 30
0.0
 11
60.7205
 21
97.977
 31
0.0
  0
LINE
  8
0
 62
     0
 10
60.7205
 20
97.977
 30
0.0
 11
60.7205
 21
98.9775
 31
0.0
  0
LINE
  8
0
 62
     0
 10
60.7205
 20
98.9775
 30
0.0
 11
46.7212
 21
98.9775
 31
0.0
  0
LINE
  8
0
 62
     0
 10
27.671
 20
98.9775
 30
0.0
 11
27.671
 21
97.977
 31
0.0
  0
LINE
  8
0
 62
     0
 10
27.671
 20
97.977
 30
0.0
 11
26.8704
 21
97.977
 31
0.0
  0
LINE
  8
0
 62
     0
 10
26.8704
 20
97.977
 30
0.0
 11
26.8704
 21
94.8764
 31
0.0
  0
LINE
  8
0
 62
     0
 10
26.8704
 20
94.8764
 30
0.0
 11
27.671
 21
94.8764
 31
0.0
  0
LINE
  8
0
 62
     0
 10
27.671
 20
94.8764
 30
0.0
 11
27.671
 21
89.0778
 31
0.0
  0
LINE
  8
0
 62
     0
 10
27.671
 20
89.0778
 30
0.0
 11
26.8704
 21
89.0778
 31
0.0
  0
LINE
  8
0
 62
     0
 10
26.8704
 20
89.0778
 30
0.0
 11
26.8704
 21
85.9772
 31
0.0
  0
LINE
  8
0
 62
     0
 10
26.8704
 20
85.9772
 30
0.0
 11
27.671
 21
85.9772
 31
0.0
  0
LINE
  8
0
 62
     0
 10
27.671
 20
85.9772
 30
0.0
 11
27.671
 21
84.9768
 31
0.0
  0
LINE
  8
0
 62
     0
 10
27.671
 20
84.9768
 30
0.0
 11
41.6705
 21
84.9768
 31
0.0
  0
LINE
  8
0
 62
     0
 10
41.6705
 20
84.9768
 30
0.0
 11
41.6705
 21
85.9772
 31
0.0
  0
LINE
  8
0
 62
     0
 10
41.6705
 20
85.9772
 30
0.0
 11
42.4713
 21
85.9772
 31
0.0
  0
LINE
  8
0
 62
     0
 10
42.4713
 20
85.9772
 30
0.0
 11
42.4713
 21
89.0778
 31
0.0
  0
LINE
  8
0
 62
     0
 10
42.4713
 20
89.0778
 30
0.0
 11
41.6705
 21
89.0778
 31
0.0
  0
LINE
  8
0
 62
     0
 10
41.6705
 20
89.0778
 30
0.0
 11
41.6705
 21
94.8764
 31
0.0
  0
LINE
  8
0
 62
     0
 10
41.6705
 20
94.8764
 30
0.0
 11
42.4713
 21
94.8764
 31
0.0
  0
LINE
  8
0
 62
     0
 10
42.4713
 20
94.8764
 30
0.0
 11
42.4713
 21
97.977
 31
0.0
  0
LINE
  8
0
 62
     0
 10
42.4713
 20
97.977
 30
0.0
 11
41.6705
 21
97.977
 31
0.0
  0
LINE
  8
0
 62
     0
 10
41.6705
 20
97.977
 30
0.0
 11
41.6705
 21
98.9775
 31
0.0
  0
LINE
  8
0
 62
     0
 10
41.6705
 20
98.9775
 30
0.0
 11
27.671
 21
98.9775
 31
0.0
  0
LINE
  8
0
 62
     0
 10
8.61963
 20
98.9775
 30
0.0
 11
8.61963
 21
97.977
 31
0.0
  0
LINE
  8
0
 62
     0
 10
8.61963
 20
97.977
 30
0.0
 11
7.819
 21
97.977
 31
0.0
  0
LINE
  8
0
 62
     0
 10
7.819
 20
97.977
 30
0.0
 11
7.819
 21
94.8764
 31
0.0
  0
LINE
  8
0
 62
     0
 10
7.819
 20
94.8764
 30
0.0
 11
8.61963
 21
94.8764
 31
0.0
  0
LINE
  8
0
 62
     0
 10
8.61963
 20
94.8764
 30
0.0
 11
8.61963
 21
89.0778
 31
0.0
  0
LINE
  8
0
 62
     0
 10
8.61963
 20
89.0778
 30
0.0
 11
7.819
 21
89.0778
 31
0.0
  0
LINE
  8
0
 62
     0
 10
7.819
 20
89.0778
 30
0.0
 11
7.819
 21
85.9772
 31
0.0
  0
LINE
  8
0
 62
     0
 10
7.819
 20
85.9772
 30
0.0
 11
8.61963
 21
85.9772
 31
0.0
  0
LINE
  8
0
 62
     0
 10
8.61963
 20
85.9772
 30
0.0
 11
8.61963
 21
84.9768
 31
0.0
  0
LINE
  8
0
 62
     0
 10
8.61963
 20
84.9768
 30
0.0
 11
22.6205
 21
84.9768
 31
0.0
  0
LINE
  8
0
 62
     0
 10
22.6205
 20
84.9768
 30
0.0
 11
22.6205
 21
85.9772
 31
0.0
  0
LINE
  8
0
 62
     0
 10
22.6205
 20
85.9772
 30
0.0
 11
23.4211
 21
85.9772
 31
0.0
  0
LINE
  8
0
 62
     0
 10
23.4211
 20
85.9772
 30
0.0
 11
23.4211
 21
89.0778
 31
0.0
  0
LINE
  8
0
 62
     0
 10
23.4211
 20
89.0778
 30
0.0
 11
22.6205
 21
89.0778
 31
0.0
  0
LINE
  8
0
 62
     0
 10
22.6205
 20
89.0778
 30
0.0
 11
22.6205
 21
94.8764
 31
0.0
  0
LINE
  8
0
 62
     0
 10
22.6205
 20
94.8764
 30
0.0
 11
23.4211
 21
94.8764
 31
0.0
  0
LINE
  8
0
 62
     0
 10
23.4211
 20
94.8764
 30
0.0
 11
23.4211
 21
97.977
 31
0.0
  0
LINE
  8
0
 62
     0
 10
23.4211
 20
97.977
 30
0.0
 11
22.6205
 21
97.977
 31
0.0
  0
LINE
  8
0
 62
     0
 10
22.6205
 20
97.977
 30
0.0
 11
22.6205
 21
98.9775
 31
0.0
  0
LINE
  8
0
 62
     0
 10
22.6205
 20
98.9775
 30
0.0
 11
8.61963
 21
98.9775
 31
0.0
  0
LINE
  8
0
 62
     0
 10
2.60036
 20
106.023
 30
0.0
 11
2.15387
 21
105.796
 31
0.0
  0
LINE
  8
0
 62
     0
 10
2.15387
 20
105.796
 30
0.0
 11
1.8011
 21
105.444
 31
0.0
  0
LINE
  8
0
 62
     0
 10
1.8011
 20
105.444
 30
0.0
 11
1.57372
 21
104.997
 31
0.0
  0
LINE
  8
0
 62
     0
 10
1.57372
 20
104.997
 30
0.0
 11
1.49517
 21
104.502
 31
0.0
  0
LINE
  8
0
 62
     0
 10
1.49517
 20
104.502
 30
0.0
 11
1.57372
 21
104.007
 31
0.0
  0
LINE
  8
0
 62
     0
 10
1.57372
 20
104.007
 30
0.0
 11
1.8011
 21
103.562
 31
0.0
  0
LINE
  8
0
 62
     0
 10
1.8011
 20
103.562
 30
0.0
 11
2.15387
 21
103.208
 31
0.0
  0
LINE
  8
0
 62
     0
 10
2.15387
 20
103.208
 30
0.0
 11
2.60036
 21
102.981
 31
0.0
  0
LINE
  8
0
 62
     0
 10
2.60036
 20
102.981
 30
0.0
 11
3.09507
 21
102.902
 31
0.0
  0
LINE
  8
0
 62
     0
 10
3.09507
 20
102.902
 30
0.0
 11
3.5898
 21
102.981
 31
0.0
  0
LINE
  8
0
 62
     0
 10
3.5898
 20
102.981
 30
0.0
 11
4.0349
 21
103.208
 31
0.0
  0
LINE
  8
0
 62
     0
 10
4.0349
 20
103.208
 30
0.0
 11
4.38905
 21
103.562
 31
0.0
  0
LINE
  8
0
 62
     0
 10
4.38905
 20
103.562
 30
0.0
 11
4.61641
 21
104.007
 31
0.0
  0
LINE
  8
0
 62
     0
 10
4.61641
 20
104.007
 30
0.0
 11
4.69498
 21
104.502
 31
0.0
  0
LINE
  8
0
 62
     0
 10
4.69498
 20
104.502
 30
0.0
 11
4.61641
 21
104.997
 31
0.0
  0
LINE
  8
0
 62
     0
 10
4.61641
 20
104.997
 30
0.0
 11
4.38905
 21
105.444
 31
0.0
  0
LINE
  8
0
 62
     0
 10
4.38905
 20
105.444
 30
0.0
 11
4.0349
 21
105.796
 31
0.0
  0
LINE
  8
0
 62
     0
 10
4.0349
 20
105.796
 30
0.0
 11
3.5898
 21
106.023
 31
0.0
  0
LINE
  8
0
 62
     0
 10
3.5898
 20
106.023
 30
0.0
 11
3.09507
 21
106.102
 31
0.0
  0
LINE
  8
0
 62
     0
 10
3.09507
 20
106.102
 30
0.0
 11
2.60036
 21
106.023
 31
0.0
  0
LINE
  8
0
 62
     0
 10
237.202
 20
106.023
 30
0.0
 11
236.755
 21
105.796
 31
0.0
  0
LINE
  8
0
 62
     0
 10
236.755
 20
105.796
 30
0.0
 11
236.401
 21
105.444
 31
0.0
  0
LINE
  8
0
 62
     0
 10
236.401
 20
105.444
 30
0.0
 11
236.175
 21
104.997
 31
0.0
  0
LINE
  8
0
 62
     0
 10
236.175
 20
104.997
 30
0.0
 11
236.097
 21
104.502
 31
0.0
  0
LINE
  8
0
 62
     0
 10
236.097
 20
104.502
 30
0.0
 11
236.175
 21
104.007
 31
0.0
  0
LINE
  8
0
 62
     0
 10
236.175
 20
104.007
 30
0.0
 11
236.401
 21
103.562
 31
0.0
  0
LINE
  8
0
 62
     0
 10
236.401
 20
103.562
 30
0.0
 11
236.755
 21
103.208
 31
0.0
  0
LINE
  8
0
 62
     0
 10
236.755
 20
103.208
 30
0.0
 11
237.202
 21
102.981
 31
0.0
  0
LINE
  8
0
 62
     0
 10
237.202
 20
102.981
 30
0.0
 11
237.696
 21
102.902
 31
0.0
  0
LINE
  8
0
 62
     0
 10
237.696
 20
102.902
 30
0.0
 11
238.191
 21
102.981
 31
0.0
  0
LINE
  8
0
 62
     0
 10
238.191
 20
102.981
 30
0.0
 11
238.636
 21
103.208
 31
0.0
  0
LINE
  8
0
 62
     0
 10
238.636
 20
103.208
 30
0.0
 11
238.99
 21
103.562
 31
0.0
  0
LINE
  8
0
 62
     0
 10
238.99
 20
103.562
 30
0.0
 11
239.218
 21
104.007
 31
0.0
  0
LINE
  8
0
 62
     0
 10
239.218
 20
104.007
 30
0.0
 11
239.296
 21
104.502
 31
0.0
  0
LINE
  8
0
 62
     0
 10
239.296
 20
104.502
 30
0.0
 11
239.218
 21
104.997
 31
0.0
  0
LINE
  8
0
 62
     0
 10
239.218
 20
104.997
 30
0.0
 11
238.99
 21
105.444
 31
0.0
  0
LINE
  8
0
 62
     0
 10
238.99
 20
105.444
 30
0.0
 11
238.636
 21
105.796
 31
0.0
  0
LINE
  8
0
 62
     0
 10
238.636
 20
105.796
 30
0.0
 11
238.191
 21
106.023
 31
0.0
  0
LINE
  8
0
 62
     0
 10
238.191
 20
106.023
 30
0.0
 11
237.696
 21
106.102
 31
0.0
  0
LINE
  8
0
 62
     0
 10
237.696
 20
106.102
 30
0.0
 11
237.202
 21
106.023
 31
0.0
  0
LINE
  8
0
 62
     0
 10
159.001
 20
106.023
 30
0.0
 11
158.556
 21
105.796
 31
0.0
  0
LINE
  8
0
 62
     0
 10
158.556
 20
105.796
 30
0.0
 11
158.201
 21
105.444
 31
0.0
  0
LINE
  8
0
 62
     0
 10
158.201
 20
105.444
 30
0.0
 11
157.974
 21
104.997
 31
0.0
  0
LINE
  8
0
 62
     0
 10
157.974
 20
104.997
 30
0.0
 11
157.896
 21
104.502
 31
0.0
  0
LINE
  8
0
 62
     0
 10
157.896
 20
104.502
 30
0.0
 11
157.974
 21
104.007
 31
0.0
  0
LINE
  8
0
 62
     0
 10
157.974
 20
104.007
 30
0.0
 11
158.201
 21
103.562
 31
0.0
  0
LINE
  8
0
 62
     0
 10
158.201
 20
103.562
 30
0.0
 11
158.556
 21
103.208
 31
0.0
  0
LINE
  8
0
 62
     0
 10
158.556
 20
103.208
 30
0.0
 11
159.001
 21
102.981
 31
0.0
  0
LINE
  8
0
 62
     0
 10
159.001
 20
102.981
 30
0.0
 11
159.495
 21
102.902
 31
0.0
  0
LINE
  8
0
 62
     0
 10
159.495
 20
102.902
 30
0.0
 11
159.99
 21
102.981
 31
0.0
  0
LINE
  8
0
 62
     0
 10
159.99
 20
102.981
 30
0.0
 11
160.437
 21
103.208
 31
0.0
  0
LINE
  8
0
 62
     0
 10
160.437
 20
103.208
 30
0.0
 11
160.791
 21
103.562
 31
0.0
  0
LINE
  8
0
 62
     0
 10
160.791
 20
103.562
 30
0.0
 11
161.017
 21
104.007
 31
0.0
  0
LINE
  8
0
 62
     0
 10
161.017
 20
104.007
 30
0.0
 11
161.095
 21
104.502
 31
0.0
  0
LINE
  8
0
 62
     0
 10
161.095
 20
104.502
 30
0.0
 11
161.017
 21
104.997
 31
0.0
  0
LINE
  8
0
 62
     0
 10
161.017
 20
104.997
 30
0.0
 11
160.791
 21
105.444
 31
0.0
  0
LINE
  8
0
 62
     0
 10
160.791
 20
105.444
 30
0.0
 11
160.437
 21
105.796
 31
0.0
  0
LINE
  8
0
 62
     0
 10
160.437
 20
105.796
 30
0.0
 11
159.99
 21
106.023
 31
0.0
  0
LINE
  8
0
 62
     0
 10
159.99
 20
106.023
 30
0.0
 11
159.495
 21
106.102
 31
0.0
  0
LINE
  8
0
 62
     0
 10
159.495
 20
106.102
 30
0.0
 11
159.001
 21
106.023
 31
0.0
  0
LINE
  8
0
 62
     0
 10
80.7999
 20
106.023
 30
0.0
 11
80.3547
 21
105.796
 31
0.0
  0
LINE
  8
0
 62
     0
 10
80.3547
 20
105.796
 30
0.0
 11
80.0005
 21
105.444
 31
0.0
  0
LINE
  8
0
 62
     0
 10
80.0005
 20
105.444
 30
0.0
 11
79.7733
 21
104.997
 31
0.0
  0
LINE
  8
0
 62
     0
 10
79.7733
 20
104.997
 30
0.0
 11
79.696
 21
104.502
 31
0.0
  0
LINE
  8
0
 62
     0
 10
79.696
 20
104.502
 30
0.0
 11
79.7733
 21
104.007
 31
0.0
  0
LINE
  8
0
 62
     0
 10
79.7733
 20
104.007
 30
0.0
 11
80.0005
 21
103.562
 31
0.0
  0
LINE
  8
0
 62
     0
 10
80.0005
 20
103.562
 30
0.0
 11
80.3547
 21
103.208
 31
0.0
  0
LINE
  8
0
 62
     0
 10
80.3547
 20
103.208
 30
0.0
 11
80.7999
 21
102.981
 31
0.0
  0
LINE
  8
0
 62
     0
 10
80.7999
 20
102.981
 30
0.0
 11
81.2959
 21
102.902
 31
0.0
  0
LINE
  8
0
 62
     0
 10
81.2959
 20
102.902
 30
0.0
 11
81.7894
 21
102.981
 31
0.0
  0
LINE
  8
0
 62
     0
 10
81.7894
 20
102.981
 30
0.0
 11
82.2357
 21
103.208
 31
0.0
  0
LINE
  8
0
 62
     0
 10
82.2357
 20
103.208
 30
0.0
 11
82.5899
 21
103.562
 31
0.0
  0
LINE
  8
0
 62
     0
 10
82.5899
 20
103.562
 30
0.0
 11
82.8174
 21
104.007
 31
0.0
  0
LINE
  8
0
 62
     0
 10
82.8174
 20
104.007
 30
0.0
 11
82.8957
 21
104.502
 31
0.0
  0
LINE
  8
0
 62
     0
 10
82.8957
 20
104.502
 30
0.0
 11
82.8174
 21
104.997
 31
0.0
  0
LINE
  8
0
 62
     0
 10
82.8174
 20
104.997
 30
0.0
 11
82.5899
 21
105.444
 31
0.0
  0
LINE
  8
0
 62
     0
 10
82.5899
 20
105.444
 30
0.0
 11
82.2357
 21
105.796
 31
0.0
  0
LINE
  8
0
 62
     0
 10
82.2357
 20
105.796
 30
0.0
 11
81.7894
 21
106.023
 31
0.0
  0
LINE
  8
0
 62
     0
 10
81.7894
 20
106.023
 30
0.0
 11
81.2959
 21
106.102
 31
0.0
  0
LINE
  8
0
 62
     0
 10
81.2959
 20
106.102
 30
0.0
 11
80.7999
 21
106.023
 31
0.0
  0
ENDSEC
  0
EOF
